G04 #@! TF.GenerationSoftware,KiCad,Pcbnew,5.0.2+dfsg1-1~bpo9+1*
G04 #@! TF.CreationDate,2021-06-17T18:16:35-03:00*
G04 #@! TF.ProjectId,minilab,6d696e69-6c61-4622-9e6b-696361645f70,rev?*
G04 #@! TF.SameCoordinates,Original*
G04 #@! TF.FileFunction,Copper,L1,Top*
G04 #@! TF.FilePolarity,Positive*
%FSLAX46Y46*%
G04 Gerber Fmt 4.6, Leading zero omitted, Abs format (unit mm)*
G04 Created by KiCad (PCBNEW 5.0.2+dfsg1-1~bpo9+1) date jue 17 jun 2021 18:16:35 -03*
%MOMM*%
%LPD*%
G01*
G04 APERTURE LIST*
G04 #@! TA.AperFunction,ComponentPad*
%ADD10O,1.727200X1.727200*%
G04 #@! TD*
G04 #@! TA.AperFunction,ComponentPad*
%ADD11O,1.700000X1.700000*%
G04 #@! TD*
G04 #@! TA.AperFunction,ComponentPad*
%ADD12R,1.700000X1.700000*%
G04 #@! TD*
G04 #@! TA.AperFunction,ComponentPad*
%ADD13C,2.340000*%
G04 #@! TD*
G04 #@! TA.AperFunction,ComponentPad*
%ADD14R,2.400000X1.600000*%
G04 #@! TD*
G04 #@! TA.AperFunction,ComponentPad*
%ADD15O,2.400000X1.600000*%
G04 #@! TD*
G04 #@! TA.AperFunction,ComponentPad*
%ADD16R,1.600000X1.600000*%
G04 #@! TD*
G04 #@! TA.AperFunction,ComponentPad*
%ADD17O,1.600000X1.600000*%
G04 #@! TD*
G04 #@! TA.AperFunction,ComponentPad*
%ADD18C,1.300000*%
G04 #@! TD*
G04 #@! TA.AperFunction,ComponentPad*
%ADD19R,1.300000X1.300000*%
G04 #@! TD*
G04 #@! TA.AperFunction,ComponentPad*
%ADD20C,1.600000*%
G04 #@! TD*
G04 #@! TA.AperFunction,ComponentPad*
%ADD21R,1.800000X1.800000*%
G04 #@! TD*
G04 #@! TA.AperFunction,ComponentPad*
%ADD22C,1.800000*%
G04 #@! TD*
G04 #@! TA.AperFunction,ComponentPad*
%ADD23C,2.000000*%
G04 #@! TD*
G04 #@! TA.AperFunction,ComponentPad*
%ADD24O,1.899920X1.501140*%
G04 #@! TD*
G04 #@! TA.AperFunction,Conductor*
%ADD25C,0.750000*%
G04 #@! TD*
G04 #@! TA.AperFunction,Conductor*
%ADD26C,0.500000*%
G04 #@! TD*
G04 APERTURE END LIST*
D10*
G04 #@! TO.P,XA1,RST2*
G04 #@! TO.N,N/C*
X163397001Y-94245501D03*
G04 #@! TO.P,XA1,GND4*
X165937001Y-94245501D03*
G04 #@! TO.P,XA1,MOSI*
X165937001Y-91705501D03*
G04 #@! TO.P,XA1,SCK*
X163397001Y-91705501D03*
G04 #@! TO.P,XA1,5V2*
X165937001Y-89165501D03*
G04 #@! TO.P,XA1,A0*
G04 #@! TO.N,/LM35*
X150570001Y-117105501D03*
G04 #@! TO.P,XA1,VIN*
G04 #@! TO.N,N/C*
X145490001Y-117105501D03*
G04 #@! TO.P,XA1,GND3*
G04 #@! TO.N,GND*
X142950001Y-117105501D03*
G04 #@! TO.P,XA1,GND2*
X140410001Y-117105501D03*
G04 #@! TO.P,XA1,5V1*
G04 #@! TO.N,+5V*
X137870001Y-117105501D03*
G04 #@! TO.P,XA1,3V3*
G04 #@! TO.N,N/C*
X135330001Y-117105501D03*
G04 #@! TO.P,XA1,RST1*
X132790001Y-117105501D03*
G04 #@! TO.P,XA1,IORF*
X130250001Y-117105501D03*
G04 #@! TO.P,XA1,D0*
G04 #@! TO.N,Net-(J8-Pad1)*
X163270001Y-68845501D03*
G04 #@! TO.P,XA1,D1*
G04 #@! TO.N,Net-(J8-Pad2)*
X160730001Y-68845501D03*
G04 #@! TO.P,XA1,D2*
G04 #@! TO.N,/SW1*
X158190001Y-68845501D03*
G04 #@! TO.P,XA1,D3*
G04 #@! TO.N,/SW2*
X155650001Y-68845501D03*
G04 #@! TO.P,XA1,D4*
G04 #@! TO.N,/SW3*
X153110001Y-68845501D03*
G04 #@! TO.P,XA1,D5*
G04 #@! TO.N,/SW4*
X150570001Y-68845501D03*
G04 #@! TO.P,XA1,D6*
G04 #@! TO.N,/LED4*
X148030001Y-68845501D03*
G04 #@! TO.P,XA1,D7*
G04 #@! TO.N,/LED3*
X145490001Y-68845501D03*
G04 #@! TO.P,XA1,GND1*
G04 #@! TO.N,GND*
X126186001Y-68845501D03*
G04 #@! TO.P,XA1,D8*
G04 #@! TO.N,/LED2*
X141426001Y-68845501D03*
G04 #@! TO.P,XA1,D9*
G04 #@! TO.N,/LED1*
X138886001Y-68845501D03*
G04 #@! TO.P,XA1,D10*
G04 #@! TO.N,/PUSH1*
X136346001Y-68845501D03*
G04 #@! TO.P,XA1,SCL*
G04 #@! TO.N,N/C*
X118566001Y-68845501D03*
G04 #@! TO.P,XA1,SDA*
X121106001Y-68845501D03*
G04 #@! TO.P,XA1,AREF*
X123646001Y-68845501D03*
G04 #@! TO.P,XA1,D13*
G04 #@! TO.N,/D13*
X128726001Y-68845501D03*
G04 #@! TO.P,XA1,D12*
G04 #@! TO.N,/D12*
X131266001Y-68845501D03*
G04 #@! TO.P,XA1,D11*
G04 #@! TO.N,/PUSH2*
X133806001Y-68845501D03*
G04 #@! TO.P,XA1,*
G04 #@! TO.N,*
X127710001Y-117105501D03*
G04 #@! TO.P,XA1,A1*
G04 #@! TO.N,/POT*
X153110001Y-117105501D03*
G04 #@! TO.P,XA1,A2*
G04 #@! TO.N,N/C*
X155650001Y-117105501D03*
G04 #@! TO.P,XA1,A3*
X158190001Y-117105501D03*
G04 #@! TO.P,XA1,A4*
X160730001Y-117105501D03*
G04 #@! TO.P,XA1,A5*
X163270001Y-117105501D03*
G04 #@! TO.P,XA1,MISO*
X163397001Y-89165501D03*
G04 #@! TD*
D11*
G04 #@! TO.P,J5,8*
G04 #@! TO.N,/D13*
X107090000Y-70970000D03*
G04 #@! TO.P,J5,7*
G04 #@! TO.N,N/C*
X104550000Y-70970000D03*
G04 #@! TO.P,J5,6*
G04 #@! TO.N,/D12*
X107090000Y-68430000D03*
G04 #@! TO.P,J5,5*
G04 #@! TO.N,N/C*
X104550000Y-68430000D03*
G04 #@! TO.P,J5,4*
G04 #@! TO.N,/PUSH2*
X107090000Y-65890000D03*
G04 #@! TO.P,J5,3*
G04 #@! TO.N,Net-(C3-Pad1)*
X104550000Y-65890000D03*
G04 #@! TO.P,J5,2*
G04 #@! TO.N,/PUSH1*
X107090000Y-63350000D03*
D12*
G04 #@! TO.P,J5,1*
G04 #@! TO.N,Net-(C2-Pad1)*
X104550000Y-63350000D03*
G04 #@! TD*
D13*
G04 #@! TO.P,RV1,1*
G04 #@! TO.N,Net-(R3-Pad2)*
X93980000Y-96012000D03*
G04 #@! TO.P,RV1,2*
G04 #@! TO.N,/Tr*
X93980000Y-101012000D03*
G04 #@! TO.P,RV1,3*
X93980000Y-106012000D03*
G04 #@! TD*
D14*
G04 #@! TO.P,U1,1*
G04 #@! TO.N,GND*
X106680000Y-94361000D03*
D15*
G04 #@! TO.P,U1,5*
G04 #@! TO.N,Net-(C1-Pad1)*
X114300000Y-101981000D03*
G04 #@! TO.P,U1,2*
G04 #@! TO.N,/Tr*
X106680000Y-96901000D03*
G04 #@! TO.P,U1,6*
X114300000Y-99441000D03*
G04 #@! TO.P,U1,3*
G04 #@! TO.N,/Osc*
X106680000Y-99441000D03*
G04 #@! TO.P,U1,7*
G04 #@! TO.N,Net-(R3-Pad1)*
X114300000Y-96901000D03*
G04 #@! TO.P,U1,4*
G04 #@! TO.N,VCC*
X106680000Y-101981000D03*
G04 #@! TO.P,U1,8*
X114300000Y-94361000D03*
G04 #@! TD*
D16*
G04 #@! TO.P,SW3,1*
G04 #@! TO.N,Net-(JP1-Pad2)*
X151384000Y-110871000D03*
D17*
G04 #@! TO.P,SW3,5*
G04 #@! TO.N,Net-(J2-Pad4)*
X159004000Y-103251000D03*
G04 #@! TO.P,SW3,2*
G04 #@! TO.N,Net-(JP1-Pad2)*
X153924000Y-110871000D03*
G04 #@! TO.P,SW3,6*
G04 #@! TO.N,Net-(J2-Pad3)*
X156464000Y-103251000D03*
G04 #@! TO.P,SW3,3*
G04 #@! TO.N,Net-(JP1-Pad2)*
X156464000Y-110871000D03*
G04 #@! TO.P,SW3,7*
G04 #@! TO.N,Net-(J2-Pad2)*
X153924000Y-103251000D03*
G04 #@! TO.P,SW3,4*
G04 #@! TO.N,Net-(JP1-Pad2)*
X159004000Y-110871000D03*
G04 #@! TO.P,SW3,8*
G04 #@! TO.N,Net-(J2-Pad1)*
X151384000Y-103251000D03*
G04 #@! TD*
D18*
G04 #@! TO.P,U2,2*
G04 #@! TO.N,/LM35*
X133286500Y-109855000D03*
G04 #@! TO.P,U2,3*
G04 #@! TO.N,GND*
X134556500Y-111125000D03*
D19*
G04 #@! TO.P,U2,1*
G04 #@! TO.N,+5V*
X132016500Y-111125000D03*
G04 #@! TD*
D17*
G04 #@! TO.P,R7,2*
G04 #@! TO.N,Net-(J2-Pad4)*
X159004000Y-98679000D03*
D20*
G04 #@! TO.P,R7,1*
G04 #@! TO.N,Net-(JP2-Pad2)*
X159004000Y-96139000D03*
G04 #@! TD*
G04 #@! TO.P,R8,1*
G04 #@! TO.N,VCC*
X109728000Y-105473500D03*
D17*
G04 #@! TO.P,R8,2*
G04 #@! TO.N,Net-(R3-Pad1)*
X102108000Y-105473500D03*
G04 #@! TD*
D20*
G04 #@! TO.P,C1,2*
G04 #@! TO.N,GND*
X114300000Y-107910000D03*
G04 #@! TO.P,C1,1*
G04 #@! TO.N,Net-(C1-Pad1)*
X114300000Y-105410000D03*
G04 #@! TD*
G04 #@! TO.P,C2,2*
G04 #@! TO.N,GND*
X96443800Y-90790400D03*
G04 #@! TO.P,C2,1*
G04 #@! TO.N,Net-(C2-Pad1)*
X96443800Y-88290400D03*
G04 #@! TD*
G04 #@! TO.P,C3,1*
G04 #@! TO.N,Net-(C3-Pad1)*
X120129300Y-72148700D03*
G04 #@! TO.P,C3,2*
G04 #@! TO.N,GND*
X120129300Y-74648700D03*
G04 #@! TD*
G04 #@! TO.P,C5,1*
G04 #@! TO.N,/POT*
X134112000Y-102235000D03*
G04 #@! TO.P,C5,2*
G04 #@! TO.N,GND*
X134112000Y-104735000D03*
G04 #@! TD*
D21*
G04 #@! TO.P,D1,1*
G04 #@! TO.N,GND*
X119380000Y-91567000D03*
D22*
G04 #@! TO.P,D1,2*
G04 #@! TO.N,Net-(D1-Pad2)*
X119380000Y-89027000D03*
G04 #@! TD*
D21*
G04 #@! TO.P,D2,1*
G04 #@! TO.N,GND*
X124904500Y-91567000D03*
D22*
G04 #@! TO.P,D2,2*
G04 #@! TO.N,Net-(D2-Pad2)*
X124904500Y-89027000D03*
G04 #@! TD*
D21*
G04 #@! TO.P,D3,1*
G04 #@! TO.N,GND*
X130556000Y-91567000D03*
D22*
G04 #@! TO.P,D3,2*
G04 #@! TO.N,Net-(D3-Pad2)*
X130556000Y-89027000D03*
G04 #@! TD*
G04 #@! TO.P,D4,2*
G04 #@! TO.N,Net-(D4-Pad2)*
X136144000Y-89027000D03*
D21*
G04 #@! TO.P,D4,1*
G04 #@! TO.N,GND*
X136144000Y-91567000D03*
G04 #@! TD*
D22*
G04 #@! TO.P,D5,2*
G04 #@! TO.N,Net-(D5-Pad2)*
X141732000Y-89027000D03*
D21*
G04 #@! TO.P,D5,1*
G04 #@! TO.N,GND*
X141732000Y-91567000D03*
G04 #@! TD*
D22*
G04 #@! TO.P,D6,2*
G04 #@! TO.N,Net-(D6-Pad2)*
X147320000Y-89027000D03*
D21*
G04 #@! TO.P,D6,1*
G04 #@! TO.N,GND*
X147320000Y-91567000D03*
G04 #@! TD*
G04 #@! TO.P,D7,1*
G04 #@! TO.N,GND*
X152908000Y-91567000D03*
D22*
G04 #@! TO.P,D7,2*
G04 #@! TO.N,Net-(D7-Pad2)*
X152908000Y-89027000D03*
G04 #@! TD*
G04 #@! TO.P,D8,2*
G04 #@! TO.N,Net-(D8-Pad2)*
X158496000Y-89027000D03*
D21*
G04 #@! TO.P,D8,1*
G04 #@! TO.N,GND*
X158496000Y-91567000D03*
G04 #@! TD*
D12*
G04 #@! TO.P,J1,1*
G04 #@! TO.N,Net-(C2-Pad1)*
X93446600Y-71932800D03*
D11*
G04 #@! TO.P,J1,2*
G04 #@! TO.N,Net-(C3-Pad1)*
X95986600Y-71932800D03*
G04 #@! TO.P,J1,3*
G04 #@! TO.N,/Osc*
X98526600Y-71932800D03*
G04 #@! TD*
D12*
G04 #@! TO.P,J3,1*
G04 #@! TO.N,Net-(J3-Pad1)*
X141224000Y-74168000D03*
D11*
G04 #@! TO.P,J3,2*
G04 #@! TO.N,Net-(J3-Pad2)*
X143764000Y-74168000D03*
G04 #@! TO.P,J3,3*
G04 #@! TO.N,Net-(J3-Pad3)*
X146304000Y-74168000D03*
G04 #@! TO.P,J3,4*
G04 #@! TO.N,Net-(J3-Pad4)*
X148844000Y-74168000D03*
G04 #@! TO.P,J3,5*
G04 #@! TO.N,Net-(J3-Pad5)*
X151384000Y-74168000D03*
G04 #@! TO.P,J3,6*
G04 #@! TO.N,Net-(J3-Pad6)*
X153924000Y-74168000D03*
G04 #@! TO.P,J3,7*
G04 #@! TO.N,Net-(J3-Pad7)*
X156464000Y-74168000D03*
G04 #@! TO.P,J3,8*
G04 #@! TO.N,Net-(J3-Pad8)*
X159004000Y-74168000D03*
G04 #@! TD*
D12*
G04 #@! TO.P,J4,1*
G04 #@! TO.N,Net-(J4-Pad1)*
X119380000Y-116586000D03*
D11*
G04 #@! TO.P,J4,2*
G04 #@! TO.N,GND*
X121920000Y-116586000D03*
G04 #@! TD*
G04 #@! TO.P,JP1,3*
G04 #@! TO.N,VCC*
X140716000Y-110363000D03*
G04 #@! TO.P,JP1,2*
G04 #@! TO.N,Net-(JP1-Pad2)*
X143256000Y-110363000D03*
D12*
G04 #@! TO.P,JP1,1*
G04 #@! TO.N,GND*
X145796000Y-110363000D03*
G04 #@! TD*
G04 #@! TO.P,JP2,1*
G04 #@! TO.N,VCC*
X140716000Y-103759000D03*
D11*
G04 #@! TO.P,JP2,2*
G04 #@! TO.N,Net-(JP2-Pad2)*
X143256000Y-103759000D03*
G04 #@! TO.P,JP2,3*
G04 #@! TO.N,GND*
X145796000Y-103759000D03*
G04 #@! TD*
D12*
G04 #@! TO.P,JP3,1*
G04 #@! TO.N,+5V*
X124460000Y-111252000D03*
D11*
G04 #@! TO.P,JP3,2*
G04 #@! TO.N,VCC*
X121920000Y-111252000D03*
G04 #@! TO.P,JP3,3*
G04 #@! TO.N,Net-(J4-Pad1)*
X119380000Y-111252000D03*
G04 #@! TD*
D23*
G04 #@! TO.P,SW1,1*
G04 #@! TO.N,Net-(C2-Pad1)*
X111010700Y-83924000D03*
G04 #@! TO.P,SW1,2*
G04 #@! TO.N,VCC*
X115510700Y-83924000D03*
G04 #@! TO.P,SW1,1*
G04 #@! TO.N,Net-(C2-Pad1)*
X111010700Y-90424000D03*
G04 #@! TO.P,SW1,2*
G04 #@! TO.N,VCC*
X115510700Y-90424000D03*
G04 #@! TD*
G04 #@! TO.P,SW2,2*
G04 #@! TO.N,VCC*
X115510700Y-79959200D03*
G04 #@! TO.P,SW2,1*
G04 #@! TO.N,Net-(C3-Pad1)*
X111010700Y-79959200D03*
G04 #@! TO.P,SW2,2*
G04 #@! TO.N,VCC*
X115510700Y-73459200D03*
G04 #@! TO.P,SW2,1*
G04 #@! TO.N,Net-(C3-Pad1)*
X111010700Y-73459200D03*
G04 #@! TD*
D16*
G04 #@! TO.P,C4,1*
G04 #@! TO.N,/Tr*
X120523000Y-99528000D03*
D20*
G04 #@! TO.P,C4,2*
G04 #@! TO.N,GND*
X120523000Y-97028000D03*
G04 #@! TD*
D17*
G04 #@! TO.P,R1,2*
G04 #@! TO.N,GND*
X99999800Y-90436700D03*
D20*
G04 #@! TO.P,R1,1*
G04 #@! TO.N,Net-(C2-Pad1)*
X107619800Y-90436700D03*
G04 #@! TD*
D17*
G04 #@! TO.P,R2,2*
G04 #@! TO.N,GND*
X99923600Y-74422000D03*
D20*
G04 #@! TO.P,R2,1*
G04 #@! TO.N,Net-(C3-Pad1)*
X107543600Y-74422000D03*
G04 #@! TD*
D17*
G04 #@! TO.P,R3,2*
G04 #@! TO.N,Net-(R3-Pad2)*
X102108000Y-93916500D03*
D20*
G04 #@! TO.P,R3,1*
G04 #@! TO.N,Net-(R3-Pad1)*
X102108000Y-101536500D03*
G04 #@! TD*
G04 #@! TO.P,R4,1*
G04 #@! TO.N,Net-(JP2-Pad2)*
X145288000Y-96139000D03*
D17*
G04 #@! TO.P,R4,2*
G04 #@! TO.N,Net-(J2-Pad1)*
X145288000Y-98679000D03*
G04 #@! TD*
G04 #@! TO.P,R5,2*
G04 #@! TO.N,Net-(J2-Pad2)*
X149860000Y-98679000D03*
D20*
G04 #@! TO.P,R5,1*
G04 #@! TO.N,Net-(JP2-Pad2)*
X149860000Y-96139000D03*
G04 #@! TD*
G04 #@! TO.P,R6,1*
G04 #@! TO.N,Net-(JP2-Pad2)*
X154432000Y-96139000D03*
D17*
G04 #@! TO.P,R6,2*
G04 #@! TO.N,Net-(J2-Pad3)*
X154432000Y-98679000D03*
G04 #@! TD*
G04 #@! TO.P,R12,2*
G04 #@! TO.N,Net-(J3-Pad1)*
X119380000Y-83439000D03*
D20*
G04 #@! TO.P,R12,1*
G04 #@! TO.N,Net-(D1-Pad2)*
X119380000Y-85979000D03*
G04 #@! TD*
G04 #@! TO.P,R13,1*
G04 #@! TO.N,Net-(D2-Pad2)*
X124968000Y-85979000D03*
D17*
G04 #@! TO.P,R13,2*
G04 #@! TO.N,Net-(J3-Pad2)*
X124968000Y-83439000D03*
G04 #@! TD*
G04 #@! TO.P,R14,2*
G04 #@! TO.N,Net-(J3-Pad3)*
X130556000Y-83439000D03*
D20*
G04 #@! TO.P,R14,1*
G04 #@! TO.N,Net-(D3-Pad2)*
X130556000Y-85979000D03*
G04 #@! TD*
G04 #@! TO.P,R15,1*
G04 #@! TO.N,Net-(D4-Pad2)*
X135974001Y-85979000D03*
D17*
G04 #@! TO.P,R15,2*
G04 #@! TO.N,Net-(J3-Pad4)*
X135974001Y-83439000D03*
G04 #@! TD*
G04 #@! TO.P,R16,2*
G04 #@! TO.N,Net-(J3-Pad5)*
X141732000Y-83439000D03*
D20*
G04 #@! TO.P,R16,1*
G04 #@! TO.N,Net-(D5-Pad2)*
X141732000Y-85979000D03*
G04 #@! TD*
G04 #@! TO.P,R17,1*
G04 #@! TO.N,Net-(D6-Pad2)*
X147320000Y-85979000D03*
D17*
G04 #@! TO.P,R17,2*
G04 #@! TO.N,Net-(J3-Pad6)*
X147320000Y-83439000D03*
G04 #@! TD*
D20*
G04 #@! TO.P,R18,1*
G04 #@! TO.N,Net-(D7-Pad2)*
X152908000Y-85979000D03*
D17*
G04 #@! TO.P,R18,2*
G04 #@! TO.N,Net-(J3-Pad7)*
X152908000Y-83439000D03*
G04 #@! TD*
G04 #@! TO.P,R19,2*
G04 #@! TO.N,Net-(J3-Pad8)*
X158496000Y-83439000D03*
D20*
G04 #@! TO.P,R19,1*
G04 #@! TO.N,Net-(D8-Pad2)*
X158496000Y-85979000D03*
G04 #@! TD*
D11*
G04 #@! TO.P,J6,8*
G04 #@! TO.N,Net-(J2-Pad4)*
X169672000Y-78613000D03*
G04 #@! TO.P,J6,7*
G04 #@! TO.N,/SW4*
X167132000Y-78613000D03*
G04 #@! TO.P,J6,6*
G04 #@! TO.N,Net-(J2-Pad3)*
X169672000Y-76073000D03*
G04 #@! TO.P,J6,5*
G04 #@! TO.N,/SW3*
X167132000Y-76073000D03*
G04 #@! TO.P,J6,4*
G04 #@! TO.N,Net-(J2-Pad2)*
X169672000Y-73533000D03*
G04 #@! TO.P,J6,3*
G04 #@! TO.N,/SW2*
X167132000Y-73533000D03*
G04 #@! TO.P,J6,2*
G04 #@! TO.N,Net-(J2-Pad1)*
X169672000Y-70993000D03*
D12*
G04 #@! TO.P,J6,1*
G04 #@! TO.N,/SW1*
X167132000Y-70993000D03*
G04 #@! TD*
G04 #@! TO.P,J7,1*
G04 #@! TO.N,Net-(J3-Pad1)*
X128524000Y-76708000D03*
D11*
G04 #@! TO.P,J7,2*
G04 #@! TO.N,/LED1*
X128524000Y-74168000D03*
G04 #@! TO.P,J7,3*
G04 #@! TO.N,Net-(J3-Pad2)*
X131064000Y-76708000D03*
G04 #@! TO.P,J7,4*
G04 #@! TO.N,/LED2*
X131064000Y-74168000D03*
G04 #@! TO.P,J7,5*
G04 #@! TO.N,Net-(J3-Pad3)*
X133604000Y-76708000D03*
G04 #@! TO.P,J7,6*
G04 #@! TO.N,/LED3*
X133604000Y-74168000D03*
G04 #@! TO.P,J7,7*
G04 #@! TO.N,Net-(J3-Pad4)*
X136144000Y-76708000D03*
G04 #@! TO.P,J7,8*
G04 #@! TO.N,/LED4*
X136144000Y-74168000D03*
G04 #@! TD*
D12*
G04 #@! TO.P,J2,1*
G04 #@! TO.N,Net-(J2-Pad1)*
X166497000Y-106426000D03*
D11*
G04 #@! TO.P,J2,2*
G04 #@! TO.N,Net-(J2-Pad2)*
X166497000Y-103886000D03*
G04 #@! TO.P,J2,3*
G04 #@! TO.N,Net-(J2-Pad3)*
X166497000Y-101346000D03*
G04 #@! TO.P,J2,4*
G04 #@! TO.N,Net-(J2-Pad4)*
X166497000Y-98806000D03*
G04 #@! TD*
D12*
G04 #@! TO.P,J8,1*
G04 #@! TO.N,Net-(J8-Pad1)*
X163258500Y-64008000D03*
D11*
G04 #@! TO.P,J8,2*
G04 #@! TO.N,Net-(J8-Pad2)*
X160718500Y-64008000D03*
G04 #@! TO.P,J8,3*
G04 #@! TO.N,GND*
X158178500Y-64008000D03*
G04 #@! TD*
D24*
G04 #@! TO.P,RV2,3*
G04 #@! TO.N,GND*
X128000000Y-103718360D03*
G04 #@! TO.P,RV2,2*
G04 #@! TO.N,/POT*
X128000000Y-101219000D03*
G04 #@! TO.P,RV2,1*
G04 #@! TO.N,+5V*
X128000000Y-98719640D03*
G04 #@! TD*
D25*
G04 #@! TO.N,Net-(C1-Pad1)*
X114300000Y-101981000D02*
X114300000Y-105410000D01*
D26*
G04 #@! TO.N,Net-(C2-Pad1)*
X111010700Y-83924000D02*
X111010700Y-90424000D01*
X107632500Y-90424000D02*
X107619800Y-90436700D01*
X111010700Y-90424000D02*
X107632500Y-90424000D01*
X105473500Y-88290400D02*
X107619800Y-90436700D01*
X96443800Y-88290400D02*
X105473500Y-88290400D01*
X93446600Y-85293200D02*
X96443800Y-88290400D01*
X93446600Y-71932800D02*
X93446600Y-85293200D01*
X100700000Y-63350000D02*
X99724500Y-64325500D01*
X93446600Y-70582800D02*
X93446600Y-71932800D01*
X104550000Y-63350000D02*
X100700000Y-63350000D01*
X99724500Y-64325500D02*
X99703900Y-64325500D01*
X99703900Y-64325500D02*
X93446600Y-70582800D01*
G04 #@! TO.N,Net-(C3-Pad1)*
X108506400Y-73459200D02*
X107543600Y-74422000D01*
X111010700Y-73459200D02*
X108506400Y-73459200D01*
X111010700Y-74873413D02*
X111010700Y-79959200D01*
X111010700Y-73459200D02*
X111010700Y-74873413D01*
X112760701Y-71709199D02*
X112010699Y-72459201D01*
X112010699Y-72459201D02*
X111010700Y-73459200D01*
X118558429Y-71709199D02*
X112760701Y-71709199D01*
X118997930Y-72148700D02*
X118558429Y-71709199D01*
X120129300Y-72148700D02*
X118997930Y-72148700D01*
X95986600Y-71932800D02*
X95986600Y-75586600D01*
X95986600Y-75586600D02*
X97550000Y-77150000D01*
X104815600Y-77150000D02*
X107543600Y-74422000D01*
X97550000Y-77150000D02*
X104815600Y-77150000D01*
X95986600Y-70730719D02*
X95986600Y-71932800D01*
X100810000Y-65890000D02*
X99851819Y-66848181D01*
X104550000Y-65890000D02*
X100810000Y-65890000D01*
X99851819Y-66848181D02*
X99851819Y-66865500D01*
X99851819Y-66865500D02*
X95986600Y-70730719D01*
D25*
G04 #@! TO.N,/Tr*
X93980000Y-101012000D02*
X93980000Y-106012000D01*
X98091000Y-96901000D02*
X93980000Y-101012000D01*
X106680000Y-96901000D02*
X98091000Y-96901000D01*
X112350000Y-99441000D02*
X114300000Y-99441000D01*
X111170000Y-99441000D02*
X112350000Y-99441000D01*
X108630000Y-96901000D02*
X111170000Y-99441000D01*
X106680000Y-96901000D02*
X108630000Y-96901000D01*
X114387000Y-99528000D02*
X114300000Y-99441000D01*
X120523000Y-99528000D02*
X114387000Y-99528000D01*
D26*
G04 #@! TO.N,Net-(D1-Pad2)*
X119380000Y-85979000D02*
X119380000Y-89027000D01*
G04 #@! TO.N,Net-(D2-Pad2)*
X124968000Y-88963500D02*
X124904500Y-89027000D01*
X124968000Y-85979000D02*
X124968000Y-88963500D01*
G04 #@! TO.N,Net-(D3-Pad2)*
X130556000Y-85979000D02*
X130556000Y-89027000D01*
G04 #@! TO.N,Net-(D4-Pad2)*
X135974001Y-88857001D02*
X136144000Y-89027000D01*
X135974001Y-85979000D02*
X135974001Y-88857001D01*
G04 #@! TO.N,Net-(D5-Pad2)*
X141732000Y-85979000D02*
X141732000Y-89027000D01*
G04 #@! TO.N,Net-(D6-Pad2)*
X147320000Y-85979000D02*
X147320000Y-89027000D01*
G04 #@! TO.N,Net-(D7-Pad2)*
X152908000Y-85979000D02*
X152908000Y-89027000D01*
G04 #@! TO.N,Net-(D8-Pad2)*
X158496000Y-85979000D02*
X158496000Y-89027000D01*
G04 #@! TO.N,/SW2*
X165929919Y-73533000D02*
X164389929Y-71993010D01*
X164389929Y-71993010D02*
X157576196Y-71993010D01*
X167132000Y-73533000D02*
X165929919Y-73533000D01*
X155650001Y-70066815D02*
X155650001Y-68845501D01*
X157576196Y-71993010D02*
X155650001Y-70066815D01*
G04 #@! TO.N,/SW1*
X158190001Y-68845501D02*
X158190001Y-70066815D01*
X165782000Y-70993000D02*
X167132000Y-70993000D01*
X159116186Y-70993000D02*
X165782000Y-70993000D01*
X158190001Y-70066815D02*
X159116186Y-70993000D01*
G04 #@! TO.N,/LED1*
X130708898Y-70459102D02*
X128524000Y-72644000D01*
X128524000Y-72644000D02*
X128524000Y-74168000D01*
X138493714Y-70459102D02*
X130708898Y-70459102D01*
X138886001Y-70066815D02*
X138493714Y-70459102D01*
X138886001Y-68845501D02*
X138886001Y-70066815D01*
G04 #@! TO.N,/LED2*
X131064000Y-72965919D02*
X131064000Y-74168000D01*
X141426001Y-68845501D02*
X141426001Y-70066815D01*
X132570807Y-71459112D02*
X131064000Y-72965919D01*
X141426001Y-70066815D02*
X140033704Y-71459112D01*
X140033704Y-71459112D02*
X132570807Y-71459112D01*
G04 #@! TO.N,Net-(J3-Pad5)*
X143764000Y-81407000D02*
X141732000Y-83439000D01*
X148971000Y-81407000D02*
X143764000Y-81407000D01*
X151384000Y-78994000D02*
X148971000Y-81407000D01*
X151384000Y-74168000D02*
X151384000Y-78994000D01*
G04 #@! TO.N,Net-(J3-Pad6)*
X153924000Y-77216000D02*
X153924000Y-74168000D01*
X147320000Y-83439000D02*
X148119999Y-82639001D01*
X153924000Y-78867000D02*
X153924000Y-77216000D01*
X148119999Y-82639001D02*
X150151999Y-82639001D01*
X150151999Y-82639001D02*
X153924000Y-78867000D01*
G04 #@! TO.N,Net-(J3-Pad7)*
X156464000Y-79883000D02*
X152908000Y-83439000D01*
X156464000Y-74168000D02*
X156464000Y-79883000D01*
G04 #@! TO.N,Net-(J3-Pad8)*
X159004000Y-82931000D02*
X158496000Y-83439000D01*
X159004000Y-74168000D02*
X159004000Y-82931000D01*
D25*
G04 #@! TO.N,Net-(J4-Pad1)*
X119380000Y-116586000D02*
X119380000Y-111252000D01*
G04 #@! TO.N,VCC*
X106680000Y-102425500D02*
X109728000Y-105473500D01*
X106680000Y-101981000D02*
X106680000Y-102425500D01*
X121920000Y-110049919D02*
X120455081Y-108585000D01*
X121920000Y-111252000D02*
X121920000Y-110049919D01*
X120455081Y-108585000D02*
X117475000Y-108585000D01*
X117475000Y-108585000D02*
X116205000Y-109855000D01*
X116205000Y-109855000D02*
X111760000Y-109855000D01*
X109728000Y-107823000D02*
X109728000Y-105473500D01*
X111760000Y-109855000D02*
X109728000Y-107823000D01*
X140716000Y-103759000D02*
X140716000Y-110363000D01*
D26*
X115510700Y-74873413D02*
X115510700Y-79959200D01*
X115510700Y-73459200D02*
X115510700Y-74873413D01*
X115510700Y-79959200D02*
X115510700Y-83924000D01*
X115510700Y-85338213D02*
X115510700Y-90424000D01*
X115510700Y-83924000D02*
X115510700Y-85338213D01*
D25*
X115510700Y-93150300D02*
X114300000Y-94361000D01*
X115510700Y-90424000D02*
X115510700Y-93150300D01*
D26*
G04 #@! TO.N,Net-(JP1-Pad2)*
X151384000Y-110871000D02*
X153924000Y-110871000D01*
X153924000Y-110871000D02*
X156464000Y-110871000D01*
X156464000Y-110871000D02*
X159004000Y-110871000D01*
X151384000Y-109571000D02*
X149636000Y-107823000D01*
X151384000Y-110871000D02*
X151384000Y-109571000D01*
X149636000Y-107823000D02*
X144653000Y-107823000D01*
X144105999Y-109513001D02*
X143256000Y-110363000D01*
X144105999Y-108370001D02*
X144105999Y-109513001D01*
X144653000Y-107823000D02*
X144105999Y-108370001D01*
G04 #@! TO.N,Net-(JP2-Pad2)*
X159004000Y-96139000D02*
X154432000Y-96139000D01*
X149860000Y-96139000D02*
X154432000Y-96139000D01*
X149860000Y-96139000D02*
X145288000Y-96139000D01*
X144156630Y-96139000D02*
X142748000Y-97547630D01*
X145288000Y-96139000D02*
X144156630Y-96139000D01*
X142748000Y-97547630D02*
X142748000Y-100965000D01*
X143256000Y-101473000D02*
X143256000Y-103759000D01*
X142748000Y-100965000D02*
X143256000Y-101473000D01*
D25*
G04 #@! TO.N,+5V*
X126566930Y-98719640D02*
X126766320Y-98719640D01*
X124460000Y-100826570D02*
X126566930Y-98719640D01*
X124460000Y-111252000D02*
X124460000Y-100826570D01*
X131889500Y-111252000D02*
X132016500Y-111125000D01*
X124460000Y-111252000D02*
X131889500Y-111252000D01*
X132016500Y-112525000D02*
X133537500Y-114046000D01*
X132016500Y-111125000D02*
X132016500Y-112525000D01*
X133537500Y-114046000D02*
X136652000Y-114046000D01*
X137870001Y-115264001D02*
X137870001Y-117105501D01*
X136652000Y-114046000D02*
X137870001Y-115264001D01*
X128016000Y-98719640D02*
X126566930Y-98719640D01*
G04 #@! TO.N,Net-(R3-Pad2)*
X96075500Y-93916500D02*
X93980000Y-96012000D01*
X102108000Y-93916500D02*
X96075500Y-93916500D01*
D26*
G04 #@! TO.N,/PUSH1*
X136346001Y-68845501D02*
X136346001Y-67624187D01*
X131721784Y-62999970D02*
X107900030Y-62999970D01*
X136346001Y-67624187D02*
X131721784Y-62999970D01*
X107550000Y-63350000D02*
X107090000Y-63350000D01*
X107900030Y-62999970D02*
X107550000Y-63350000D01*
G04 #@! TO.N,/PUSH2*
X130181794Y-63999980D02*
X133806001Y-67624187D01*
X133806001Y-67624187D02*
X133806001Y-68845501D01*
X130181794Y-63999980D02*
X110350020Y-63999980D01*
X108292081Y-65890000D02*
X107090000Y-65890000D01*
X108460000Y-65890000D02*
X108292081Y-65890000D01*
X110350020Y-63999980D02*
X108460000Y-65890000D01*
G04 #@! TO.N,Net-(J2-Pad4)*
X169672000Y-95631000D02*
X166497000Y-98806000D01*
X169672000Y-78613000D02*
X169672000Y-95631000D01*
D25*
X159131000Y-98806000D02*
X159004000Y-98679000D01*
D26*
X166497000Y-98806000D02*
X159131000Y-98806000D01*
X159004000Y-103251000D02*
X159004000Y-98679000D01*
G04 #@! TO.N,Net-(J2-Pad3)*
X169672000Y-76073000D02*
X170874081Y-76073000D01*
X171272001Y-76470920D02*
X171272001Y-97967999D01*
X170874081Y-76073000D02*
X171272001Y-76470920D01*
X167894000Y-101346000D02*
X166497000Y-101346000D01*
X171272001Y-97967999D02*
X167894000Y-101346000D01*
X156464000Y-100711000D02*
X154432000Y-98679000D01*
X156464000Y-103251000D02*
X156464000Y-100711000D01*
X166497000Y-101346000D02*
X163576000Y-101346000D01*
X163576000Y-101346000D02*
X159766000Y-105156000D01*
X159766000Y-105156000D02*
X157226000Y-105156000D01*
X156464000Y-104394000D02*
X156464000Y-103251000D01*
X157226000Y-105156000D02*
X156464000Y-104394000D01*
G04 #@! TO.N,Net-(J2-Pad2)*
X172272011Y-99313070D02*
X167699081Y-103886000D01*
X172272011Y-74930930D02*
X172272011Y-99313070D01*
X170874081Y-73533000D02*
X172272011Y-74930930D01*
X167699081Y-103886000D02*
X166497000Y-103886000D01*
X169672000Y-73533000D02*
X170874081Y-73533000D01*
X166497000Y-103886000D02*
X162814000Y-103886000D01*
X162814000Y-103886000D02*
X160401000Y-106299000D01*
X160401000Y-106299000D02*
X154813000Y-106299000D01*
X153924000Y-105410000D02*
X153924000Y-103251000D01*
X154813000Y-106299000D02*
X153924000Y-105410000D01*
X153924000Y-102743000D02*
X153924000Y-103251000D01*
X149860000Y-98679000D02*
X153924000Y-102743000D01*
G04 #@! TO.N,Net-(J2-Pad1)*
X167847000Y-106426000D02*
X166497000Y-106426000D01*
X173272021Y-101000979D02*
X167847000Y-106426000D01*
X173272021Y-73390940D02*
X173272021Y-101000979D01*
X170874081Y-70993000D02*
X173272021Y-73390940D01*
X169672000Y-70993000D02*
X170874081Y-70993000D01*
X166497000Y-106426000D02*
X163068000Y-106426000D01*
X163068000Y-106426000D02*
X161798000Y-107696000D01*
X161798000Y-107696000D02*
X152908000Y-107696000D01*
X151384000Y-106172000D02*
X151384000Y-103251000D01*
X152908000Y-107696000D02*
X151384000Y-106172000D01*
X146812000Y-98679000D02*
X151384000Y-103251000D01*
X145288000Y-98679000D02*
X146812000Y-98679000D01*
G04 #@! TO.N,Net-(J3-Pad1)*
X128524000Y-76708000D02*
X128524000Y-78058000D01*
X128524000Y-78058000D02*
X127334000Y-79248000D01*
X121158000Y-79248000D02*
X120650000Y-79248000D01*
X119380000Y-83439000D02*
X119380000Y-80518000D01*
X120650000Y-79248000D02*
X119380000Y-80518000D01*
X127334000Y-79248000D02*
X121158000Y-79248000D01*
G04 #@! TO.N,Net-(J3-Pad2)*
X131064000Y-76708000D02*
X131064000Y-79883000D01*
X129794000Y-81153000D02*
X128524000Y-81153000D01*
X126238000Y-83439000D02*
X124968000Y-83439000D01*
X131064000Y-79883000D02*
X129794000Y-81153000D01*
X128524000Y-81153000D02*
X126238000Y-83439000D01*
G04 #@! TO.N,Net-(J3-Pad3)*
X133604000Y-78359000D02*
X133604000Y-76708000D01*
X133604000Y-81522370D02*
X133604000Y-78359000D01*
X131687370Y-83439000D02*
X133604000Y-81522370D01*
X130556000Y-83439000D02*
X131687370Y-83439000D01*
G04 #@! TO.N,Net-(J3-Pad4)*
X135974001Y-76877999D02*
X136144000Y-76708000D01*
X136144000Y-83269001D02*
X135974001Y-83439000D01*
X136144000Y-76708000D02*
X136144000Y-83269001D01*
X139149001Y-80264000D02*
X135974001Y-83439000D01*
X147736000Y-80264000D02*
X139149001Y-80264000D01*
X148844000Y-79156000D02*
X147736000Y-80264000D01*
X148844000Y-74168000D02*
X148844000Y-79156000D01*
G04 #@! TO.N,/D12*
X131266001Y-66866001D02*
X131266001Y-68845501D01*
X129399990Y-64999990D02*
X131266001Y-66866001D01*
X129399990Y-64999990D02*
X112400010Y-64999990D01*
X108970000Y-68430000D02*
X107090000Y-68430000D01*
X112400010Y-64999990D02*
X108970000Y-68430000D01*
G04 #@! TO.N,/D13*
X108200000Y-71050000D02*
X107170000Y-71050000D01*
X128726001Y-68845501D02*
X128726001Y-67126001D01*
X128726001Y-67126001D02*
X127600000Y-66000000D01*
X127600000Y-66000000D02*
X113250000Y-66000000D01*
X107170000Y-71050000D02*
X107090000Y-70970000D01*
X113250000Y-66000000D02*
X108200000Y-71050000D01*
G04 #@! TO.N,Net-(J8-Pad1)*
X163258500Y-68834000D02*
X163270001Y-68845501D01*
X163258500Y-64008000D02*
X163258500Y-68834000D01*
G04 #@! TO.N,Net-(J8-Pad2)*
X160718500Y-68834000D02*
X160730001Y-68845501D01*
X160718500Y-64008000D02*
X160718500Y-68834000D01*
G04 #@! TO.N,/POT*
X135243370Y-102235000D02*
X137414000Y-104405630D01*
X134112000Y-102235000D02*
X135243370Y-102235000D01*
X153110001Y-115884187D02*
X150636814Y-113411000D01*
X153110001Y-117105501D02*
X153110001Y-115884187D01*
X150636814Y-113411000D02*
X141495226Y-113411000D01*
X137414000Y-109329774D02*
X137414000Y-104405630D01*
X141495226Y-113411000D02*
X137414000Y-109329774D01*
X133096000Y-101219000D02*
X134112000Y-102235000D01*
X128016000Y-101219000D02*
X133096000Y-101219000D01*
G04 #@! TO.N,/LM35*
X133936499Y-109205001D02*
X133286500Y-109855000D01*
X135875001Y-109205001D02*
X133936499Y-109205001D01*
X149239814Y-114554000D02*
X141224000Y-114554000D01*
X150570001Y-115884187D02*
X149239814Y-114554000D01*
X141224000Y-114554000D02*
X135875001Y-109205001D01*
X150570001Y-117105501D02*
X150570001Y-115884187D01*
D25*
G04 #@! TO.N,Net-(R3-Pad1)*
X102108000Y-101536500D02*
X102108000Y-105473500D01*
G04 #@! TD*
D26*
G04 #@! TO.N,GND*
G36*
X103153513Y-61953513D02*
X102985980Y-62204243D01*
X102958578Y-62342000D01*
X100799270Y-62342000D01*
X100699999Y-62322254D01*
X100600729Y-62342000D01*
X100600726Y-62342000D01*
X100306698Y-62400486D01*
X99973273Y-62623273D01*
X99917039Y-62707434D01*
X99123419Y-63501055D01*
X98977173Y-63598773D01*
X98920939Y-63682934D01*
X97044841Y-65559032D01*
X97101470Y-65422318D01*
X97101470Y-64524082D01*
X96757730Y-63694220D01*
X96122580Y-63059070D01*
X95292718Y-62715330D01*
X94394482Y-62715330D01*
X93564620Y-63059070D01*
X92929470Y-63694220D01*
X92585730Y-64524082D01*
X92585730Y-65422318D01*
X92929470Y-66252180D01*
X93564620Y-66887330D01*
X94394482Y-67231070D01*
X95292718Y-67231070D01*
X95429433Y-67174441D01*
X92804038Y-69799836D01*
X92719873Y-69856073D01*
X92512729Y-70166088D01*
X92497086Y-70189499D01*
X92468040Y-70335522D01*
X92300843Y-70368780D01*
X92050113Y-70536313D01*
X91882580Y-70787043D01*
X91823750Y-71082800D01*
X91823750Y-72782800D01*
X91882580Y-73078557D01*
X92050113Y-73329287D01*
X92300843Y-73496820D01*
X92438600Y-73524222D01*
X92438601Y-85193921D01*
X92418853Y-85293200D01*
X92497086Y-85686501D01*
X92566389Y-85790219D01*
X92719874Y-86019927D01*
X92804036Y-86076162D01*
X94885800Y-88157927D01*
X94885800Y-88600305D01*
X95122991Y-89172936D01*
X95503716Y-89553661D01*
X95457374Y-89798317D01*
X96443800Y-90784743D01*
X97430226Y-89798317D01*
X97383884Y-89553661D01*
X97639145Y-89298400D01*
X98979986Y-89298400D01*
X98737004Y-89524170D01*
X98483919Y-90076883D01*
X98461612Y-90189025D01*
X98631306Y-90432700D01*
X99995800Y-90432700D01*
X99995800Y-90412700D01*
X100003800Y-90412700D01*
X100003800Y-90432700D01*
X101368294Y-90432700D01*
X101537988Y-90189025D01*
X101515681Y-90076883D01*
X101262596Y-89524170D01*
X101019614Y-89298400D01*
X105055974Y-89298400D01*
X106061800Y-90304227D01*
X106061800Y-90746605D01*
X106298991Y-91319236D01*
X106737264Y-91757509D01*
X107309895Y-91994700D01*
X107929705Y-91994700D01*
X108502336Y-91757509D01*
X108827845Y-91432000D01*
X109532513Y-91432000D01*
X110014873Y-91914360D01*
X110661012Y-92182000D01*
X111360388Y-92182000D01*
X112006527Y-91914360D01*
X112501060Y-91419827D01*
X112768700Y-90773688D01*
X112768700Y-90074312D01*
X112501060Y-89428173D01*
X112018700Y-88945813D01*
X112018700Y-85402187D01*
X112501060Y-84919827D01*
X112768700Y-84273688D01*
X112768700Y-83574312D01*
X112501060Y-82928173D01*
X112006527Y-82433640D01*
X111360388Y-82166000D01*
X110661012Y-82166000D01*
X110014873Y-82433640D01*
X109520340Y-82928173D01*
X109252700Y-83574312D01*
X109252700Y-84273688D01*
X109520340Y-84919827D01*
X110002700Y-85402187D01*
X110002701Y-88945812D01*
X109532513Y-89416000D01*
X108802445Y-89416000D01*
X108502336Y-89115891D01*
X107929705Y-88878700D01*
X107487327Y-88878700D01*
X106256464Y-87647838D01*
X106200227Y-87563673D01*
X105866802Y-87340886D01*
X105572774Y-87282400D01*
X105473500Y-87262653D01*
X105374226Y-87282400D01*
X97639145Y-87282400D01*
X97326336Y-86969591D01*
X96753705Y-86732400D01*
X96311327Y-86732400D01*
X94454600Y-84875674D01*
X94454600Y-73524222D01*
X94592357Y-73496820D01*
X94843087Y-73329287D01*
X94947778Y-73172606D01*
X94978600Y-73193201D01*
X94978601Y-75487321D01*
X94958853Y-75586600D01*
X95037086Y-75979901D01*
X95099293Y-76073000D01*
X95259874Y-76313327D01*
X95344036Y-76369562D01*
X96767037Y-77792564D01*
X96823273Y-77876727D01*
X97156698Y-78099514D01*
X97450726Y-78158000D01*
X97450730Y-78158000D01*
X97549999Y-78177746D01*
X97649268Y-78158000D01*
X104716326Y-78158000D01*
X104815600Y-78177747D01*
X104914874Y-78158000D01*
X105208902Y-78099514D01*
X105542327Y-77876727D01*
X105598564Y-77792562D01*
X107411127Y-75980000D01*
X107853505Y-75980000D01*
X108426136Y-75742809D01*
X108864409Y-75304536D01*
X109101600Y-74731905D01*
X109101600Y-74467200D01*
X109532513Y-74467200D01*
X110002700Y-74937387D01*
X110002701Y-78481012D01*
X109520340Y-78963373D01*
X109252700Y-79609512D01*
X109252700Y-80308888D01*
X109520340Y-80955027D01*
X110014873Y-81449560D01*
X110661012Y-81717200D01*
X111360388Y-81717200D01*
X112006527Y-81449560D01*
X112501060Y-80955027D01*
X112768700Y-80308888D01*
X112768700Y-79609512D01*
X112501060Y-78963373D01*
X112018700Y-78481013D01*
X112018700Y-74937387D01*
X112501060Y-74455027D01*
X112768700Y-73808888D01*
X112768700Y-73126727D01*
X112793659Y-73101768D01*
X112793661Y-73101765D01*
X113178228Y-72717199D01*
X113915202Y-72717199D01*
X113752700Y-73109512D01*
X113752700Y-73808888D01*
X114020340Y-74455027D01*
X114502700Y-74937387D01*
X114502701Y-78481012D01*
X114020340Y-78963373D01*
X113752700Y-79609512D01*
X113752700Y-80308888D01*
X114020340Y-80955027D01*
X114502700Y-81437387D01*
X114502701Y-82445812D01*
X114020340Y-82928173D01*
X113752700Y-83574312D01*
X113752700Y-84273688D01*
X114020340Y-84919827D01*
X114502700Y-85402187D01*
X114502701Y-88945812D01*
X114020340Y-89428173D01*
X113752700Y-90074312D01*
X113752700Y-90773688D01*
X114020340Y-91419827D01*
X114377700Y-91777187D01*
X114377701Y-92680995D01*
X114255696Y-92803000D01*
X113746550Y-92803000D01*
X113292099Y-92893396D01*
X112776745Y-93237745D01*
X112432396Y-93753099D01*
X112311477Y-94361000D01*
X112432396Y-94968901D01*
X112776745Y-95484255D01*
X112996364Y-95631000D01*
X112776745Y-95777745D01*
X112432396Y-96293099D01*
X112311477Y-96901000D01*
X112432396Y-97508901D01*
X112776745Y-98024255D01*
X112996364Y-98171000D01*
X112791329Y-98308000D01*
X111639304Y-98308000D01*
X109510058Y-96178755D01*
X109446847Y-96084153D01*
X109072074Y-95833738D01*
X108741587Y-95768000D01*
X108741586Y-95768000D01*
X108630000Y-95745804D01*
X108518414Y-95768000D01*
X108344974Y-95768000D01*
X108522602Y-95590372D01*
X108638000Y-95311775D01*
X108638000Y-94554500D01*
X108448500Y-94365000D01*
X106684000Y-94365000D01*
X106684000Y-94385000D01*
X106676000Y-94385000D01*
X106676000Y-94365000D01*
X104911500Y-94365000D01*
X104722000Y-94554500D01*
X104722000Y-95311775D01*
X104837398Y-95590372D01*
X105015026Y-95768000D01*
X98202586Y-95768000D01*
X98091000Y-95745804D01*
X97979414Y-95768000D01*
X97979413Y-95768000D01*
X97648926Y-95833738D01*
X97274153Y-96084153D01*
X97210944Y-96178752D01*
X94305697Y-99084000D01*
X93596497Y-99084000D01*
X92887876Y-99377520D01*
X92345520Y-99919876D01*
X92052000Y-100628497D01*
X92052000Y-101395503D01*
X92345520Y-102104124D01*
X92847000Y-102605604D01*
X92847001Y-104418395D01*
X92345520Y-104919876D01*
X92052000Y-105628497D01*
X92052000Y-106395503D01*
X92345520Y-107104124D01*
X92887876Y-107646480D01*
X93596497Y-107940000D01*
X94363503Y-107940000D01*
X95072124Y-107646480D01*
X95614480Y-107104124D01*
X95908000Y-106395503D01*
X95908000Y-105628497D01*
X95843799Y-105473500D01*
X100519477Y-105473500D01*
X100640396Y-106081401D01*
X100984745Y-106596755D01*
X101500099Y-106941104D01*
X101954550Y-107031500D01*
X102261450Y-107031500D01*
X102715901Y-106941104D01*
X103231255Y-106596755D01*
X103575604Y-106081401D01*
X103696523Y-105473500D01*
X103575604Y-104865599D01*
X103241000Y-104364829D01*
X103241000Y-102606845D01*
X103428809Y-102419036D01*
X103666000Y-101846405D01*
X103666000Y-101226595D01*
X103428809Y-100653964D01*
X102990536Y-100215691D01*
X102417905Y-99978500D01*
X101798095Y-99978500D01*
X101225464Y-100215691D01*
X100787191Y-100653964D01*
X100550000Y-101226595D01*
X100550000Y-101846405D01*
X100787191Y-102419036D01*
X100975000Y-102606845D01*
X100975001Y-104364828D01*
X100640396Y-104865599D01*
X100519477Y-105473500D01*
X95843799Y-105473500D01*
X95614480Y-104919876D01*
X95113000Y-104418396D01*
X95113000Y-102605604D01*
X95614480Y-102104124D01*
X95908000Y-101395503D01*
X95908000Y-100686303D01*
X98560304Y-98034000D01*
X105171329Y-98034000D01*
X105376364Y-98171000D01*
X105156745Y-98317745D01*
X104812396Y-98833099D01*
X104691477Y-99441000D01*
X104812396Y-100048901D01*
X105156745Y-100564255D01*
X105376364Y-100711000D01*
X105156745Y-100857745D01*
X104812396Y-101373099D01*
X104691477Y-101981000D01*
X104812396Y-102588901D01*
X105156745Y-103104255D01*
X105672099Y-103448604D01*
X106126550Y-103539000D01*
X106191197Y-103539000D01*
X108170000Y-105517804D01*
X108170000Y-105783405D01*
X108407191Y-106356036D01*
X108595001Y-106543846D01*
X108595000Y-107711414D01*
X108572804Y-107823000D01*
X108595000Y-107934586D01*
X108660738Y-108265073D01*
X108911153Y-108639847D01*
X109005755Y-108703058D01*
X110879944Y-110577248D01*
X110943153Y-110671847D01*
X111317926Y-110922262D01*
X111648413Y-110988000D01*
X111648414Y-110988000D01*
X111760000Y-111010196D01*
X111871586Y-110988000D01*
X116093414Y-110988000D01*
X116205000Y-111010196D01*
X116316586Y-110988000D01*
X116316587Y-110988000D01*
X116647074Y-110922262D01*
X117021847Y-110671847D01*
X117085058Y-110577245D01*
X117944304Y-109718000D01*
X118849607Y-109718000D01*
X118752590Y-109737298D01*
X118220697Y-110092697D01*
X117865298Y-110624590D01*
X117740498Y-111252000D01*
X117865298Y-111879410D01*
X118220697Y-112411303D01*
X118247001Y-112428879D01*
X118247000Y-115019442D01*
X118234243Y-115021980D01*
X117983513Y-115189513D01*
X117815980Y-115440243D01*
X117757150Y-115736000D01*
X117757150Y-117436000D01*
X117815980Y-117731757D01*
X117983513Y-117982487D01*
X118234243Y-118150020D01*
X118530000Y-118208850D01*
X120230000Y-118208850D01*
X120525757Y-118150020D01*
X120776487Y-117982487D01*
X120897061Y-117802036D01*
X120978081Y-117889247D01*
X121548511Y-118150500D01*
X121664503Y-118173572D01*
X121916000Y-118004494D01*
X121916000Y-116590000D01*
X121924000Y-116590000D01*
X121924000Y-118004494D01*
X122175497Y-118173572D01*
X122291489Y-118150500D01*
X122861919Y-117889247D01*
X123288951Y-117429586D01*
X123507572Y-116841497D01*
X123338495Y-116590000D01*
X121924000Y-116590000D01*
X121916000Y-116590000D01*
X121896000Y-116590000D01*
X121896000Y-116582000D01*
X121916000Y-116582000D01*
X121916000Y-115167506D01*
X121924000Y-115167506D01*
X121924000Y-116582000D01*
X123338495Y-116582000D01*
X123507572Y-116330503D01*
X123288951Y-115742414D01*
X122861919Y-115282753D01*
X122291489Y-115021500D01*
X122175497Y-114998428D01*
X121924000Y-115167506D01*
X121916000Y-115167506D01*
X121664503Y-114998428D01*
X121548511Y-115021500D01*
X120978081Y-115282753D01*
X120897061Y-115369964D01*
X120776487Y-115189513D01*
X120525757Y-115021980D01*
X120513000Y-115019442D01*
X120513000Y-112428878D01*
X120539303Y-112411303D01*
X120650000Y-112245633D01*
X120760697Y-112411303D01*
X121292590Y-112766702D01*
X121761629Y-112860000D01*
X122078371Y-112860000D01*
X122547410Y-112766702D01*
X122958822Y-112491806D01*
X123063513Y-112648487D01*
X123314243Y-112816020D01*
X123610000Y-112874850D01*
X125310000Y-112874850D01*
X125605757Y-112816020D01*
X125856487Y-112648487D01*
X126024020Y-112397757D01*
X126026558Y-112385000D01*
X130883500Y-112385000D01*
X130883500Y-112413414D01*
X130861304Y-112525000D01*
X130883500Y-112636586D01*
X130883500Y-112636587D01*
X130949238Y-112967074D01*
X131199654Y-113341847D01*
X131294253Y-113405056D01*
X132657444Y-114768248D01*
X132720653Y-114862847D01*
X132815252Y-114926056D01*
X132847049Y-114947302D01*
X133095426Y-115113262D01*
X133425913Y-115179000D01*
X133425914Y-115179000D01*
X133537500Y-115201196D01*
X133649086Y-115179000D01*
X136182697Y-115179000D01*
X136737001Y-115733305D01*
X136737001Y-115912266D01*
X136700893Y-115936393D01*
X136600001Y-116087388D01*
X136499109Y-115936393D01*
X135962718Y-115577987D01*
X135489715Y-115483901D01*
X135170287Y-115483901D01*
X134697284Y-115577987D01*
X134160893Y-115936393D01*
X134060001Y-116087388D01*
X133959109Y-115936393D01*
X133422718Y-115577987D01*
X132949715Y-115483901D01*
X132630287Y-115483901D01*
X132157284Y-115577987D01*
X131620893Y-115936393D01*
X131520001Y-116087388D01*
X131419109Y-115936393D01*
X130882718Y-115577987D01*
X130409715Y-115483901D01*
X130090287Y-115483901D01*
X129617284Y-115577987D01*
X129080893Y-115936393D01*
X128980001Y-116087388D01*
X128879109Y-115936393D01*
X128342718Y-115577987D01*
X127869715Y-115483901D01*
X127550287Y-115483901D01*
X127077284Y-115577987D01*
X126540893Y-115936393D01*
X126182487Y-116472784D01*
X126056632Y-117105501D01*
X126182487Y-117738218D01*
X126540893Y-118274609D01*
X127077284Y-118633015D01*
X127550287Y-118727101D01*
X127869715Y-118727101D01*
X128342718Y-118633015D01*
X128879109Y-118274609D01*
X128980001Y-118123614D01*
X129080893Y-118274609D01*
X129617284Y-118633015D01*
X130090287Y-118727101D01*
X130409715Y-118727101D01*
X130882718Y-118633015D01*
X131419109Y-118274609D01*
X131520001Y-118123614D01*
X131620893Y-118274609D01*
X132157284Y-118633015D01*
X132630287Y-118727101D01*
X132949715Y-118727101D01*
X133422718Y-118633015D01*
X133959109Y-118274609D01*
X134060001Y-118123614D01*
X134160893Y-118274609D01*
X134697284Y-118633015D01*
X135170287Y-118727101D01*
X135489715Y-118727101D01*
X135962718Y-118633015D01*
X136499109Y-118274609D01*
X136600001Y-118123614D01*
X136700893Y-118274609D01*
X137237284Y-118633015D01*
X137710287Y-118727101D01*
X138029715Y-118727101D01*
X138502718Y-118633015D01*
X139039109Y-118274609D01*
X139151171Y-118106897D01*
X139559309Y-118486048D01*
X140152377Y-118706506D01*
X140406001Y-118537596D01*
X140406001Y-117109501D01*
X140414001Y-117109501D01*
X140414001Y-118537596D01*
X140667625Y-118706506D01*
X141260693Y-118486048D01*
X141680001Y-118096520D01*
X142099309Y-118486048D01*
X142692377Y-118706506D01*
X142946001Y-118537596D01*
X142946001Y-117109501D01*
X140414001Y-117109501D01*
X140406001Y-117109501D01*
X140386001Y-117109501D01*
X140386001Y-117101501D01*
X140406001Y-117101501D01*
X140406001Y-115673406D01*
X140152377Y-115504496D01*
X139559309Y-115724954D01*
X139151171Y-116104105D01*
X139039109Y-115936393D01*
X139003001Y-115912266D01*
X139003001Y-115375588D01*
X139025197Y-115264001D01*
X138937263Y-114821926D01*
X138750057Y-114541753D01*
X138686848Y-114447154D01*
X138592249Y-114383945D01*
X137532058Y-113323755D01*
X137468847Y-113229153D01*
X137094074Y-112978738D01*
X136763587Y-112913000D01*
X136763586Y-112913000D01*
X136652000Y-112890804D01*
X136540414Y-112913000D01*
X134006804Y-112913000D01*
X133294019Y-112200215D01*
X133380520Y-112070757D01*
X133392816Y-112008939D01*
X133678218Y-112008939D01*
X133715925Y-112288758D01*
X134225261Y-112521846D01*
X134785025Y-112542277D01*
X135309998Y-112346941D01*
X135397075Y-112288758D01*
X135434782Y-112008939D01*
X134556500Y-111130657D01*
X133678218Y-112008939D01*
X133392816Y-112008939D01*
X133401215Y-111966717D01*
X133672561Y-112003282D01*
X134550843Y-111125000D01*
X134536701Y-111110858D01*
X134542358Y-111105201D01*
X134556500Y-111119343D01*
X134570642Y-111105201D01*
X134576299Y-111110858D01*
X134562157Y-111125000D01*
X135440439Y-112003282D01*
X135720258Y-111965575D01*
X135953346Y-111456239D01*
X135973777Y-110896475D01*
X135874715Y-110630241D01*
X140441040Y-115196567D01*
X140497273Y-115280727D01*
X140581432Y-115336960D01*
X140581433Y-115336961D01*
X140830698Y-115503514D01*
X141224000Y-115581747D01*
X141323274Y-115562000D01*
X142537682Y-115562000D01*
X142099309Y-115724954D01*
X141680001Y-116114482D01*
X141260693Y-115724954D01*
X140667625Y-115504496D01*
X140414001Y-115673406D01*
X140414001Y-117101501D01*
X142946001Y-117101501D01*
X142946001Y-117081501D01*
X142954001Y-117081501D01*
X142954001Y-117101501D01*
X142974001Y-117101501D01*
X142974001Y-117109501D01*
X142954001Y-117109501D01*
X142954001Y-118537596D01*
X143207625Y-118706506D01*
X143800693Y-118486048D01*
X144208831Y-118106897D01*
X144320893Y-118274609D01*
X144857284Y-118633015D01*
X145330287Y-118727101D01*
X145649715Y-118727101D01*
X146122718Y-118633015D01*
X146659109Y-118274609D01*
X147017515Y-117738218D01*
X147143370Y-117105501D01*
X147017515Y-116472784D01*
X146659109Y-115936393D01*
X146122718Y-115577987D01*
X146042346Y-115562000D01*
X148822288Y-115562000D01*
X149319097Y-116058809D01*
X149042487Y-116472784D01*
X148916632Y-117105501D01*
X149042487Y-117738218D01*
X149400893Y-118274609D01*
X149937284Y-118633015D01*
X150410287Y-118727101D01*
X150729715Y-118727101D01*
X151202718Y-118633015D01*
X151739109Y-118274609D01*
X151840001Y-118123614D01*
X151940893Y-118274609D01*
X152477284Y-118633015D01*
X152950287Y-118727101D01*
X153269715Y-118727101D01*
X153742718Y-118633015D01*
X154279109Y-118274609D01*
X154380001Y-118123614D01*
X154480893Y-118274609D01*
X155017284Y-118633015D01*
X155490287Y-118727101D01*
X155809715Y-118727101D01*
X156282718Y-118633015D01*
X156819109Y-118274609D01*
X156920001Y-118123614D01*
X157020893Y-118274609D01*
X157557284Y-118633015D01*
X158030287Y-118727101D01*
X158349715Y-118727101D01*
X158822718Y-118633015D01*
X159359109Y-118274609D01*
X159460001Y-118123614D01*
X159560893Y-118274609D01*
X160097284Y-118633015D01*
X160570287Y-118727101D01*
X160889715Y-118727101D01*
X161362718Y-118633015D01*
X161899109Y-118274609D01*
X162000001Y-118123614D01*
X162100893Y-118274609D01*
X162637284Y-118633015D01*
X163110287Y-118727101D01*
X163429715Y-118727101D01*
X163902718Y-118633015D01*
X164439109Y-118274609D01*
X164797515Y-117738218D01*
X164923370Y-117105501D01*
X164797515Y-116472784D01*
X164439109Y-115936393D01*
X163902718Y-115577987D01*
X163647807Y-115527282D01*
X168328530Y-115527282D01*
X168328530Y-116425518D01*
X168672270Y-117255380D01*
X169307420Y-117890530D01*
X170137282Y-118234270D01*
X171035518Y-118234270D01*
X171865380Y-117890530D01*
X172500530Y-117255380D01*
X172844270Y-116425518D01*
X172844270Y-115527282D01*
X172500530Y-114697420D01*
X171865380Y-114062270D01*
X171035518Y-113718530D01*
X170137282Y-113718530D01*
X169307420Y-114062270D01*
X168672270Y-114697420D01*
X168328530Y-115527282D01*
X163647807Y-115527282D01*
X163429715Y-115483901D01*
X163110287Y-115483901D01*
X162637284Y-115577987D01*
X162100893Y-115936393D01*
X162000001Y-116087388D01*
X161899109Y-115936393D01*
X161362718Y-115577987D01*
X160889715Y-115483901D01*
X160570287Y-115483901D01*
X160097284Y-115577987D01*
X159560893Y-115936393D01*
X159460001Y-116087388D01*
X159359109Y-115936393D01*
X158822718Y-115577987D01*
X158349715Y-115483901D01*
X158030287Y-115483901D01*
X157557284Y-115577987D01*
X157020893Y-115936393D01*
X156920001Y-116087388D01*
X156819109Y-115936393D01*
X156282718Y-115577987D01*
X155809715Y-115483901D01*
X155490287Y-115483901D01*
X155017284Y-115577987D01*
X154480893Y-115936393D01*
X154380001Y-116087388D01*
X154279109Y-115936393D01*
X154128056Y-115835462D01*
X154059515Y-115490886D01*
X154059515Y-115490885D01*
X153836728Y-115157460D01*
X153752568Y-115101226D01*
X151419778Y-112768438D01*
X151363541Y-112684273D01*
X151030116Y-112461486D01*
X150941454Y-112443850D01*
X152184000Y-112443850D01*
X152479757Y-112385020D01*
X152730487Y-112217487D01*
X152855293Y-112030703D01*
X153316099Y-112338604D01*
X153770550Y-112429000D01*
X154077450Y-112429000D01*
X154531901Y-112338604D01*
X155047255Y-111994255D01*
X155124266Y-111879000D01*
X155263734Y-111879000D01*
X155340745Y-111994255D01*
X155856099Y-112338604D01*
X156310550Y-112429000D01*
X156617450Y-112429000D01*
X157071901Y-112338604D01*
X157587255Y-111994255D01*
X157664266Y-111879000D01*
X157803734Y-111879000D01*
X157880745Y-111994255D01*
X158396099Y-112338604D01*
X158850550Y-112429000D01*
X159157450Y-112429000D01*
X159611901Y-112338604D01*
X160127255Y-111994255D01*
X160419776Y-111556466D01*
X163452001Y-111556466D01*
X163452001Y-112494536D01*
X163810985Y-113361201D01*
X164474301Y-114024517D01*
X165340966Y-114383501D01*
X166279036Y-114383501D01*
X167145701Y-114024517D01*
X167809017Y-113361201D01*
X168168001Y-112494536D01*
X168168001Y-111556466D01*
X167809017Y-110689801D01*
X167145701Y-110026485D01*
X166279036Y-109667501D01*
X165340966Y-109667501D01*
X164474301Y-110026485D01*
X163810985Y-110689801D01*
X163452001Y-111556466D01*
X160419776Y-111556466D01*
X160471604Y-111478901D01*
X160592523Y-110871000D01*
X160471604Y-110263099D01*
X160127255Y-109747745D01*
X159611901Y-109403396D01*
X159157450Y-109313000D01*
X158850550Y-109313000D01*
X158396099Y-109403396D01*
X157880745Y-109747745D01*
X157803734Y-109863000D01*
X157664266Y-109863000D01*
X157587255Y-109747745D01*
X157071901Y-109403396D01*
X156617450Y-109313000D01*
X156310550Y-109313000D01*
X155856099Y-109403396D01*
X155340745Y-109747745D01*
X155263734Y-109863000D01*
X155124266Y-109863000D01*
X155047255Y-109747745D01*
X154531901Y-109403396D01*
X154077450Y-109313000D01*
X153770550Y-109313000D01*
X153316099Y-109403396D01*
X152855293Y-109711297D01*
X152730487Y-109524513D01*
X152479757Y-109356980D01*
X152364620Y-109334078D01*
X152333514Y-109177698D01*
X152110727Y-108844273D01*
X152026564Y-108788037D01*
X150418964Y-107180438D01*
X150362727Y-107096273D01*
X150029302Y-106873486D01*
X149735274Y-106815000D01*
X149636000Y-106795253D01*
X149536726Y-106815000D01*
X144752273Y-106815000D01*
X144652999Y-106795253D01*
X144259698Y-106873486D01*
X143926273Y-107096273D01*
X143870036Y-107180438D01*
X143463437Y-107587037D01*
X143379272Y-107643274D01*
X143184625Y-107934586D01*
X143156485Y-107976700D01*
X143078252Y-108370001D01*
X143097999Y-108469276D01*
X143097999Y-108755000D01*
X143097629Y-108755000D01*
X142628590Y-108848298D01*
X142096697Y-109203697D01*
X141986000Y-109369367D01*
X141875303Y-109203697D01*
X141849000Y-109186122D01*
X141849000Y-105325558D01*
X141861757Y-105323020D01*
X142112487Y-105155487D01*
X142217178Y-104998806D01*
X142628590Y-105273702D01*
X143097629Y-105367000D01*
X143414371Y-105367000D01*
X143883410Y-105273702D01*
X144415303Y-104918303D01*
X144542920Y-104727310D01*
X144854081Y-105062247D01*
X145424511Y-105323500D01*
X145540503Y-105346572D01*
X145792000Y-105177494D01*
X145792000Y-103763000D01*
X145800000Y-103763000D01*
X145800000Y-105177494D01*
X146051497Y-105346572D01*
X146167489Y-105323500D01*
X146737919Y-105062247D01*
X147164951Y-104602586D01*
X147383572Y-104014497D01*
X147214495Y-103763000D01*
X145800000Y-103763000D01*
X145792000Y-103763000D01*
X145772000Y-103763000D01*
X145772000Y-103755000D01*
X145792000Y-103755000D01*
X145792000Y-102340506D01*
X145800000Y-102340506D01*
X145800000Y-103755000D01*
X147214495Y-103755000D01*
X147383572Y-103503503D01*
X147164951Y-102915414D01*
X146737919Y-102455753D01*
X146167489Y-102194500D01*
X146051497Y-102171428D01*
X145800000Y-102340506D01*
X145792000Y-102340506D01*
X145540503Y-102171428D01*
X145424511Y-102194500D01*
X144854081Y-102455753D01*
X144542920Y-102790690D01*
X144415303Y-102599697D01*
X144264000Y-102498600D01*
X144264000Y-101572268D01*
X144283746Y-101472999D01*
X144264000Y-101373730D01*
X144264000Y-101373726D01*
X144205514Y-101079698D01*
X143982727Y-100746273D01*
X143898562Y-100690036D01*
X143756000Y-100547474D01*
X143756000Y-98963160D01*
X143820396Y-99286901D01*
X144164745Y-99802255D01*
X144680099Y-100146604D01*
X145134550Y-100237000D01*
X145441450Y-100237000D01*
X145895901Y-100146604D01*
X146411255Y-99802255D01*
X146450698Y-99743224D01*
X149822520Y-103115047D01*
X149795477Y-103251000D01*
X149916396Y-103858901D01*
X150260745Y-104374255D01*
X150376001Y-104451266D01*
X150376000Y-106072726D01*
X150356253Y-106172000D01*
X150416974Y-106477262D01*
X150434486Y-106565301D01*
X150657273Y-106898727D01*
X150741438Y-106954964D01*
X152125037Y-108338564D01*
X152181273Y-108422727D01*
X152514698Y-108645514D01*
X152808726Y-108704000D01*
X152808730Y-108704000D01*
X152907999Y-108723746D01*
X153007268Y-108704000D01*
X161698726Y-108704000D01*
X161798000Y-108723747D01*
X161897274Y-108704000D01*
X162191302Y-108645514D01*
X162524727Y-108422727D01*
X162580964Y-108338562D01*
X163485527Y-107434000D01*
X164905578Y-107434000D01*
X164932980Y-107571757D01*
X165100513Y-107822487D01*
X165351243Y-107990020D01*
X165647000Y-108048850D01*
X167347000Y-108048850D01*
X167642757Y-107990020D01*
X167893487Y-107822487D01*
X168061020Y-107571757D01*
X168094278Y-107404560D01*
X168240302Y-107375514D01*
X168573727Y-107152727D01*
X168629964Y-107068562D01*
X173792001Y-101906526D01*
X173792001Y-119182000D01*
X114888640Y-119182000D01*
X115075701Y-119104517D01*
X115739017Y-118441201D01*
X116098001Y-117574536D01*
X116098001Y-116636466D01*
X115739017Y-115769801D01*
X115075701Y-115106485D01*
X114209036Y-114747501D01*
X113270966Y-114747501D01*
X112404301Y-115106485D01*
X111740985Y-115769801D01*
X111382001Y-116636466D01*
X111382001Y-117574536D01*
X111740985Y-118441201D01*
X112404301Y-119104517D01*
X112591362Y-119182000D01*
X91638000Y-119182000D01*
X91638000Y-115527282D01*
X92585730Y-115527282D01*
X92585730Y-116425518D01*
X92929470Y-117255380D01*
X93564620Y-117890530D01*
X94394482Y-118234270D01*
X95292718Y-118234270D01*
X96122580Y-117890530D01*
X96757730Y-117255380D01*
X97101470Y-116425518D01*
X97101470Y-115527282D01*
X96757730Y-114697420D01*
X96122580Y-114062270D01*
X95292718Y-113718530D01*
X94394482Y-113718530D01*
X93564620Y-114062270D01*
X92929470Y-114697420D01*
X92585730Y-115527282D01*
X91638000Y-115527282D01*
X91638000Y-95628497D01*
X92052000Y-95628497D01*
X92052000Y-96395503D01*
X92345520Y-97104124D01*
X92887876Y-97646480D01*
X93596497Y-97940000D01*
X94363503Y-97940000D01*
X95072124Y-97646480D01*
X95614480Y-97104124D01*
X95908000Y-96395503D01*
X95908000Y-95686304D01*
X96544804Y-95049500D01*
X100999329Y-95049500D01*
X101500099Y-95384104D01*
X101954550Y-95474500D01*
X102261450Y-95474500D01*
X102715901Y-95384104D01*
X103231255Y-95039755D01*
X103575604Y-94524401D01*
X103696523Y-93916500D01*
X103595819Y-93410225D01*
X104722000Y-93410225D01*
X104722000Y-94167500D01*
X104911500Y-94357000D01*
X106676000Y-94357000D01*
X106676000Y-92992500D01*
X106684000Y-92992500D01*
X106684000Y-94357000D01*
X108448500Y-94357000D01*
X108638000Y-94167500D01*
X108638000Y-93410225D01*
X108522602Y-93131628D01*
X108309373Y-92918399D01*
X108030776Y-92803000D01*
X106873500Y-92803000D01*
X106684000Y-92992500D01*
X106676000Y-92992500D01*
X106486500Y-92803000D01*
X105329224Y-92803000D01*
X105050627Y-92918399D01*
X104837398Y-93131628D01*
X104722000Y-93410225D01*
X103595819Y-93410225D01*
X103575604Y-93308599D01*
X103231255Y-92793245D01*
X102715901Y-92448896D01*
X102261450Y-92358500D01*
X101954550Y-92358500D01*
X101500099Y-92448896D01*
X100999329Y-92783500D01*
X96187087Y-92783500D01*
X96075500Y-92761304D01*
X95633425Y-92849238D01*
X95419019Y-92992500D01*
X95258653Y-93099653D01*
X95195444Y-93194252D01*
X94305696Y-94084000D01*
X93596497Y-94084000D01*
X92887876Y-94377520D01*
X92345520Y-94919876D01*
X92052000Y-95628497D01*
X91638000Y-95628497D01*
X91638000Y-91782483D01*
X95457374Y-91782483D01*
X95513329Y-92077889D01*
X96076858Y-92335961D01*
X96696250Y-92358735D01*
X97277209Y-92142744D01*
X97374271Y-92077889D01*
X97430226Y-91782483D01*
X96443800Y-90796057D01*
X95457374Y-91782483D01*
X91638000Y-91782483D01*
X91638000Y-91042850D01*
X94875465Y-91042850D01*
X95091456Y-91623809D01*
X95156311Y-91720871D01*
X95451717Y-91776826D01*
X96438143Y-90790400D01*
X96449457Y-90790400D01*
X97435883Y-91776826D01*
X97731289Y-91720871D01*
X97989361Y-91157342D01*
X98006751Y-90684375D01*
X98461612Y-90684375D01*
X98483919Y-90796517D01*
X98737004Y-91349230D01*
X99182339Y-91763019D01*
X99752125Y-91974888D01*
X99995800Y-91805195D01*
X99995800Y-90440700D01*
X100003800Y-90440700D01*
X100003800Y-91805195D01*
X100247475Y-91974888D01*
X100817261Y-91763019D01*
X101262596Y-91349230D01*
X101515681Y-90796517D01*
X101537988Y-90684375D01*
X101368294Y-90440700D01*
X100003800Y-90440700D01*
X99995800Y-90440700D01*
X98631306Y-90440700D01*
X98461612Y-90684375D01*
X98006751Y-90684375D01*
X98012135Y-90537950D01*
X97796144Y-89956991D01*
X97731289Y-89859929D01*
X97435883Y-89803974D01*
X96449457Y-90790400D01*
X96438143Y-90790400D01*
X95451717Y-89803974D01*
X95156311Y-89859929D01*
X94898239Y-90423458D01*
X94875465Y-91042850D01*
X91638000Y-91042850D01*
X91638000Y-61793000D01*
X103393737Y-61793000D01*
X103153513Y-61953513D01*
X103153513Y-61953513D01*
G37*
X103153513Y-61953513D02*
X102985980Y-62204243D01*
X102958578Y-62342000D01*
X100799270Y-62342000D01*
X100699999Y-62322254D01*
X100600729Y-62342000D01*
X100600726Y-62342000D01*
X100306698Y-62400486D01*
X99973273Y-62623273D01*
X99917039Y-62707434D01*
X99123419Y-63501055D01*
X98977173Y-63598773D01*
X98920939Y-63682934D01*
X97044841Y-65559032D01*
X97101470Y-65422318D01*
X97101470Y-64524082D01*
X96757730Y-63694220D01*
X96122580Y-63059070D01*
X95292718Y-62715330D01*
X94394482Y-62715330D01*
X93564620Y-63059070D01*
X92929470Y-63694220D01*
X92585730Y-64524082D01*
X92585730Y-65422318D01*
X92929470Y-66252180D01*
X93564620Y-66887330D01*
X94394482Y-67231070D01*
X95292718Y-67231070D01*
X95429433Y-67174441D01*
X92804038Y-69799836D01*
X92719873Y-69856073D01*
X92512729Y-70166088D01*
X92497086Y-70189499D01*
X92468040Y-70335522D01*
X92300843Y-70368780D01*
X92050113Y-70536313D01*
X91882580Y-70787043D01*
X91823750Y-71082800D01*
X91823750Y-72782800D01*
X91882580Y-73078557D01*
X92050113Y-73329287D01*
X92300843Y-73496820D01*
X92438600Y-73524222D01*
X92438601Y-85193921D01*
X92418853Y-85293200D01*
X92497086Y-85686501D01*
X92566389Y-85790219D01*
X92719874Y-86019927D01*
X92804036Y-86076162D01*
X94885800Y-88157927D01*
X94885800Y-88600305D01*
X95122991Y-89172936D01*
X95503716Y-89553661D01*
X95457374Y-89798317D01*
X96443800Y-90784743D01*
X97430226Y-89798317D01*
X97383884Y-89553661D01*
X97639145Y-89298400D01*
X98979986Y-89298400D01*
X98737004Y-89524170D01*
X98483919Y-90076883D01*
X98461612Y-90189025D01*
X98631306Y-90432700D01*
X99995800Y-90432700D01*
X99995800Y-90412700D01*
X100003800Y-90412700D01*
X100003800Y-90432700D01*
X101368294Y-90432700D01*
X101537988Y-90189025D01*
X101515681Y-90076883D01*
X101262596Y-89524170D01*
X101019614Y-89298400D01*
X105055974Y-89298400D01*
X106061800Y-90304227D01*
X106061800Y-90746605D01*
X106298991Y-91319236D01*
X106737264Y-91757509D01*
X107309895Y-91994700D01*
X107929705Y-91994700D01*
X108502336Y-91757509D01*
X108827845Y-91432000D01*
X109532513Y-91432000D01*
X110014873Y-91914360D01*
X110661012Y-92182000D01*
X111360388Y-92182000D01*
X112006527Y-91914360D01*
X112501060Y-91419827D01*
X112768700Y-90773688D01*
X112768700Y-90074312D01*
X112501060Y-89428173D01*
X112018700Y-88945813D01*
X112018700Y-85402187D01*
X112501060Y-84919827D01*
X112768700Y-84273688D01*
X112768700Y-83574312D01*
X112501060Y-82928173D01*
X112006527Y-82433640D01*
X111360388Y-82166000D01*
X110661012Y-82166000D01*
X110014873Y-82433640D01*
X109520340Y-82928173D01*
X109252700Y-83574312D01*
X109252700Y-84273688D01*
X109520340Y-84919827D01*
X110002700Y-85402187D01*
X110002701Y-88945812D01*
X109532513Y-89416000D01*
X108802445Y-89416000D01*
X108502336Y-89115891D01*
X107929705Y-88878700D01*
X107487327Y-88878700D01*
X106256464Y-87647838D01*
X106200227Y-87563673D01*
X105866802Y-87340886D01*
X105572774Y-87282400D01*
X105473500Y-87262653D01*
X105374226Y-87282400D01*
X97639145Y-87282400D01*
X97326336Y-86969591D01*
X96753705Y-86732400D01*
X96311327Y-86732400D01*
X94454600Y-84875674D01*
X94454600Y-73524222D01*
X94592357Y-73496820D01*
X94843087Y-73329287D01*
X94947778Y-73172606D01*
X94978600Y-73193201D01*
X94978601Y-75487321D01*
X94958853Y-75586600D01*
X95037086Y-75979901D01*
X95099293Y-76073000D01*
X95259874Y-76313327D01*
X95344036Y-76369562D01*
X96767037Y-77792564D01*
X96823273Y-77876727D01*
X97156698Y-78099514D01*
X97450726Y-78158000D01*
X97450730Y-78158000D01*
X97549999Y-78177746D01*
X97649268Y-78158000D01*
X104716326Y-78158000D01*
X104815600Y-78177747D01*
X104914874Y-78158000D01*
X105208902Y-78099514D01*
X105542327Y-77876727D01*
X105598564Y-77792562D01*
X107411127Y-75980000D01*
X107853505Y-75980000D01*
X108426136Y-75742809D01*
X108864409Y-75304536D01*
X109101600Y-74731905D01*
X109101600Y-74467200D01*
X109532513Y-74467200D01*
X110002700Y-74937387D01*
X110002701Y-78481012D01*
X109520340Y-78963373D01*
X109252700Y-79609512D01*
X109252700Y-80308888D01*
X109520340Y-80955027D01*
X110014873Y-81449560D01*
X110661012Y-81717200D01*
X111360388Y-81717200D01*
X112006527Y-81449560D01*
X112501060Y-80955027D01*
X112768700Y-80308888D01*
X112768700Y-79609512D01*
X112501060Y-78963373D01*
X112018700Y-78481013D01*
X112018700Y-74937387D01*
X112501060Y-74455027D01*
X112768700Y-73808888D01*
X112768700Y-73126727D01*
X112793659Y-73101768D01*
X112793661Y-73101765D01*
X113178228Y-72717199D01*
X113915202Y-72717199D01*
X113752700Y-73109512D01*
X113752700Y-73808888D01*
X114020340Y-74455027D01*
X114502700Y-74937387D01*
X114502701Y-78481012D01*
X114020340Y-78963373D01*
X113752700Y-79609512D01*
X113752700Y-80308888D01*
X114020340Y-80955027D01*
X114502700Y-81437387D01*
X114502701Y-82445812D01*
X114020340Y-82928173D01*
X113752700Y-83574312D01*
X113752700Y-84273688D01*
X114020340Y-84919827D01*
X114502700Y-85402187D01*
X114502701Y-88945812D01*
X114020340Y-89428173D01*
X113752700Y-90074312D01*
X113752700Y-90773688D01*
X114020340Y-91419827D01*
X114377700Y-91777187D01*
X114377701Y-92680995D01*
X114255696Y-92803000D01*
X113746550Y-92803000D01*
X113292099Y-92893396D01*
X112776745Y-93237745D01*
X112432396Y-93753099D01*
X112311477Y-94361000D01*
X112432396Y-94968901D01*
X112776745Y-95484255D01*
X112996364Y-95631000D01*
X112776745Y-95777745D01*
X112432396Y-96293099D01*
X112311477Y-96901000D01*
X112432396Y-97508901D01*
X112776745Y-98024255D01*
X112996364Y-98171000D01*
X112791329Y-98308000D01*
X111639304Y-98308000D01*
X109510058Y-96178755D01*
X109446847Y-96084153D01*
X109072074Y-95833738D01*
X108741587Y-95768000D01*
X108741586Y-95768000D01*
X108630000Y-95745804D01*
X108518414Y-95768000D01*
X108344974Y-95768000D01*
X108522602Y-95590372D01*
X108638000Y-95311775D01*
X108638000Y-94554500D01*
X108448500Y-94365000D01*
X106684000Y-94365000D01*
X106684000Y-94385000D01*
X106676000Y-94385000D01*
X106676000Y-94365000D01*
X104911500Y-94365000D01*
X104722000Y-94554500D01*
X104722000Y-95311775D01*
X104837398Y-95590372D01*
X105015026Y-95768000D01*
X98202586Y-95768000D01*
X98091000Y-95745804D01*
X97979414Y-95768000D01*
X97979413Y-95768000D01*
X97648926Y-95833738D01*
X97274153Y-96084153D01*
X97210944Y-96178752D01*
X94305697Y-99084000D01*
X93596497Y-99084000D01*
X92887876Y-99377520D01*
X92345520Y-99919876D01*
X92052000Y-100628497D01*
X92052000Y-101395503D01*
X92345520Y-102104124D01*
X92847000Y-102605604D01*
X92847001Y-104418395D01*
X92345520Y-104919876D01*
X92052000Y-105628497D01*
X92052000Y-106395503D01*
X92345520Y-107104124D01*
X92887876Y-107646480D01*
X93596497Y-107940000D01*
X94363503Y-107940000D01*
X95072124Y-107646480D01*
X95614480Y-107104124D01*
X95908000Y-106395503D01*
X95908000Y-105628497D01*
X95843799Y-105473500D01*
X100519477Y-105473500D01*
X100640396Y-106081401D01*
X100984745Y-106596755D01*
X101500099Y-106941104D01*
X101954550Y-107031500D01*
X102261450Y-107031500D01*
X102715901Y-106941104D01*
X103231255Y-106596755D01*
X103575604Y-106081401D01*
X103696523Y-105473500D01*
X103575604Y-104865599D01*
X103241000Y-104364829D01*
X103241000Y-102606845D01*
X103428809Y-102419036D01*
X103666000Y-101846405D01*
X103666000Y-101226595D01*
X103428809Y-100653964D01*
X102990536Y-100215691D01*
X102417905Y-99978500D01*
X101798095Y-99978500D01*
X101225464Y-100215691D01*
X100787191Y-100653964D01*
X100550000Y-101226595D01*
X100550000Y-101846405D01*
X100787191Y-102419036D01*
X100975000Y-102606845D01*
X100975001Y-104364828D01*
X100640396Y-104865599D01*
X100519477Y-105473500D01*
X95843799Y-105473500D01*
X95614480Y-104919876D01*
X95113000Y-104418396D01*
X95113000Y-102605604D01*
X95614480Y-102104124D01*
X95908000Y-101395503D01*
X95908000Y-100686303D01*
X98560304Y-98034000D01*
X105171329Y-98034000D01*
X105376364Y-98171000D01*
X105156745Y-98317745D01*
X104812396Y-98833099D01*
X104691477Y-99441000D01*
X104812396Y-100048901D01*
X105156745Y-100564255D01*
X105376364Y-100711000D01*
X105156745Y-100857745D01*
X104812396Y-101373099D01*
X104691477Y-101981000D01*
X104812396Y-102588901D01*
X105156745Y-103104255D01*
X105672099Y-103448604D01*
X106126550Y-103539000D01*
X106191197Y-103539000D01*
X108170000Y-105517804D01*
X108170000Y-105783405D01*
X108407191Y-106356036D01*
X108595001Y-106543846D01*
X108595000Y-107711414D01*
X108572804Y-107823000D01*
X108595000Y-107934586D01*
X108660738Y-108265073D01*
X108911153Y-108639847D01*
X109005755Y-108703058D01*
X110879944Y-110577248D01*
X110943153Y-110671847D01*
X111317926Y-110922262D01*
X111648413Y-110988000D01*
X111648414Y-110988000D01*
X111760000Y-111010196D01*
X111871586Y-110988000D01*
X116093414Y-110988000D01*
X116205000Y-111010196D01*
X116316586Y-110988000D01*
X116316587Y-110988000D01*
X116647074Y-110922262D01*
X117021847Y-110671847D01*
X117085058Y-110577245D01*
X117944304Y-109718000D01*
X118849607Y-109718000D01*
X118752590Y-109737298D01*
X118220697Y-110092697D01*
X117865298Y-110624590D01*
X117740498Y-111252000D01*
X117865298Y-111879410D01*
X118220697Y-112411303D01*
X118247001Y-112428879D01*
X118247000Y-115019442D01*
X118234243Y-115021980D01*
X117983513Y-115189513D01*
X117815980Y-115440243D01*
X117757150Y-115736000D01*
X117757150Y-117436000D01*
X117815980Y-117731757D01*
X117983513Y-117982487D01*
X118234243Y-118150020D01*
X118530000Y-118208850D01*
X120230000Y-118208850D01*
X120525757Y-118150020D01*
X120776487Y-117982487D01*
X120897061Y-117802036D01*
X120978081Y-117889247D01*
X121548511Y-118150500D01*
X121664503Y-118173572D01*
X121916000Y-118004494D01*
X121916000Y-116590000D01*
X121924000Y-116590000D01*
X121924000Y-118004494D01*
X122175497Y-118173572D01*
X122291489Y-118150500D01*
X122861919Y-117889247D01*
X123288951Y-117429586D01*
X123507572Y-116841497D01*
X123338495Y-116590000D01*
X121924000Y-116590000D01*
X121916000Y-116590000D01*
X121896000Y-116590000D01*
X121896000Y-116582000D01*
X121916000Y-116582000D01*
X121916000Y-115167506D01*
X121924000Y-115167506D01*
X121924000Y-116582000D01*
X123338495Y-116582000D01*
X123507572Y-116330503D01*
X123288951Y-115742414D01*
X122861919Y-115282753D01*
X122291489Y-115021500D01*
X122175497Y-114998428D01*
X121924000Y-115167506D01*
X121916000Y-115167506D01*
X121664503Y-114998428D01*
X121548511Y-115021500D01*
X120978081Y-115282753D01*
X120897061Y-115369964D01*
X120776487Y-115189513D01*
X120525757Y-115021980D01*
X120513000Y-115019442D01*
X120513000Y-112428878D01*
X120539303Y-112411303D01*
X120650000Y-112245633D01*
X120760697Y-112411303D01*
X121292590Y-112766702D01*
X121761629Y-112860000D01*
X122078371Y-112860000D01*
X122547410Y-112766702D01*
X122958822Y-112491806D01*
X123063513Y-112648487D01*
X123314243Y-112816020D01*
X123610000Y-112874850D01*
X125310000Y-112874850D01*
X125605757Y-112816020D01*
X125856487Y-112648487D01*
X126024020Y-112397757D01*
X126026558Y-112385000D01*
X130883500Y-112385000D01*
X130883500Y-112413414D01*
X130861304Y-112525000D01*
X130883500Y-112636586D01*
X130883500Y-112636587D01*
X130949238Y-112967074D01*
X131199654Y-113341847D01*
X131294253Y-113405056D01*
X132657444Y-114768248D01*
X132720653Y-114862847D01*
X132815252Y-114926056D01*
X132847049Y-114947302D01*
X133095426Y-115113262D01*
X133425913Y-115179000D01*
X133425914Y-115179000D01*
X133537500Y-115201196D01*
X133649086Y-115179000D01*
X136182697Y-115179000D01*
X136737001Y-115733305D01*
X136737001Y-115912266D01*
X136700893Y-115936393D01*
X136600001Y-116087388D01*
X136499109Y-115936393D01*
X135962718Y-115577987D01*
X135489715Y-115483901D01*
X135170287Y-115483901D01*
X134697284Y-115577987D01*
X134160893Y-115936393D01*
X134060001Y-116087388D01*
X133959109Y-115936393D01*
X133422718Y-115577987D01*
X132949715Y-115483901D01*
X132630287Y-115483901D01*
X132157284Y-115577987D01*
X131620893Y-115936393D01*
X131520001Y-116087388D01*
X131419109Y-115936393D01*
X130882718Y-115577987D01*
X130409715Y-115483901D01*
X130090287Y-115483901D01*
X129617284Y-115577987D01*
X129080893Y-115936393D01*
X128980001Y-116087388D01*
X128879109Y-115936393D01*
X128342718Y-115577987D01*
X127869715Y-115483901D01*
X127550287Y-115483901D01*
X127077284Y-115577987D01*
X126540893Y-115936393D01*
X126182487Y-116472784D01*
X126056632Y-117105501D01*
X126182487Y-117738218D01*
X126540893Y-118274609D01*
X127077284Y-118633015D01*
X127550287Y-118727101D01*
X127869715Y-118727101D01*
X128342718Y-118633015D01*
X128879109Y-118274609D01*
X128980001Y-118123614D01*
X129080893Y-118274609D01*
X129617284Y-118633015D01*
X130090287Y-118727101D01*
X130409715Y-118727101D01*
X130882718Y-118633015D01*
X131419109Y-118274609D01*
X131520001Y-118123614D01*
X131620893Y-118274609D01*
X132157284Y-118633015D01*
X132630287Y-118727101D01*
X132949715Y-118727101D01*
X133422718Y-118633015D01*
X133959109Y-118274609D01*
X134060001Y-118123614D01*
X134160893Y-118274609D01*
X134697284Y-118633015D01*
X135170287Y-118727101D01*
X135489715Y-118727101D01*
X135962718Y-118633015D01*
X136499109Y-118274609D01*
X136600001Y-118123614D01*
X136700893Y-118274609D01*
X137237284Y-118633015D01*
X137710287Y-118727101D01*
X138029715Y-118727101D01*
X138502718Y-118633015D01*
X139039109Y-118274609D01*
X139151171Y-118106897D01*
X139559309Y-118486048D01*
X140152377Y-118706506D01*
X140406001Y-118537596D01*
X140406001Y-117109501D01*
X140414001Y-117109501D01*
X140414001Y-118537596D01*
X140667625Y-118706506D01*
X141260693Y-118486048D01*
X141680001Y-118096520D01*
X142099309Y-118486048D01*
X142692377Y-118706506D01*
X142946001Y-118537596D01*
X142946001Y-117109501D01*
X140414001Y-117109501D01*
X140406001Y-117109501D01*
X140386001Y-117109501D01*
X140386001Y-117101501D01*
X140406001Y-117101501D01*
X140406001Y-115673406D01*
X140152377Y-115504496D01*
X139559309Y-115724954D01*
X139151171Y-116104105D01*
X139039109Y-115936393D01*
X139003001Y-115912266D01*
X139003001Y-115375588D01*
X139025197Y-115264001D01*
X138937263Y-114821926D01*
X138750057Y-114541753D01*
X138686848Y-114447154D01*
X138592249Y-114383945D01*
X137532058Y-113323755D01*
X137468847Y-113229153D01*
X137094074Y-112978738D01*
X136763587Y-112913000D01*
X136763586Y-112913000D01*
X136652000Y-112890804D01*
X136540414Y-112913000D01*
X134006804Y-112913000D01*
X133294019Y-112200215D01*
X133380520Y-112070757D01*
X133392816Y-112008939D01*
X133678218Y-112008939D01*
X133715925Y-112288758D01*
X134225261Y-112521846D01*
X134785025Y-112542277D01*
X135309998Y-112346941D01*
X135397075Y-112288758D01*
X135434782Y-112008939D01*
X134556500Y-111130657D01*
X133678218Y-112008939D01*
X133392816Y-112008939D01*
X133401215Y-111966717D01*
X133672561Y-112003282D01*
X134550843Y-111125000D01*
X134536701Y-111110858D01*
X134542358Y-111105201D01*
X134556500Y-111119343D01*
X134570642Y-111105201D01*
X134576299Y-111110858D01*
X134562157Y-111125000D01*
X135440439Y-112003282D01*
X135720258Y-111965575D01*
X135953346Y-111456239D01*
X135973777Y-110896475D01*
X135874715Y-110630241D01*
X140441040Y-115196567D01*
X140497273Y-115280727D01*
X140581432Y-115336960D01*
X140581433Y-115336961D01*
X140830698Y-115503514D01*
X141224000Y-115581747D01*
X141323274Y-115562000D01*
X142537682Y-115562000D01*
X142099309Y-115724954D01*
X141680001Y-116114482D01*
X141260693Y-115724954D01*
X140667625Y-115504496D01*
X140414001Y-115673406D01*
X140414001Y-117101501D01*
X142946001Y-117101501D01*
X142946001Y-117081501D01*
X142954001Y-117081501D01*
X142954001Y-117101501D01*
X142974001Y-117101501D01*
X142974001Y-117109501D01*
X142954001Y-117109501D01*
X142954001Y-118537596D01*
X143207625Y-118706506D01*
X143800693Y-118486048D01*
X144208831Y-118106897D01*
X144320893Y-118274609D01*
X144857284Y-118633015D01*
X145330287Y-118727101D01*
X145649715Y-118727101D01*
X146122718Y-118633015D01*
X146659109Y-118274609D01*
X147017515Y-117738218D01*
X147143370Y-117105501D01*
X147017515Y-116472784D01*
X146659109Y-115936393D01*
X146122718Y-115577987D01*
X146042346Y-115562000D01*
X148822288Y-115562000D01*
X149319097Y-116058809D01*
X149042487Y-116472784D01*
X148916632Y-117105501D01*
X149042487Y-117738218D01*
X149400893Y-118274609D01*
X149937284Y-118633015D01*
X150410287Y-118727101D01*
X150729715Y-118727101D01*
X151202718Y-118633015D01*
X151739109Y-118274609D01*
X151840001Y-118123614D01*
X151940893Y-118274609D01*
X152477284Y-118633015D01*
X152950287Y-118727101D01*
X153269715Y-118727101D01*
X153742718Y-118633015D01*
X154279109Y-118274609D01*
X154380001Y-118123614D01*
X154480893Y-118274609D01*
X155017284Y-118633015D01*
X155490287Y-118727101D01*
X155809715Y-118727101D01*
X156282718Y-118633015D01*
X156819109Y-118274609D01*
X156920001Y-118123614D01*
X157020893Y-118274609D01*
X157557284Y-118633015D01*
X158030287Y-118727101D01*
X158349715Y-118727101D01*
X158822718Y-118633015D01*
X159359109Y-118274609D01*
X159460001Y-118123614D01*
X159560893Y-118274609D01*
X160097284Y-118633015D01*
X160570287Y-118727101D01*
X160889715Y-118727101D01*
X161362718Y-118633015D01*
X161899109Y-118274609D01*
X162000001Y-118123614D01*
X162100893Y-118274609D01*
X162637284Y-118633015D01*
X163110287Y-118727101D01*
X163429715Y-118727101D01*
X163902718Y-118633015D01*
X164439109Y-118274609D01*
X164797515Y-117738218D01*
X164923370Y-117105501D01*
X164797515Y-116472784D01*
X164439109Y-115936393D01*
X163902718Y-115577987D01*
X163647807Y-115527282D01*
X168328530Y-115527282D01*
X168328530Y-116425518D01*
X168672270Y-117255380D01*
X169307420Y-117890530D01*
X170137282Y-118234270D01*
X171035518Y-118234270D01*
X171865380Y-117890530D01*
X172500530Y-117255380D01*
X172844270Y-116425518D01*
X172844270Y-115527282D01*
X172500530Y-114697420D01*
X171865380Y-114062270D01*
X171035518Y-113718530D01*
X170137282Y-113718530D01*
X169307420Y-114062270D01*
X168672270Y-114697420D01*
X168328530Y-115527282D01*
X163647807Y-115527282D01*
X163429715Y-115483901D01*
X163110287Y-115483901D01*
X162637284Y-115577987D01*
X162100893Y-115936393D01*
X162000001Y-116087388D01*
X161899109Y-115936393D01*
X161362718Y-115577987D01*
X160889715Y-115483901D01*
X160570287Y-115483901D01*
X160097284Y-115577987D01*
X159560893Y-115936393D01*
X159460001Y-116087388D01*
X159359109Y-115936393D01*
X158822718Y-115577987D01*
X158349715Y-115483901D01*
X158030287Y-115483901D01*
X157557284Y-115577987D01*
X157020893Y-115936393D01*
X156920001Y-116087388D01*
X156819109Y-115936393D01*
X156282718Y-115577987D01*
X155809715Y-115483901D01*
X155490287Y-115483901D01*
X155017284Y-115577987D01*
X154480893Y-115936393D01*
X154380001Y-116087388D01*
X154279109Y-115936393D01*
X154128056Y-115835462D01*
X154059515Y-115490886D01*
X154059515Y-115490885D01*
X153836728Y-115157460D01*
X153752568Y-115101226D01*
X151419778Y-112768438D01*
X151363541Y-112684273D01*
X151030116Y-112461486D01*
X150941454Y-112443850D01*
X152184000Y-112443850D01*
X152479757Y-112385020D01*
X152730487Y-112217487D01*
X152855293Y-112030703D01*
X153316099Y-112338604D01*
X153770550Y-112429000D01*
X154077450Y-112429000D01*
X154531901Y-112338604D01*
X155047255Y-111994255D01*
X155124266Y-111879000D01*
X155263734Y-111879000D01*
X155340745Y-111994255D01*
X155856099Y-112338604D01*
X156310550Y-112429000D01*
X156617450Y-112429000D01*
X157071901Y-112338604D01*
X157587255Y-111994255D01*
X157664266Y-111879000D01*
X157803734Y-111879000D01*
X157880745Y-111994255D01*
X158396099Y-112338604D01*
X158850550Y-112429000D01*
X159157450Y-112429000D01*
X159611901Y-112338604D01*
X160127255Y-111994255D01*
X160419776Y-111556466D01*
X163452001Y-111556466D01*
X163452001Y-112494536D01*
X163810985Y-113361201D01*
X164474301Y-114024517D01*
X165340966Y-114383501D01*
X166279036Y-114383501D01*
X167145701Y-114024517D01*
X167809017Y-113361201D01*
X168168001Y-112494536D01*
X168168001Y-111556466D01*
X167809017Y-110689801D01*
X167145701Y-110026485D01*
X166279036Y-109667501D01*
X165340966Y-109667501D01*
X164474301Y-110026485D01*
X163810985Y-110689801D01*
X163452001Y-111556466D01*
X160419776Y-111556466D01*
X160471604Y-111478901D01*
X160592523Y-110871000D01*
X160471604Y-110263099D01*
X160127255Y-109747745D01*
X159611901Y-109403396D01*
X159157450Y-109313000D01*
X158850550Y-109313000D01*
X158396099Y-109403396D01*
X157880745Y-109747745D01*
X157803734Y-109863000D01*
X157664266Y-109863000D01*
X157587255Y-109747745D01*
X157071901Y-109403396D01*
X156617450Y-109313000D01*
X156310550Y-109313000D01*
X155856099Y-109403396D01*
X155340745Y-109747745D01*
X155263734Y-109863000D01*
X155124266Y-109863000D01*
X155047255Y-109747745D01*
X154531901Y-109403396D01*
X154077450Y-109313000D01*
X153770550Y-109313000D01*
X153316099Y-109403396D01*
X152855293Y-109711297D01*
X152730487Y-109524513D01*
X152479757Y-109356980D01*
X152364620Y-109334078D01*
X152333514Y-109177698D01*
X152110727Y-108844273D01*
X152026564Y-108788037D01*
X150418964Y-107180438D01*
X150362727Y-107096273D01*
X150029302Y-106873486D01*
X149735274Y-106815000D01*
X149636000Y-106795253D01*
X149536726Y-106815000D01*
X144752273Y-106815000D01*
X144652999Y-106795253D01*
X144259698Y-106873486D01*
X143926273Y-107096273D01*
X143870036Y-107180438D01*
X143463437Y-107587037D01*
X143379272Y-107643274D01*
X143184625Y-107934586D01*
X143156485Y-107976700D01*
X143078252Y-108370001D01*
X143097999Y-108469276D01*
X143097999Y-108755000D01*
X143097629Y-108755000D01*
X142628590Y-108848298D01*
X142096697Y-109203697D01*
X141986000Y-109369367D01*
X141875303Y-109203697D01*
X141849000Y-109186122D01*
X141849000Y-105325558D01*
X141861757Y-105323020D01*
X142112487Y-105155487D01*
X142217178Y-104998806D01*
X142628590Y-105273702D01*
X143097629Y-105367000D01*
X143414371Y-105367000D01*
X143883410Y-105273702D01*
X144415303Y-104918303D01*
X144542920Y-104727310D01*
X144854081Y-105062247D01*
X145424511Y-105323500D01*
X145540503Y-105346572D01*
X145792000Y-105177494D01*
X145792000Y-103763000D01*
X145800000Y-103763000D01*
X145800000Y-105177494D01*
X146051497Y-105346572D01*
X146167489Y-105323500D01*
X146737919Y-105062247D01*
X147164951Y-104602586D01*
X147383572Y-104014497D01*
X147214495Y-103763000D01*
X145800000Y-103763000D01*
X145792000Y-103763000D01*
X145772000Y-103763000D01*
X145772000Y-103755000D01*
X145792000Y-103755000D01*
X145792000Y-102340506D01*
X145800000Y-102340506D01*
X145800000Y-103755000D01*
X147214495Y-103755000D01*
X147383572Y-103503503D01*
X147164951Y-102915414D01*
X146737919Y-102455753D01*
X146167489Y-102194500D01*
X146051497Y-102171428D01*
X145800000Y-102340506D01*
X145792000Y-102340506D01*
X145540503Y-102171428D01*
X145424511Y-102194500D01*
X144854081Y-102455753D01*
X144542920Y-102790690D01*
X144415303Y-102599697D01*
X144264000Y-102498600D01*
X144264000Y-101572268D01*
X144283746Y-101472999D01*
X144264000Y-101373730D01*
X144264000Y-101373726D01*
X144205514Y-101079698D01*
X143982727Y-100746273D01*
X143898562Y-100690036D01*
X143756000Y-100547474D01*
X143756000Y-98963160D01*
X143820396Y-99286901D01*
X144164745Y-99802255D01*
X144680099Y-100146604D01*
X145134550Y-100237000D01*
X145441450Y-100237000D01*
X145895901Y-100146604D01*
X146411255Y-99802255D01*
X146450698Y-99743224D01*
X149822520Y-103115047D01*
X149795477Y-103251000D01*
X149916396Y-103858901D01*
X150260745Y-104374255D01*
X150376001Y-104451266D01*
X150376000Y-106072726D01*
X150356253Y-106172000D01*
X150416974Y-106477262D01*
X150434486Y-106565301D01*
X150657273Y-106898727D01*
X150741438Y-106954964D01*
X152125037Y-108338564D01*
X152181273Y-108422727D01*
X152514698Y-108645514D01*
X152808726Y-108704000D01*
X152808730Y-108704000D01*
X152907999Y-108723746D01*
X153007268Y-108704000D01*
X161698726Y-108704000D01*
X161798000Y-108723747D01*
X161897274Y-108704000D01*
X162191302Y-108645514D01*
X162524727Y-108422727D01*
X162580964Y-108338562D01*
X163485527Y-107434000D01*
X164905578Y-107434000D01*
X164932980Y-107571757D01*
X165100513Y-107822487D01*
X165351243Y-107990020D01*
X165647000Y-108048850D01*
X167347000Y-108048850D01*
X167642757Y-107990020D01*
X167893487Y-107822487D01*
X168061020Y-107571757D01*
X168094278Y-107404560D01*
X168240302Y-107375514D01*
X168573727Y-107152727D01*
X168629964Y-107068562D01*
X173792001Y-101906526D01*
X173792001Y-119182000D01*
X114888640Y-119182000D01*
X115075701Y-119104517D01*
X115739017Y-118441201D01*
X116098001Y-117574536D01*
X116098001Y-116636466D01*
X115739017Y-115769801D01*
X115075701Y-115106485D01*
X114209036Y-114747501D01*
X113270966Y-114747501D01*
X112404301Y-115106485D01*
X111740985Y-115769801D01*
X111382001Y-116636466D01*
X111382001Y-117574536D01*
X111740985Y-118441201D01*
X112404301Y-119104517D01*
X112591362Y-119182000D01*
X91638000Y-119182000D01*
X91638000Y-115527282D01*
X92585730Y-115527282D01*
X92585730Y-116425518D01*
X92929470Y-117255380D01*
X93564620Y-117890530D01*
X94394482Y-118234270D01*
X95292718Y-118234270D01*
X96122580Y-117890530D01*
X96757730Y-117255380D01*
X97101470Y-116425518D01*
X97101470Y-115527282D01*
X96757730Y-114697420D01*
X96122580Y-114062270D01*
X95292718Y-113718530D01*
X94394482Y-113718530D01*
X93564620Y-114062270D01*
X92929470Y-114697420D01*
X92585730Y-115527282D01*
X91638000Y-115527282D01*
X91638000Y-95628497D01*
X92052000Y-95628497D01*
X92052000Y-96395503D01*
X92345520Y-97104124D01*
X92887876Y-97646480D01*
X93596497Y-97940000D01*
X94363503Y-97940000D01*
X95072124Y-97646480D01*
X95614480Y-97104124D01*
X95908000Y-96395503D01*
X95908000Y-95686304D01*
X96544804Y-95049500D01*
X100999329Y-95049500D01*
X101500099Y-95384104D01*
X101954550Y-95474500D01*
X102261450Y-95474500D01*
X102715901Y-95384104D01*
X103231255Y-95039755D01*
X103575604Y-94524401D01*
X103696523Y-93916500D01*
X103595819Y-93410225D01*
X104722000Y-93410225D01*
X104722000Y-94167500D01*
X104911500Y-94357000D01*
X106676000Y-94357000D01*
X106676000Y-92992500D01*
X106684000Y-92992500D01*
X106684000Y-94357000D01*
X108448500Y-94357000D01*
X108638000Y-94167500D01*
X108638000Y-93410225D01*
X108522602Y-93131628D01*
X108309373Y-92918399D01*
X108030776Y-92803000D01*
X106873500Y-92803000D01*
X106684000Y-92992500D01*
X106676000Y-92992500D01*
X106486500Y-92803000D01*
X105329224Y-92803000D01*
X105050627Y-92918399D01*
X104837398Y-93131628D01*
X104722000Y-93410225D01*
X103595819Y-93410225D01*
X103575604Y-93308599D01*
X103231255Y-92793245D01*
X102715901Y-92448896D01*
X102261450Y-92358500D01*
X101954550Y-92358500D01*
X101500099Y-92448896D01*
X100999329Y-92783500D01*
X96187087Y-92783500D01*
X96075500Y-92761304D01*
X95633425Y-92849238D01*
X95419019Y-92992500D01*
X95258653Y-93099653D01*
X95195444Y-93194252D01*
X94305696Y-94084000D01*
X93596497Y-94084000D01*
X92887876Y-94377520D01*
X92345520Y-94919876D01*
X92052000Y-95628497D01*
X91638000Y-95628497D01*
X91638000Y-91782483D01*
X95457374Y-91782483D01*
X95513329Y-92077889D01*
X96076858Y-92335961D01*
X96696250Y-92358735D01*
X97277209Y-92142744D01*
X97374271Y-92077889D01*
X97430226Y-91782483D01*
X96443800Y-90796057D01*
X95457374Y-91782483D01*
X91638000Y-91782483D01*
X91638000Y-91042850D01*
X94875465Y-91042850D01*
X95091456Y-91623809D01*
X95156311Y-91720871D01*
X95451717Y-91776826D01*
X96438143Y-90790400D01*
X96449457Y-90790400D01*
X97435883Y-91776826D01*
X97731289Y-91720871D01*
X97989361Y-91157342D01*
X98006751Y-90684375D01*
X98461612Y-90684375D01*
X98483919Y-90796517D01*
X98737004Y-91349230D01*
X99182339Y-91763019D01*
X99752125Y-91974888D01*
X99995800Y-91805195D01*
X99995800Y-90440700D01*
X100003800Y-90440700D01*
X100003800Y-91805195D01*
X100247475Y-91974888D01*
X100817261Y-91763019D01*
X101262596Y-91349230D01*
X101515681Y-90796517D01*
X101537988Y-90684375D01*
X101368294Y-90440700D01*
X100003800Y-90440700D01*
X99995800Y-90440700D01*
X98631306Y-90440700D01*
X98461612Y-90684375D01*
X98006751Y-90684375D01*
X98012135Y-90537950D01*
X97796144Y-89956991D01*
X97731289Y-89859929D01*
X97435883Y-89803974D01*
X96449457Y-90790400D01*
X96438143Y-90790400D01*
X95451717Y-89803974D01*
X95156311Y-89859929D01*
X94898239Y-90423458D01*
X94875465Y-91042850D01*
X91638000Y-91042850D01*
X91638000Y-61793000D01*
X103393737Y-61793000D01*
X103153513Y-61953513D01*
G36*
X149987234Y-109599761D02*
X149869980Y-109775243D01*
X149811150Y-110071000D01*
X149811150Y-111671000D01*
X149869980Y-111966757D01*
X150037513Y-112217487D01*
X150288243Y-112385020D01*
X150378634Y-112403000D01*
X141912753Y-112403000D01*
X141369813Y-111860060D01*
X141875303Y-111522303D01*
X141986000Y-111356633D01*
X142096697Y-111522303D01*
X142628590Y-111877702D01*
X143097629Y-111971000D01*
X143414371Y-111971000D01*
X143883410Y-111877702D01*
X144288703Y-111606894D01*
X144303399Y-111642373D01*
X144516628Y-111855602D01*
X144795225Y-111971000D01*
X145602500Y-111971000D01*
X145792000Y-111781500D01*
X145792000Y-110367000D01*
X145800000Y-110367000D01*
X145800000Y-111781500D01*
X145989500Y-111971000D01*
X146796775Y-111971000D01*
X147075372Y-111855602D01*
X147288601Y-111642373D01*
X147404000Y-111363776D01*
X147404000Y-110556500D01*
X147214500Y-110367000D01*
X145800000Y-110367000D01*
X145792000Y-110367000D01*
X145772000Y-110367000D01*
X145772000Y-110359000D01*
X145792000Y-110359000D01*
X145792000Y-110339000D01*
X145800000Y-110339000D01*
X145800000Y-110359000D01*
X147214500Y-110359000D01*
X147404000Y-110169500D01*
X147404000Y-109362224D01*
X147288601Y-109083627D01*
X147075372Y-108870398D01*
X146980256Y-108831000D01*
X149218474Y-108831000D01*
X149987234Y-109599761D01*
X149987234Y-109599761D01*
G37*
X149987234Y-109599761D02*
X149869980Y-109775243D01*
X149811150Y-110071000D01*
X149811150Y-111671000D01*
X149869980Y-111966757D01*
X150037513Y-112217487D01*
X150288243Y-112385020D01*
X150378634Y-112403000D01*
X141912753Y-112403000D01*
X141369813Y-111860060D01*
X141875303Y-111522303D01*
X141986000Y-111356633D01*
X142096697Y-111522303D01*
X142628590Y-111877702D01*
X143097629Y-111971000D01*
X143414371Y-111971000D01*
X143883410Y-111877702D01*
X144288703Y-111606894D01*
X144303399Y-111642373D01*
X144516628Y-111855602D01*
X144795225Y-111971000D01*
X145602500Y-111971000D01*
X145792000Y-111781500D01*
X145792000Y-110367000D01*
X145800000Y-110367000D01*
X145800000Y-111781500D01*
X145989500Y-111971000D01*
X146796775Y-111971000D01*
X147075372Y-111855602D01*
X147288601Y-111642373D01*
X147404000Y-111363776D01*
X147404000Y-110556500D01*
X147214500Y-110367000D01*
X145800000Y-110367000D01*
X145792000Y-110367000D01*
X145772000Y-110367000D01*
X145772000Y-110359000D01*
X145792000Y-110359000D01*
X145792000Y-110339000D01*
X145800000Y-110339000D01*
X145800000Y-110359000D01*
X147214500Y-110359000D01*
X147404000Y-110169500D01*
X147404000Y-109362224D01*
X147288601Y-109083627D01*
X147075372Y-108870398D01*
X146980256Y-108831000D01*
X149218474Y-108831000D01*
X149987234Y-109599761D01*
G36*
X126379569Y-100630385D02*
X126262486Y-101219000D01*
X126379569Y-101807615D01*
X126712992Y-102306618D01*
X126981604Y-102486099D01*
X126731062Y-102654468D01*
X126405343Y-103144750D01*
X126311244Y-103478418D01*
X126481546Y-103714360D01*
X127996000Y-103714360D01*
X127996000Y-103694360D01*
X128004000Y-103694360D01*
X128004000Y-103714360D01*
X129518454Y-103714360D01*
X129688756Y-103478418D01*
X129594657Y-103144750D01*
X129268938Y-102654468D01*
X129018396Y-102486099D01*
X129287008Y-102306618D01*
X129340207Y-102227000D01*
X132554000Y-102227000D01*
X132554000Y-102544905D01*
X132791191Y-103117536D01*
X133171916Y-103498261D01*
X133125574Y-103742917D01*
X134112000Y-104729343D01*
X134126142Y-104715201D01*
X134131799Y-104720858D01*
X134117657Y-104735000D01*
X135104083Y-105721426D01*
X135399489Y-105665471D01*
X135657561Y-105101942D01*
X135680335Y-104482550D01*
X135464344Y-103901591D01*
X135423888Y-103841044D01*
X136406001Y-104823158D01*
X136406000Y-108347493D01*
X136268303Y-108255487D01*
X135974275Y-108197001D01*
X135875001Y-108177254D01*
X135775727Y-108197001D01*
X134035768Y-108197001D01*
X133936498Y-108177255D01*
X133837228Y-108197001D01*
X133837225Y-108197001D01*
X133543197Y-108255487D01*
X133256577Y-108447000D01*
X133006431Y-108447000D01*
X132488932Y-108661356D01*
X132092856Y-109057432D01*
X131878500Y-109574931D01*
X131878500Y-109702150D01*
X131366500Y-109702150D01*
X131070743Y-109760980D01*
X130820013Y-109928513D01*
X130692733Y-110119000D01*
X126026558Y-110119000D01*
X126024020Y-110106243D01*
X125856487Y-109855513D01*
X125605757Y-109687980D01*
X125593000Y-109685442D01*
X125593000Y-105727083D01*
X133125574Y-105727083D01*
X133181529Y-106022489D01*
X133745058Y-106280561D01*
X134364450Y-106303335D01*
X134945409Y-106087344D01*
X135042471Y-106022489D01*
X135098426Y-105727083D01*
X134112000Y-104740657D01*
X133125574Y-105727083D01*
X125593000Y-105727083D01*
X125593000Y-103958302D01*
X126311244Y-103958302D01*
X126405343Y-104291970D01*
X126731062Y-104782252D01*
X127219610Y-105110566D01*
X127796610Y-105226930D01*
X127996000Y-105226930D01*
X127996000Y-103722360D01*
X128004000Y-103722360D01*
X128004000Y-105226930D01*
X128203390Y-105226930D01*
X128780390Y-105110566D01*
X128963592Y-104987450D01*
X132543665Y-104987450D01*
X132759656Y-105568409D01*
X132824511Y-105665471D01*
X133119917Y-105721426D01*
X134106343Y-104735000D01*
X133119917Y-103748574D01*
X132824511Y-103804529D01*
X132566439Y-104368058D01*
X132543665Y-104987450D01*
X128963592Y-104987450D01*
X129268938Y-104782252D01*
X129594657Y-104291970D01*
X129688756Y-103958302D01*
X129518454Y-103722360D01*
X128004000Y-103722360D01*
X127996000Y-103722360D01*
X126481546Y-103722360D01*
X126311244Y-103958302D01*
X125593000Y-103958302D01*
X125593000Y-101295873D01*
X126623385Y-100265489D01*
X126379569Y-100630385D01*
X126379569Y-100630385D01*
G37*
X126379569Y-100630385D02*
X126262486Y-101219000D01*
X126379569Y-101807615D01*
X126712992Y-102306618D01*
X126981604Y-102486099D01*
X126731062Y-102654468D01*
X126405343Y-103144750D01*
X126311244Y-103478418D01*
X126481546Y-103714360D01*
X127996000Y-103714360D01*
X127996000Y-103694360D01*
X128004000Y-103694360D01*
X128004000Y-103714360D01*
X129518454Y-103714360D01*
X129688756Y-103478418D01*
X129594657Y-103144750D01*
X129268938Y-102654468D01*
X129018396Y-102486099D01*
X129287008Y-102306618D01*
X129340207Y-102227000D01*
X132554000Y-102227000D01*
X132554000Y-102544905D01*
X132791191Y-103117536D01*
X133171916Y-103498261D01*
X133125574Y-103742917D01*
X134112000Y-104729343D01*
X134126142Y-104715201D01*
X134131799Y-104720858D01*
X134117657Y-104735000D01*
X135104083Y-105721426D01*
X135399489Y-105665471D01*
X135657561Y-105101942D01*
X135680335Y-104482550D01*
X135464344Y-103901591D01*
X135423888Y-103841044D01*
X136406001Y-104823158D01*
X136406000Y-108347493D01*
X136268303Y-108255487D01*
X135974275Y-108197001D01*
X135875001Y-108177254D01*
X135775727Y-108197001D01*
X134035768Y-108197001D01*
X133936498Y-108177255D01*
X133837228Y-108197001D01*
X133837225Y-108197001D01*
X133543197Y-108255487D01*
X133256577Y-108447000D01*
X133006431Y-108447000D01*
X132488932Y-108661356D01*
X132092856Y-109057432D01*
X131878500Y-109574931D01*
X131878500Y-109702150D01*
X131366500Y-109702150D01*
X131070743Y-109760980D01*
X130820013Y-109928513D01*
X130692733Y-110119000D01*
X126026558Y-110119000D01*
X126024020Y-110106243D01*
X125856487Y-109855513D01*
X125605757Y-109687980D01*
X125593000Y-109685442D01*
X125593000Y-105727083D01*
X133125574Y-105727083D01*
X133181529Y-106022489D01*
X133745058Y-106280561D01*
X134364450Y-106303335D01*
X134945409Y-106087344D01*
X135042471Y-106022489D01*
X135098426Y-105727083D01*
X134112000Y-104740657D01*
X133125574Y-105727083D01*
X125593000Y-105727083D01*
X125593000Y-103958302D01*
X126311244Y-103958302D01*
X126405343Y-104291970D01*
X126731062Y-104782252D01*
X127219610Y-105110566D01*
X127796610Y-105226930D01*
X127996000Y-105226930D01*
X127996000Y-103722360D01*
X128004000Y-103722360D01*
X128004000Y-105226930D01*
X128203390Y-105226930D01*
X128780390Y-105110566D01*
X128963592Y-104987450D01*
X132543665Y-104987450D01*
X132759656Y-105568409D01*
X132824511Y-105665471D01*
X133119917Y-105721426D01*
X134106343Y-104735000D01*
X133119917Y-103748574D01*
X132824511Y-103804529D01*
X132566439Y-104368058D01*
X132543665Y-104987450D01*
X128963592Y-104987450D01*
X129268938Y-104782252D01*
X129594657Y-104291970D01*
X129688756Y-103958302D01*
X129518454Y-103722360D01*
X128004000Y-103722360D01*
X127996000Y-103722360D01*
X126481546Y-103722360D01*
X126311244Y-103958302D01*
X125593000Y-103958302D01*
X125593000Y-101295873D01*
X126623385Y-100265489D01*
X126379569Y-100630385D01*
G36*
X127718002Y-67543529D02*
X127718002Y-67568743D01*
X127556893Y-67676393D01*
X127444831Y-67844105D01*
X127036693Y-67464954D01*
X126443625Y-67244496D01*
X126190001Y-67413406D01*
X126190001Y-68841501D01*
X126210001Y-68841501D01*
X126210001Y-68849501D01*
X126190001Y-68849501D01*
X126190001Y-70277596D01*
X126443625Y-70446506D01*
X127036693Y-70226048D01*
X127444831Y-69846897D01*
X127556893Y-70014609D01*
X128093284Y-70373015D01*
X128566287Y-70467101D01*
X128885715Y-70467101D01*
X129358718Y-70373015D01*
X129391086Y-70351387D01*
X127881438Y-71861036D01*
X127797273Y-71917273D01*
X127640232Y-72152303D01*
X127574486Y-72250699D01*
X127496253Y-72644000D01*
X127516000Y-72743275D01*
X127516000Y-72907600D01*
X127364697Y-73008697D01*
X127009298Y-73540590D01*
X126884498Y-74168000D01*
X127009298Y-74795410D01*
X127284194Y-75206822D01*
X127127513Y-75311513D01*
X126959980Y-75562243D01*
X126901150Y-75858000D01*
X126901150Y-77558000D01*
X126959980Y-77853757D01*
X127097261Y-78059212D01*
X126916474Y-78240000D01*
X120749273Y-78240000D01*
X120649999Y-78220253D01*
X120389751Y-78272020D01*
X120256698Y-78298486D01*
X119923273Y-78521273D01*
X119867039Y-78605434D01*
X118737436Y-79735038D01*
X118653274Y-79791273D01*
X118499789Y-80020981D01*
X118430486Y-80124699D01*
X118352253Y-80518000D01*
X118372001Y-80617279D01*
X118372000Y-82238734D01*
X118256745Y-82315745D01*
X117912396Y-82831099D01*
X117791477Y-83439000D01*
X117912396Y-84046901D01*
X118256745Y-84562255D01*
X118458555Y-84697100D01*
X118059191Y-85096464D01*
X117822000Y-85669095D01*
X117822000Y-86288905D01*
X118059191Y-86861536D01*
X118372000Y-87174345D01*
X118372001Y-87690234D01*
X117974416Y-88087819D01*
X117722000Y-88697203D01*
X117722000Y-89356797D01*
X117974416Y-89966181D01*
X118041631Y-90033396D01*
X117837399Y-90237627D01*
X117722000Y-90516224D01*
X117722000Y-91373500D01*
X117911500Y-91563000D01*
X119376000Y-91563000D01*
X119376000Y-91543000D01*
X119384000Y-91543000D01*
X119384000Y-91563000D01*
X120848500Y-91563000D01*
X121038000Y-91373500D01*
X121038000Y-90516224D01*
X120922601Y-90237627D01*
X120718370Y-90033396D01*
X120785584Y-89966181D01*
X121038000Y-89356797D01*
X121038000Y-88697203D01*
X120785584Y-88087819D01*
X120388000Y-87690235D01*
X120388000Y-87174345D01*
X120700809Y-86861536D01*
X120938000Y-86288905D01*
X120938000Y-85669095D01*
X120700809Y-85096464D01*
X120301445Y-84697100D01*
X120503255Y-84562255D01*
X120847604Y-84046901D01*
X120968523Y-83439000D01*
X120847604Y-82831099D01*
X120503255Y-82315745D01*
X120388000Y-82238734D01*
X120388000Y-80935526D01*
X121067527Y-80256000D01*
X127234726Y-80256000D01*
X127334000Y-80275747D01*
X127433274Y-80256000D01*
X127727302Y-80197514D01*
X128060727Y-79974727D01*
X128116964Y-79890562D01*
X129166564Y-78840963D01*
X129250727Y-78784727D01*
X129473514Y-78451302D01*
X129489082Y-78373039D01*
X129502560Y-78305278D01*
X129669757Y-78272020D01*
X129920487Y-78104487D01*
X130025178Y-77947806D01*
X130056000Y-77968401D01*
X130056001Y-79465472D01*
X129376474Y-80145000D01*
X128623273Y-80145000D01*
X128523999Y-80125253D01*
X128229932Y-80183747D01*
X128130698Y-80203486D01*
X127797273Y-80426273D01*
X127741039Y-80510434D01*
X125998024Y-82253450D01*
X125575901Y-81971396D01*
X125121450Y-81881000D01*
X124814550Y-81881000D01*
X124360099Y-81971396D01*
X123844745Y-82315745D01*
X123500396Y-82831099D01*
X123379477Y-83439000D01*
X123500396Y-84046901D01*
X123844745Y-84562255D01*
X124046555Y-84697100D01*
X123647191Y-85096464D01*
X123410000Y-85669095D01*
X123410000Y-86288905D01*
X123647191Y-86861536D01*
X123960000Y-87174345D01*
X123960001Y-87626734D01*
X123498916Y-88087819D01*
X123246500Y-88697203D01*
X123246500Y-89356797D01*
X123498916Y-89966181D01*
X123566131Y-90033396D01*
X123361899Y-90237627D01*
X123246500Y-90516224D01*
X123246500Y-91373500D01*
X123436000Y-91563000D01*
X124900500Y-91563000D01*
X124900500Y-91543000D01*
X124908500Y-91543000D01*
X124908500Y-91563000D01*
X126373000Y-91563000D01*
X126562500Y-91373500D01*
X126562500Y-90516224D01*
X126447101Y-90237627D01*
X126242870Y-90033396D01*
X126310084Y-89966181D01*
X126562500Y-89356797D01*
X126562500Y-88697203D01*
X126310084Y-88087819D01*
X125976000Y-87753735D01*
X125976000Y-87174345D01*
X126288809Y-86861536D01*
X126526000Y-86288905D01*
X126526000Y-85669095D01*
X126288809Y-85096464D01*
X125889445Y-84697100D01*
X126091255Y-84562255D01*
X126164800Y-84452187D01*
X126238000Y-84466747D01*
X126337274Y-84447000D01*
X126631302Y-84388514D01*
X126964727Y-84165727D01*
X127020964Y-84081562D01*
X128941527Y-82161000D01*
X129664337Y-82161000D01*
X129432745Y-82315745D01*
X129088396Y-82831099D01*
X128967477Y-83439000D01*
X129088396Y-84046901D01*
X129432745Y-84562255D01*
X129634555Y-84697100D01*
X129235191Y-85096464D01*
X128998000Y-85669095D01*
X128998000Y-86288905D01*
X129235191Y-86861536D01*
X129548000Y-87174345D01*
X129548001Y-87690234D01*
X129150416Y-88087819D01*
X128898000Y-88697203D01*
X128898000Y-89356797D01*
X129150416Y-89966181D01*
X129217631Y-90033396D01*
X129013399Y-90237627D01*
X128898000Y-90516224D01*
X128898000Y-91373500D01*
X129087500Y-91563000D01*
X130552000Y-91563000D01*
X130552000Y-91543000D01*
X130560000Y-91543000D01*
X130560000Y-91563000D01*
X132024500Y-91563000D01*
X132214000Y-91373500D01*
X132214000Y-90516224D01*
X132098601Y-90237627D01*
X131894370Y-90033396D01*
X131961584Y-89966181D01*
X132214000Y-89356797D01*
X132214000Y-88697203D01*
X131961584Y-88087819D01*
X131564000Y-87690235D01*
X131564000Y-87174345D01*
X131876809Y-86861536D01*
X132114000Y-86288905D01*
X132114000Y-85669095D01*
X131876809Y-85096464D01*
X131477445Y-84697100D01*
X131679255Y-84562255D01*
X131751610Y-84453969D01*
X131786644Y-84447000D01*
X132080672Y-84388514D01*
X132414097Y-84165727D01*
X132470334Y-84081562D01*
X134246565Y-82305332D01*
X134330727Y-82249097D01*
X134553514Y-81915672D01*
X134576463Y-81800301D01*
X134631747Y-81522371D01*
X134612000Y-81423097D01*
X134612000Y-77968400D01*
X134763303Y-77867303D01*
X134874000Y-77701633D01*
X134984697Y-77867303D01*
X135136000Y-77968400D01*
X135136001Y-82125144D01*
X134850746Y-82315745D01*
X134506397Y-82831099D01*
X134385478Y-83439000D01*
X134506397Y-84046901D01*
X134850746Y-84562255D01*
X135052556Y-84697100D01*
X134653192Y-85096464D01*
X134416001Y-85669095D01*
X134416001Y-86288905D01*
X134653192Y-86861536D01*
X134966001Y-87174345D01*
X134966002Y-87860233D01*
X134738416Y-88087819D01*
X134486000Y-88697203D01*
X134486000Y-89356797D01*
X134738416Y-89966181D01*
X134805631Y-90033396D01*
X134601399Y-90237627D01*
X134486000Y-90516224D01*
X134486000Y-91373500D01*
X134675500Y-91563000D01*
X136140000Y-91563000D01*
X136140000Y-91543000D01*
X136148000Y-91543000D01*
X136148000Y-91563000D01*
X137612500Y-91563000D01*
X137802000Y-91373500D01*
X137802000Y-90516224D01*
X137686601Y-90237627D01*
X137482370Y-90033396D01*
X137549584Y-89966181D01*
X137802000Y-89356797D01*
X137802000Y-88697203D01*
X137549584Y-88087819D01*
X137083181Y-87621416D01*
X136982001Y-87579506D01*
X136982001Y-87174345D01*
X137294810Y-86861536D01*
X137532001Y-86288905D01*
X137532001Y-85669095D01*
X137294810Y-85096464D01*
X136895446Y-84697100D01*
X137097256Y-84562255D01*
X137441605Y-84046901D01*
X137562524Y-83439000D01*
X137535481Y-83303046D01*
X139566528Y-81272000D01*
X142473473Y-81272000D01*
X141864474Y-81881000D01*
X141578550Y-81881000D01*
X141124099Y-81971396D01*
X140608745Y-82315745D01*
X140264396Y-82831099D01*
X140143477Y-83439000D01*
X140264396Y-84046901D01*
X140608745Y-84562255D01*
X140810555Y-84697100D01*
X140411191Y-85096464D01*
X140174000Y-85669095D01*
X140174000Y-86288905D01*
X140411191Y-86861536D01*
X140724000Y-87174345D01*
X140724001Y-87690234D01*
X140326416Y-88087819D01*
X140074000Y-88697203D01*
X140074000Y-89356797D01*
X140326416Y-89966181D01*
X140393631Y-90033396D01*
X140189399Y-90237627D01*
X140074000Y-90516224D01*
X140074000Y-91373500D01*
X140263500Y-91563000D01*
X141728000Y-91563000D01*
X141728000Y-91543000D01*
X141736000Y-91543000D01*
X141736000Y-91563000D01*
X143200500Y-91563000D01*
X143390000Y-91373500D01*
X143390000Y-90516224D01*
X143274601Y-90237627D01*
X143070370Y-90033396D01*
X143137584Y-89966181D01*
X143390000Y-89356797D01*
X143390000Y-88697203D01*
X143137584Y-88087819D01*
X142740000Y-87690235D01*
X142740000Y-87174345D01*
X143052809Y-86861536D01*
X143290000Y-86288905D01*
X143290000Y-85669095D01*
X143052809Y-85096464D01*
X142653445Y-84697100D01*
X142855255Y-84562255D01*
X143199604Y-84046901D01*
X143320523Y-83439000D01*
X143293480Y-83303046D01*
X144181527Y-82415000D01*
X146130425Y-82415000D01*
X145852396Y-82831099D01*
X145731477Y-83439000D01*
X145852396Y-84046901D01*
X146196745Y-84562255D01*
X146398555Y-84697100D01*
X145999191Y-85096464D01*
X145762000Y-85669095D01*
X145762000Y-86288905D01*
X145999191Y-86861536D01*
X146312000Y-87174345D01*
X146312001Y-87690234D01*
X145914416Y-88087819D01*
X145662000Y-88697203D01*
X145662000Y-89356797D01*
X145914416Y-89966181D01*
X145981631Y-90033396D01*
X145777399Y-90237627D01*
X145662000Y-90516224D01*
X145662000Y-91373500D01*
X145851500Y-91563000D01*
X147316000Y-91563000D01*
X147316000Y-91543000D01*
X147324000Y-91543000D01*
X147324000Y-91563000D01*
X148788500Y-91563000D01*
X148978000Y-91373500D01*
X148978000Y-90516224D01*
X148862601Y-90237627D01*
X148658370Y-90033396D01*
X148725584Y-89966181D01*
X148978000Y-89356797D01*
X148978000Y-88697203D01*
X148725584Y-88087819D01*
X148328000Y-87690235D01*
X148328000Y-87174345D01*
X148640809Y-86861536D01*
X148878000Y-86288905D01*
X148878000Y-85669095D01*
X148640809Y-85096464D01*
X148241445Y-84697100D01*
X148443255Y-84562255D01*
X148787604Y-84046901D01*
X148867149Y-83647001D01*
X150052725Y-83647001D01*
X150151999Y-83666748D01*
X150251273Y-83647001D01*
X150545301Y-83588515D01*
X150878726Y-83365728D01*
X150934963Y-83281563D01*
X151551085Y-82665441D01*
X151440396Y-82831099D01*
X151319477Y-83439000D01*
X151440396Y-84046901D01*
X151784745Y-84562255D01*
X151986555Y-84697100D01*
X151587191Y-85096464D01*
X151350000Y-85669095D01*
X151350000Y-86288905D01*
X151587191Y-86861536D01*
X151900000Y-87174345D01*
X151900001Y-87690234D01*
X151502416Y-88087819D01*
X151250000Y-88697203D01*
X151250000Y-89356797D01*
X151502416Y-89966181D01*
X151569631Y-90033396D01*
X151365399Y-90237627D01*
X151250000Y-90516224D01*
X151250000Y-91373500D01*
X151439500Y-91563000D01*
X152904000Y-91563000D01*
X152904000Y-91543000D01*
X152912000Y-91543000D01*
X152912000Y-91563000D01*
X154376500Y-91563000D01*
X154566000Y-91373500D01*
X154566000Y-90516224D01*
X154450601Y-90237627D01*
X154246370Y-90033396D01*
X154313584Y-89966181D01*
X154566000Y-89356797D01*
X154566000Y-88697203D01*
X154313584Y-88087819D01*
X153916000Y-87690235D01*
X153916000Y-87174345D01*
X154228809Y-86861536D01*
X154466000Y-86288905D01*
X154466000Y-85669095D01*
X154228809Y-85096464D01*
X153829445Y-84697100D01*
X154031255Y-84562255D01*
X154375604Y-84046901D01*
X154496523Y-83439000D01*
X154469480Y-83303046D01*
X157106564Y-80665962D01*
X157190727Y-80609727D01*
X157413514Y-80276302D01*
X157472000Y-79982274D01*
X157472000Y-79982270D01*
X157491746Y-79883001D01*
X157472000Y-79783732D01*
X157472000Y-75428400D01*
X157623303Y-75327303D01*
X157734000Y-75161633D01*
X157844697Y-75327303D01*
X157996000Y-75428400D01*
X157996001Y-81949933D01*
X157888099Y-81971396D01*
X157372745Y-82315745D01*
X157028396Y-82831099D01*
X156907477Y-83439000D01*
X157028396Y-84046901D01*
X157372745Y-84562255D01*
X157574555Y-84697100D01*
X157175191Y-85096464D01*
X156938000Y-85669095D01*
X156938000Y-86288905D01*
X157175191Y-86861536D01*
X157488000Y-87174345D01*
X157488001Y-87690234D01*
X157090416Y-88087819D01*
X156838000Y-88697203D01*
X156838000Y-89356797D01*
X157090416Y-89966181D01*
X157157631Y-90033396D01*
X156953399Y-90237627D01*
X156838000Y-90516224D01*
X156838000Y-91373500D01*
X157027500Y-91563000D01*
X158492000Y-91563000D01*
X158492000Y-91543000D01*
X158500000Y-91543000D01*
X158500000Y-91563000D01*
X159964500Y-91563000D01*
X160154000Y-91373500D01*
X160154000Y-90516224D01*
X160038601Y-90237627D01*
X159834370Y-90033396D01*
X159901584Y-89966181D01*
X160154000Y-89356797D01*
X160154000Y-89165501D01*
X161743632Y-89165501D01*
X161869487Y-89798218D01*
X162227893Y-90334609D01*
X162378888Y-90435501D01*
X162227893Y-90536393D01*
X161869487Y-91072784D01*
X161743632Y-91705501D01*
X161869487Y-92338218D01*
X162227893Y-92874609D01*
X162378888Y-92975501D01*
X162227893Y-93076393D01*
X161869487Y-93612784D01*
X161743632Y-94245501D01*
X161869487Y-94878218D01*
X162227893Y-95414609D01*
X162764284Y-95773015D01*
X163237287Y-95867101D01*
X163556715Y-95867101D01*
X164029718Y-95773015D01*
X164566109Y-95414609D01*
X164667001Y-95263614D01*
X164767893Y-95414609D01*
X165304284Y-95773015D01*
X165777287Y-95867101D01*
X166096715Y-95867101D01*
X166569718Y-95773015D01*
X167106109Y-95414609D01*
X167464515Y-94878218D01*
X167590370Y-94245501D01*
X167464515Y-93612784D01*
X167106109Y-93076393D01*
X166955114Y-92975501D01*
X167106109Y-92874609D01*
X167464515Y-92338218D01*
X167590370Y-91705501D01*
X167464515Y-91072784D01*
X167106109Y-90536393D01*
X166955114Y-90435501D01*
X167106109Y-90334609D01*
X167464515Y-89798218D01*
X167590370Y-89165501D01*
X167464515Y-88532784D01*
X167106109Y-87996393D01*
X166569718Y-87637987D01*
X166096715Y-87543901D01*
X165777287Y-87543901D01*
X165304284Y-87637987D01*
X164767893Y-87996393D01*
X164667001Y-88147388D01*
X164566109Y-87996393D01*
X164029718Y-87637987D01*
X163556715Y-87543901D01*
X163237287Y-87543901D01*
X162764284Y-87637987D01*
X162227893Y-87996393D01*
X161869487Y-88532784D01*
X161743632Y-89165501D01*
X160154000Y-89165501D01*
X160154000Y-88697203D01*
X159901584Y-88087819D01*
X159504000Y-87690235D01*
X159504000Y-87174345D01*
X159816809Y-86861536D01*
X160054000Y-86288905D01*
X160054000Y-85669095D01*
X159816809Y-85096464D01*
X159417445Y-84697100D01*
X159619255Y-84562255D01*
X159963604Y-84046901D01*
X160049222Y-83616466D01*
X163452001Y-83616466D01*
X163452001Y-84554536D01*
X163810985Y-85421201D01*
X164474301Y-86084517D01*
X165340966Y-86443501D01*
X166279036Y-86443501D01*
X167145701Y-86084517D01*
X167809017Y-85421201D01*
X168168001Y-84554536D01*
X168168001Y-83616466D01*
X167809017Y-82749801D01*
X167145701Y-82086485D01*
X166279036Y-81727501D01*
X165340966Y-81727501D01*
X164474301Y-82086485D01*
X163810985Y-82749801D01*
X163452001Y-83616466D01*
X160049222Y-83616466D01*
X160084523Y-83439000D01*
X160007611Y-83052338D01*
X160012000Y-83030274D01*
X160012000Y-83030270D01*
X160031746Y-82931001D01*
X160012000Y-82831732D01*
X160012000Y-75428400D01*
X160163303Y-75327303D01*
X160518702Y-74795410D01*
X160643502Y-74168000D01*
X160518702Y-73540590D01*
X160163303Y-73008697D01*
X160151799Y-73001010D01*
X163972403Y-73001010D01*
X165146958Y-74175567D01*
X165203192Y-74259727D01*
X165287351Y-74315960D01*
X165287352Y-74315961D01*
X165536617Y-74482514D01*
X165877877Y-74550395D01*
X165972697Y-74692303D01*
X166138367Y-74803000D01*
X165972697Y-74913697D01*
X165617298Y-75445590D01*
X165492498Y-76073000D01*
X165617298Y-76700410D01*
X165972697Y-77232303D01*
X166138367Y-77343000D01*
X165972697Y-77453697D01*
X165617298Y-77985590D01*
X165492498Y-78613000D01*
X165617298Y-79240410D01*
X165972697Y-79772303D01*
X166504590Y-80127702D01*
X166973629Y-80221000D01*
X167290371Y-80221000D01*
X167759410Y-80127702D01*
X168291303Y-79772303D01*
X168402000Y-79606633D01*
X168512697Y-79772303D01*
X168664000Y-79873400D01*
X168664001Y-95213472D01*
X166675475Y-97201999D01*
X166655371Y-97198000D01*
X166338629Y-97198000D01*
X165869590Y-97291298D01*
X165337697Y-97646697D01*
X165236600Y-97798000D01*
X160289125Y-97798000D01*
X160127255Y-97555745D01*
X159925445Y-97420900D01*
X160324809Y-97021536D01*
X160562000Y-96448905D01*
X160562000Y-95829095D01*
X160324809Y-95256464D01*
X159886536Y-94818191D01*
X159313905Y-94581000D01*
X158694095Y-94581000D01*
X158121464Y-94818191D01*
X157808655Y-95131000D01*
X155627345Y-95131000D01*
X155314536Y-94818191D01*
X154741905Y-94581000D01*
X154122095Y-94581000D01*
X153549464Y-94818191D01*
X153236655Y-95131000D01*
X151055345Y-95131000D01*
X150742536Y-94818191D01*
X150169905Y-94581000D01*
X149550095Y-94581000D01*
X148977464Y-94818191D01*
X148664655Y-95131000D01*
X146483345Y-95131000D01*
X146170536Y-94818191D01*
X145597905Y-94581000D01*
X144978095Y-94581000D01*
X144405464Y-94818191D01*
X144101420Y-95122235D01*
X143763328Y-95189486D01*
X143533578Y-95343000D01*
X143429903Y-95412273D01*
X143373669Y-95496433D01*
X142105438Y-96764666D01*
X142021273Y-96820903D01*
X141848645Y-97079261D01*
X141798486Y-97154329D01*
X141720253Y-97547630D01*
X141740000Y-97646904D01*
X141740001Y-100865721D01*
X141720253Y-100965000D01*
X141798486Y-101358301D01*
X141822527Y-101394281D01*
X142021274Y-101691727D01*
X142105436Y-101747962D01*
X142248000Y-101890526D01*
X142248000Y-102498599D01*
X142217178Y-102519194D01*
X142112487Y-102362513D01*
X141861757Y-102194980D01*
X141566000Y-102136150D01*
X139866000Y-102136150D01*
X139570243Y-102194980D01*
X139319513Y-102362513D01*
X139151980Y-102613243D01*
X139093150Y-102909000D01*
X139093150Y-104609000D01*
X139151980Y-104904757D01*
X139319513Y-105155487D01*
X139570243Y-105323020D01*
X139583000Y-105325558D01*
X139583001Y-109186121D01*
X139556697Y-109203697D01*
X139218940Y-109709187D01*
X138422000Y-108912248D01*
X138422000Y-104504900D01*
X138441746Y-104405629D01*
X138422000Y-104306359D01*
X138422000Y-104306356D01*
X138363514Y-104012328D01*
X138140727Y-103678903D01*
X138056564Y-103622667D01*
X136026334Y-101592438D01*
X135970097Y-101508273D01*
X135636672Y-101285486D01*
X135342644Y-101227000D01*
X135298580Y-101218235D01*
X134994536Y-100914191D01*
X134421905Y-100677000D01*
X133979526Y-100677000D01*
X133878964Y-100576438D01*
X133822727Y-100492273D01*
X133489302Y-100269486D01*
X133195274Y-100211000D01*
X133096000Y-100191253D01*
X132996726Y-100211000D01*
X129340207Y-100211000D01*
X129287008Y-100131382D01*
X129044465Y-99969320D01*
X129287008Y-99807258D01*
X129620431Y-99308255D01*
X129737514Y-98719640D01*
X129620431Y-98131025D01*
X129287008Y-97632022D01*
X128788005Y-97298599D01*
X128347968Y-97211070D01*
X127652032Y-97211070D01*
X127211995Y-97298599D01*
X126780911Y-97586640D01*
X126678516Y-97586640D01*
X126566930Y-97564444D01*
X126455344Y-97586640D01*
X126455343Y-97586640D01*
X126124856Y-97652378D01*
X125750083Y-97902793D01*
X125686874Y-97997392D01*
X123737753Y-99946514D01*
X123643154Y-100009723D01*
X123579945Y-100104322D01*
X123392739Y-100384496D01*
X123304804Y-100826570D01*
X123327001Y-100938160D01*
X123327000Y-109685442D01*
X123314243Y-109687980D01*
X123063513Y-109855513D01*
X123042717Y-109886636D01*
X122987262Y-109607845D01*
X122736847Y-109233072D01*
X122642248Y-109169863D01*
X121335139Y-107862755D01*
X121271928Y-107768153D01*
X120897155Y-107517738D01*
X120566668Y-107452000D01*
X120566667Y-107452000D01*
X120455081Y-107429804D01*
X120343495Y-107452000D01*
X117586581Y-107452000D01*
X117474999Y-107429805D01*
X117363417Y-107452000D01*
X117363413Y-107452000D01*
X117032926Y-107517738D01*
X116658153Y-107768153D01*
X116594944Y-107862752D01*
X115735697Y-108722000D01*
X115641744Y-108722000D01*
X115845561Y-108276942D01*
X115868335Y-107657550D01*
X115652344Y-107076591D01*
X115587489Y-106979529D01*
X115292083Y-106923574D01*
X114305657Y-107910000D01*
X114319799Y-107924142D01*
X114314142Y-107929799D01*
X114300000Y-107915657D01*
X114285858Y-107929799D01*
X114280201Y-107924142D01*
X114294343Y-107910000D01*
X113307917Y-106923574D01*
X113012511Y-106979529D01*
X112754439Y-107543058D01*
X112731665Y-108162450D01*
X112939696Y-108722000D01*
X112229304Y-108722000D01*
X110861000Y-107353697D01*
X110861000Y-106543845D01*
X111048809Y-106356036D01*
X111286000Y-105783405D01*
X111286000Y-105163595D01*
X111048809Y-104590964D01*
X110610536Y-104152691D01*
X110037905Y-103915500D01*
X109772304Y-103915500D01*
X108506789Y-102649985D01*
X108547604Y-102588901D01*
X108668523Y-101981000D01*
X108547604Y-101373099D01*
X108203255Y-100857745D01*
X107983636Y-100711000D01*
X108203255Y-100564255D01*
X108547604Y-100048901D01*
X108668523Y-99441000D01*
X108547604Y-98833099D01*
X108203255Y-98317745D01*
X107983636Y-98171000D01*
X108171902Y-98045205D01*
X110289944Y-100163248D01*
X110353153Y-100257847D01*
X110727926Y-100508262D01*
X111058413Y-100574000D01*
X111058417Y-100574000D01*
X111169999Y-100596195D01*
X111281581Y-100574000D01*
X112791329Y-100574000D01*
X112996364Y-100711000D01*
X112776745Y-100857745D01*
X112432396Y-101373099D01*
X112311477Y-101981000D01*
X112432396Y-102588901D01*
X112776745Y-103104255D01*
X113167000Y-103365016D01*
X113167001Y-104339654D01*
X112979191Y-104527464D01*
X112742000Y-105100095D01*
X112742000Y-105719905D01*
X112979191Y-106292536D01*
X113359916Y-106673261D01*
X113313574Y-106917917D01*
X114300000Y-107904343D01*
X115286426Y-106917917D01*
X115240084Y-106673261D01*
X115620809Y-106292536D01*
X115858000Y-105719905D01*
X115858000Y-105100095D01*
X115620809Y-104527464D01*
X115433000Y-104339655D01*
X115433000Y-103365015D01*
X115823255Y-103104255D01*
X116167604Y-102588901D01*
X116288523Y-101981000D01*
X116167604Y-101373099D01*
X115823255Y-100857745D01*
X115603636Y-100711000D01*
X115678466Y-100661000D01*
X119033865Y-100661000D01*
X119176513Y-100874487D01*
X119427243Y-101042020D01*
X119723000Y-101100850D01*
X121323000Y-101100850D01*
X121618757Y-101042020D01*
X121869487Y-100874487D01*
X122037020Y-100623757D01*
X122095850Y-100328000D01*
X122095850Y-98728000D01*
X122037020Y-98432243D01*
X121869487Y-98181513D01*
X121618757Y-98013980D01*
X121569336Y-98004150D01*
X121810489Y-97958471D01*
X122068561Y-97394942D01*
X122091335Y-96775550D01*
X121875344Y-96194591D01*
X121810489Y-96097529D01*
X121515083Y-96041574D01*
X120528657Y-97028000D01*
X120542799Y-97042142D01*
X120537142Y-97047799D01*
X120523000Y-97033657D01*
X120508858Y-97047799D01*
X120503201Y-97042142D01*
X120517343Y-97028000D01*
X119530917Y-96041574D01*
X119235511Y-96097529D01*
X118977439Y-96661058D01*
X118954665Y-97280450D01*
X119170656Y-97861409D01*
X119235511Y-97958471D01*
X119476664Y-98004150D01*
X119427243Y-98013980D01*
X119176513Y-98181513D01*
X119033865Y-98395000D01*
X115874875Y-98395000D01*
X115823255Y-98317745D01*
X115603636Y-98171000D01*
X115823255Y-98024255D01*
X116167604Y-97508901D01*
X116288523Y-96901000D01*
X116167604Y-96293099D01*
X115995761Y-96035917D01*
X119536574Y-96035917D01*
X120523000Y-97022343D01*
X121509426Y-96035917D01*
X121453471Y-95740511D01*
X120889942Y-95482439D01*
X120270550Y-95459665D01*
X119689591Y-95675656D01*
X119592529Y-95740511D01*
X119536574Y-96035917D01*
X115995761Y-96035917D01*
X115823255Y-95777745D01*
X115603636Y-95631000D01*
X115823255Y-95484255D01*
X116167604Y-94968901D01*
X116288523Y-94361000D01*
X116224445Y-94038859D01*
X116232948Y-94030356D01*
X116327547Y-93967147D01*
X116577962Y-93592374D01*
X116643700Y-93261887D01*
X116643700Y-93261883D01*
X116665895Y-93150301D01*
X116643700Y-93038719D01*
X116643700Y-91777187D01*
X116660387Y-91760500D01*
X117722000Y-91760500D01*
X117722000Y-92617776D01*
X117837399Y-92896373D01*
X118050628Y-93109602D01*
X118329225Y-93225000D01*
X119186500Y-93225000D01*
X119376000Y-93035500D01*
X119376000Y-91571000D01*
X119384000Y-91571000D01*
X119384000Y-93035500D01*
X119573500Y-93225000D01*
X120430775Y-93225000D01*
X120709372Y-93109602D01*
X120922601Y-92896373D01*
X121038000Y-92617776D01*
X121038000Y-91760500D01*
X123246500Y-91760500D01*
X123246500Y-92617776D01*
X123361899Y-92896373D01*
X123575128Y-93109602D01*
X123853725Y-93225000D01*
X124711000Y-93225000D01*
X124900500Y-93035500D01*
X124900500Y-91571000D01*
X124908500Y-91571000D01*
X124908500Y-93035500D01*
X125098000Y-93225000D01*
X125955275Y-93225000D01*
X126233872Y-93109602D01*
X126447101Y-92896373D01*
X126562500Y-92617776D01*
X126562500Y-91760500D01*
X128898000Y-91760500D01*
X128898000Y-92617776D01*
X129013399Y-92896373D01*
X129226628Y-93109602D01*
X129505225Y-93225000D01*
X130362500Y-93225000D01*
X130552000Y-93035500D01*
X130552000Y-91571000D01*
X130560000Y-91571000D01*
X130560000Y-93035500D01*
X130749500Y-93225000D01*
X131606775Y-93225000D01*
X131885372Y-93109602D01*
X132098601Y-92896373D01*
X132214000Y-92617776D01*
X132214000Y-91760500D01*
X134486000Y-91760500D01*
X134486000Y-92617776D01*
X134601399Y-92896373D01*
X134814628Y-93109602D01*
X135093225Y-93225000D01*
X135950500Y-93225000D01*
X136140000Y-93035500D01*
X136140000Y-91571000D01*
X136148000Y-91571000D01*
X136148000Y-93035500D01*
X136337500Y-93225000D01*
X137194775Y-93225000D01*
X137473372Y-93109602D01*
X137686601Y-92896373D01*
X137802000Y-92617776D01*
X137802000Y-91760500D01*
X140074000Y-91760500D01*
X140074000Y-92617776D01*
X140189399Y-92896373D01*
X140402628Y-93109602D01*
X140681225Y-93225000D01*
X141538500Y-93225000D01*
X141728000Y-93035500D01*
X141728000Y-91571000D01*
X141736000Y-91571000D01*
X141736000Y-93035500D01*
X141925500Y-93225000D01*
X142782775Y-93225000D01*
X143061372Y-93109602D01*
X143274601Y-92896373D01*
X143390000Y-92617776D01*
X143390000Y-91760500D01*
X145662000Y-91760500D01*
X145662000Y-92617776D01*
X145777399Y-92896373D01*
X145990628Y-93109602D01*
X146269225Y-93225000D01*
X147126500Y-93225000D01*
X147316000Y-93035500D01*
X147316000Y-91571000D01*
X147324000Y-91571000D01*
X147324000Y-93035500D01*
X147513500Y-93225000D01*
X148370775Y-93225000D01*
X148649372Y-93109602D01*
X148862601Y-92896373D01*
X148978000Y-92617776D01*
X148978000Y-91760500D01*
X151250000Y-91760500D01*
X151250000Y-92617776D01*
X151365399Y-92896373D01*
X151578628Y-93109602D01*
X151857225Y-93225000D01*
X152714500Y-93225000D01*
X152904000Y-93035500D01*
X152904000Y-91571000D01*
X152912000Y-91571000D01*
X152912000Y-93035500D01*
X153101500Y-93225000D01*
X153958775Y-93225000D01*
X154237372Y-93109602D01*
X154450601Y-92896373D01*
X154566000Y-92617776D01*
X154566000Y-91760500D01*
X156838000Y-91760500D01*
X156838000Y-92617776D01*
X156953399Y-92896373D01*
X157166628Y-93109602D01*
X157445225Y-93225000D01*
X158302500Y-93225000D01*
X158492000Y-93035500D01*
X158492000Y-91571000D01*
X158500000Y-91571000D01*
X158500000Y-93035500D01*
X158689500Y-93225000D01*
X159546775Y-93225000D01*
X159825372Y-93109602D01*
X160038601Y-92896373D01*
X160154000Y-92617776D01*
X160154000Y-91760500D01*
X159964500Y-91571000D01*
X158500000Y-91571000D01*
X158492000Y-91571000D01*
X157027500Y-91571000D01*
X156838000Y-91760500D01*
X154566000Y-91760500D01*
X154376500Y-91571000D01*
X152912000Y-91571000D01*
X152904000Y-91571000D01*
X151439500Y-91571000D01*
X151250000Y-91760500D01*
X148978000Y-91760500D01*
X148788500Y-91571000D01*
X147324000Y-91571000D01*
X147316000Y-91571000D01*
X145851500Y-91571000D01*
X145662000Y-91760500D01*
X143390000Y-91760500D01*
X143200500Y-91571000D01*
X141736000Y-91571000D01*
X141728000Y-91571000D01*
X140263500Y-91571000D01*
X140074000Y-91760500D01*
X137802000Y-91760500D01*
X137612500Y-91571000D01*
X136148000Y-91571000D01*
X136140000Y-91571000D01*
X134675500Y-91571000D01*
X134486000Y-91760500D01*
X132214000Y-91760500D01*
X132024500Y-91571000D01*
X130560000Y-91571000D01*
X130552000Y-91571000D01*
X129087500Y-91571000D01*
X128898000Y-91760500D01*
X126562500Y-91760500D01*
X126373000Y-91571000D01*
X124908500Y-91571000D01*
X124900500Y-91571000D01*
X123436000Y-91571000D01*
X123246500Y-91760500D01*
X121038000Y-91760500D01*
X120848500Y-91571000D01*
X119384000Y-91571000D01*
X119376000Y-91571000D01*
X117911500Y-91571000D01*
X117722000Y-91760500D01*
X116660387Y-91760500D01*
X117001060Y-91419827D01*
X117268700Y-90773688D01*
X117268700Y-90074312D01*
X117001060Y-89428173D01*
X116518700Y-88945813D01*
X116518700Y-85402187D01*
X117001060Y-84919827D01*
X117268700Y-84273688D01*
X117268700Y-83574312D01*
X117001060Y-82928173D01*
X116518700Y-82445813D01*
X116518700Y-81437387D01*
X117001060Y-80955027D01*
X117268700Y-80308888D01*
X117268700Y-79609512D01*
X117001060Y-78963373D01*
X116518700Y-78481013D01*
X116518700Y-75640783D01*
X119142874Y-75640783D01*
X119198829Y-75936189D01*
X119762358Y-76194261D01*
X120381750Y-76217035D01*
X120962709Y-76001044D01*
X121059771Y-75936189D01*
X121115726Y-75640783D01*
X120129300Y-74654357D01*
X119142874Y-75640783D01*
X116518700Y-75640783D01*
X116518700Y-74937387D01*
X116554937Y-74901150D01*
X118560965Y-74901150D01*
X118776956Y-75482109D01*
X118841811Y-75579171D01*
X119137217Y-75635126D01*
X120123643Y-74648700D01*
X120134957Y-74648700D01*
X121121383Y-75635126D01*
X121416789Y-75579171D01*
X121674861Y-75015642D01*
X121697635Y-74396250D01*
X121481644Y-73815291D01*
X121416789Y-73718229D01*
X121121383Y-73662274D01*
X120134957Y-74648700D01*
X120123643Y-74648700D01*
X119137217Y-73662274D01*
X118841811Y-73718229D01*
X118583739Y-74281758D01*
X118560965Y-74901150D01*
X116554937Y-74901150D01*
X117001060Y-74455027D01*
X117268700Y-73808888D01*
X117268700Y-73109512D01*
X117106198Y-72717199D01*
X118140903Y-72717199D01*
X118214966Y-72791262D01*
X118271203Y-72875427D01*
X118604628Y-73098214D01*
X118898656Y-73156700D01*
X118898659Y-73156700D01*
X118942719Y-73165464D01*
X119189216Y-73411961D01*
X119142874Y-73656617D01*
X120129300Y-74643043D01*
X121115726Y-73656617D01*
X121069384Y-73411961D01*
X121450109Y-73031236D01*
X121687300Y-72458605D01*
X121687300Y-71838795D01*
X121450109Y-71266164D01*
X121011836Y-70827891D01*
X120439205Y-70590700D01*
X119819395Y-70590700D01*
X119246764Y-70827891D01*
X119169477Y-70905178D01*
X118951731Y-70759685D01*
X118657703Y-70701199D01*
X118558429Y-70681452D01*
X118459155Y-70701199D01*
X116489019Y-70701199D01*
X117009017Y-70181201D01*
X117200048Y-69720011D01*
X117396893Y-70014609D01*
X117933284Y-70373015D01*
X118406287Y-70467101D01*
X118725715Y-70467101D01*
X119198718Y-70373015D01*
X119735109Y-70014609D01*
X119836001Y-69863614D01*
X119936893Y-70014609D01*
X120473284Y-70373015D01*
X120946287Y-70467101D01*
X121265715Y-70467101D01*
X121738718Y-70373015D01*
X122275109Y-70014609D01*
X122376001Y-69863614D01*
X122476893Y-70014609D01*
X123013284Y-70373015D01*
X123486287Y-70467101D01*
X123805715Y-70467101D01*
X124278718Y-70373015D01*
X124815109Y-70014609D01*
X124927171Y-69846897D01*
X125335309Y-70226048D01*
X125928377Y-70446506D01*
X126182001Y-70277596D01*
X126182001Y-68849501D01*
X126162001Y-68849501D01*
X126162001Y-68841501D01*
X126182001Y-68841501D01*
X126182001Y-67413406D01*
X125928377Y-67244496D01*
X125335309Y-67464954D01*
X124927171Y-67844105D01*
X124815109Y-67676393D01*
X124278718Y-67317987D01*
X123805715Y-67223901D01*
X123486287Y-67223901D01*
X123013284Y-67317987D01*
X122476893Y-67676393D01*
X122376001Y-67827388D01*
X122275109Y-67676393D01*
X121738718Y-67317987D01*
X121265715Y-67223901D01*
X120946287Y-67223901D01*
X120473284Y-67317987D01*
X119936893Y-67676393D01*
X119836001Y-67827388D01*
X119735109Y-67676393D01*
X119198718Y-67317987D01*
X118725715Y-67223901D01*
X118406287Y-67223901D01*
X117933284Y-67317987D01*
X117396893Y-67676393D01*
X117200048Y-67970991D01*
X117009017Y-67509801D01*
X116507216Y-67008000D01*
X127182473Y-67008000D01*
X127718002Y-67543529D01*
X127718002Y-67543529D01*
G37*
X127718002Y-67543529D02*
X127718002Y-67568743D01*
X127556893Y-67676393D01*
X127444831Y-67844105D01*
X127036693Y-67464954D01*
X126443625Y-67244496D01*
X126190001Y-67413406D01*
X126190001Y-68841501D01*
X126210001Y-68841501D01*
X126210001Y-68849501D01*
X126190001Y-68849501D01*
X126190001Y-70277596D01*
X126443625Y-70446506D01*
X127036693Y-70226048D01*
X127444831Y-69846897D01*
X127556893Y-70014609D01*
X128093284Y-70373015D01*
X128566287Y-70467101D01*
X128885715Y-70467101D01*
X129358718Y-70373015D01*
X129391086Y-70351387D01*
X127881438Y-71861036D01*
X127797273Y-71917273D01*
X127640232Y-72152303D01*
X127574486Y-72250699D01*
X127496253Y-72644000D01*
X127516000Y-72743275D01*
X127516000Y-72907600D01*
X127364697Y-73008697D01*
X127009298Y-73540590D01*
X126884498Y-74168000D01*
X127009298Y-74795410D01*
X127284194Y-75206822D01*
X127127513Y-75311513D01*
X126959980Y-75562243D01*
X126901150Y-75858000D01*
X126901150Y-77558000D01*
X126959980Y-77853757D01*
X127097261Y-78059212D01*
X126916474Y-78240000D01*
X120749273Y-78240000D01*
X120649999Y-78220253D01*
X120389751Y-78272020D01*
X120256698Y-78298486D01*
X119923273Y-78521273D01*
X119867039Y-78605434D01*
X118737436Y-79735038D01*
X118653274Y-79791273D01*
X118499789Y-80020981D01*
X118430486Y-80124699D01*
X118352253Y-80518000D01*
X118372001Y-80617279D01*
X118372000Y-82238734D01*
X118256745Y-82315745D01*
X117912396Y-82831099D01*
X117791477Y-83439000D01*
X117912396Y-84046901D01*
X118256745Y-84562255D01*
X118458555Y-84697100D01*
X118059191Y-85096464D01*
X117822000Y-85669095D01*
X117822000Y-86288905D01*
X118059191Y-86861536D01*
X118372000Y-87174345D01*
X118372001Y-87690234D01*
X117974416Y-88087819D01*
X117722000Y-88697203D01*
X117722000Y-89356797D01*
X117974416Y-89966181D01*
X118041631Y-90033396D01*
X117837399Y-90237627D01*
X117722000Y-90516224D01*
X117722000Y-91373500D01*
X117911500Y-91563000D01*
X119376000Y-91563000D01*
X119376000Y-91543000D01*
X119384000Y-91543000D01*
X119384000Y-91563000D01*
X120848500Y-91563000D01*
X121038000Y-91373500D01*
X121038000Y-90516224D01*
X120922601Y-90237627D01*
X120718370Y-90033396D01*
X120785584Y-89966181D01*
X121038000Y-89356797D01*
X121038000Y-88697203D01*
X120785584Y-88087819D01*
X120388000Y-87690235D01*
X120388000Y-87174345D01*
X120700809Y-86861536D01*
X120938000Y-86288905D01*
X120938000Y-85669095D01*
X120700809Y-85096464D01*
X120301445Y-84697100D01*
X120503255Y-84562255D01*
X120847604Y-84046901D01*
X120968523Y-83439000D01*
X120847604Y-82831099D01*
X120503255Y-82315745D01*
X120388000Y-82238734D01*
X120388000Y-80935526D01*
X121067527Y-80256000D01*
X127234726Y-80256000D01*
X127334000Y-80275747D01*
X127433274Y-80256000D01*
X127727302Y-80197514D01*
X128060727Y-79974727D01*
X128116964Y-79890562D01*
X129166564Y-78840963D01*
X129250727Y-78784727D01*
X129473514Y-78451302D01*
X129489082Y-78373039D01*
X129502560Y-78305278D01*
X129669757Y-78272020D01*
X129920487Y-78104487D01*
X130025178Y-77947806D01*
X130056000Y-77968401D01*
X130056001Y-79465472D01*
X129376474Y-80145000D01*
X128623273Y-80145000D01*
X128523999Y-80125253D01*
X128229932Y-80183747D01*
X128130698Y-80203486D01*
X127797273Y-80426273D01*
X127741039Y-80510434D01*
X125998024Y-82253450D01*
X125575901Y-81971396D01*
X125121450Y-81881000D01*
X124814550Y-81881000D01*
X124360099Y-81971396D01*
X123844745Y-82315745D01*
X123500396Y-82831099D01*
X123379477Y-83439000D01*
X123500396Y-84046901D01*
X123844745Y-84562255D01*
X124046555Y-84697100D01*
X123647191Y-85096464D01*
X123410000Y-85669095D01*
X123410000Y-86288905D01*
X123647191Y-86861536D01*
X123960000Y-87174345D01*
X123960001Y-87626734D01*
X123498916Y-88087819D01*
X123246500Y-88697203D01*
X123246500Y-89356797D01*
X123498916Y-89966181D01*
X123566131Y-90033396D01*
X123361899Y-90237627D01*
X123246500Y-90516224D01*
X123246500Y-91373500D01*
X123436000Y-91563000D01*
X124900500Y-91563000D01*
X124900500Y-91543000D01*
X124908500Y-91543000D01*
X124908500Y-91563000D01*
X126373000Y-91563000D01*
X126562500Y-91373500D01*
X126562500Y-90516224D01*
X126447101Y-90237627D01*
X126242870Y-90033396D01*
X126310084Y-89966181D01*
X126562500Y-89356797D01*
X126562500Y-88697203D01*
X126310084Y-88087819D01*
X125976000Y-87753735D01*
X125976000Y-87174345D01*
X126288809Y-86861536D01*
X126526000Y-86288905D01*
X126526000Y-85669095D01*
X126288809Y-85096464D01*
X125889445Y-84697100D01*
X126091255Y-84562255D01*
X126164800Y-84452187D01*
X126238000Y-84466747D01*
X126337274Y-84447000D01*
X126631302Y-84388514D01*
X126964727Y-84165727D01*
X127020964Y-84081562D01*
X128941527Y-82161000D01*
X129664337Y-82161000D01*
X129432745Y-82315745D01*
X129088396Y-82831099D01*
X128967477Y-83439000D01*
X129088396Y-84046901D01*
X129432745Y-84562255D01*
X129634555Y-84697100D01*
X129235191Y-85096464D01*
X128998000Y-85669095D01*
X128998000Y-86288905D01*
X129235191Y-86861536D01*
X129548000Y-87174345D01*
X129548001Y-87690234D01*
X129150416Y-88087819D01*
X128898000Y-88697203D01*
X128898000Y-89356797D01*
X129150416Y-89966181D01*
X129217631Y-90033396D01*
X129013399Y-90237627D01*
X128898000Y-90516224D01*
X128898000Y-91373500D01*
X129087500Y-91563000D01*
X130552000Y-91563000D01*
X130552000Y-91543000D01*
X130560000Y-91543000D01*
X130560000Y-91563000D01*
X132024500Y-91563000D01*
X132214000Y-91373500D01*
X132214000Y-90516224D01*
X132098601Y-90237627D01*
X131894370Y-90033396D01*
X131961584Y-89966181D01*
X132214000Y-89356797D01*
X132214000Y-88697203D01*
X131961584Y-88087819D01*
X131564000Y-87690235D01*
X131564000Y-87174345D01*
X131876809Y-86861536D01*
X132114000Y-86288905D01*
X132114000Y-85669095D01*
X131876809Y-85096464D01*
X131477445Y-84697100D01*
X131679255Y-84562255D01*
X131751610Y-84453969D01*
X131786644Y-84447000D01*
X132080672Y-84388514D01*
X132414097Y-84165727D01*
X132470334Y-84081562D01*
X134246565Y-82305332D01*
X134330727Y-82249097D01*
X134553514Y-81915672D01*
X134576463Y-81800301D01*
X134631747Y-81522371D01*
X134612000Y-81423097D01*
X134612000Y-77968400D01*
X134763303Y-77867303D01*
X134874000Y-77701633D01*
X134984697Y-77867303D01*
X135136000Y-77968400D01*
X135136001Y-82125144D01*
X134850746Y-82315745D01*
X134506397Y-82831099D01*
X134385478Y-83439000D01*
X134506397Y-84046901D01*
X134850746Y-84562255D01*
X135052556Y-84697100D01*
X134653192Y-85096464D01*
X134416001Y-85669095D01*
X134416001Y-86288905D01*
X134653192Y-86861536D01*
X134966001Y-87174345D01*
X134966002Y-87860233D01*
X134738416Y-88087819D01*
X134486000Y-88697203D01*
X134486000Y-89356797D01*
X134738416Y-89966181D01*
X134805631Y-90033396D01*
X134601399Y-90237627D01*
X134486000Y-90516224D01*
X134486000Y-91373500D01*
X134675500Y-91563000D01*
X136140000Y-91563000D01*
X136140000Y-91543000D01*
X136148000Y-91543000D01*
X136148000Y-91563000D01*
X137612500Y-91563000D01*
X137802000Y-91373500D01*
X137802000Y-90516224D01*
X137686601Y-90237627D01*
X137482370Y-90033396D01*
X137549584Y-89966181D01*
X137802000Y-89356797D01*
X137802000Y-88697203D01*
X137549584Y-88087819D01*
X137083181Y-87621416D01*
X136982001Y-87579506D01*
X136982001Y-87174345D01*
X137294810Y-86861536D01*
X137532001Y-86288905D01*
X137532001Y-85669095D01*
X137294810Y-85096464D01*
X136895446Y-84697100D01*
X137097256Y-84562255D01*
X137441605Y-84046901D01*
X137562524Y-83439000D01*
X137535481Y-83303046D01*
X139566528Y-81272000D01*
X142473473Y-81272000D01*
X141864474Y-81881000D01*
X141578550Y-81881000D01*
X141124099Y-81971396D01*
X140608745Y-82315745D01*
X140264396Y-82831099D01*
X140143477Y-83439000D01*
X140264396Y-84046901D01*
X140608745Y-84562255D01*
X140810555Y-84697100D01*
X140411191Y-85096464D01*
X140174000Y-85669095D01*
X140174000Y-86288905D01*
X140411191Y-86861536D01*
X140724000Y-87174345D01*
X140724001Y-87690234D01*
X140326416Y-88087819D01*
X140074000Y-88697203D01*
X140074000Y-89356797D01*
X140326416Y-89966181D01*
X140393631Y-90033396D01*
X140189399Y-90237627D01*
X140074000Y-90516224D01*
X140074000Y-91373500D01*
X140263500Y-91563000D01*
X141728000Y-91563000D01*
X141728000Y-91543000D01*
X141736000Y-91543000D01*
X141736000Y-91563000D01*
X143200500Y-91563000D01*
X143390000Y-91373500D01*
X143390000Y-90516224D01*
X143274601Y-90237627D01*
X143070370Y-90033396D01*
X143137584Y-89966181D01*
X143390000Y-89356797D01*
X143390000Y-88697203D01*
X143137584Y-88087819D01*
X142740000Y-87690235D01*
X142740000Y-87174345D01*
X143052809Y-86861536D01*
X143290000Y-86288905D01*
X143290000Y-85669095D01*
X143052809Y-85096464D01*
X142653445Y-84697100D01*
X142855255Y-84562255D01*
X143199604Y-84046901D01*
X143320523Y-83439000D01*
X143293480Y-83303046D01*
X144181527Y-82415000D01*
X146130425Y-82415000D01*
X145852396Y-82831099D01*
X145731477Y-83439000D01*
X145852396Y-84046901D01*
X146196745Y-84562255D01*
X146398555Y-84697100D01*
X145999191Y-85096464D01*
X145762000Y-85669095D01*
X145762000Y-86288905D01*
X145999191Y-86861536D01*
X146312000Y-87174345D01*
X146312001Y-87690234D01*
X145914416Y-88087819D01*
X145662000Y-88697203D01*
X145662000Y-89356797D01*
X145914416Y-89966181D01*
X145981631Y-90033396D01*
X145777399Y-90237627D01*
X145662000Y-90516224D01*
X145662000Y-91373500D01*
X145851500Y-91563000D01*
X147316000Y-91563000D01*
X147316000Y-91543000D01*
X147324000Y-91543000D01*
X147324000Y-91563000D01*
X148788500Y-91563000D01*
X148978000Y-91373500D01*
X148978000Y-90516224D01*
X148862601Y-90237627D01*
X148658370Y-90033396D01*
X148725584Y-89966181D01*
X148978000Y-89356797D01*
X148978000Y-88697203D01*
X148725584Y-88087819D01*
X148328000Y-87690235D01*
X148328000Y-87174345D01*
X148640809Y-86861536D01*
X148878000Y-86288905D01*
X148878000Y-85669095D01*
X148640809Y-85096464D01*
X148241445Y-84697100D01*
X148443255Y-84562255D01*
X148787604Y-84046901D01*
X148867149Y-83647001D01*
X150052725Y-83647001D01*
X150151999Y-83666748D01*
X150251273Y-83647001D01*
X150545301Y-83588515D01*
X150878726Y-83365728D01*
X150934963Y-83281563D01*
X151551085Y-82665441D01*
X151440396Y-82831099D01*
X151319477Y-83439000D01*
X151440396Y-84046901D01*
X151784745Y-84562255D01*
X151986555Y-84697100D01*
X151587191Y-85096464D01*
X151350000Y-85669095D01*
X151350000Y-86288905D01*
X151587191Y-86861536D01*
X151900000Y-87174345D01*
X151900001Y-87690234D01*
X151502416Y-88087819D01*
X151250000Y-88697203D01*
X151250000Y-89356797D01*
X151502416Y-89966181D01*
X151569631Y-90033396D01*
X151365399Y-90237627D01*
X151250000Y-90516224D01*
X151250000Y-91373500D01*
X151439500Y-91563000D01*
X152904000Y-91563000D01*
X152904000Y-91543000D01*
X152912000Y-91543000D01*
X152912000Y-91563000D01*
X154376500Y-91563000D01*
X154566000Y-91373500D01*
X154566000Y-90516224D01*
X154450601Y-90237627D01*
X154246370Y-90033396D01*
X154313584Y-89966181D01*
X154566000Y-89356797D01*
X154566000Y-88697203D01*
X154313584Y-88087819D01*
X153916000Y-87690235D01*
X153916000Y-87174345D01*
X154228809Y-86861536D01*
X154466000Y-86288905D01*
X154466000Y-85669095D01*
X154228809Y-85096464D01*
X153829445Y-84697100D01*
X154031255Y-84562255D01*
X154375604Y-84046901D01*
X154496523Y-83439000D01*
X154469480Y-83303046D01*
X157106564Y-80665962D01*
X157190727Y-80609727D01*
X157413514Y-80276302D01*
X157472000Y-79982274D01*
X157472000Y-79982270D01*
X157491746Y-79883001D01*
X157472000Y-79783732D01*
X157472000Y-75428400D01*
X157623303Y-75327303D01*
X157734000Y-75161633D01*
X157844697Y-75327303D01*
X157996000Y-75428400D01*
X157996001Y-81949933D01*
X157888099Y-81971396D01*
X157372745Y-82315745D01*
X157028396Y-82831099D01*
X156907477Y-83439000D01*
X157028396Y-84046901D01*
X157372745Y-84562255D01*
X157574555Y-84697100D01*
X157175191Y-85096464D01*
X156938000Y-85669095D01*
X156938000Y-86288905D01*
X157175191Y-86861536D01*
X157488000Y-87174345D01*
X157488001Y-87690234D01*
X157090416Y-88087819D01*
X156838000Y-88697203D01*
X156838000Y-89356797D01*
X157090416Y-89966181D01*
X157157631Y-90033396D01*
X156953399Y-90237627D01*
X156838000Y-90516224D01*
X156838000Y-91373500D01*
X157027500Y-91563000D01*
X158492000Y-91563000D01*
X158492000Y-91543000D01*
X158500000Y-91543000D01*
X158500000Y-91563000D01*
X159964500Y-91563000D01*
X160154000Y-91373500D01*
X160154000Y-90516224D01*
X160038601Y-90237627D01*
X159834370Y-90033396D01*
X159901584Y-89966181D01*
X160154000Y-89356797D01*
X160154000Y-89165501D01*
X161743632Y-89165501D01*
X161869487Y-89798218D01*
X162227893Y-90334609D01*
X162378888Y-90435501D01*
X162227893Y-90536393D01*
X161869487Y-91072784D01*
X161743632Y-91705501D01*
X161869487Y-92338218D01*
X162227893Y-92874609D01*
X162378888Y-92975501D01*
X162227893Y-93076393D01*
X161869487Y-93612784D01*
X161743632Y-94245501D01*
X161869487Y-94878218D01*
X162227893Y-95414609D01*
X162764284Y-95773015D01*
X163237287Y-95867101D01*
X163556715Y-95867101D01*
X164029718Y-95773015D01*
X164566109Y-95414609D01*
X164667001Y-95263614D01*
X164767893Y-95414609D01*
X165304284Y-95773015D01*
X165777287Y-95867101D01*
X166096715Y-95867101D01*
X166569718Y-95773015D01*
X167106109Y-95414609D01*
X167464515Y-94878218D01*
X167590370Y-94245501D01*
X167464515Y-93612784D01*
X167106109Y-93076393D01*
X166955114Y-92975501D01*
X167106109Y-92874609D01*
X167464515Y-92338218D01*
X167590370Y-91705501D01*
X167464515Y-91072784D01*
X167106109Y-90536393D01*
X166955114Y-90435501D01*
X167106109Y-90334609D01*
X167464515Y-89798218D01*
X167590370Y-89165501D01*
X167464515Y-88532784D01*
X167106109Y-87996393D01*
X166569718Y-87637987D01*
X166096715Y-87543901D01*
X165777287Y-87543901D01*
X165304284Y-87637987D01*
X164767893Y-87996393D01*
X164667001Y-88147388D01*
X164566109Y-87996393D01*
X164029718Y-87637987D01*
X163556715Y-87543901D01*
X163237287Y-87543901D01*
X162764284Y-87637987D01*
X162227893Y-87996393D01*
X161869487Y-88532784D01*
X161743632Y-89165501D01*
X160154000Y-89165501D01*
X160154000Y-88697203D01*
X159901584Y-88087819D01*
X159504000Y-87690235D01*
X159504000Y-87174345D01*
X159816809Y-86861536D01*
X160054000Y-86288905D01*
X160054000Y-85669095D01*
X159816809Y-85096464D01*
X159417445Y-84697100D01*
X159619255Y-84562255D01*
X159963604Y-84046901D01*
X160049222Y-83616466D01*
X163452001Y-83616466D01*
X163452001Y-84554536D01*
X163810985Y-85421201D01*
X164474301Y-86084517D01*
X165340966Y-86443501D01*
X166279036Y-86443501D01*
X167145701Y-86084517D01*
X167809017Y-85421201D01*
X168168001Y-84554536D01*
X168168001Y-83616466D01*
X167809017Y-82749801D01*
X167145701Y-82086485D01*
X166279036Y-81727501D01*
X165340966Y-81727501D01*
X164474301Y-82086485D01*
X163810985Y-82749801D01*
X163452001Y-83616466D01*
X160049222Y-83616466D01*
X160084523Y-83439000D01*
X160007611Y-83052338D01*
X160012000Y-83030274D01*
X160012000Y-83030270D01*
X160031746Y-82931001D01*
X160012000Y-82831732D01*
X160012000Y-75428400D01*
X160163303Y-75327303D01*
X160518702Y-74795410D01*
X160643502Y-74168000D01*
X160518702Y-73540590D01*
X160163303Y-73008697D01*
X160151799Y-73001010D01*
X163972403Y-73001010D01*
X165146958Y-74175567D01*
X165203192Y-74259727D01*
X165287351Y-74315960D01*
X165287352Y-74315961D01*
X165536617Y-74482514D01*
X165877877Y-74550395D01*
X165972697Y-74692303D01*
X166138367Y-74803000D01*
X165972697Y-74913697D01*
X165617298Y-75445590D01*
X165492498Y-76073000D01*
X165617298Y-76700410D01*
X165972697Y-77232303D01*
X166138367Y-77343000D01*
X165972697Y-77453697D01*
X165617298Y-77985590D01*
X165492498Y-78613000D01*
X165617298Y-79240410D01*
X165972697Y-79772303D01*
X166504590Y-80127702D01*
X166973629Y-80221000D01*
X167290371Y-80221000D01*
X167759410Y-80127702D01*
X168291303Y-79772303D01*
X168402000Y-79606633D01*
X168512697Y-79772303D01*
X168664000Y-79873400D01*
X168664001Y-95213472D01*
X166675475Y-97201999D01*
X166655371Y-97198000D01*
X166338629Y-97198000D01*
X165869590Y-97291298D01*
X165337697Y-97646697D01*
X165236600Y-97798000D01*
X160289125Y-97798000D01*
X160127255Y-97555745D01*
X159925445Y-97420900D01*
X160324809Y-97021536D01*
X160562000Y-96448905D01*
X160562000Y-95829095D01*
X160324809Y-95256464D01*
X159886536Y-94818191D01*
X159313905Y-94581000D01*
X158694095Y-94581000D01*
X158121464Y-94818191D01*
X157808655Y-95131000D01*
X155627345Y-95131000D01*
X155314536Y-94818191D01*
X154741905Y-94581000D01*
X154122095Y-94581000D01*
X153549464Y-94818191D01*
X153236655Y-95131000D01*
X151055345Y-95131000D01*
X150742536Y-94818191D01*
X150169905Y-94581000D01*
X149550095Y-94581000D01*
X148977464Y-94818191D01*
X148664655Y-95131000D01*
X146483345Y-95131000D01*
X146170536Y-94818191D01*
X145597905Y-94581000D01*
X144978095Y-94581000D01*
X144405464Y-94818191D01*
X144101420Y-95122235D01*
X143763328Y-95189486D01*
X143533578Y-95343000D01*
X143429903Y-95412273D01*
X143373669Y-95496433D01*
X142105438Y-96764666D01*
X142021273Y-96820903D01*
X141848645Y-97079261D01*
X141798486Y-97154329D01*
X141720253Y-97547630D01*
X141740000Y-97646904D01*
X141740001Y-100865721D01*
X141720253Y-100965000D01*
X141798486Y-101358301D01*
X141822527Y-101394281D01*
X142021274Y-101691727D01*
X142105436Y-101747962D01*
X142248000Y-101890526D01*
X142248000Y-102498599D01*
X142217178Y-102519194D01*
X142112487Y-102362513D01*
X141861757Y-102194980D01*
X141566000Y-102136150D01*
X139866000Y-102136150D01*
X139570243Y-102194980D01*
X139319513Y-102362513D01*
X139151980Y-102613243D01*
X139093150Y-102909000D01*
X139093150Y-104609000D01*
X139151980Y-104904757D01*
X139319513Y-105155487D01*
X139570243Y-105323020D01*
X139583000Y-105325558D01*
X139583001Y-109186121D01*
X139556697Y-109203697D01*
X139218940Y-109709187D01*
X138422000Y-108912248D01*
X138422000Y-104504900D01*
X138441746Y-104405629D01*
X138422000Y-104306359D01*
X138422000Y-104306356D01*
X138363514Y-104012328D01*
X138140727Y-103678903D01*
X138056564Y-103622667D01*
X136026334Y-101592438D01*
X135970097Y-101508273D01*
X135636672Y-101285486D01*
X135342644Y-101227000D01*
X135298580Y-101218235D01*
X134994536Y-100914191D01*
X134421905Y-100677000D01*
X133979526Y-100677000D01*
X133878964Y-100576438D01*
X133822727Y-100492273D01*
X133489302Y-100269486D01*
X133195274Y-100211000D01*
X133096000Y-100191253D01*
X132996726Y-100211000D01*
X129340207Y-100211000D01*
X129287008Y-100131382D01*
X129044465Y-99969320D01*
X129287008Y-99807258D01*
X129620431Y-99308255D01*
X129737514Y-98719640D01*
X129620431Y-98131025D01*
X129287008Y-97632022D01*
X128788005Y-97298599D01*
X128347968Y-97211070D01*
X127652032Y-97211070D01*
X127211995Y-97298599D01*
X126780911Y-97586640D01*
X126678516Y-97586640D01*
X126566930Y-97564444D01*
X126455344Y-97586640D01*
X126455343Y-97586640D01*
X126124856Y-97652378D01*
X125750083Y-97902793D01*
X125686874Y-97997392D01*
X123737753Y-99946514D01*
X123643154Y-100009723D01*
X123579945Y-100104322D01*
X123392739Y-100384496D01*
X123304804Y-100826570D01*
X123327001Y-100938160D01*
X123327000Y-109685442D01*
X123314243Y-109687980D01*
X123063513Y-109855513D01*
X123042717Y-109886636D01*
X122987262Y-109607845D01*
X122736847Y-109233072D01*
X122642248Y-109169863D01*
X121335139Y-107862755D01*
X121271928Y-107768153D01*
X120897155Y-107517738D01*
X120566668Y-107452000D01*
X120566667Y-107452000D01*
X120455081Y-107429804D01*
X120343495Y-107452000D01*
X117586581Y-107452000D01*
X117474999Y-107429805D01*
X117363417Y-107452000D01*
X117363413Y-107452000D01*
X117032926Y-107517738D01*
X116658153Y-107768153D01*
X116594944Y-107862752D01*
X115735697Y-108722000D01*
X115641744Y-108722000D01*
X115845561Y-108276942D01*
X115868335Y-107657550D01*
X115652344Y-107076591D01*
X115587489Y-106979529D01*
X115292083Y-106923574D01*
X114305657Y-107910000D01*
X114319799Y-107924142D01*
X114314142Y-107929799D01*
X114300000Y-107915657D01*
X114285858Y-107929799D01*
X114280201Y-107924142D01*
X114294343Y-107910000D01*
X113307917Y-106923574D01*
X113012511Y-106979529D01*
X112754439Y-107543058D01*
X112731665Y-108162450D01*
X112939696Y-108722000D01*
X112229304Y-108722000D01*
X110861000Y-107353697D01*
X110861000Y-106543845D01*
X111048809Y-106356036D01*
X111286000Y-105783405D01*
X111286000Y-105163595D01*
X111048809Y-104590964D01*
X110610536Y-104152691D01*
X110037905Y-103915500D01*
X109772304Y-103915500D01*
X108506789Y-102649985D01*
X108547604Y-102588901D01*
X108668523Y-101981000D01*
X108547604Y-101373099D01*
X108203255Y-100857745D01*
X107983636Y-100711000D01*
X108203255Y-100564255D01*
X108547604Y-100048901D01*
X108668523Y-99441000D01*
X108547604Y-98833099D01*
X108203255Y-98317745D01*
X107983636Y-98171000D01*
X108171902Y-98045205D01*
X110289944Y-100163248D01*
X110353153Y-100257847D01*
X110727926Y-100508262D01*
X111058413Y-100574000D01*
X111058417Y-100574000D01*
X111169999Y-100596195D01*
X111281581Y-100574000D01*
X112791329Y-100574000D01*
X112996364Y-100711000D01*
X112776745Y-100857745D01*
X112432396Y-101373099D01*
X112311477Y-101981000D01*
X112432396Y-102588901D01*
X112776745Y-103104255D01*
X113167000Y-103365016D01*
X113167001Y-104339654D01*
X112979191Y-104527464D01*
X112742000Y-105100095D01*
X112742000Y-105719905D01*
X112979191Y-106292536D01*
X113359916Y-106673261D01*
X113313574Y-106917917D01*
X114300000Y-107904343D01*
X115286426Y-106917917D01*
X115240084Y-106673261D01*
X115620809Y-106292536D01*
X115858000Y-105719905D01*
X115858000Y-105100095D01*
X115620809Y-104527464D01*
X115433000Y-104339655D01*
X115433000Y-103365015D01*
X115823255Y-103104255D01*
X116167604Y-102588901D01*
X116288523Y-101981000D01*
X116167604Y-101373099D01*
X115823255Y-100857745D01*
X115603636Y-100711000D01*
X115678466Y-100661000D01*
X119033865Y-100661000D01*
X119176513Y-100874487D01*
X119427243Y-101042020D01*
X119723000Y-101100850D01*
X121323000Y-101100850D01*
X121618757Y-101042020D01*
X121869487Y-100874487D01*
X122037020Y-100623757D01*
X122095850Y-100328000D01*
X122095850Y-98728000D01*
X122037020Y-98432243D01*
X121869487Y-98181513D01*
X121618757Y-98013980D01*
X121569336Y-98004150D01*
X121810489Y-97958471D01*
X122068561Y-97394942D01*
X122091335Y-96775550D01*
X121875344Y-96194591D01*
X121810489Y-96097529D01*
X121515083Y-96041574D01*
X120528657Y-97028000D01*
X120542799Y-97042142D01*
X120537142Y-97047799D01*
X120523000Y-97033657D01*
X120508858Y-97047799D01*
X120503201Y-97042142D01*
X120517343Y-97028000D01*
X119530917Y-96041574D01*
X119235511Y-96097529D01*
X118977439Y-96661058D01*
X118954665Y-97280450D01*
X119170656Y-97861409D01*
X119235511Y-97958471D01*
X119476664Y-98004150D01*
X119427243Y-98013980D01*
X119176513Y-98181513D01*
X119033865Y-98395000D01*
X115874875Y-98395000D01*
X115823255Y-98317745D01*
X115603636Y-98171000D01*
X115823255Y-98024255D01*
X116167604Y-97508901D01*
X116288523Y-96901000D01*
X116167604Y-96293099D01*
X115995761Y-96035917D01*
X119536574Y-96035917D01*
X120523000Y-97022343D01*
X121509426Y-96035917D01*
X121453471Y-95740511D01*
X120889942Y-95482439D01*
X120270550Y-95459665D01*
X119689591Y-95675656D01*
X119592529Y-95740511D01*
X119536574Y-96035917D01*
X115995761Y-96035917D01*
X115823255Y-95777745D01*
X115603636Y-95631000D01*
X115823255Y-95484255D01*
X116167604Y-94968901D01*
X116288523Y-94361000D01*
X116224445Y-94038859D01*
X116232948Y-94030356D01*
X116327547Y-93967147D01*
X116577962Y-93592374D01*
X116643700Y-93261887D01*
X116643700Y-93261883D01*
X116665895Y-93150301D01*
X116643700Y-93038719D01*
X116643700Y-91777187D01*
X116660387Y-91760500D01*
X117722000Y-91760500D01*
X117722000Y-92617776D01*
X117837399Y-92896373D01*
X118050628Y-93109602D01*
X118329225Y-93225000D01*
X119186500Y-93225000D01*
X119376000Y-93035500D01*
X119376000Y-91571000D01*
X119384000Y-91571000D01*
X119384000Y-93035500D01*
X119573500Y-93225000D01*
X120430775Y-93225000D01*
X120709372Y-93109602D01*
X120922601Y-92896373D01*
X121038000Y-92617776D01*
X121038000Y-91760500D01*
X123246500Y-91760500D01*
X123246500Y-92617776D01*
X123361899Y-92896373D01*
X123575128Y-93109602D01*
X123853725Y-93225000D01*
X124711000Y-93225000D01*
X124900500Y-93035500D01*
X124900500Y-91571000D01*
X124908500Y-91571000D01*
X124908500Y-93035500D01*
X125098000Y-93225000D01*
X125955275Y-93225000D01*
X126233872Y-93109602D01*
X126447101Y-92896373D01*
X126562500Y-92617776D01*
X126562500Y-91760500D01*
X128898000Y-91760500D01*
X128898000Y-92617776D01*
X129013399Y-92896373D01*
X129226628Y-93109602D01*
X129505225Y-93225000D01*
X130362500Y-93225000D01*
X130552000Y-93035500D01*
X130552000Y-91571000D01*
X130560000Y-91571000D01*
X130560000Y-93035500D01*
X130749500Y-93225000D01*
X131606775Y-93225000D01*
X131885372Y-93109602D01*
X132098601Y-92896373D01*
X132214000Y-92617776D01*
X132214000Y-91760500D01*
X134486000Y-91760500D01*
X134486000Y-92617776D01*
X134601399Y-92896373D01*
X134814628Y-93109602D01*
X135093225Y-93225000D01*
X135950500Y-93225000D01*
X136140000Y-93035500D01*
X136140000Y-91571000D01*
X136148000Y-91571000D01*
X136148000Y-93035500D01*
X136337500Y-93225000D01*
X137194775Y-93225000D01*
X137473372Y-93109602D01*
X137686601Y-92896373D01*
X137802000Y-92617776D01*
X137802000Y-91760500D01*
X140074000Y-91760500D01*
X140074000Y-92617776D01*
X140189399Y-92896373D01*
X140402628Y-93109602D01*
X140681225Y-93225000D01*
X141538500Y-93225000D01*
X141728000Y-93035500D01*
X141728000Y-91571000D01*
X141736000Y-91571000D01*
X141736000Y-93035500D01*
X141925500Y-93225000D01*
X142782775Y-93225000D01*
X143061372Y-93109602D01*
X143274601Y-92896373D01*
X143390000Y-92617776D01*
X143390000Y-91760500D01*
X145662000Y-91760500D01*
X145662000Y-92617776D01*
X145777399Y-92896373D01*
X145990628Y-93109602D01*
X146269225Y-93225000D01*
X147126500Y-93225000D01*
X147316000Y-93035500D01*
X147316000Y-91571000D01*
X147324000Y-91571000D01*
X147324000Y-93035500D01*
X147513500Y-93225000D01*
X148370775Y-93225000D01*
X148649372Y-93109602D01*
X148862601Y-92896373D01*
X148978000Y-92617776D01*
X148978000Y-91760500D01*
X151250000Y-91760500D01*
X151250000Y-92617776D01*
X151365399Y-92896373D01*
X151578628Y-93109602D01*
X151857225Y-93225000D01*
X152714500Y-93225000D01*
X152904000Y-93035500D01*
X152904000Y-91571000D01*
X152912000Y-91571000D01*
X152912000Y-93035500D01*
X153101500Y-93225000D01*
X153958775Y-93225000D01*
X154237372Y-93109602D01*
X154450601Y-92896373D01*
X154566000Y-92617776D01*
X154566000Y-91760500D01*
X156838000Y-91760500D01*
X156838000Y-92617776D01*
X156953399Y-92896373D01*
X157166628Y-93109602D01*
X157445225Y-93225000D01*
X158302500Y-93225000D01*
X158492000Y-93035500D01*
X158492000Y-91571000D01*
X158500000Y-91571000D01*
X158500000Y-93035500D01*
X158689500Y-93225000D01*
X159546775Y-93225000D01*
X159825372Y-93109602D01*
X160038601Y-92896373D01*
X160154000Y-92617776D01*
X160154000Y-91760500D01*
X159964500Y-91571000D01*
X158500000Y-91571000D01*
X158492000Y-91571000D01*
X157027500Y-91571000D01*
X156838000Y-91760500D01*
X154566000Y-91760500D01*
X154376500Y-91571000D01*
X152912000Y-91571000D01*
X152904000Y-91571000D01*
X151439500Y-91571000D01*
X151250000Y-91760500D01*
X148978000Y-91760500D01*
X148788500Y-91571000D01*
X147324000Y-91571000D01*
X147316000Y-91571000D01*
X145851500Y-91571000D01*
X145662000Y-91760500D01*
X143390000Y-91760500D01*
X143200500Y-91571000D01*
X141736000Y-91571000D01*
X141728000Y-91571000D01*
X140263500Y-91571000D01*
X140074000Y-91760500D01*
X137802000Y-91760500D01*
X137612500Y-91571000D01*
X136148000Y-91571000D01*
X136140000Y-91571000D01*
X134675500Y-91571000D01*
X134486000Y-91760500D01*
X132214000Y-91760500D01*
X132024500Y-91571000D01*
X130560000Y-91571000D01*
X130552000Y-91571000D01*
X129087500Y-91571000D01*
X128898000Y-91760500D01*
X126562500Y-91760500D01*
X126373000Y-91571000D01*
X124908500Y-91571000D01*
X124900500Y-91571000D01*
X123436000Y-91571000D01*
X123246500Y-91760500D01*
X121038000Y-91760500D01*
X120848500Y-91571000D01*
X119384000Y-91571000D01*
X119376000Y-91571000D01*
X117911500Y-91571000D01*
X117722000Y-91760500D01*
X116660387Y-91760500D01*
X117001060Y-91419827D01*
X117268700Y-90773688D01*
X117268700Y-90074312D01*
X117001060Y-89428173D01*
X116518700Y-88945813D01*
X116518700Y-85402187D01*
X117001060Y-84919827D01*
X117268700Y-84273688D01*
X117268700Y-83574312D01*
X117001060Y-82928173D01*
X116518700Y-82445813D01*
X116518700Y-81437387D01*
X117001060Y-80955027D01*
X117268700Y-80308888D01*
X117268700Y-79609512D01*
X117001060Y-78963373D01*
X116518700Y-78481013D01*
X116518700Y-75640783D01*
X119142874Y-75640783D01*
X119198829Y-75936189D01*
X119762358Y-76194261D01*
X120381750Y-76217035D01*
X120962709Y-76001044D01*
X121059771Y-75936189D01*
X121115726Y-75640783D01*
X120129300Y-74654357D01*
X119142874Y-75640783D01*
X116518700Y-75640783D01*
X116518700Y-74937387D01*
X116554937Y-74901150D01*
X118560965Y-74901150D01*
X118776956Y-75482109D01*
X118841811Y-75579171D01*
X119137217Y-75635126D01*
X120123643Y-74648700D01*
X120134957Y-74648700D01*
X121121383Y-75635126D01*
X121416789Y-75579171D01*
X121674861Y-75015642D01*
X121697635Y-74396250D01*
X121481644Y-73815291D01*
X121416789Y-73718229D01*
X121121383Y-73662274D01*
X120134957Y-74648700D01*
X120123643Y-74648700D01*
X119137217Y-73662274D01*
X118841811Y-73718229D01*
X118583739Y-74281758D01*
X118560965Y-74901150D01*
X116554937Y-74901150D01*
X117001060Y-74455027D01*
X117268700Y-73808888D01*
X117268700Y-73109512D01*
X117106198Y-72717199D01*
X118140903Y-72717199D01*
X118214966Y-72791262D01*
X118271203Y-72875427D01*
X118604628Y-73098214D01*
X118898656Y-73156700D01*
X118898659Y-73156700D01*
X118942719Y-73165464D01*
X119189216Y-73411961D01*
X119142874Y-73656617D01*
X120129300Y-74643043D01*
X121115726Y-73656617D01*
X121069384Y-73411961D01*
X121450109Y-73031236D01*
X121687300Y-72458605D01*
X121687300Y-71838795D01*
X121450109Y-71266164D01*
X121011836Y-70827891D01*
X120439205Y-70590700D01*
X119819395Y-70590700D01*
X119246764Y-70827891D01*
X119169477Y-70905178D01*
X118951731Y-70759685D01*
X118657703Y-70701199D01*
X118558429Y-70681452D01*
X118459155Y-70701199D01*
X116489019Y-70701199D01*
X117009017Y-70181201D01*
X117200048Y-69720011D01*
X117396893Y-70014609D01*
X117933284Y-70373015D01*
X118406287Y-70467101D01*
X118725715Y-70467101D01*
X119198718Y-70373015D01*
X119735109Y-70014609D01*
X119836001Y-69863614D01*
X119936893Y-70014609D01*
X120473284Y-70373015D01*
X120946287Y-70467101D01*
X121265715Y-70467101D01*
X121738718Y-70373015D01*
X122275109Y-70014609D01*
X122376001Y-69863614D01*
X122476893Y-70014609D01*
X123013284Y-70373015D01*
X123486287Y-70467101D01*
X123805715Y-70467101D01*
X124278718Y-70373015D01*
X124815109Y-70014609D01*
X124927171Y-69846897D01*
X125335309Y-70226048D01*
X125928377Y-70446506D01*
X126182001Y-70277596D01*
X126182001Y-68849501D01*
X126162001Y-68849501D01*
X126162001Y-68841501D01*
X126182001Y-68841501D01*
X126182001Y-67413406D01*
X125928377Y-67244496D01*
X125335309Y-67464954D01*
X124927171Y-67844105D01*
X124815109Y-67676393D01*
X124278718Y-67317987D01*
X123805715Y-67223901D01*
X123486287Y-67223901D01*
X123013284Y-67317987D01*
X122476893Y-67676393D01*
X122376001Y-67827388D01*
X122275109Y-67676393D01*
X121738718Y-67317987D01*
X121265715Y-67223901D01*
X120946287Y-67223901D01*
X120473284Y-67317987D01*
X119936893Y-67676393D01*
X119836001Y-67827388D01*
X119735109Y-67676393D01*
X119198718Y-67317987D01*
X118725715Y-67223901D01*
X118406287Y-67223901D01*
X117933284Y-67317987D01*
X117396893Y-67676393D01*
X117200048Y-67970991D01*
X117009017Y-67509801D01*
X116507216Y-67008000D01*
X127182473Y-67008000D01*
X127718002Y-67543529D01*
G36*
X173792000Y-72485392D02*
X171657045Y-70350438D01*
X171600808Y-70266273D01*
X171267383Y-70043486D01*
X170973355Y-69985000D01*
X170926123Y-69975605D01*
X170831303Y-69833697D01*
X170299410Y-69478298D01*
X169830371Y-69385000D01*
X169513629Y-69385000D01*
X169044590Y-69478298D01*
X168633178Y-69753194D01*
X168528487Y-69596513D01*
X168277757Y-69428980D01*
X167982000Y-69370150D01*
X166282000Y-69370150D01*
X165986243Y-69428980D01*
X165735513Y-69596513D01*
X165567980Y-69847243D01*
X165540578Y-69985000D01*
X164458893Y-69985000D01*
X164797515Y-69478218D01*
X164923370Y-68845501D01*
X164797515Y-68212784D01*
X164439109Y-67676393D01*
X164266500Y-67561059D01*
X164266500Y-65599422D01*
X164404257Y-65572020D01*
X164654987Y-65404487D01*
X164822520Y-65153757D01*
X164881350Y-64858000D01*
X164881350Y-64524082D01*
X168328530Y-64524082D01*
X168328530Y-65422318D01*
X168672270Y-66252180D01*
X169307420Y-66887330D01*
X170137282Y-67231070D01*
X171035518Y-67231070D01*
X171865380Y-66887330D01*
X172500530Y-66252180D01*
X172844270Y-65422318D01*
X172844270Y-64524082D01*
X172500530Y-63694220D01*
X171865380Y-63059070D01*
X171035518Y-62715330D01*
X170137282Y-62715330D01*
X169307420Y-63059070D01*
X168672270Y-63694220D01*
X168328530Y-64524082D01*
X164881350Y-64524082D01*
X164881350Y-63158000D01*
X164822520Y-62862243D01*
X164654987Y-62611513D01*
X164404257Y-62443980D01*
X164108500Y-62385150D01*
X162408500Y-62385150D01*
X162112743Y-62443980D01*
X161862013Y-62611513D01*
X161757322Y-62768194D01*
X161345910Y-62493298D01*
X160876871Y-62400000D01*
X160560129Y-62400000D01*
X160091090Y-62493298D01*
X159559197Y-62848697D01*
X159431580Y-63039690D01*
X159120419Y-62704753D01*
X158549989Y-62443500D01*
X158433997Y-62420428D01*
X158182500Y-62589506D01*
X158182500Y-64004000D01*
X158202500Y-64004000D01*
X158202500Y-64012000D01*
X158182500Y-64012000D01*
X158182500Y-65426494D01*
X158433997Y-65595572D01*
X158549989Y-65572500D01*
X159120419Y-65311247D01*
X159431580Y-64976310D01*
X159559197Y-65167303D01*
X159710500Y-65268400D01*
X159710501Y-67576428D01*
X159560893Y-67676393D01*
X159460001Y-67827388D01*
X159359109Y-67676393D01*
X158822718Y-67317987D01*
X158349715Y-67223901D01*
X158030287Y-67223901D01*
X157557284Y-67317987D01*
X157020893Y-67676393D01*
X156920001Y-67827388D01*
X156819109Y-67676393D01*
X156282718Y-67317987D01*
X155809715Y-67223901D01*
X155490287Y-67223901D01*
X155017284Y-67317987D01*
X154480893Y-67676393D01*
X154380001Y-67827388D01*
X154279109Y-67676393D01*
X153742718Y-67317987D01*
X153269715Y-67223901D01*
X152950287Y-67223901D01*
X152477284Y-67317987D01*
X151940893Y-67676393D01*
X151840001Y-67827388D01*
X151739109Y-67676393D01*
X151202718Y-67317987D01*
X150729715Y-67223901D01*
X150410287Y-67223901D01*
X149937284Y-67317987D01*
X149400893Y-67676393D01*
X149300001Y-67827388D01*
X149199109Y-67676393D01*
X148662718Y-67317987D01*
X148189715Y-67223901D01*
X147870287Y-67223901D01*
X147397284Y-67317987D01*
X146860893Y-67676393D01*
X146760001Y-67827388D01*
X146659109Y-67676393D01*
X146122718Y-67317987D01*
X145649715Y-67223901D01*
X145330287Y-67223901D01*
X144857284Y-67317987D01*
X144320893Y-67676393D01*
X143962487Y-68212784D01*
X143836632Y-68845501D01*
X143962487Y-69478218D01*
X144320893Y-70014609D01*
X144857284Y-70373015D01*
X145330287Y-70467101D01*
X145649715Y-70467101D01*
X146122718Y-70373015D01*
X146659109Y-70014609D01*
X146760001Y-69863614D01*
X146860893Y-70014609D01*
X147397284Y-70373015D01*
X147870287Y-70467101D01*
X148189715Y-70467101D01*
X148662718Y-70373015D01*
X149199109Y-70014609D01*
X149300001Y-69863614D01*
X149400893Y-70014609D01*
X149937284Y-70373015D01*
X150410287Y-70467101D01*
X150729715Y-70467101D01*
X151202718Y-70373015D01*
X151739109Y-70014609D01*
X151840001Y-69863614D01*
X151940893Y-70014609D01*
X152477284Y-70373015D01*
X152950287Y-70467101D01*
X153269715Y-70467101D01*
X153742718Y-70373015D01*
X154279109Y-70014609D01*
X154380001Y-69863614D01*
X154480893Y-70014609D01*
X154631946Y-70115540D01*
X154682319Y-70368780D01*
X154700487Y-70460116D01*
X154923274Y-70793542D01*
X155007439Y-70849779D01*
X156741320Y-72583660D01*
X156622371Y-72560000D01*
X156305629Y-72560000D01*
X155836590Y-72653298D01*
X155304697Y-73008697D01*
X155194000Y-73174367D01*
X155083303Y-73008697D01*
X154551410Y-72653298D01*
X154082371Y-72560000D01*
X153765629Y-72560000D01*
X153296590Y-72653298D01*
X152764697Y-73008697D01*
X152654000Y-73174367D01*
X152543303Y-73008697D01*
X152011410Y-72653298D01*
X151542371Y-72560000D01*
X151225629Y-72560000D01*
X150756590Y-72653298D01*
X150224697Y-73008697D01*
X150114000Y-73174367D01*
X150003303Y-73008697D01*
X149471410Y-72653298D01*
X149002371Y-72560000D01*
X148685629Y-72560000D01*
X148216590Y-72653298D01*
X147684697Y-73008697D01*
X147574000Y-73174367D01*
X147463303Y-73008697D01*
X146931410Y-72653298D01*
X146462371Y-72560000D01*
X146145629Y-72560000D01*
X145676590Y-72653298D01*
X145144697Y-73008697D01*
X145034000Y-73174367D01*
X144923303Y-73008697D01*
X144391410Y-72653298D01*
X143922371Y-72560000D01*
X143605629Y-72560000D01*
X143136590Y-72653298D01*
X142725178Y-72928194D01*
X142620487Y-72771513D01*
X142369757Y-72603980D01*
X142074000Y-72545150D01*
X140374000Y-72545150D01*
X140078243Y-72603980D01*
X139827513Y-72771513D01*
X139659980Y-73022243D01*
X139601150Y-73318000D01*
X139601150Y-75018000D01*
X139659980Y-75313757D01*
X139827513Y-75564487D01*
X140078243Y-75732020D01*
X140374000Y-75790850D01*
X142074000Y-75790850D01*
X142369757Y-75732020D01*
X142620487Y-75564487D01*
X142725178Y-75407806D01*
X143136590Y-75682702D01*
X143605629Y-75776000D01*
X143922371Y-75776000D01*
X144391410Y-75682702D01*
X144923303Y-75327303D01*
X145034000Y-75161633D01*
X145144697Y-75327303D01*
X145676590Y-75682702D01*
X146145629Y-75776000D01*
X146462371Y-75776000D01*
X146931410Y-75682702D01*
X147463303Y-75327303D01*
X147574000Y-75161633D01*
X147684697Y-75327303D01*
X147836000Y-75428400D01*
X147836001Y-78738472D01*
X147318473Y-79256000D01*
X139248274Y-79256000D01*
X139149000Y-79236253D01*
X138785722Y-79308514D01*
X138755699Y-79314486D01*
X138422274Y-79537273D01*
X138366040Y-79621434D01*
X137152000Y-80835474D01*
X137152000Y-77968400D01*
X137303303Y-77867303D01*
X137658702Y-77335410D01*
X137783502Y-76708000D01*
X137658702Y-76080590D01*
X137303303Y-75548697D01*
X137137633Y-75438000D01*
X137303303Y-75327303D01*
X137658702Y-74795410D01*
X137783502Y-74168000D01*
X137658702Y-73540590D01*
X137303303Y-73008697D01*
X136771410Y-72653298D01*
X136302371Y-72560000D01*
X135985629Y-72560000D01*
X135516590Y-72653298D01*
X134984697Y-73008697D01*
X134874000Y-73174367D01*
X134763303Y-73008697D01*
X134231410Y-72653298D01*
X133762371Y-72560000D01*
X133445629Y-72560000D01*
X132976590Y-72653298D01*
X132450881Y-73004565D01*
X132988335Y-72467112D01*
X139934430Y-72467112D01*
X140033704Y-72486859D01*
X140132978Y-72467112D01*
X140427006Y-72408626D01*
X140760431Y-72185839D01*
X140816668Y-72101674D01*
X142068565Y-70849778D01*
X142152728Y-70793542D01*
X142375515Y-70460117D01*
X142434001Y-70166089D01*
X142434001Y-70166086D01*
X142444055Y-70115540D01*
X142595109Y-70014609D01*
X142953515Y-69478218D01*
X143079370Y-68845501D01*
X142953515Y-68212784D01*
X142595109Y-67676393D01*
X142058718Y-67317987D01*
X141585715Y-67223901D01*
X141266287Y-67223901D01*
X140793284Y-67317987D01*
X140256893Y-67676393D01*
X140156001Y-67827388D01*
X140055109Y-67676393D01*
X139518718Y-67317987D01*
X139045715Y-67223901D01*
X138726287Y-67223901D01*
X138253284Y-67317987D01*
X137716893Y-67676393D01*
X137616001Y-67827388D01*
X137515109Y-67676393D01*
X137364055Y-67575462D01*
X137354001Y-67524914D01*
X137354001Y-67524913D01*
X137295515Y-67230885D01*
X137072728Y-66897460D01*
X136988566Y-66841225D01*
X134410838Y-64263497D01*
X156590928Y-64263497D01*
X156809549Y-64851586D01*
X157236581Y-65311247D01*
X157807011Y-65572500D01*
X157923003Y-65595572D01*
X158174500Y-65426494D01*
X158174500Y-64012000D01*
X156760005Y-64012000D01*
X156590928Y-64263497D01*
X134410838Y-64263497D01*
X133899844Y-63752503D01*
X156590928Y-63752503D01*
X156760005Y-64004000D01*
X158174500Y-64004000D01*
X158174500Y-62589506D01*
X157923003Y-62420428D01*
X157807011Y-62443500D01*
X157236581Y-62704753D01*
X156809549Y-63164414D01*
X156590928Y-63752503D01*
X133899844Y-63752503D01*
X132504748Y-62357408D01*
X132448511Y-62273243D01*
X132115086Y-62050456D01*
X131821058Y-61991970D01*
X131721784Y-61972223D01*
X131622510Y-61991970D01*
X107999303Y-61991970D01*
X107931787Y-61978540D01*
X107717410Y-61835298D01*
X107504764Y-61793000D01*
X173792000Y-61793000D01*
X173792000Y-72485392D01*
X173792000Y-72485392D01*
G37*
X173792000Y-72485392D02*
X171657045Y-70350438D01*
X171600808Y-70266273D01*
X171267383Y-70043486D01*
X170973355Y-69985000D01*
X170926123Y-69975605D01*
X170831303Y-69833697D01*
X170299410Y-69478298D01*
X169830371Y-69385000D01*
X169513629Y-69385000D01*
X169044590Y-69478298D01*
X168633178Y-69753194D01*
X168528487Y-69596513D01*
X168277757Y-69428980D01*
X167982000Y-69370150D01*
X166282000Y-69370150D01*
X165986243Y-69428980D01*
X165735513Y-69596513D01*
X165567980Y-69847243D01*
X165540578Y-69985000D01*
X164458893Y-69985000D01*
X164797515Y-69478218D01*
X164923370Y-68845501D01*
X164797515Y-68212784D01*
X164439109Y-67676393D01*
X164266500Y-67561059D01*
X164266500Y-65599422D01*
X164404257Y-65572020D01*
X164654987Y-65404487D01*
X164822520Y-65153757D01*
X164881350Y-64858000D01*
X164881350Y-64524082D01*
X168328530Y-64524082D01*
X168328530Y-65422318D01*
X168672270Y-66252180D01*
X169307420Y-66887330D01*
X170137282Y-67231070D01*
X171035518Y-67231070D01*
X171865380Y-66887330D01*
X172500530Y-66252180D01*
X172844270Y-65422318D01*
X172844270Y-64524082D01*
X172500530Y-63694220D01*
X171865380Y-63059070D01*
X171035518Y-62715330D01*
X170137282Y-62715330D01*
X169307420Y-63059070D01*
X168672270Y-63694220D01*
X168328530Y-64524082D01*
X164881350Y-64524082D01*
X164881350Y-63158000D01*
X164822520Y-62862243D01*
X164654987Y-62611513D01*
X164404257Y-62443980D01*
X164108500Y-62385150D01*
X162408500Y-62385150D01*
X162112743Y-62443980D01*
X161862013Y-62611513D01*
X161757322Y-62768194D01*
X161345910Y-62493298D01*
X160876871Y-62400000D01*
X160560129Y-62400000D01*
X160091090Y-62493298D01*
X159559197Y-62848697D01*
X159431580Y-63039690D01*
X159120419Y-62704753D01*
X158549989Y-62443500D01*
X158433997Y-62420428D01*
X158182500Y-62589506D01*
X158182500Y-64004000D01*
X158202500Y-64004000D01*
X158202500Y-64012000D01*
X158182500Y-64012000D01*
X158182500Y-65426494D01*
X158433997Y-65595572D01*
X158549989Y-65572500D01*
X159120419Y-65311247D01*
X159431580Y-64976310D01*
X159559197Y-65167303D01*
X159710500Y-65268400D01*
X159710501Y-67576428D01*
X159560893Y-67676393D01*
X159460001Y-67827388D01*
X159359109Y-67676393D01*
X158822718Y-67317987D01*
X158349715Y-67223901D01*
X158030287Y-67223901D01*
X157557284Y-67317987D01*
X157020893Y-67676393D01*
X156920001Y-67827388D01*
X156819109Y-67676393D01*
X156282718Y-67317987D01*
X155809715Y-67223901D01*
X155490287Y-67223901D01*
X155017284Y-67317987D01*
X154480893Y-67676393D01*
X154380001Y-67827388D01*
X154279109Y-67676393D01*
X153742718Y-67317987D01*
X153269715Y-67223901D01*
X152950287Y-67223901D01*
X152477284Y-67317987D01*
X151940893Y-67676393D01*
X151840001Y-67827388D01*
X151739109Y-67676393D01*
X151202718Y-67317987D01*
X150729715Y-67223901D01*
X150410287Y-67223901D01*
X149937284Y-67317987D01*
X149400893Y-67676393D01*
X149300001Y-67827388D01*
X149199109Y-67676393D01*
X148662718Y-67317987D01*
X148189715Y-67223901D01*
X147870287Y-67223901D01*
X147397284Y-67317987D01*
X146860893Y-67676393D01*
X146760001Y-67827388D01*
X146659109Y-67676393D01*
X146122718Y-67317987D01*
X145649715Y-67223901D01*
X145330287Y-67223901D01*
X144857284Y-67317987D01*
X144320893Y-67676393D01*
X143962487Y-68212784D01*
X143836632Y-68845501D01*
X143962487Y-69478218D01*
X144320893Y-70014609D01*
X144857284Y-70373015D01*
X145330287Y-70467101D01*
X145649715Y-70467101D01*
X146122718Y-70373015D01*
X146659109Y-70014609D01*
X146760001Y-69863614D01*
X146860893Y-70014609D01*
X147397284Y-70373015D01*
X147870287Y-70467101D01*
X148189715Y-70467101D01*
X148662718Y-70373015D01*
X149199109Y-70014609D01*
X149300001Y-69863614D01*
X149400893Y-70014609D01*
X149937284Y-70373015D01*
X150410287Y-70467101D01*
X150729715Y-70467101D01*
X151202718Y-70373015D01*
X151739109Y-70014609D01*
X151840001Y-69863614D01*
X151940893Y-70014609D01*
X152477284Y-70373015D01*
X152950287Y-70467101D01*
X153269715Y-70467101D01*
X153742718Y-70373015D01*
X154279109Y-70014609D01*
X154380001Y-69863614D01*
X154480893Y-70014609D01*
X154631946Y-70115540D01*
X154682319Y-70368780D01*
X154700487Y-70460116D01*
X154923274Y-70793542D01*
X155007439Y-70849779D01*
X156741320Y-72583660D01*
X156622371Y-72560000D01*
X156305629Y-72560000D01*
X155836590Y-72653298D01*
X155304697Y-73008697D01*
X155194000Y-73174367D01*
X155083303Y-73008697D01*
X154551410Y-72653298D01*
X154082371Y-72560000D01*
X153765629Y-72560000D01*
X153296590Y-72653298D01*
X152764697Y-73008697D01*
X152654000Y-73174367D01*
X152543303Y-73008697D01*
X152011410Y-72653298D01*
X151542371Y-72560000D01*
X151225629Y-72560000D01*
X150756590Y-72653298D01*
X150224697Y-73008697D01*
X150114000Y-73174367D01*
X150003303Y-73008697D01*
X149471410Y-72653298D01*
X149002371Y-72560000D01*
X148685629Y-72560000D01*
X148216590Y-72653298D01*
X147684697Y-73008697D01*
X147574000Y-73174367D01*
X147463303Y-73008697D01*
X146931410Y-72653298D01*
X146462371Y-72560000D01*
X146145629Y-72560000D01*
X145676590Y-72653298D01*
X145144697Y-73008697D01*
X145034000Y-73174367D01*
X144923303Y-73008697D01*
X144391410Y-72653298D01*
X143922371Y-72560000D01*
X143605629Y-72560000D01*
X143136590Y-72653298D01*
X142725178Y-72928194D01*
X142620487Y-72771513D01*
X142369757Y-72603980D01*
X142074000Y-72545150D01*
X140374000Y-72545150D01*
X140078243Y-72603980D01*
X139827513Y-72771513D01*
X139659980Y-73022243D01*
X139601150Y-73318000D01*
X139601150Y-75018000D01*
X139659980Y-75313757D01*
X139827513Y-75564487D01*
X140078243Y-75732020D01*
X140374000Y-75790850D01*
X142074000Y-75790850D01*
X142369757Y-75732020D01*
X142620487Y-75564487D01*
X142725178Y-75407806D01*
X143136590Y-75682702D01*
X143605629Y-75776000D01*
X143922371Y-75776000D01*
X144391410Y-75682702D01*
X144923303Y-75327303D01*
X145034000Y-75161633D01*
X145144697Y-75327303D01*
X145676590Y-75682702D01*
X146145629Y-75776000D01*
X146462371Y-75776000D01*
X146931410Y-75682702D01*
X147463303Y-75327303D01*
X147574000Y-75161633D01*
X147684697Y-75327303D01*
X147836000Y-75428400D01*
X147836001Y-78738472D01*
X147318473Y-79256000D01*
X139248274Y-79256000D01*
X139149000Y-79236253D01*
X138785722Y-79308514D01*
X138755699Y-79314486D01*
X138422274Y-79537273D01*
X138366040Y-79621434D01*
X137152000Y-80835474D01*
X137152000Y-77968400D01*
X137303303Y-77867303D01*
X137658702Y-77335410D01*
X137783502Y-76708000D01*
X137658702Y-76080590D01*
X137303303Y-75548697D01*
X137137633Y-75438000D01*
X137303303Y-75327303D01*
X137658702Y-74795410D01*
X137783502Y-74168000D01*
X137658702Y-73540590D01*
X137303303Y-73008697D01*
X136771410Y-72653298D01*
X136302371Y-72560000D01*
X135985629Y-72560000D01*
X135516590Y-72653298D01*
X134984697Y-73008697D01*
X134874000Y-73174367D01*
X134763303Y-73008697D01*
X134231410Y-72653298D01*
X133762371Y-72560000D01*
X133445629Y-72560000D01*
X132976590Y-72653298D01*
X132450881Y-73004565D01*
X132988335Y-72467112D01*
X139934430Y-72467112D01*
X140033704Y-72486859D01*
X140132978Y-72467112D01*
X140427006Y-72408626D01*
X140760431Y-72185839D01*
X140816668Y-72101674D01*
X142068565Y-70849778D01*
X142152728Y-70793542D01*
X142375515Y-70460117D01*
X142434001Y-70166089D01*
X142434001Y-70166086D01*
X142444055Y-70115540D01*
X142595109Y-70014609D01*
X142953515Y-69478218D01*
X143079370Y-68845501D01*
X142953515Y-68212784D01*
X142595109Y-67676393D01*
X142058718Y-67317987D01*
X141585715Y-67223901D01*
X141266287Y-67223901D01*
X140793284Y-67317987D01*
X140256893Y-67676393D01*
X140156001Y-67827388D01*
X140055109Y-67676393D01*
X139518718Y-67317987D01*
X139045715Y-67223901D01*
X138726287Y-67223901D01*
X138253284Y-67317987D01*
X137716893Y-67676393D01*
X137616001Y-67827388D01*
X137515109Y-67676393D01*
X137364055Y-67575462D01*
X137354001Y-67524914D01*
X137354001Y-67524913D01*
X137295515Y-67230885D01*
X137072728Y-66897460D01*
X136988566Y-66841225D01*
X134410838Y-64263497D01*
X156590928Y-64263497D01*
X156809549Y-64851586D01*
X157236581Y-65311247D01*
X157807011Y-65572500D01*
X157923003Y-65595572D01*
X158174500Y-65426494D01*
X158174500Y-64012000D01*
X156760005Y-64012000D01*
X156590928Y-64263497D01*
X134410838Y-64263497D01*
X133899844Y-63752503D01*
X156590928Y-63752503D01*
X156760005Y-64004000D01*
X158174500Y-64004000D01*
X158174500Y-62589506D01*
X157923003Y-62420428D01*
X157807011Y-62443500D01*
X157236581Y-62704753D01*
X156809549Y-63164414D01*
X156590928Y-63752503D01*
X133899844Y-63752503D01*
X132504748Y-62357408D01*
X132448511Y-62273243D01*
X132115086Y-62050456D01*
X131821058Y-61991970D01*
X131721784Y-61972223D01*
X131622510Y-61991970D01*
X107999303Y-61991970D01*
X107931787Y-61978540D01*
X107717410Y-61835298D01*
X107504764Y-61793000D01*
X173792000Y-61793000D01*
X173792000Y-72485392D01*
G36*
X103390697Y-67049303D02*
X103556367Y-67160000D01*
X103390697Y-67270697D01*
X103035298Y-67802590D01*
X102910498Y-68430000D01*
X103035298Y-69057410D01*
X103390697Y-69589303D01*
X103556367Y-69700000D01*
X103390697Y-69810697D01*
X103035298Y-70342590D01*
X102910498Y-70970000D01*
X103035298Y-71597410D01*
X103390697Y-72129303D01*
X103922590Y-72484702D01*
X104391629Y-72578000D01*
X104708371Y-72578000D01*
X105177410Y-72484702D01*
X105709303Y-72129303D01*
X105820000Y-71963633D01*
X105930697Y-72129303D01*
X106462590Y-72484702D01*
X106931629Y-72578000D01*
X107248371Y-72578000D01*
X107717410Y-72484702D01*
X108249303Y-72129303D01*
X108296589Y-72058534D01*
X108299274Y-72058000D01*
X108593302Y-71999514D01*
X108926727Y-71776727D01*
X108982964Y-71692562D01*
X112901567Y-67773960D01*
X112652001Y-68376466D01*
X112652001Y-69314536D01*
X113010985Y-70181201D01*
X113530983Y-70701199D01*
X112859974Y-70701199D01*
X112760700Y-70681452D01*
X112367399Y-70759685D01*
X112033974Y-70982472D01*
X111977738Y-71066635D01*
X111368135Y-71676239D01*
X111368132Y-71676241D01*
X111343173Y-71701200D01*
X110661012Y-71701200D01*
X110014873Y-71968840D01*
X109532513Y-72451200D01*
X108605674Y-72451200D01*
X108506400Y-72431453D01*
X108113098Y-72509686D01*
X107881832Y-72664213D01*
X107779673Y-72732473D01*
X107723439Y-72816633D01*
X107676072Y-72864000D01*
X107233695Y-72864000D01*
X106661064Y-73101191D01*
X106222791Y-73539464D01*
X105985600Y-74112095D01*
X105985600Y-74554473D01*
X104398074Y-76142000D01*
X97967527Y-76142000D01*
X96994600Y-75169074D01*
X96994600Y-74669675D01*
X98385412Y-74669675D01*
X98407719Y-74781817D01*
X98660804Y-75334530D01*
X99106139Y-75748319D01*
X99675925Y-75960188D01*
X99919600Y-75790495D01*
X99919600Y-74426000D01*
X99927600Y-74426000D01*
X99927600Y-75790495D01*
X100171275Y-75960188D01*
X100741061Y-75748319D01*
X101186396Y-75334530D01*
X101439481Y-74781817D01*
X101461788Y-74669675D01*
X101292094Y-74426000D01*
X99927600Y-74426000D01*
X99919600Y-74426000D01*
X98555106Y-74426000D01*
X98385412Y-74669675D01*
X96994600Y-74669675D01*
X96994600Y-73193200D01*
X97145903Y-73092103D01*
X97256600Y-72926433D01*
X97367297Y-73092103D01*
X97899190Y-73447502D01*
X98368229Y-73540800D01*
X98646458Y-73540800D01*
X98407719Y-74062183D01*
X98385412Y-74174325D01*
X98555106Y-74418000D01*
X99919600Y-74418000D01*
X99919600Y-73053505D01*
X99927600Y-73053505D01*
X99927600Y-74418000D01*
X101292094Y-74418000D01*
X101461788Y-74174325D01*
X101439481Y-74062183D01*
X101186396Y-73509470D01*
X100741061Y-73095681D01*
X100171275Y-72883812D01*
X99927600Y-73053505D01*
X99919600Y-73053505D01*
X99777714Y-72954697D01*
X100041302Y-72560210D01*
X100166102Y-71932800D01*
X100041302Y-71305390D01*
X99685903Y-70773497D01*
X99154010Y-70418098D01*
X98684971Y-70324800D01*
X98368229Y-70324800D01*
X97899190Y-70418098D01*
X97373479Y-70769367D01*
X100494383Y-67648462D01*
X100578546Y-67592227D01*
X100669656Y-67455870D01*
X101227527Y-66898000D01*
X103289600Y-66898000D01*
X103390697Y-67049303D01*
X103390697Y-67049303D01*
G37*
X103390697Y-67049303D02*
X103556367Y-67160000D01*
X103390697Y-67270697D01*
X103035298Y-67802590D01*
X102910498Y-68430000D01*
X103035298Y-69057410D01*
X103390697Y-69589303D01*
X103556367Y-69700000D01*
X103390697Y-69810697D01*
X103035298Y-70342590D01*
X102910498Y-70970000D01*
X103035298Y-71597410D01*
X103390697Y-72129303D01*
X103922590Y-72484702D01*
X104391629Y-72578000D01*
X104708371Y-72578000D01*
X105177410Y-72484702D01*
X105709303Y-72129303D01*
X105820000Y-71963633D01*
X105930697Y-72129303D01*
X106462590Y-72484702D01*
X106931629Y-72578000D01*
X107248371Y-72578000D01*
X107717410Y-72484702D01*
X108249303Y-72129303D01*
X108296589Y-72058534D01*
X108299274Y-72058000D01*
X108593302Y-71999514D01*
X108926727Y-71776727D01*
X108982964Y-71692562D01*
X112901567Y-67773960D01*
X112652001Y-68376466D01*
X112652001Y-69314536D01*
X113010985Y-70181201D01*
X113530983Y-70701199D01*
X112859974Y-70701199D01*
X112760700Y-70681452D01*
X112367399Y-70759685D01*
X112033974Y-70982472D01*
X111977738Y-71066635D01*
X111368135Y-71676239D01*
X111368132Y-71676241D01*
X111343173Y-71701200D01*
X110661012Y-71701200D01*
X110014873Y-71968840D01*
X109532513Y-72451200D01*
X108605674Y-72451200D01*
X108506400Y-72431453D01*
X108113098Y-72509686D01*
X107881832Y-72664213D01*
X107779673Y-72732473D01*
X107723439Y-72816633D01*
X107676072Y-72864000D01*
X107233695Y-72864000D01*
X106661064Y-73101191D01*
X106222791Y-73539464D01*
X105985600Y-74112095D01*
X105985600Y-74554473D01*
X104398074Y-76142000D01*
X97967527Y-76142000D01*
X96994600Y-75169074D01*
X96994600Y-74669675D01*
X98385412Y-74669675D01*
X98407719Y-74781817D01*
X98660804Y-75334530D01*
X99106139Y-75748319D01*
X99675925Y-75960188D01*
X99919600Y-75790495D01*
X99919600Y-74426000D01*
X99927600Y-74426000D01*
X99927600Y-75790495D01*
X100171275Y-75960188D01*
X100741061Y-75748319D01*
X101186396Y-75334530D01*
X101439481Y-74781817D01*
X101461788Y-74669675D01*
X101292094Y-74426000D01*
X99927600Y-74426000D01*
X99919600Y-74426000D01*
X98555106Y-74426000D01*
X98385412Y-74669675D01*
X96994600Y-74669675D01*
X96994600Y-73193200D01*
X97145903Y-73092103D01*
X97256600Y-72926433D01*
X97367297Y-73092103D01*
X97899190Y-73447502D01*
X98368229Y-73540800D01*
X98646458Y-73540800D01*
X98407719Y-74062183D01*
X98385412Y-74174325D01*
X98555106Y-74418000D01*
X99919600Y-74418000D01*
X99919600Y-73053505D01*
X99927600Y-73053505D01*
X99927600Y-74418000D01*
X101292094Y-74418000D01*
X101461788Y-74174325D01*
X101439481Y-74062183D01*
X101186396Y-73509470D01*
X100741061Y-73095681D01*
X100171275Y-72883812D01*
X99927600Y-73053505D01*
X99919600Y-73053505D01*
X99777714Y-72954697D01*
X100041302Y-72560210D01*
X100166102Y-71932800D01*
X100041302Y-71305390D01*
X99685903Y-70773497D01*
X99154010Y-70418098D01*
X98684971Y-70324800D01*
X98368229Y-70324800D01*
X97899190Y-70418098D01*
X97373479Y-70769367D01*
X100494383Y-67648462D01*
X100578546Y-67592227D01*
X100669656Y-67455870D01*
X101227527Y-66898000D01*
X103289600Y-66898000D01*
X103390697Y-67049303D01*
G04 #@! TD*
M02*
