G04 #@! TF.GenerationSoftware,KiCad,Pcbnew,5.0.2+dfsg1-1~bpo9+1*
G04 #@! TF.CreationDate,2021-06-17T18:16:35-03:00*
G04 #@! TF.ProjectId,minilab,6d696e69-6c61-4622-9e6b-696361645f70,rev?*
G04 #@! TF.SameCoordinates,Original*
G04 #@! TF.FileFunction,Copper,L2,Bot*
G04 #@! TF.FilePolarity,Positive*
%FSLAX46Y46*%
G04 Gerber Fmt 4.6, Leading zero omitted, Abs format (unit mm)*
G04 Created by KiCad (PCBNEW 5.0.2+dfsg1-1~bpo9+1) date jue 17 jun 2021 18:16:35 -03*
%MOMM*%
%LPD*%
G01*
G04 APERTURE LIST*
G04 #@! TA.AperFunction,ComponentPad*
%ADD10O,1.727200X1.727200*%
G04 #@! TD*
G04 #@! TA.AperFunction,ComponentPad*
%ADD11O,1.700000X1.700000*%
G04 #@! TD*
G04 #@! TA.AperFunction,ComponentPad*
%ADD12R,1.700000X1.700000*%
G04 #@! TD*
G04 #@! TA.AperFunction,ComponentPad*
%ADD13C,2.340000*%
G04 #@! TD*
G04 #@! TA.AperFunction,ComponentPad*
%ADD14R,2.400000X1.600000*%
G04 #@! TD*
G04 #@! TA.AperFunction,ComponentPad*
%ADD15O,2.400000X1.600000*%
G04 #@! TD*
G04 #@! TA.AperFunction,ComponentPad*
%ADD16R,1.600000X1.600000*%
G04 #@! TD*
G04 #@! TA.AperFunction,ComponentPad*
%ADD17O,1.600000X1.600000*%
G04 #@! TD*
G04 #@! TA.AperFunction,ComponentPad*
%ADD18C,1.300000*%
G04 #@! TD*
G04 #@! TA.AperFunction,ComponentPad*
%ADD19R,1.300000X1.300000*%
G04 #@! TD*
G04 #@! TA.AperFunction,ComponentPad*
%ADD20C,1.600000*%
G04 #@! TD*
G04 #@! TA.AperFunction,ComponentPad*
%ADD21R,1.800000X1.800000*%
G04 #@! TD*
G04 #@! TA.AperFunction,ComponentPad*
%ADD22C,1.800000*%
G04 #@! TD*
G04 #@! TA.AperFunction,ComponentPad*
%ADD23C,2.000000*%
G04 #@! TD*
G04 #@! TA.AperFunction,ComponentPad*
%ADD24O,1.899920X1.501140*%
G04 #@! TD*
G04 #@! TA.AperFunction,Conductor*
%ADD25C,0.500000*%
G04 #@! TD*
G04 #@! TA.AperFunction,Conductor*
%ADD26C,0.750000*%
G04 #@! TD*
G04 APERTURE END LIST*
D10*
G04 #@! TO.P,XA1,RST2*
G04 #@! TO.N,N/C*
X163397001Y-94245501D03*
G04 #@! TO.P,XA1,GND4*
X165937001Y-94245501D03*
G04 #@! TO.P,XA1,MOSI*
X165937001Y-91705501D03*
G04 #@! TO.P,XA1,SCK*
X163397001Y-91705501D03*
G04 #@! TO.P,XA1,5V2*
X165937001Y-89165501D03*
G04 #@! TO.P,XA1,A0*
G04 #@! TO.N,/LM35*
X150570001Y-117105501D03*
G04 #@! TO.P,XA1,VIN*
G04 #@! TO.N,N/C*
X145490001Y-117105501D03*
G04 #@! TO.P,XA1,GND3*
G04 #@! TO.N,GND*
X142950001Y-117105501D03*
G04 #@! TO.P,XA1,GND2*
X140410001Y-117105501D03*
G04 #@! TO.P,XA1,5V1*
G04 #@! TO.N,+5V*
X137870001Y-117105501D03*
G04 #@! TO.P,XA1,3V3*
G04 #@! TO.N,N/C*
X135330001Y-117105501D03*
G04 #@! TO.P,XA1,RST1*
X132790001Y-117105501D03*
G04 #@! TO.P,XA1,IORF*
X130250001Y-117105501D03*
G04 #@! TO.P,XA1,D0*
G04 #@! TO.N,Net-(J8-Pad1)*
X163270001Y-68845501D03*
G04 #@! TO.P,XA1,D1*
G04 #@! TO.N,Net-(J8-Pad2)*
X160730001Y-68845501D03*
G04 #@! TO.P,XA1,D2*
G04 #@! TO.N,/SW1*
X158190001Y-68845501D03*
G04 #@! TO.P,XA1,D3*
G04 #@! TO.N,/SW2*
X155650001Y-68845501D03*
G04 #@! TO.P,XA1,D4*
G04 #@! TO.N,/SW3*
X153110001Y-68845501D03*
G04 #@! TO.P,XA1,D5*
G04 #@! TO.N,/SW4*
X150570001Y-68845501D03*
G04 #@! TO.P,XA1,D6*
G04 #@! TO.N,/LED4*
X148030001Y-68845501D03*
G04 #@! TO.P,XA1,D7*
G04 #@! TO.N,/LED3*
X145490001Y-68845501D03*
G04 #@! TO.P,XA1,GND1*
G04 #@! TO.N,GND*
X126186001Y-68845501D03*
G04 #@! TO.P,XA1,D8*
G04 #@! TO.N,/LED2*
X141426001Y-68845501D03*
G04 #@! TO.P,XA1,D9*
G04 #@! TO.N,/LED1*
X138886001Y-68845501D03*
G04 #@! TO.P,XA1,D10*
G04 #@! TO.N,/PUSH1*
X136346001Y-68845501D03*
G04 #@! TO.P,XA1,SCL*
G04 #@! TO.N,N/C*
X118566001Y-68845501D03*
G04 #@! TO.P,XA1,SDA*
X121106001Y-68845501D03*
G04 #@! TO.P,XA1,AREF*
X123646001Y-68845501D03*
G04 #@! TO.P,XA1,D13*
G04 #@! TO.N,/D13*
X128726001Y-68845501D03*
G04 #@! TO.P,XA1,D12*
G04 #@! TO.N,/D12*
X131266001Y-68845501D03*
G04 #@! TO.P,XA1,D11*
G04 #@! TO.N,/PUSH2*
X133806001Y-68845501D03*
G04 #@! TO.P,XA1,*
G04 #@! TO.N,*
X127710001Y-117105501D03*
G04 #@! TO.P,XA1,A1*
G04 #@! TO.N,/POT*
X153110001Y-117105501D03*
G04 #@! TO.P,XA1,A2*
G04 #@! TO.N,N/C*
X155650001Y-117105501D03*
G04 #@! TO.P,XA1,A3*
X158190001Y-117105501D03*
G04 #@! TO.P,XA1,A4*
X160730001Y-117105501D03*
G04 #@! TO.P,XA1,A5*
X163270001Y-117105501D03*
G04 #@! TO.P,XA1,MISO*
X163397001Y-89165501D03*
G04 #@! TD*
D11*
G04 #@! TO.P,J5,8*
G04 #@! TO.N,/D13*
X107090000Y-70970000D03*
G04 #@! TO.P,J5,7*
G04 #@! TO.N,N/C*
X104550000Y-70970000D03*
G04 #@! TO.P,J5,6*
G04 #@! TO.N,/D12*
X107090000Y-68430000D03*
G04 #@! TO.P,J5,5*
G04 #@! TO.N,N/C*
X104550000Y-68430000D03*
G04 #@! TO.P,J5,4*
G04 #@! TO.N,/PUSH2*
X107090000Y-65890000D03*
G04 #@! TO.P,J5,3*
G04 #@! TO.N,Net-(C3-Pad1)*
X104550000Y-65890000D03*
G04 #@! TO.P,J5,2*
G04 #@! TO.N,/PUSH1*
X107090000Y-63350000D03*
D12*
G04 #@! TO.P,J5,1*
G04 #@! TO.N,Net-(C2-Pad1)*
X104550000Y-63350000D03*
G04 #@! TD*
D13*
G04 #@! TO.P,RV1,1*
G04 #@! TO.N,Net-(R3-Pad2)*
X93980000Y-96012000D03*
G04 #@! TO.P,RV1,2*
G04 #@! TO.N,/Tr*
X93980000Y-101012000D03*
G04 #@! TO.P,RV1,3*
X93980000Y-106012000D03*
G04 #@! TD*
D14*
G04 #@! TO.P,U1,1*
G04 #@! TO.N,GND*
X106680000Y-94361000D03*
D15*
G04 #@! TO.P,U1,5*
G04 #@! TO.N,Net-(C1-Pad1)*
X114300000Y-101981000D03*
G04 #@! TO.P,U1,2*
G04 #@! TO.N,/Tr*
X106680000Y-96901000D03*
G04 #@! TO.P,U1,6*
X114300000Y-99441000D03*
G04 #@! TO.P,U1,3*
G04 #@! TO.N,/Osc*
X106680000Y-99441000D03*
G04 #@! TO.P,U1,7*
G04 #@! TO.N,Net-(R3-Pad1)*
X114300000Y-96901000D03*
G04 #@! TO.P,U1,4*
G04 #@! TO.N,VCC*
X106680000Y-101981000D03*
G04 #@! TO.P,U1,8*
X114300000Y-94361000D03*
G04 #@! TD*
D16*
G04 #@! TO.P,SW3,1*
G04 #@! TO.N,Net-(JP1-Pad2)*
X151384000Y-110871000D03*
D17*
G04 #@! TO.P,SW3,5*
G04 #@! TO.N,Net-(J2-Pad4)*
X159004000Y-103251000D03*
G04 #@! TO.P,SW3,2*
G04 #@! TO.N,Net-(JP1-Pad2)*
X153924000Y-110871000D03*
G04 #@! TO.P,SW3,6*
G04 #@! TO.N,Net-(J2-Pad3)*
X156464000Y-103251000D03*
G04 #@! TO.P,SW3,3*
G04 #@! TO.N,Net-(JP1-Pad2)*
X156464000Y-110871000D03*
G04 #@! TO.P,SW3,7*
G04 #@! TO.N,Net-(J2-Pad2)*
X153924000Y-103251000D03*
G04 #@! TO.P,SW3,4*
G04 #@! TO.N,Net-(JP1-Pad2)*
X159004000Y-110871000D03*
G04 #@! TO.P,SW3,8*
G04 #@! TO.N,Net-(J2-Pad1)*
X151384000Y-103251000D03*
G04 #@! TD*
D18*
G04 #@! TO.P,U2,2*
G04 #@! TO.N,/LM35*
X133286500Y-109855000D03*
G04 #@! TO.P,U2,3*
G04 #@! TO.N,GND*
X134556500Y-111125000D03*
D19*
G04 #@! TO.P,U2,1*
G04 #@! TO.N,+5V*
X132016500Y-111125000D03*
G04 #@! TD*
D17*
G04 #@! TO.P,R7,2*
G04 #@! TO.N,Net-(J2-Pad4)*
X159004000Y-98679000D03*
D20*
G04 #@! TO.P,R7,1*
G04 #@! TO.N,Net-(JP2-Pad2)*
X159004000Y-96139000D03*
G04 #@! TD*
G04 #@! TO.P,R8,1*
G04 #@! TO.N,VCC*
X109728000Y-105473500D03*
D17*
G04 #@! TO.P,R8,2*
G04 #@! TO.N,Net-(R3-Pad1)*
X102108000Y-105473500D03*
G04 #@! TD*
D20*
G04 #@! TO.P,C1,2*
G04 #@! TO.N,GND*
X114300000Y-107910000D03*
G04 #@! TO.P,C1,1*
G04 #@! TO.N,Net-(C1-Pad1)*
X114300000Y-105410000D03*
G04 #@! TD*
G04 #@! TO.P,C2,2*
G04 #@! TO.N,GND*
X96443800Y-90790400D03*
G04 #@! TO.P,C2,1*
G04 #@! TO.N,Net-(C2-Pad1)*
X96443800Y-88290400D03*
G04 #@! TD*
G04 #@! TO.P,C3,1*
G04 #@! TO.N,Net-(C3-Pad1)*
X120129300Y-72148700D03*
G04 #@! TO.P,C3,2*
G04 #@! TO.N,GND*
X120129300Y-74648700D03*
G04 #@! TD*
G04 #@! TO.P,C5,1*
G04 #@! TO.N,/POT*
X134112000Y-102235000D03*
G04 #@! TO.P,C5,2*
G04 #@! TO.N,GND*
X134112000Y-104735000D03*
G04 #@! TD*
D21*
G04 #@! TO.P,D1,1*
G04 #@! TO.N,GND*
X119380000Y-91567000D03*
D22*
G04 #@! TO.P,D1,2*
G04 #@! TO.N,Net-(D1-Pad2)*
X119380000Y-89027000D03*
G04 #@! TD*
D21*
G04 #@! TO.P,D2,1*
G04 #@! TO.N,GND*
X124904500Y-91567000D03*
D22*
G04 #@! TO.P,D2,2*
G04 #@! TO.N,Net-(D2-Pad2)*
X124904500Y-89027000D03*
G04 #@! TD*
D21*
G04 #@! TO.P,D3,1*
G04 #@! TO.N,GND*
X130556000Y-91567000D03*
D22*
G04 #@! TO.P,D3,2*
G04 #@! TO.N,Net-(D3-Pad2)*
X130556000Y-89027000D03*
G04 #@! TD*
G04 #@! TO.P,D4,2*
G04 #@! TO.N,Net-(D4-Pad2)*
X136144000Y-89027000D03*
D21*
G04 #@! TO.P,D4,1*
G04 #@! TO.N,GND*
X136144000Y-91567000D03*
G04 #@! TD*
D22*
G04 #@! TO.P,D5,2*
G04 #@! TO.N,Net-(D5-Pad2)*
X141732000Y-89027000D03*
D21*
G04 #@! TO.P,D5,1*
G04 #@! TO.N,GND*
X141732000Y-91567000D03*
G04 #@! TD*
D22*
G04 #@! TO.P,D6,2*
G04 #@! TO.N,Net-(D6-Pad2)*
X147320000Y-89027000D03*
D21*
G04 #@! TO.P,D6,1*
G04 #@! TO.N,GND*
X147320000Y-91567000D03*
G04 #@! TD*
G04 #@! TO.P,D7,1*
G04 #@! TO.N,GND*
X152908000Y-91567000D03*
D22*
G04 #@! TO.P,D7,2*
G04 #@! TO.N,Net-(D7-Pad2)*
X152908000Y-89027000D03*
G04 #@! TD*
G04 #@! TO.P,D8,2*
G04 #@! TO.N,Net-(D8-Pad2)*
X158496000Y-89027000D03*
D21*
G04 #@! TO.P,D8,1*
G04 #@! TO.N,GND*
X158496000Y-91567000D03*
G04 #@! TD*
D12*
G04 #@! TO.P,J1,1*
G04 #@! TO.N,Net-(C2-Pad1)*
X93446600Y-71932800D03*
D11*
G04 #@! TO.P,J1,2*
G04 #@! TO.N,Net-(C3-Pad1)*
X95986600Y-71932800D03*
G04 #@! TO.P,J1,3*
G04 #@! TO.N,/Osc*
X98526600Y-71932800D03*
G04 #@! TD*
D12*
G04 #@! TO.P,J3,1*
G04 #@! TO.N,Net-(J3-Pad1)*
X141224000Y-74168000D03*
D11*
G04 #@! TO.P,J3,2*
G04 #@! TO.N,Net-(J3-Pad2)*
X143764000Y-74168000D03*
G04 #@! TO.P,J3,3*
G04 #@! TO.N,Net-(J3-Pad3)*
X146304000Y-74168000D03*
G04 #@! TO.P,J3,4*
G04 #@! TO.N,Net-(J3-Pad4)*
X148844000Y-74168000D03*
G04 #@! TO.P,J3,5*
G04 #@! TO.N,Net-(J3-Pad5)*
X151384000Y-74168000D03*
G04 #@! TO.P,J3,6*
G04 #@! TO.N,Net-(J3-Pad6)*
X153924000Y-74168000D03*
G04 #@! TO.P,J3,7*
G04 #@! TO.N,Net-(J3-Pad7)*
X156464000Y-74168000D03*
G04 #@! TO.P,J3,8*
G04 #@! TO.N,Net-(J3-Pad8)*
X159004000Y-74168000D03*
G04 #@! TD*
D12*
G04 #@! TO.P,J4,1*
G04 #@! TO.N,Net-(J4-Pad1)*
X119380000Y-116586000D03*
D11*
G04 #@! TO.P,J4,2*
G04 #@! TO.N,GND*
X121920000Y-116586000D03*
G04 #@! TD*
G04 #@! TO.P,JP1,3*
G04 #@! TO.N,VCC*
X140716000Y-110363000D03*
G04 #@! TO.P,JP1,2*
G04 #@! TO.N,Net-(JP1-Pad2)*
X143256000Y-110363000D03*
D12*
G04 #@! TO.P,JP1,1*
G04 #@! TO.N,GND*
X145796000Y-110363000D03*
G04 #@! TD*
G04 #@! TO.P,JP2,1*
G04 #@! TO.N,VCC*
X140716000Y-103759000D03*
D11*
G04 #@! TO.P,JP2,2*
G04 #@! TO.N,Net-(JP2-Pad2)*
X143256000Y-103759000D03*
G04 #@! TO.P,JP2,3*
G04 #@! TO.N,GND*
X145796000Y-103759000D03*
G04 #@! TD*
D12*
G04 #@! TO.P,JP3,1*
G04 #@! TO.N,+5V*
X124460000Y-111252000D03*
D11*
G04 #@! TO.P,JP3,2*
G04 #@! TO.N,VCC*
X121920000Y-111252000D03*
G04 #@! TO.P,JP3,3*
G04 #@! TO.N,Net-(J4-Pad1)*
X119380000Y-111252000D03*
G04 #@! TD*
D23*
G04 #@! TO.P,SW1,1*
G04 #@! TO.N,Net-(C2-Pad1)*
X111010700Y-83924000D03*
G04 #@! TO.P,SW1,2*
G04 #@! TO.N,VCC*
X115510700Y-83924000D03*
G04 #@! TO.P,SW1,1*
G04 #@! TO.N,Net-(C2-Pad1)*
X111010700Y-90424000D03*
G04 #@! TO.P,SW1,2*
G04 #@! TO.N,VCC*
X115510700Y-90424000D03*
G04 #@! TD*
G04 #@! TO.P,SW2,2*
G04 #@! TO.N,VCC*
X115510700Y-79959200D03*
G04 #@! TO.P,SW2,1*
G04 #@! TO.N,Net-(C3-Pad1)*
X111010700Y-79959200D03*
G04 #@! TO.P,SW2,2*
G04 #@! TO.N,VCC*
X115510700Y-73459200D03*
G04 #@! TO.P,SW2,1*
G04 #@! TO.N,Net-(C3-Pad1)*
X111010700Y-73459200D03*
G04 #@! TD*
D16*
G04 #@! TO.P,C4,1*
G04 #@! TO.N,/Tr*
X120523000Y-99528000D03*
D20*
G04 #@! TO.P,C4,2*
G04 #@! TO.N,GND*
X120523000Y-97028000D03*
G04 #@! TD*
D17*
G04 #@! TO.P,R1,2*
G04 #@! TO.N,GND*
X99999800Y-90436700D03*
D20*
G04 #@! TO.P,R1,1*
G04 #@! TO.N,Net-(C2-Pad1)*
X107619800Y-90436700D03*
G04 #@! TD*
D17*
G04 #@! TO.P,R2,2*
G04 #@! TO.N,GND*
X99923600Y-74422000D03*
D20*
G04 #@! TO.P,R2,1*
G04 #@! TO.N,Net-(C3-Pad1)*
X107543600Y-74422000D03*
G04 #@! TD*
D17*
G04 #@! TO.P,R3,2*
G04 #@! TO.N,Net-(R3-Pad2)*
X102108000Y-93916500D03*
D20*
G04 #@! TO.P,R3,1*
G04 #@! TO.N,Net-(R3-Pad1)*
X102108000Y-101536500D03*
G04 #@! TD*
G04 #@! TO.P,R4,1*
G04 #@! TO.N,Net-(JP2-Pad2)*
X145288000Y-96139000D03*
D17*
G04 #@! TO.P,R4,2*
G04 #@! TO.N,Net-(J2-Pad1)*
X145288000Y-98679000D03*
G04 #@! TD*
G04 #@! TO.P,R5,2*
G04 #@! TO.N,Net-(J2-Pad2)*
X149860000Y-98679000D03*
D20*
G04 #@! TO.P,R5,1*
G04 #@! TO.N,Net-(JP2-Pad2)*
X149860000Y-96139000D03*
G04 #@! TD*
G04 #@! TO.P,R6,1*
G04 #@! TO.N,Net-(JP2-Pad2)*
X154432000Y-96139000D03*
D17*
G04 #@! TO.P,R6,2*
G04 #@! TO.N,Net-(J2-Pad3)*
X154432000Y-98679000D03*
G04 #@! TD*
G04 #@! TO.P,R12,2*
G04 #@! TO.N,Net-(J3-Pad1)*
X119380000Y-83439000D03*
D20*
G04 #@! TO.P,R12,1*
G04 #@! TO.N,Net-(D1-Pad2)*
X119380000Y-85979000D03*
G04 #@! TD*
G04 #@! TO.P,R13,1*
G04 #@! TO.N,Net-(D2-Pad2)*
X124968000Y-85979000D03*
D17*
G04 #@! TO.P,R13,2*
G04 #@! TO.N,Net-(J3-Pad2)*
X124968000Y-83439000D03*
G04 #@! TD*
G04 #@! TO.P,R14,2*
G04 #@! TO.N,Net-(J3-Pad3)*
X130556000Y-83439000D03*
D20*
G04 #@! TO.P,R14,1*
G04 #@! TO.N,Net-(D3-Pad2)*
X130556000Y-85979000D03*
G04 #@! TD*
G04 #@! TO.P,R15,1*
G04 #@! TO.N,Net-(D4-Pad2)*
X135974001Y-85979000D03*
D17*
G04 #@! TO.P,R15,2*
G04 #@! TO.N,Net-(J3-Pad4)*
X135974001Y-83439000D03*
G04 #@! TD*
G04 #@! TO.P,R16,2*
G04 #@! TO.N,Net-(J3-Pad5)*
X141732000Y-83439000D03*
D20*
G04 #@! TO.P,R16,1*
G04 #@! TO.N,Net-(D5-Pad2)*
X141732000Y-85979000D03*
G04 #@! TD*
G04 #@! TO.P,R17,1*
G04 #@! TO.N,Net-(D6-Pad2)*
X147320000Y-85979000D03*
D17*
G04 #@! TO.P,R17,2*
G04 #@! TO.N,Net-(J3-Pad6)*
X147320000Y-83439000D03*
G04 #@! TD*
D20*
G04 #@! TO.P,R18,1*
G04 #@! TO.N,Net-(D7-Pad2)*
X152908000Y-85979000D03*
D17*
G04 #@! TO.P,R18,2*
G04 #@! TO.N,Net-(J3-Pad7)*
X152908000Y-83439000D03*
G04 #@! TD*
G04 #@! TO.P,R19,2*
G04 #@! TO.N,Net-(J3-Pad8)*
X158496000Y-83439000D03*
D20*
G04 #@! TO.P,R19,1*
G04 #@! TO.N,Net-(D8-Pad2)*
X158496000Y-85979000D03*
G04 #@! TD*
D11*
G04 #@! TO.P,J6,8*
G04 #@! TO.N,Net-(J2-Pad4)*
X169672000Y-78613000D03*
G04 #@! TO.P,J6,7*
G04 #@! TO.N,/SW4*
X167132000Y-78613000D03*
G04 #@! TO.P,J6,6*
G04 #@! TO.N,Net-(J2-Pad3)*
X169672000Y-76073000D03*
G04 #@! TO.P,J6,5*
G04 #@! TO.N,/SW3*
X167132000Y-76073000D03*
G04 #@! TO.P,J6,4*
G04 #@! TO.N,Net-(J2-Pad2)*
X169672000Y-73533000D03*
G04 #@! TO.P,J6,3*
G04 #@! TO.N,/SW2*
X167132000Y-73533000D03*
G04 #@! TO.P,J6,2*
G04 #@! TO.N,Net-(J2-Pad1)*
X169672000Y-70993000D03*
D12*
G04 #@! TO.P,J6,1*
G04 #@! TO.N,/SW1*
X167132000Y-70993000D03*
G04 #@! TD*
G04 #@! TO.P,J7,1*
G04 #@! TO.N,Net-(J3-Pad1)*
X128524000Y-76708000D03*
D11*
G04 #@! TO.P,J7,2*
G04 #@! TO.N,/LED1*
X128524000Y-74168000D03*
G04 #@! TO.P,J7,3*
G04 #@! TO.N,Net-(J3-Pad2)*
X131064000Y-76708000D03*
G04 #@! TO.P,J7,4*
G04 #@! TO.N,/LED2*
X131064000Y-74168000D03*
G04 #@! TO.P,J7,5*
G04 #@! TO.N,Net-(J3-Pad3)*
X133604000Y-76708000D03*
G04 #@! TO.P,J7,6*
G04 #@! TO.N,/LED3*
X133604000Y-74168000D03*
G04 #@! TO.P,J7,7*
G04 #@! TO.N,Net-(J3-Pad4)*
X136144000Y-76708000D03*
G04 #@! TO.P,J7,8*
G04 #@! TO.N,/LED4*
X136144000Y-74168000D03*
G04 #@! TD*
D12*
G04 #@! TO.P,J2,1*
G04 #@! TO.N,Net-(J2-Pad1)*
X166497000Y-106426000D03*
D11*
G04 #@! TO.P,J2,2*
G04 #@! TO.N,Net-(J2-Pad2)*
X166497000Y-103886000D03*
G04 #@! TO.P,J2,3*
G04 #@! TO.N,Net-(J2-Pad3)*
X166497000Y-101346000D03*
G04 #@! TO.P,J2,4*
G04 #@! TO.N,Net-(J2-Pad4)*
X166497000Y-98806000D03*
G04 #@! TD*
D12*
G04 #@! TO.P,J8,1*
G04 #@! TO.N,Net-(J8-Pad1)*
X163258500Y-64008000D03*
D11*
G04 #@! TO.P,J8,2*
G04 #@! TO.N,Net-(J8-Pad2)*
X160718500Y-64008000D03*
G04 #@! TO.P,J8,3*
G04 #@! TO.N,GND*
X158178500Y-64008000D03*
G04 #@! TD*
D24*
G04 #@! TO.P,RV2,3*
G04 #@! TO.N,GND*
X128000000Y-103718360D03*
G04 #@! TO.P,RV2,2*
G04 #@! TO.N,/POT*
X128000000Y-101219000D03*
G04 #@! TO.P,RV2,1*
G04 #@! TO.N,+5V*
X128000000Y-98719640D03*
G04 #@! TD*
D25*
G04 #@! TO.N,/Osc*
X103900000Y-97061000D02*
X106280000Y-99441000D01*
X103900000Y-92042898D02*
X103900000Y-97061000D01*
X97676601Y-85819499D02*
X103900000Y-92042898D01*
X97676601Y-72782799D02*
X97676601Y-85819499D01*
X106280000Y-99441000D02*
X106680000Y-99441000D01*
X98526600Y-71932800D02*
X97676601Y-72782799D01*
G04 #@! TO.N,/SW4*
X167132000Y-78613000D02*
X165608000Y-78613000D01*
X165608000Y-78613000D02*
X164084000Y-77089000D01*
X164084000Y-77089000D02*
X164084000Y-73533000D01*
X162290010Y-71739010D02*
X151749010Y-71739010D01*
X164084000Y-73533000D02*
X162290010Y-71739010D01*
X150570001Y-70560001D02*
X150570001Y-68845501D01*
X151749010Y-71739010D02*
X150570001Y-70560001D01*
G04 #@! TO.N,/SW3*
X165100000Y-75311000D02*
X165862000Y-76073000D01*
X165100000Y-72898000D02*
X165100000Y-75311000D01*
X153110001Y-68845501D02*
X153110001Y-70066815D01*
X165862000Y-76073000D02*
X167132000Y-76073000D01*
X153782186Y-70739000D02*
X162941000Y-70739000D01*
X153110001Y-70066815D02*
X153782186Y-70739000D01*
X162941000Y-70739000D02*
X165100000Y-72898000D01*
G04 #@! TO.N,/LED3*
X144626402Y-69709100D02*
X145490001Y-68845501D01*
X137312898Y-70459102D02*
X143876400Y-70459102D01*
X143876400Y-70459102D02*
X144626402Y-69709100D01*
X133604000Y-74168000D02*
X137312898Y-70459102D01*
G04 #@! TO.N,/LED4*
X136144000Y-74168000D02*
X138557000Y-71755000D01*
X138557000Y-71755000D02*
X146685000Y-71755000D01*
X148030001Y-70409999D02*
X148030001Y-68845501D01*
X146685000Y-71755000D02*
X148030001Y-70409999D01*
D26*
G04 #@! TO.N,VCC*
X121920000Y-112454081D02*
X121920000Y-111252000D01*
X140716000Y-110363000D02*
X140716000Y-112014000D01*
X140716000Y-112014000D02*
X138430000Y-114300000D01*
X138430000Y-114300000D02*
X123765919Y-114300000D01*
X123765919Y-114300000D02*
X121920000Y-112454081D01*
X108380000Y-101981000D02*
X106680000Y-101981000D01*
X112600000Y-94361000D02*
X110490000Y-96471000D01*
X110490000Y-96471000D02*
X110490000Y-99871000D01*
X114300000Y-94361000D02*
X112600000Y-94361000D01*
X110490000Y-99871000D02*
X108380000Y-101981000D01*
D25*
G04 #@! TO.N,Net-(J3-Pad1)*
X119380000Y-80010000D02*
X119380000Y-83439000D01*
X141224000Y-74168000D02*
X141224000Y-75518000D01*
X141224000Y-75518000D02*
X138002000Y-78740000D01*
X138002000Y-78740000D02*
X120650000Y-78740000D01*
X120650000Y-78740000D02*
X119380000Y-80010000D01*
G04 #@! TO.N,Net-(J3-Pad2)*
X124968000Y-81026000D02*
X124968000Y-83439000D01*
X143764000Y-74168000D02*
X143764000Y-74392221D01*
X143764000Y-74392221D02*
X138400221Y-79756000D01*
X138400221Y-79756000D02*
X126238000Y-79756000D01*
X126238000Y-79756000D02*
X124968000Y-81026000D01*
G04 #@! TO.N,Net-(J3-Pad3)*
X139715990Y-80756010D02*
X131460990Y-80756010D01*
X146304000Y-74168000D02*
X139715990Y-80756010D01*
X131460990Y-80756010D02*
X130556000Y-81661000D01*
X130556000Y-81661000D02*
X130556000Y-83439000D01*
G04 #@! TO.N,Net-(R3-Pad1)*
X102971140Y-103531010D02*
X102108000Y-102667870D01*
X109193990Y-103531010D02*
X102971140Y-103531010D01*
X114300000Y-96901000D02*
X112600000Y-96901000D01*
X102108000Y-102667870D02*
X102108000Y-101536500D01*
X111760000Y-100965000D02*
X109193990Y-103531010D01*
X112600000Y-96901000D02*
X111760000Y-97741000D01*
X111760000Y-97741000D02*
X111760000Y-100965000D01*
G04 #@! TD*
G04 #@! TO.N,GND*
G36*
X103153513Y-61953513D02*
X102985980Y-62204243D01*
X102927150Y-62500000D01*
X102927150Y-64200000D01*
X102985980Y-64495757D01*
X103153513Y-64746487D01*
X103310194Y-64851178D01*
X103035298Y-65262590D01*
X102910498Y-65890000D01*
X103035298Y-66517410D01*
X103390697Y-67049303D01*
X103556367Y-67160000D01*
X103390697Y-67270697D01*
X103035298Y-67802590D01*
X102910498Y-68430000D01*
X103035298Y-69057410D01*
X103390697Y-69589303D01*
X103556367Y-69700000D01*
X103390697Y-69810697D01*
X103035298Y-70342590D01*
X102910498Y-70970000D01*
X103035298Y-71597410D01*
X103390697Y-72129303D01*
X103922590Y-72484702D01*
X104391629Y-72578000D01*
X104708371Y-72578000D01*
X105177410Y-72484702D01*
X105709303Y-72129303D01*
X105820000Y-71963633D01*
X105930697Y-72129303D01*
X106462590Y-72484702D01*
X106931629Y-72578000D01*
X107248371Y-72578000D01*
X107717410Y-72484702D01*
X108249303Y-72129303D01*
X108604702Y-71597410D01*
X108729502Y-70970000D01*
X108604702Y-70342590D01*
X108249303Y-69810697D01*
X108083633Y-69700000D01*
X108249303Y-69589303D01*
X108604702Y-69057410D01*
X108729502Y-68430000D01*
X108718854Y-68376466D01*
X112652001Y-68376466D01*
X112652001Y-69314536D01*
X113010985Y-70181201D01*
X113674301Y-70844517D01*
X114540966Y-71203501D01*
X115479036Y-71203501D01*
X116345701Y-70844517D01*
X117009017Y-70181201D01*
X117200048Y-69720011D01*
X117396893Y-70014609D01*
X117933284Y-70373015D01*
X118406287Y-70467101D01*
X118725715Y-70467101D01*
X119198718Y-70373015D01*
X119735109Y-70014609D01*
X119836001Y-69863614D01*
X119936893Y-70014609D01*
X120473284Y-70373015D01*
X120946287Y-70467101D01*
X121265715Y-70467101D01*
X121738718Y-70373015D01*
X122275109Y-70014609D01*
X122376001Y-69863614D01*
X122476893Y-70014609D01*
X123013284Y-70373015D01*
X123486287Y-70467101D01*
X123805715Y-70467101D01*
X124278718Y-70373015D01*
X124815109Y-70014609D01*
X124927171Y-69846897D01*
X125335309Y-70226048D01*
X125928377Y-70446506D01*
X126182001Y-70277596D01*
X126182001Y-68849501D01*
X126162001Y-68849501D01*
X126162001Y-68841501D01*
X126182001Y-68841501D01*
X126182001Y-67413406D01*
X125928377Y-67244496D01*
X125335309Y-67464954D01*
X124927171Y-67844105D01*
X124815109Y-67676393D01*
X124278718Y-67317987D01*
X123805715Y-67223901D01*
X123486287Y-67223901D01*
X123013284Y-67317987D01*
X122476893Y-67676393D01*
X122376001Y-67827388D01*
X122275109Y-67676393D01*
X121738718Y-67317987D01*
X121265715Y-67223901D01*
X120946287Y-67223901D01*
X120473284Y-67317987D01*
X119936893Y-67676393D01*
X119836001Y-67827388D01*
X119735109Y-67676393D01*
X119198718Y-67317987D01*
X118725715Y-67223901D01*
X118406287Y-67223901D01*
X117933284Y-67317987D01*
X117396893Y-67676393D01*
X117200048Y-67970991D01*
X117009017Y-67509801D01*
X116345701Y-66846485D01*
X115479036Y-66487501D01*
X114540966Y-66487501D01*
X113674301Y-66846485D01*
X113010985Y-67509801D01*
X112652001Y-68376466D01*
X108718854Y-68376466D01*
X108604702Y-67802590D01*
X108249303Y-67270697D01*
X108083633Y-67160000D01*
X108249303Y-67049303D01*
X108604702Y-66517410D01*
X108729502Y-65890000D01*
X108604702Y-65262590D01*
X108249303Y-64730697D01*
X108083633Y-64620000D01*
X108249303Y-64509303D01*
X108413545Y-64263497D01*
X156590928Y-64263497D01*
X156809549Y-64851586D01*
X157236581Y-65311247D01*
X157807011Y-65572500D01*
X157923003Y-65595572D01*
X158174500Y-65426494D01*
X158174500Y-64012000D01*
X156760005Y-64012000D01*
X156590928Y-64263497D01*
X108413545Y-64263497D01*
X108604702Y-63977410D01*
X108649438Y-63752503D01*
X156590928Y-63752503D01*
X156760005Y-64004000D01*
X158174500Y-64004000D01*
X158174500Y-62589506D01*
X158182500Y-62589506D01*
X158182500Y-64004000D01*
X158202500Y-64004000D01*
X158202500Y-64012000D01*
X158182500Y-64012000D01*
X158182500Y-65426494D01*
X158433997Y-65595572D01*
X158549989Y-65572500D01*
X159120419Y-65311247D01*
X159431580Y-64976310D01*
X159559197Y-65167303D01*
X160091090Y-65522702D01*
X160560129Y-65616000D01*
X160876871Y-65616000D01*
X161345910Y-65522702D01*
X161757322Y-65247806D01*
X161862013Y-65404487D01*
X162112743Y-65572020D01*
X162408500Y-65630850D01*
X164108500Y-65630850D01*
X164404257Y-65572020D01*
X164654987Y-65404487D01*
X164822520Y-65153757D01*
X164881350Y-64858000D01*
X164881350Y-64524082D01*
X168328530Y-64524082D01*
X168328530Y-65422318D01*
X168672270Y-66252180D01*
X169307420Y-66887330D01*
X170137282Y-67231070D01*
X171035518Y-67231070D01*
X171865380Y-66887330D01*
X172500530Y-66252180D01*
X172844270Y-65422318D01*
X172844270Y-64524082D01*
X172500530Y-63694220D01*
X171865380Y-63059070D01*
X171035518Y-62715330D01*
X170137282Y-62715330D01*
X169307420Y-63059070D01*
X168672270Y-63694220D01*
X168328530Y-64524082D01*
X164881350Y-64524082D01*
X164881350Y-63158000D01*
X164822520Y-62862243D01*
X164654987Y-62611513D01*
X164404257Y-62443980D01*
X164108500Y-62385150D01*
X162408500Y-62385150D01*
X162112743Y-62443980D01*
X161862013Y-62611513D01*
X161757322Y-62768194D01*
X161345910Y-62493298D01*
X160876871Y-62400000D01*
X160560129Y-62400000D01*
X160091090Y-62493298D01*
X159559197Y-62848697D01*
X159431580Y-63039690D01*
X159120419Y-62704753D01*
X158549989Y-62443500D01*
X158433997Y-62420428D01*
X158182500Y-62589506D01*
X158174500Y-62589506D01*
X157923003Y-62420428D01*
X157807011Y-62443500D01*
X157236581Y-62704753D01*
X156809549Y-63164414D01*
X156590928Y-63752503D01*
X108649438Y-63752503D01*
X108729502Y-63350000D01*
X108604702Y-62722590D01*
X108249303Y-62190697D01*
X107717410Y-61835298D01*
X107504764Y-61793000D01*
X173792000Y-61793000D01*
X173792001Y-119182000D01*
X114888640Y-119182000D01*
X115075701Y-119104517D01*
X115739017Y-118441201D01*
X116098001Y-117574536D01*
X116098001Y-116636466D01*
X115739017Y-115769801D01*
X115705216Y-115736000D01*
X117757150Y-115736000D01*
X117757150Y-117436000D01*
X117815980Y-117731757D01*
X117983513Y-117982487D01*
X118234243Y-118150020D01*
X118530000Y-118208850D01*
X120230000Y-118208850D01*
X120525757Y-118150020D01*
X120776487Y-117982487D01*
X120897061Y-117802036D01*
X120978081Y-117889247D01*
X121548511Y-118150500D01*
X121664503Y-118173572D01*
X121916000Y-118004494D01*
X121916000Y-116590000D01*
X121924000Y-116590000D01*
X121924000Y-118004494D01*
X122175497Y-118173572D01*
X122291489Y-118150500D01*
X122861919Y-117889247D01*
X123288951Y-117429586D01*
X123409429Y-117105501D01*
X126056632Y-117105501D01*
X126182487Y-117738218D01*
X126540893Y-118274609D01*
X127077284Y-118633015D01*
X127550287Y-118727101D01*
X127869715Y-118727101D01*
X128342718Y-118633015D01*
X128879109Y-118274609D01*
X128980001Y-118123614D01*
X129080893Y-118274609D01*
X129617284Y-118633015D01*
X130090287Y-118727101D01*
X130409715Y-118727101D01*
X130882718Y-118633015D01*
X131419109Y-118274609D01*
X131520001Y-118123614D01*
X131620893Y-118274609D01*
X132157284Y-118633015D01*
X132630287Y-118727101D01*
X132949715Y-118727101D01*
X133422718Y-118633015D01*
X133959109Y-118274609D01*
X134060001Y-118123614D01*
X134160893Y-118274609D01*
X134697284Y-118633015D01*
X135170287Y-118727101D01*
X135489715Y-118727101D01*
X135962718Y-118633015D01*
X136499109Y-118274609D01*
X136600001Y-118123614D01*
X136700893Y-118274609D01*
X137237284Y-118633015D01*
X137710287Y-118727101D01*
X138029715Y-118727101D01*
X138502718Y-118633015D01*
X139039109Y-118274609D01*
X139151171Y-118106897D01*
X139559309Y-118486048D01*
X140152377Y-118706506D01*
X140406001Y-118537596D01*
X140406001Y-117109501D01*
X140414001Y-117109501D01*
X140414001Y-118537596D01*
X140667625Y-118706506D01*
X141260693Y-118486048D01*
X141680001Y-118096520D01*
X142099309Y-118486048D01*
X142692377Y-118706506D01*
X142946001Y-118537596D01*
X142946001Y-117109501D01*
X140414001Y-117109501D01*
X140406001Y-117109501D01*
X140386001Y-117109501D01*
X140386001Y-117101501D01*
X140406001Y-117101501D01*
X140406001Y-115673406D01*
X140414001Y-115673406D01*
X140414001Y-117101501D01*
X142946001Y-117101501D01*
X142946001Y-115673406D01*
X142954001Y-115673406D01*
X142954001Y-117101501D01*
X142974001Y-117101501D01*
X142974001Y-117109501D01*
X142954001Y-117109501D01*
X142954001Y-118537596D01*
X143207625Y-118706506D01*
X143800693Y-118486048D01*
X144208831Y-118106897D01*
X144320893Y-118274609D01*
X144857284Y-118633015D01*
X145330287Y-118727101D01*
X145649715Y-118727101D01*
X146122718Y-118633015D01*
X146659109Y-118274609D01*
X147017515Y-117738218D01*
X147143370Y-117105501D01*
X148916632Y-117105501D01*
X149042487Y-117738218D01*
X149400893Y-118274609D01*
X149937284Y-118633015D01*
X150410287Y-118727101D01*
X150729715Y-118727101D01*
X151202718Y-118633015D01*
X151739109Y-118274609D01*
X151840001Y-118123614D01*
X151940893Y-118274609D01*
X152477284Y-118633015D01*
X152950287Y-118727101D01*
X153269715Y-118727101D01*
X153742718Y-118633015D01*
X154279109Y-118274609D01*
X154380001Y-118123614D01*
X154480893Y-118274609D01*
X155017284Y-118633015D01*
X155490287Y-118727101D01*
X155809715Y-118727101D01*
X156282718Y-118633015D01*
X156819109Y-118274609D01*
X156920001Y-118123614D01*
X157020893Y-118274609D01*
X157557284Y-118633015D01*
X158030287Y-118727101D01*
X158349715Y-118727101D01*
X158822718Y-118633015D01*
X159359109Y-118274609D01*
X159460001Y-118123614D01*
X159560893Y-118274609D01*
X160097284Y-118633015D01*
X160570287Y-118727101D01*
X160889715Y-118727101D01*
X161362718Y-118633015D01*
X161899109Y-118274609D01*
X162000001Y-118123614D01*
X162100893Y-118274609D01*
X162637284Y-118633015D01*
X163110287Y-118727101D01*
X163429715Y-118727101D01*
X163902718Y-118633015D01*
X164439109Y-118274609D01*
X164797515Y-117738218D01*
X164923370Y-117105501D01*
X164797515Y-116472784D01*
X164439109Y-115936393D01*
X163902718Y-115577987D01*
X163647807Y-115527282D01*
X168328530Y-115527282D01*
X168328530Y-116425518D01*
X168672270Y-117255380D01*
X169307420Y-117890530D01*
X170137282Y-118234270D01*
X171035518Y-118234270D01*
X171865380Y-117890530D01*
X172500530Y-117255380D01*
X172844270Y-116425518D01*
X172844270Y-115527282D01*
X172500530Y-114697420D01*
X171865380Y-114062270D01*
X171035518Y-113718530D01*
X170137282Y-113718530D01*
X169307420Y-114062270D01*
X168672270Y-114697420D01*
X168328530Y-115527282D01*
X163647807Y-115527282D01*
X163429715Y-115483901D01*
X163110287Y-115483901D01*
X162637284Y-115577987D01*
X162100893Y-115936393D01*
X162000001Y-116087388D01*
X161899109Y-115936393D01*
X161362718Y-115577987D01*
X160889715Y-115483901D01*
X160570287Y-115483901D01*
X160097284Y-115577987D01*
X159560893Y-115936393D01*
X159460001Y-116087388D01*
X159359109Y-115936393D01*
X158822718Y-115577987D01*
X158349715Y-115483901D01*
X158030287Y-115483901D01*
X157557284Y-115577987D01*
X157020893Y-115936393D01*
X156920001Y-116087388D01*
X156819109Y-115936393D01*
X156282718Y-115577987D01*
X155809715Y-115483901D01*
X155490287Y-115483901D01*
X155017284Y-115577987D01*
X154480893Y-115936393D01*
X154380001Y-116087388D01*
X154279109Y-115936393D01*
X153742718Y-115577987D01*
X153269715Y-115483901D01*
X152950287Y-115483901D01*
X152477284Y-115577987D01*
X151940893Y-115936393D01*
X151840001Y-116087388D01*
X151739109Y-115936393D01*
X151202718Y-115577987D01*
X150729715Y-115483901D01*
X150410287Y-115483901D01*
X149937284Y-115577987D01*
X149400893Y-115936393D01*
X149042487Y-116472784D01*
X148916632Y-117105501D01*
X147143370Y-117105501D01*
X147017515Y-116472784D01*
X146659109Y-115936393D01*
X146122718Y-115577987D01*
X145649715Y-115483901D01*
X145330287Y-115483901D01*
X144857284Y-115577987D01*
X144320893Y-115936393D01*
X144208831Y-116104105D01*
X143800693Y-115724954D01*
X143207625Y-115504496D01*
X142954001Y-115673406D01*
X142946001Y-115673406D01*
X142692377Y-115504496D01*
X142099309Y-115724954D01*
X141680001Y-116114482D01*
X141260693Y-115724954D01*
X140667625Y-115504496D01*
X140414001Y-115673406D01*
X140406001Y-115673406D01*
X140152377Y-115504496D01*
X139559309Y-115724954D01*
X139151171Y-116104105D01*
X139039109Y-115936393D01*
X138502718Y-115577987D01*
X138029715Y-115483901D01*
X137710287Y-115483901D01*
X137237284Y-115577987D01*
X136700893Y-115936393D01*
X136600001Y-116087388D01*
X136499109Y-115936393D01*
X135962718Y-115577987D01*
X135489715Y-115483901D01*
X135170287Y-115483901D01*
X134697284Y-115577987D01*
X134160893Y-115936393D01*
X134060001Y-116087388D01*
X133959109Y-115936393D01*
X133422718Y-115577987D01*
X132949715Y-115483901D01*
X132630287Y-115483901D01*
X132157284Y-115577987D01*
X131620893Y-115936393D01*
X131520001Y-116087388D01*
X131419109Y-115936393D01*
X130882718Y-115577987D01*
X130409715Y-115483901D01*
X130090287Y-115483901D01*
X129617284Y-115577987D01*
X129080893Y-115936393D01*
X128980001Y-116087388D01*
X128879109Y-115936393D01*
X128342718Y-115577987D01*
X127869715Y-115483901D01*
X127550287Y-115483901D01*
X127077284Y-115577987D01*
X126540893Y-115936393D01*
X126182487Y-116472784D01*
X126056632Y-117105501D01*
X123409429Y-117105501D01*
X123507572Y-116841497D01*
X123338495Y-116590000D01*
X121924000Y-116590000D01*
X121916000Y-116590000D01*
X121896000Y-116590000D01*
X121896000Y-116582000D01*
X121916000Y-116582000D01*
X121916000Y-115167506D01*
X121924000Y-115167506D01*
X121924000Y-116582000D01*
X123338495Y-116582000D01*
X123507572Y-116330503D01*
X123288951Y-115742414D01*
X122861919Y-115282753D01*
X122291489Y-115021500D01*
X122175497Y-114998428D01*
X121924000Y-115167506D01*
X121916000Y-115167506D01*
X121664503Y-114998428D01*
X121548511Y-115021500D01*
X120978081Y-115282753D01*
X120897061Y-115369964D01*
X120776487Y-115189513D01*
X120525757Y-115021980D01*
X120230000Y-114963150D01*
X118530000Y-114963150D01*
X118234243Y-115021980D01*
X117983513Y-115189513D01*
X117815980Y-115440243D01*
X117757150Y-115736000D01*
X115705216Y-115736000D01*
X115075701Y-115106485D01*
X114209036Y-114747501D01*
X113270966Y-114747501D01*
X112404301Y-115106485D01*
X111740985Y-115769801D01*
X111382001Y-116636466D01*
X111382001Y-117574536D01*
X111740985Y-118441201D01*
X112404301Y-119104517D01*
X112591362Y-119182000D01*
X91638000Y-119182000D01*
X91638000Y-115527282D01*
X92585730Y-115527282D01*
X92585730Y-116425518D01*
X92929470Y-117255380D01*
X93564620Y-117890530D01*
X94394482Y-118234270D01*
X95292718Y-118234270D01*
X96122580Y-117890530D01*
X96757730Y-117255380D01*
X97101470Y-116425518D01*
X97101470Y-115527282D01*
X96757730Y-114697420D01*
X96122580Y-114062270D01*
X95292718Y-113718530D01*
X94394482Y-113718530D01*
X93564620Y-114062270D01*
X92929470Y-114697420D01*
X92585730Y-115527282D01*
X91638000Y-115527282D01*
X91638000Y-111252000D01*
X117740498Y-111252000D01*
X117865298Y-111879410D01*
X118220697Y-112411303D01*
X118752590Y-112766702D01*
X119221629Y-112860000D01*
X119538371Y-112860000D01*
X120007410Y-112766702D01*
X120539303Y-112411303D01*
X120650000Y-112245633D01*
X120760697Y-112411303D01*
X120771833Y-112418744D01*
X120764804Y-112454081D01*
X120787000Y-112565667D01*
X120852738Y-112896154D01*
X121103153Y-113270928D01*
X121197755Y-113334139D01*
X122885863Y-115022248D01*
X122949072Y-115116847D01*
X123323845Y-115367262D01*
X123654332Y-115433000D01*
X123654333Y-115433000D01*
X123765919Y-115455196D01*
X123877505Y-115433000D01*
X138318414Y-115433000D01*
X138430000Y-115455196D01*
X138541586Y-115433000D01*
X138541587Y-115433000D01*
X138872074Y-115367262D01*
X139246847Y-115116847D01*
X139310058Y-115022245D01*
X141438248Y-112894056D01*
X141532847Y-112830847D01*
X141783262Y-112456074D01*
X141849000Y-112125587D01*
X141849000Y-112125583D01*
X141871195Y-112014001D01*
X141849000Y-111902419D01*
X141849000Y-111539878D01*
X141875303Y-111522303D01*
X141986000Y-111356633D01*
X142096697Y-111522303D01*
X142628590Y-111877702D01*
X143097629Y-111971000D01*
X143414371Y-111971000D01*
X143883410Y-111877702D01*
X144288703Y-111606894D01*
X144303399Y-111642373D01*
X144516628Y-111855602D01*
X144795225Y-111971000D01*
X145602500Y-111971000D01*
X145792000Y-111781500D01*
X145792000Y-110367000D01*
X145800000Y-110367000D01*
X145800000Y-111781500D01*
X145989500Y-111971000D01*
X146796775Y-111971000D01*
X147075372Y-111855602D01*
X147288601Y-111642373D01*
X147404000Y-111363776D01*
X147404000Y-110556500D01*
X147214500Y-110367000D01*
X145800000Y-110367000D01*
X145792000Y-110367000D01*
X145772000Y-110367000D01*
X145772000Y-110359000D01*
X145792000Y-110359000D01*
X145792000Y-108944500D01*
X145800000Y-108944500D01*
X145800000Y-110359000D01*
X147214500Y-110359000D01*
X147404000Y-110169500D01*
X147404000Y-110071000D01*
X149811150Y-110071000D01*
X149811150Y-111671000D01*
X149869980Y-111966757D01*
X150037513Y-112217487D01*
X150288243Y-112385020D01*
X150584000Y-112443850D01*
X152184000Y-112443850D01*
X152479757Y-112385020D01*
X152730487Y-112217487D01*
X152855293Y-112030703D01*
X153316099Y-112338604D01*
X153770550Y-112429000D01*
X154077450Y-112429000D01*
X154531901Y-112338604D01*
X155047255Y-111994255D01*
X155194000Y-111774636D01*
X155340745Y-111994255D01*
X155856099Y-112338604D01*
X156310550Y-112429000D01*
X156617450Y-112429000D01*
X157071901Y-112338604D01*
X157587255Y-111994255D01*
X157734000Y-111774636D01*
X157880745Y-111994255D01*
X158396099Y-112338604D01*
X158850550Y-112429000D01*
X159157450Y-112429000D01*
X159611901Y-112338604D01*
X160127255Y-111994255D01*
X160419776Y-111556466D01*
X163452001Y-111556466D01*
X163452001Y-112494536D01*
X163810985Y-113361201D01*
X164474301Y-114024517D01*
X165340966Y-114383501D01*
X166279036Y-114383501D01*
X167145701Y-114024517D01*
X167809017Y-113361201D01*
X168168001Y-112494536D01*
X168168001Y-111556466D01*
X167809017Y-110689801D01*
X167145701Y-110026485D01*
X166279036Y-109667501D01*
X165340966Y-109667501D01*
X164474301Y-110026485D01*
X163810985Y-110689801D01*
X163452001Y-111556466D01*
X160419776Y-111556466D01*
X160471604Y-111478901D01*
X160592523Y-110871000D01*
X160471604Y-110263099D01*
X160127255Y-109747745D01*
X159611901Y-109403396D01*
X159157450Y-109313000D01*
X158850550Y-109313000D01*
X158396099Y-109403396D01*
X157880745Y-109747745D01*
X157734000Y-109967364D01*
X157587255Y-109747745D01*
X157071901Y-109403396D01*
X156617450Y-109313000D01*
X156310550Y-109313000D01*
X155856099Y-109403396D01*
X155340745Y-109747745D01*
X155194000Y-109967364D01*
X155047255Y-109747745D01*
X154531901Y-109403396D01*
X154077450Y-109313000D01*
X153770550Y-109313000D01*
X153316099Y-109403396D01*
X152855293Y-109711297D01*
X152730487Y-109524513D01*
X152479757Y-109356980D01*
X152184000Y-109298150D01*
X150584000Y-109298150D01*
X150288243Y-109356980D01*
X150037513Y-109524513D01*
X149869980Y-109775243D01*
X149811150Y-110071000D01*
X147404000Y-110071000D01*
X147404000Y-109362224D01*
X147288601Y-109083627D01*
X147075372Y-108870398D01*
X146796775Y-108755000D01*
X145989500Y-108755000D01*
X145800000Y-108944500D01*
X145792000Y-108944500D01*
X145602500Y-108755000D01*
X144795225Y-108755000D01*
X144516628Y-108870398D01*
X144303399Y-109083627D01*
X144288703Y-109119106D01*
X143883410Y-108848298D01*
X143414371Y-108755000D01*
X143097629Y-108755000D01*
X142628590Y-108848298D01*
X142096697Y-109203697D01*
X141986000Y-109369367D01*
X141875303Y-109203697D01*
X141343410Y-108848298D01*
X140874371Y-108755000D01*
X140557629Y-108755000D01*
X140088590Y-108848298D01*
X139556697Y-109203697D01*
X139201298Y-109735590D01*
X139076498Y-110363000D01*
X139201298Y-110990410D01*
X139556697Y-111522303D01*
X139583000Y-111539878D01*
X139583000Y-111544696D01*
X137960697Y-113167000D01*
X124235223Y-113167000D01*
X123943073Y-112874850D01*
X125310000Y-112874850D01*
X125605757Y-112816020D01*
X125856487Y-112648487D01*
X126024020Y-112397757D01*
X126082850Y-112102000D01*
X126082850Y-110475000D01*
X130593650Y-110475000D01*
X130593650Y-111775000D01*
X130652480Y-112070757D01*
X130820013Y-112321487D01*
X131070743Y-112489020D01*
X131366500Y-112547850D01*
X132666500Y-112547850D01*
X132962257Y-112489020D01*
X133212987Y-112321487D01*
X133380520Y-112070757D01*
X133392816Y-112008939D01*
X133678218Y-112008939D01*
X133715925Y-112288758D01*
X134225261Y-112521846D01*
X134785025Y-112542277D01*
X135309998Y-112346941D01*
X135397075Y-112288758D01*
X135434782Y-112008939D01*
X134556500Y-111130657D01*
X133678218Y-112008939D01*
X133392816Y-112008939D01*
X133401215Y-111966717D01*
X133672561Y-112003282D01*
X134550843Y-111125000D01*
X134562157Y-111125000D01*
X135440439Y-112003282D01*
X135720258Y-111965575D01*
X135953346Y-111456239D01*
X135973777Y-110896475D01*
X135778441Y-110371502D01*
X135720258Y-110284425D01*
X135440439Y-110246718D01*
X134562157Y-111125000D01*
X134550843Y-111125000D01*
X134536701Y-111110858D01*
X134542358Y-111105201D01*
X134556500Y-111119343D01*
X135434782Y-110241061D01*
X135397075Y-109961242D01*
X134887739Y-109728154D01*
X134694500Y-109721101D01*
X134694500Y-109574931D01*
X134480144Y-109057432D01*
X134084068Y-108661356D01*
X133566569Y-108447000D01*
X133006431Y-108447000D01*
X132488932Y-108661356D01*
X132092856Y-109057432D01*
X131878500Y-109574931D01*
X131878500Y-109702150D01*
X131366500Y-109702150D01*
X131070743Y-109760980D01*
X130820013Y-109928513D01*
X130652480Y-110179243D01*
X130593650Y-110475000D01*
X126082850Y-110475000D01*
X126082850Y-110402000D01*
X126024020Y-110106243D01*
X125856487Y-109855513D01*
X125605757Y-109687980D01*
X125310000Y-109629150D01*
X123610000Y-109629150D01*
X123314243Y-109687980D01*
X123063513Y-109855513D01*
X122958822Y-110012194D01*
X122547410Y-109737298D01*
X122078371Y-109644000D01*
X121761629Y-109644000D01*
X121292590Y-109737298D01*
X120760697Y-110092697D01*
X120650000Y-110258367D01*
X120539303Y-110092697D01*
X120007410Y-109737298D01*
X119538371Y-109644000D01*
X119221629Y-109644000D01*
X118752590Y-109737298D01*
X118220697Y-110092697D01*
X117865298Y-110624590D01*
X117740498Y-111252000D01*
X91638000Y-111252000D01*
X91638000Y-108902083D01*
X113313574Y-108902083D01*
X113369529Y-109197489D01*
X113933058Y-109455561D01*
X114552450Y-109478335D01*
X115133409Y-109262344D01*
X115230471Y-109197489D01*
X115286426Y-108902083D01*
X114300000Y-107915657D01*
X113313574Y-108902083D01*
X91638000Y-108902083D01*
X91638000Y-108162450D01*
X112731665Y-108162450D01*
X112947656Y-108743409D01*
X113012511Y-108840471D01*
X113307917Y-108896426D01*
X114294343Y-107910000D01*
X114305657Y-107910000D01*
X115292083Y-108896426D01*
X115587489Y-108840471D01*
X115845561Y-108276942D01*
X115868335Y-107657550D01*
X115652344Y-107076591D01*
X115587489Y-106979529D01*
X115292083Y-106923574D01*
X114305657Y-107910000D01*
X114294343Y-107910000D01*
X113307917Y-106923574D01*
X113012511Y-106979529D01*
X112754439Y-107543058D01*
X112731665Y-108162450D01*
X91638000Y-108162450D01*
X91638000Y-105628497D01*
X92052000Y-105628497D01*
X92052000Y-106395503D01*
X92345520Y-107104124D01*
X92887876Y-107646480D01*
X93596497Y-107940000D01*
X94363503Y-107940000D01*
X95072124Y-107646480D01*
X95614480Y-107104124D01*
X95908000Y-106395503D01*
X95908000Y-105628497D01*
X95614480Y-104919876D01*
X95072124Y-104377520D01*
X94363503Y-104084000D01*
X93596497Y-104084000D01*
X92887876Y-104377520D01*
X92345520Y-104919876D01*
X92052000Y-105628497D01*
X91638000Y-105628497D01*
X91638000Y-100628497D01*
X92052000Y-100628497D01*
X92052000Y-101395503D01*
X92345520Y-102104124D01*
X92887876Y-102646480D01*
X93596497Y-102940000D01*
X94363503Y-102940000D01*
X95072124Y-102646480D01*
X95614480Y-102104124D01*
X95908000Y-101395503D01*
X95908000Y-100628497D01*
X95614480Y-99919876D01*
X95072124Y-99377520D01*
X94363503Y-99084000D01*
X93596497Y-99084000D01*
X92887876Y-99377520D01*
X92345520Y-99919876D01*
X92052000Y-100628497D01*
X91638000Y-100628497D01*
X91638000Y-95628497D01*
X92052000Y-95628497D01*
X92052000Y-96395503D01*
X92345520Y-97104124D01*
X92887876Y-97646480D01*
X93596497Y-97940000D01*
X94363503Y-97940000D01*
X95072124Y-97646480D01*
X95614480Y-97104124D01*
X95908000Y-96395503D01*
X95908000Y-95628497D01*
X95614480Y-94919876D01*
X95072124Y-94377520D01*
X94363503Y-94084000D01*
X93596497Y-94084000D01*
X92887876Y-94377520D01*
X92345520Y-94919876D01*
X92052000Y-95628497D01*
X91638000Y-95628497D01*
X91638000Y-91782483D01*
X95457374Y-91782483D01*
X95513329Y-92077889D01*
X96076858Y-92335961D01*
X96696250Y-92358735D01*
X97277209Y-92142744D01*
X97374271Y-92077889D01*
X97430226Y-91782483D01*
X96443800Y-90796057D01*
X95457374Y-91782483D01*
X91638000Y-91782483D01*
X91638000Y-91042850D01*
X94875465Y-91042850D01*
X95091456Y-91623809D01*
X95156311Y-91720871D01*
X95451717Y-91776826D01*
X96438143Y-90790400D01*
X96449457Y-90790400D01*
X97435883Y-91776826D01*
X97731289Y-91720871D01*
X97989361Y-91157342D01*
X98006751Y-90684375D01*
X98461612Y-90684375D01*
X98483919Y-90796517D01*
X98737004Y-91349230D01*
X99182339Y-91763019D01*
X99752125Y-91974888D01*
X99995800Y-91805195D01*
X99995800Y-90440700D01*
X98631306Y-90440700D01*
X98461612Y-90684375D01*
X98006751Y-90684375D01*
X98012135Y-90537950D01*
X97796144Y-89956991D01*
X97731289Y-89859929D01*
X97435883Y-89803974D01*
X96449457Y-90790400D01*
X96438143Y-90790400D01*
X95451717Y-89803974D01*
X95156311Y-89859929D01*
X94898239Y-90423458D01*
X94875465Y-91042850D01*
X91638000Y-91042850D01*
X91638000Y-87980495D01*
X94885800Y-87980495D01*
X94885800Y-88600305D01*
X95122991Y-89172936D01*
X95503716Y-89553661D01*
X95457374Y-89798317D01*
X96443800Y-90784743D01*
X97430226Y-89798317D01*
X97383884Y-89553661D01*
X97764609Y-89172936D01*
X98001800Y-88600305D01*
X98001800Y-87980495D01*
X97764609Y-87407864D01*
X97326336Y-86969591D01*
X96753705Y-86732400D01*
X96133895Y-86732400D01*
X95561264Y-86969591D01*
X95122991Y-87407864D01*
X94885800Y-87980495D01*
X91638000Y-87980495D01*
X91638000Y-71082800D01*
X91823750Y-71082800D01*
X91823750Y-72782800D01*
X91882580Y-73078557D01*
X92050113Y-73329287D01*
X92300843Y-73496820D01*
X92596600Y-73555650D01*
X94296600Y-73555650D01*
X94592357Y-73496820D01*
X94843087Y-73329287D01*
X94947778Y-73172606D01*
X95359190Y-73447502D01*
X95828229Y-73540800D01*
X96144971Y-73540800D01*
X96614010Y-73447502D01*
X96668601Y-73411025D01*
X96668602Y-85720220D01*
X96648854Y-85819499D01*
X96727087Y-86212800D01*
X96727088Y-86212801D01*
X96949875Y-86546226D01*
X97034037Y-86602461D01*
X99444482Y-89012906D01*
X99182339Y-89110381D01*
X98737004Y-89524170D01*
X98483919Y-90076883D01*
X98461612Y-90189025D01*
X98631306Y-90432700D01*
X99995800Y-90432700D01*
X99995800Y-90412700D01*
X100003800Y-90412700D01*
X100003800Y-90432700D01*
X100023800Y-90432700D01*
X100023800Y-90440700D01*
X100003800Y-90440700D01*
X100003800Y-91805195D01*
X100247475Y-91974888D01*
X100817261Y-91763019D01*
X101262596Y-91349230D01*
X101425355Y-90993780D01*
X102892000Y-92460425D01*
X102892000Y-92566562D01*
X102715901Y-92448896D01*
X102261450Y-92358500D01*
X101954550Y-92358500D01*
X101500099Y-92448896D01*
X100984745Y-92793245D01*
X100640396Y-93308599D01*
X100519477Y-93916500D01*
X100640396Y-94524401D01*
X100984745Y-95039755D01*
X101500099Y-95384104D01*
X101954550Y-95474500D01*
X102261450Y-95474500D01*
X102715901Y-95384104D01*
X102892001Y-95266438D01*
X102892001Y-96961721D01*
X102872253Y-97061000D01*
X102950486Y-97454301D01*
X102986969Y-97508901D01*
X103173274Y-97787727D01*
X103257436Y-97843962D01*
X104718520Y-99305046D01*
X104691477Y-99441000D01*
X104812396Y-100048901D01*
X105156745Y-100564255D01*
X105376364Y-100711000D01*
X105156745Y-100857745D01*
X104812396Y-101373099D01*
X104691477Y-101981000D01*
X104799289Y-102523010D01*
X103388667Y-102523010D01*
X103356751Y-102491094D01*
X103428809Y-102419036D01*
X103666000Y-101846405D01*
X103666000Y-101226595D01*
X103428809Y-100653964D01*
X102990536Y-100215691D01*
X102417905Y-99978500D01*
X101798095Y-99978500D01*
X101225464Y-100215691D01*
X100787191Y-100653964D01*
X100550000Y-101226595D01*
X100550000Y-101846405D01*
X100787191Y-102419036D01*
X101091235Y-102723080D01*
X101137168Y-102954000D01*
X101158486Y-103061171D01*
X101381273Y-103394597D01*
X101465438Y-103450834D01*
X101934159Y-103919556D01*
X101500099Y-104005896D01*
X100984745Y-104350245D01*
X100640396Y-104865599D01*
X100519477Y-105473500D01*
X100640396Y-106081401D01*
X100984745Y-106596755D01*
X101500099Y-106941104D01*
X101954550Y-107031500D01*
X102261450Y-107031500D01*
X102715901Y-106941104D01*
X103231255Y-106596755D01*
X103575604Y-106081401D01*
X103696523Y-105473500D01*
X103575604Y-104865599D01*
X103357384Y-104539010D01*
X108459145Y-104539010D01*
X108407191Y-104590964D01*
X108170000Y-105163595D01*
X108170000Y-105783405D01*
X108407191Y-106356036D01*
X108845464Y-106794309D01*
X109418095Y-107031500D01*
X110037905Y-107031500D01*
X110610536Y-106794309D01*
X111048809Y-106356036D01*
X111286000Y-105783405D01*
X111286000Y-105163595D01*
X111259698Y-105100095D01*
X112742000Y-105100095D01*
X112742000Y-105719905D01*
X112979191Y-106292536D01*
X113359916Y-106673261D01*
X113313574Y-106917917D01*
X114300000Y-107904343D01*
X115286426Y-106917917D01*
X115240084Y-106673261D01*
X115620809Y-106292536D01*
X115855026Y-105727083D01*
X133125574Y-105727083D01*
X133181529Y-106022489D01*
X133745058Y-106280561D01*
X134364450Y-106303335D01*
X134945409Y-106087344D01*
X135042471Y-106022489D01*
X135098426Y-105727083D01*
X134112000Y-104740657D01*
X133125574Y-105727083D01*
X115855026Y-105727083D01*
X115858000Y-105719905D01*
X115858000Y-105100095D01*
X115620809Y-104527464D01*
X115182536Y-104089191D01*
X114866542Y-103958302D01*
X126311244Y-103958302D01*
X126405343Y-104291970D01*
X126731062Y-104782252D01*
X127219610Y-105110566D01*
X127796610Y-105226930D01*
X127996000Y-105226930D01*
X127996000Y-103722360D01*
X128004000Y-103722360D01*
X128004000Y-105226930D01*
X128203390Y-105226930D01*
X128780390Y-105110566D01*
X128963592Y-104987450D01*
X132543665Y-104987450D01*
X132759656Y-105568409D01*
X132824511Y-105665471D01*
X133119917Y-105721426D01*
X134106343Y-104735000D01*
X134117657Y-104735000D01*
X135104083Y-105721426D01*
X135399489Y-105665471D01*
X135657561Y-105101942D01*
X135680335Y-104482550D01*
X135464344Y-103901591D01*
X135399489Y-103804529D01*
X135104083Y-103748574D01*
X134117657Y-104735000D01*
X134106343Y-104735000D01*
X133119917Y-103748574D01*
X132824511Y-103804529D01*
X132566439Y-104368058D01*
X132543665Y-104987450D01*
X128963592Y-104987450D01*
X129268938Y-104782252D01*
X129594657Y-104291970D01*
X129688756Y-103958302D01*
X129518454Y-103722360D01*
X128004000Y-103722360D01*
X127996000Y-103722360D01*
X126481546Y-103722360D01*
X126311244Y-103958302D01*
X114866542Y-103958302D01*
X114609905Y-103852000D01*
X113990095Y-103852000D01*
X113417464Y-104089191D01*
X112979191Y-104527464D01*
X112742000Y-105100095D01*
X111259698Y-105100095D01*
X111048809Y-104590964D01*
X110610536Y-104152691D01*
X110177291Y-103973235D01*
X112346724Y-101803803D01*
X112311477Y-101981000D01*
X112432396Y-102588901D01*
X112776745Y-103104255D01*
X113292099Y-103448604D01*
X113746550Y-103539000D01*
X114853450Y-103539000D01*
X115307901Y-103448604D01*
X115823255Y-103104255D01*
X116167604Y-102588901D01*
X116288523Y-101981000D01*
X116167604Y-101373099D01*
X115823255Y-100857745D01*
X115603636Y-100711000D01*
X115823255Y-100564255D01*
X116167604Y-100048901D01*
X116288523Y-99441000D01*
X116167604Y-98833099D01*
X116097379Y-98728000D01*
X118950150Y-98728000D01*
X118950150Y-100328000D01*
X119008980Y-100623757D01*
X119176513Y-100874487D01*
X119427243Y-101042020D01*
X119723000Y-101100850D01*
X121323000Y-101100850D01*
X121618757Y-101042020D01*
X121869487Y-100874487D01*
X122037020Y-100623757D01*
X122095850Y-100328000D01*
X122095850Y-98728000D01*
X122094188Y-98719640D01*
X126262486Y-98719640D01*
X126379569Y-99308255D01*
X126712992Y-99807258D01*
X126955535Y-99969320D01*
X126712992Y-100131382D01*
X126379569Y-100630385D01*
X126262486Y-101219000D01*
X126379569Y-101807615D01*
X126712992Y-102306618D01*
X126981604Y-102486099D01*
X126731062Y-102654468D01*
X126405343Y-103144750D01*
X126311244Y-103478418D01*
X126481546Y-103714360D01*
X127996000Y-103714360D01*
X127996000Y-103694360D01*
X128004000Y-103694360D01*
X128004000Y-103714360D01*
X129518454Y-103714360D01*
X129688756Y-103478418D01*
X129594657Y-103144750D01*
X129268938Y-102654468D01*
X129018396Y-102486099D01*
X129287008Y-102306618D01*
X129541933Y-101925095D01*
X132554000Y-101925095D01*
X132554000Y-102544905D01*
X132791191Y-103117536D01*
X133171916Y-103498261D01*
X133125574Y-103742917D01*
X134112000Y-104729343D01*
X135098426Y-103742917D01*
X135052084Y-103498261D01*
X135432809Y-103117536D01*
X135519187Y-102909000D01*
X139093150Y-102909000D01*
X139093150Y-104609000D01*
X139151980Y-104904757D01*
X139319513Y-105155487D01*
X139570243Y-105323020D01*
X139866000Y-105381850D01*
X141566000Y-105381850D01*
X141861757Y-105323020D01*
X142112487Y-105155487D01*
X142217178Y-104998806D01*
X142628590Y-105273702D01*
X143097629Y-105367000D01*
X143414371Y-105367000D01*
X143883410Y-105273702D01*
X144415303Y-104918303D01*
X144542920Y-104727310D01*
X144854081Y-105062247D01*
X145424511Y-105323500D01*
X145540503Y-105346572D01*
X145792000Y-105177494D01*
X145792000Y-103763000D01*
X145800000Y-103763000D01*
X145800000Y-105177494D01*
X146051497Y-105346572D01*
X146167489Y-105323500D01*
X146737919Y-105062247D01*
X147164951Y-104602586D01*
X147383572Y-104014497D01*
X147214495Y-103763000D01*
X145800000Y-103763000D01*
X145792000Y-103763000D01*
X145772000Y-103763000D01*
X145772000Y-103755000D01*
X145792000Y-103755000D01*
X145792000Y-102340506D01*
X145800000Y-102340506D01*
X145800000Y-103755000D01*
X147214495Y-103755000D01*
X147383572Y-103503503D01*
X147289705Y-103251000D01*
X149795477Y-103251000D01*
X149916396Y-103858901D01*
X150260745Y-104374255D01*
X150776099Y-104718604D01*
X151230550Y-104809000D01*
X151537450Y-104809000D01*
X151991901Y-104718604D01*
X152507255Y-104374255D01*
X152654000Y-104154636D01*
X152800745Y-104374255D01*
X153316099Y-104718604D01*
X153770550Y-104809000D01*
X154077450Y-104809000D01*
X154531901Y-104718604D01*
X155047255Y-104374255D01*
X155194000Y-104154636D01*
X155340745Y-104374255D01*
X155856099Y-104718604D01*
X156310550Y-104809000D01*
X156617450Y-104809000D01*
X157071901Y-104718604D01*
X157587255Y-104374255D01*
X157734000Y-104154636D01*
X157880745Y-104374255D01*
X158396099Y-104718604D01*
X158850550Y-104809000D01*
X159157450Y-104809000D01*
X159611901Y-104718604D01*
X160127255Y-104374255D01*
X160471604Y-103858901D01*
X160592523Y-103251000D01*
X160471604Y-102643099D01*
X160127255Y-102127745D01*
X159611901Y-101783396D01*
X159157450Y-101693000D01*
X158850550Y-101693000D01*
X158396099Y-101783396D01*
X157880745Y-102127745D01*
X157734000Y-102347364D01*
X157587255Y-102127745D01*
X157071901Y-101783396D01*
X156617450Y-101693000D01*
X156310550Y-101693000D01*
X155856099Y-101783396D01*
X155340745Y-102127745D01*
X155194000Y-102347364D01*
X155047255Y-102127745D01*
X154531901Y-101783396D01*
X154077450Y-101693000D01*
X153770550Y-101693000D01*
X153316099Y-101783396D01*
X152800745Y-102127745D01*
X152654000Y-102347364D01*
X152507255Y-102127745D01*
X151991901Y-101783396D01*
X151537450Y-101693000D01*
X151230550Y-101693000D01*
X150776099Y-101783396D01*
X150260745Y-102127745D01*
X149916396Y-102643099D01*
X149795477Y-103251000D01*
X147289705Y-103251000D01*
X147164951Y-102915414D01*
X146737919Y-102455753D01*
X146167489Y-102194500D01*
X146051497Y-102171428D01*
X145800000Y-102340506D01*
X145792000Y-102340506D01*
X145540503Y-102171428D01*
X145424511Y-102194500D01*
X144854081Y-102455753D01*
X144542920Y-102790690D01*
X144415303Y-102599697D01*
X143883410Y-102244298D01*
X143414371Y-102151000D01*
X143097629Y-102151000D01*
X142628590Y-102244298D01*
X142217178Y-102519194D01*
X142112487Y-102362513D01*
X141861757Y-102194980D01*
X141566000Y-102136150D01*
X139866000Y-102136150D01*
X139570243Y-102194980D01*
X139319513Y-102362513D01*
X139151980Y-102613243D01*
X139093150Y-102909000D01*
X135519187Y-102909000D01*
X135670000Y-102544905D01*
X135670000Y-101925095D01*
X135432809Y-101352464D01*
X134994536Y-100914191D01*
X134421905Y-100677000D01*
X133802095Y-100677000D01*
X133229464Y-100914191D01*
X132791191Y-101352464D01*
X132554000Y-101925095D01*
X129541933Y-101925095D01*
X129620431Y-101807615D01*
X129737514Y-101219000D01*
X129620431Y-100630385D01*
X129287008Y-100131382D01*
X129044465Y-99969320D01*
X129287008Y-99807258D01*
X129620431Y-99308255D01*
X129737514Y-98719640D01*
X129729431Y-98679000D01*
X143699477Y-98679000D01*
X143820396Y-99286901D01*
X144164745Y-99802255D01*
X144680099Y-100146604D01*
X145134550Y-100237000D01*
X145441450Y-100237000D01*
X145895901Y-100146604D01*
X146411255Y-99802255D01*
X146755604Y-99286901D01*
X146876523Y-98679000D01*
X148271477Y-98679000D01*
X148392396Y-99286901D01*
X148736745Y-99802255D01*
X149252099Y-100146604D01*
X149706550Y-100237000D01*
X150013450Y-100237000D01*
X150467901Y-100146604D01*
X150983255Y-99802255D01*
X151327604Y-99286901D01*
X151448523Y-98679000D01*
X152843477Y-98679000D01*
X152964396Y-99286901D01*
X153308745Y-99802255D01*
X153824099Y-100146604D01*
X154278550Y-100237000D01*
X154585450Y-100237000D01*
X155039901Y-100146604D01*
X155555255Y-99802255D01*
X155899604Y-99286901D01*
X156020523Y-98679000D01*
X157415477Y-98679000D01*
X157536396Y-99286901D01*
X157880745Y-99802255D01*
X158396099Y-100146604D01*
X158850550Y-100237000D01*
X159157450Y-100237000D01*
X159611901Y-100146604D01*
X160127255Y-99802255D01*
X160471604Y-99286901D01*
X160567261Y-98806000D01*
X164857498Y-98806000D01*
X164982298Y-99433410D01*
X165337697Y-99965303D01*
X165503367Y-100076000D01*
X165337697Y-100186697D01*
X164982298Y-100718590D01*
X164857498Y-101346000D01*
X164982298Y-101973410D01*
X165337697Y-102505303D01*
X165503367Y-102616000D01*
X165337697Y-102726697D01*
X164982298Y-103258590D01*
X164857498Y-103886000D01*
X164982298Y-104513410D01*
X165257194Y-104924822D01*
X165100513Y-105029513D01*
X164932980Y-105280243D01*
X164874150Y-105576000D01*
X164874150Y-107276000D01*
X164932980Y-107571757D01*
X165100513Y-107822487D01*
X165351243Y-107990020D01*
X165647000Y-108048850D01*
X167347000Y-108048850D01*
X167642757Y-107990020D01*
X167893487Y-107822487D01*
X168061020Y-107571757D01*
X168119850Y-107276000D01*
X168119850Y-105576000D01*
X168061020Y-105280243D01*
X167893487Y-105029513D01*
X167736806Y-104924822D01*
X168011702Y-104513410D01*
X168136502Y-103886000D01*
X168011702Y-103258590D01*
X167656303Y-102726697D01*
X167490633Y-102616000D01*
X167656303Y-102505303D01*
X168011702Y-101973410D01*
X168136502Y-101346000D01*
X168011702Y-100718590D01*
X167656303Y-100186697D01*
X167490633Y-100076000D01*
X167656303Y-99965303D01*
X168011702Y-99433410D01*
X168136502Y-98806000D01*
X168011702Y-98178590D01*
X167656303Y-97646697D01*
X167124410Y-97291298D01*
X166655371Y-97198000D01*
X166338629Y-97198000D01*
X165869590Y-97291298D01*
X165337697Y-97646697D01*
X164982298Y-98178590D01*
X164857498Y-98806000D01*
X160567261Y-98806000D01*
X160592523Y-98679000D01*
X160471604Y-98071099D01*
X160127255Y-97555745D01*
X159925445Y-97420900D01*
X160324809Y-97021536D01*
X160562000Y-96448905D01*
X160562000Y-95829095D01*
X160324809Y-95256464D01*
X159886536Y-94818191D01*
X159313905Y-94581000D01*
X158694095Y-94581000D01*
X158121464Y-94818191D01*
X157683191Y-95256464D01*
X157446000Y-95829095D01*
X157446000Y-96448905D01*
X157683191Y-97021536D01*
X158082555Y-97420900D01*
X157880745Y-97555745D01*
X157536396Y-98071099D01*
X157415477Y-98679000D01*
X156020523Y-98679000D01*
X155899604Y-98071099D01*
X155555255Y-97555745D01*
X155353445Y-97420900D01*
X155752809Y-97021536D01*
X155990000Y-96448905D01*
X155990000Y-95829095D01*
X155752809Y-95256464D01*
X155314536Y-94818191D01*
X154741905Y-94581000D01*
X154122095Y-94581000D01*
X153549464Y-94818191D01*
X153111191Y-95256464D01*
X152874000Y-95829095D01*
X152874000Y-96448905D01*
X153111191Y-97021536D01*
X153510555Y-97420900D01*
X153308745Y-97555745D01*
X152964396Y-98071099D01*
X152843477Y-98679000D01*
X151448523Y-98679000D01*
X151327604Y-98071099D01*
X150983255Y-97555745D01*
X150781445Y-97420900D01*
X151180809Y-97021536D01*
X151418000Y-96448905D01*
X151418000Y-95829095D01*
X151180809Y-95256464D01*
X150742536Y-94818191D01*
X150169905Y-94581000D01*
X149550095Y-94581000D01*
X148977464Y-94818191D01*
X148539191Y-95256464D01*
X148302000Y-95829095D01*
X148302000Y-96448905D01*
X148539191Y-97021536D01*
X148938555Y-97420900D01*
X148736745Y-97555745D01*
X148392396Y-98071099D01*
X148271477Y-98679000D01*
X146876523Y-98679000D01*
X146755604Y-98071099D01*
X146411255Y-97555745D01*
X146209445Y-97420900D01*
X146608809Y-97021536D01*
X146846000Y-96448905D01*
X146846000Y-95829095D01*
X146608809Y-95256464D01*
X146170536Y-94818191D01*
X145597905Y-94581000D01*
X144978095Y-94581000D01*
X144405464Y-94818191D01*
X143967191Y-95256464D01*
X143730000Y-95829095D01*
X143730000Y-96448905D01*
X143967191Y-97021536D01*
X144366555Y-97420900D01*
X144164745Y-97555745D01*
X143820396Y-98071099D01*
X143699477Y-98679000D01*
X129729431Y-98679000D01*
X129620431Y-98131025D01*
X129287008Y-97632022D01*
X128788005Y-97298599D01*
X128347968Y-97211070D01*
X127652032Y-97211070D01*
X127211995Y-97298599D01*
X126712992Y-97632022D01*
X126379569Y-98131025D01*
X126262486Y-98719640D01*
X122094188Y-98719640D01*
X122037020Y-98432243D01*
X121869487Y-98181513D01*
X121618757Y-98013980D01*
X121569336Y-98004150D01*
X121810489Y-97958471D01*
X122068561Y-97394942D01*
X122091335Y-96775550D01*
X121875344Y-96194591D01*
X121810489Y-96097529D01*
X121515083Y-96041574D01*
X120528657Y-97028000D01*
X120542799Y-97042142D01*
X120537142Y-97047799D01*
X120523000Y-97033657D01*
X120508858Y-97047799D01*
X120503201Y-97042142D01*
X120517343Y-97028000D01*
X119530917Y-96041574D01*
X119235511Y-96097529D01*
X118977439Y-96661058D01*
X118954665Y-97280450D01*
X119170656Y-97861409D01*
X119235511Y-97958471D01*
X119476664Y-98004150D01*
X119427243Y-98013980D01*
X119176513Y-98181513D01*
X119008980Y-98432243D01*
X118950150Y-98728000D01*
X116097379Y-98728000D01*
X115823255Y-98317745D01*
X115603636Y-98171000D01*
X115823255Y-98024255D01*
X116167604Y-97508901D01*
X116288523Y-96901000D01*
X116167604Y-96293099D01*
X115995761Y-96035917D01*
X119536574Y-96035917D01*
X120523000Y-97022343D01*
X121509426Y-96035917D01*
X121453471Y-95740511D01*
X120889942Y-95482439D01*
X120270550Y-95459665D01*
X119689591Y-95675656D01*
X119592529Y-95740511D01*
X119536574Y-96035917D01*
X115995761Y-96035917D01*
X115823255Y-95777745D01*
X115603636Y-95631000D01*
X115823255Y-95484255D01*
X116167604Y-94968901D01*
X116288523Y-94361000D01*
X116167604Y-93753099D01*
X115823255Y-93237745D01*
X115307901Y-92893396D01*
X114853450Y-92803000D01*
X113746550Y-92803000D01*
X113292099Y-92893396D01*
X112791329Y-93228000D01*
X112711586Y-93228000D01*
X112600000Y-93205804D01*
X112488414Y-93228000D01*
X112488413Y-93228000D01*
X112157926Y-93293738D01*
X111783153Y-93544153D01*
X111719944Y-93638752D01*
X109767755Y-95590942D01*
X109673153Y-95654153D01*
X109422738Y-96028927D01*
X109370191Y-96293099D01*
X109334804Y-96471000D01*
X109357000Y-96582586D01*
X109357001Y-99401695D01*
X108221002Y-100537694D01*
X108547604Y-100048901D01*
X108668523Y-99441000D01*
X108547604Y-98833099D01*
X108203255Y-98317745D01*
X107983636Y-98171000D01*
X108203255Y-98024255D01*
X108547604Y-97508901D01*
X108668523Y-96901000D01*
X108547604Y-96293099D01*
X108239790Y-95832423D01*
X108309373Y-95803601D01*
X108522602Y-95590372D01*
X108638000Y-95311775D01*
X108638000Y-94554500D01*
X108448500Y-94365000D01*
X106684000Y-94365000D01*
X106684000Y-94385000D01*
X106676000Y-94385000D01*
X106676000Y-94365000D01*
X106656000Y-94365000D01*
X106656000Y-94357000D01*
X106676000Y-94357000D01*
X106676000Y-92992500D01*
X106684000Y-92992500D01*
X106684000Y-94357000D01*
X108448500Y-94357000D01*
X108638000Y-94167500D01*
X108638000Y-93410225D01*
X108522602Y-93131628D01*
X108309373Y-92918399D01*
X108030776Y-92803000D01*
X106873500Y-92803000D01*
X106684000Y-92992500D01*
X106676000Y-92992500D01*
X106486500Y-92803000D01*
X105329224Y-92803000D01*
X105050627Y-92918399D01*
X104908000Y-93061026D01*
X104908000Y-92142168D01*
X104927746Y-92042897D01*
X104908000Y-91943625D01*
X104908000Y-91943624D01*
X104849514Y-91649596D01*
X104626727Y-91316171D01*
X104542565Y-91259936D01*
X103409424Y-90126795D01*
X106061800Y-90126795D01*
X106061800Y-90746605D01*
X106298991Y-91319236D01*
X106737264Y-91757509D01*
X107309895Y-91994700D01*
X107929705Y-91994700D01*
X108502336Y-91757509D01*
X108940609Y-91319236D01*
X109177800Y-90746605D01*
X109177800Y-90126795D01*
X109156061Y-90074312D01*
X109252700Y-90074312D01*
X109252700Y-90773688D01*
X109520340Y-91419827D01*
X110014873Y-91914360D01*
X110661012Y-92182000D01*
X111360388Y-92182000D01*
X112006527Y-91914360D01*
X112501060Y-91419827D01*
X112768700Y-90773688D01*
X112768700Y-90074312D01*
X113752700Y-90074312D01*
X113752700Y-90773688D01*
X114020340Y-91419827D01*
X114514873Y-91914360D01*
X115161012Y-92182000D01*
X115860388Y-92182000D01*
X116506527Y-91914360D01*
X116660387Y-91760500D01*
X117722000Y-91760500D01*
X117722000Y-92617776D01*
X117837399Y-92896373D01*
X118050628Y-93109602D01*
X118329225Y-93225000D01*
X119186500Y-93225000D01*
X119376000Y-93035500D01*
X119376000Y-91571000D01*
X119384000Y-91571000D01*
X119384000Y-93035500D01*
X119573500Y-93225000D01*
X120430775Y-93225000D01*
X120709372Y-93109602D01*
X120922601Y-92896373D01*
X121038000Y-92617776D01*
X121038000Y-91760500D01*
X123246500Y-91760500D01*
X123246500Y-92617776D01*
X123361899Y-92896373D01*
X123575128Y-93109602D01*
X123853725Y-93225000D01*
X124711000Y-93225000D01*
X124900500Y-93035500D01*
X124900500Y-91571000D01*
X124908500Y-91571000D01*
X124908500Y-93035500D01*
X125098000Y-93225000D01*
X125955275Y-93225000D01*
X126233872Y-93109602D01*
X126447101Y-92896373D01*
X126562500Y-92617776D01*
X126562500Y-91760500D01*
X128898000Y-91760500D01*
X128898000Y-92617776D01*
X129013399Y-92896373D01*
X129226628Y-93109602D01*
X129505225Y-93225000D01*
X130362500Y-93225000D01*
X130552000Y-93035500D01*
X130552000Y-91571000D01*
X130560000Y-91571000D01*
X130560000Y-93035500D01*
X130749500Y-93225000D01*
X131606775Y-93225000D01*
X131885372Y-93109602D01*
X132098601Y-92896373D01*
X132214000Y-92617776D01*
X132214000Y-91760500D01*
X134486000Y-91760500D01*
X134486000Y-92617776D01*
X134601399Y-92896373D01*
X134814628Y-93109602D01*
X135093225Y-93225000D01*
X135950500Y-93225000D01*
X136140000Y-93035500D01*
X136140000Y-91571000D01*
X136148000Y-91571000D01*
X136148000Y-93035500D01*
X136337500Y-93225000D01*
X137194775Y-93225000D01*
X137473372Y-93109602D01*
X137686601Y-92896373D01*
X137802000Y-92617776D01*
X137802000Y-91760500D01*
X140074000Y-91760500D01*
X140074000Y-92617776D01*
X140189399Y-92896373D01*
X140402628Y-93109602D01*
X140681225Y-93225000D01*
X141538500Y-93225000D01*
X141728000Y-93035500D01*
X141728000Y-91571000D01*
X141736000Y-91571000D01*
X141736000Y-93035500D01*
X141925500Y-93225000D01*
X142782775Y-93225000D01*
X143061372Y-93109602D01*
X143274601Y-92896373D01*
X143390000Y-92617776D01*
X143390000Y-91760500D01*
X145662000Y-91760500D01*
X145662000Y-92617776D01*
X145777399Y-92896373D01*
X145990628Y-93109602D01*
X146269225Y-93225000D01*
X147126500Y-93225000D01*
X147316000Y-93035500D01*
X147316000Y-91571000D01*
X147324000Y-91571000D01*
X147324000Y-93035500D01*
X147513500Y-93225000D01*
X148370775Y-93225000D01*
X148649372Y-93109602D01*
X148862601Y-92896373D01*
X148978000Y-92617776D01*
X148978000Y-91760500D01*
X151250000Y-91760500D01*
X151250000Y-92617776D01*
X151365399Y-92896373D01*
X151578628Y-93109602D01*
X151857225Y-93225000D01*
X152714500Y-93225000D01*
X152904000Y-93035500D01*
X152904000Y-91571000D01*
X152912000Y-91571000D01*
X152912000Y-93035500D01*
X153101500Y-93225000D01*
X153958775Y-93225000D01*
X154237372Y-93109602D01*
X154450601Y-92896373D01*
X154566000Y-92617776D01*
X154566000Y-91760500D01*
X156838000Y-91760500D01*
X156838000Y-92617776D01*
X156953399Y-92896373D01*
X157166628Y-93109602D01*
X157445225Y-93225000D01*
X158302500Y-93225000D01*
X158492000Y-93035500D01*
X158492000Y-91571000D01*
X158500000Y-91571000D01*
X158500000Y-93035500D01*
X158689500Y-93225000D01*
X159546775Y-93225000D01*
X159825372Y-93109602D01*
X160038601Y-92896373D01*
X160154000Y-92617776D01*
X160154000Y-91760500D01*
X159964500Y-91571000D01*
X158500000Y-91571000D01*
X158492000Y-91571000D01*
X157027500Y-91571000D01*
X156838000Y-91760500D01*
X154566000Y-91760500D01*
X154376500Y-91571000D01*
X152912000Y-91571000D01*
X152904000Y-91571000D01*
X151439500Y-91571000D01*
X151250000Y-91760500D01*
X148978000Y-91760500D01*
X148788500Y-91571000D01*
X147324000Y-91571000D01*
X147316000Y-91571000D01*
X145851500Y-91571000D01*
X145662000Y-91760500D01*
X143390000Y-91760500D01*
X143200500Y-91571000D01*
X141736000Y-91571000D01*
X141728000Y-91571000D01*
X140263500Y-91571000D01*
X140074000Y-91760500D01*
X137802000Y-91760500D01*
X137612500Y-91571000D01*
X136148000Y-91571000D01*
X136140000Y-91571000D01*
X134675500Y-91571000D01*
X134486000Y-91760500D01*
X132214000Y-91760500D01*
X132024500Y-91571000D01*
X130560000Y-91571000D01*
X130552000Y-91571000D01*
X129087500Y-91571000D01*
X128898000Y-91760500D01*
X126562500Y-91760500D01*
X126373000Y-91571000D01*
X124908500Y-91571000D01*
X124900500Y-91571000D01*
X123436000Y-91571000D01*
X123246500Y-91760500D01*
X121038000Y-91760500D01*
X120848500Y-91571000D01*
X119384000Y-91571000D01*
X119376000Y-91571000D01*
X117911500Y-91571000D01*
X117722000Y-91760500D01*
X116660387Y-91760500D01*
X117001060Y-91419827D01*
X117268700Y-90773688D01*
X117268700Y-90074312D01*
X117001060Y-89428173D01*
X116506527Y-88933640D01*
X115935719Y-88697203D01*
X117722000Y-88697203D01*
X117722000Y-89356797D01*
X117974416Y-89966181D01*
X118041631Y-90033396D01*
X117837399Y-90237627D01*
X117722000Y-90516224D01*
X117722000Y-91373500D01*
X117911500Y-91563000D01*
X119376000Y-91563000D01*
X119376000Y-91543000D01*
X119384000Y-91543000D01*
X119384000Y-91563000D01*
X120848500Y-91563000D01*
X121038000Y-91373500D01*
X121038000Y-90516224D01*
X120922601Y-90237627D01*
X120718370Y-90033396D01*
X120785584Y-89966181D01*
X121038000Y-89356797D01*
X121038000Y-88697203D01*
X120785584Y-88087819D01*
X120319181Y-87621416D01*
X119902645Y-87448880D01*
X120262536Y-87299809D01*
X120700809Y-86861536D01*
X120938000Y-86288905D01*
X120938000Y-85669095D01*
X120700809Y-85096464D01*
X120301445Y-84697100D01*
X120503255Y-84562255D01*
X120847604Y-84046901D01*
X120968523Y-83439000D01*
X120847604Y-82831099D01*
X120503255Y-82315745D01*
X120388000Y-82238734D01*
X120388000Y-80427526D01*
X121067527Y-79748000D01*
X124820474Y-79748000D01*
X124325438Y-80243036D01*
X124241273Y-80299273D01*
X124018487Y-80632698D01*
X124018486Y-80632699D01*
X123940253Y-81026000D01*
X123960000Y-81125275D01*
X123960001Y-82238734D01*
X123844745Y-82315745D01*
X123500396Y-82831099D01*
X123379477Y-83439000D01*
X123500396Y-84046901D01*
X123844745Y-84562255D01*
X124046555Y-84697100D01*
X123647191Y-85096464D01*
X123410000Y-85669095D01*
X123410000Y-86288905D01*
X123647191Y-86861536D01*
X124085464Y-87299809D01*
X124413605Y-87435729D01*
X123965319Y-87621416D01*
X123498916Y-88087819D01*
X123246500Y-88697203D01*
X123246500Y-89356797D01*
X123498916Y-89966181D01*
X123566131Y-90033396D01*
X123361899Y-90237627D01*
X123246500Y-90516224D01*
X123246500Y-91373500D01*
X123436000Y-91563000D01*
X124900500Y-91563000D01*
X124900500Y-91543000D01*
X124908500Y-91543000D01*
X124908500Y-91563000D01*
X126373000Y-91563000D01*
X126562500Y-91373500D01*
X126562500Y-90516224D01*
X126447101Y-90237627D01*
X126242870Y-90033396D01*
X126310084Y-89966181D01*
X126562500Y-89356797D01*
X126562500Y-88697203D01*
X126310084Y-88087819D01*
X125843681Y-87621416D01*
X125458895Y-87462032D01*
X125850536Y-87299809D01*
X126288809Y-86861536D01*
X126526000Y-86288905D01*
X126526000Y-85669095D01*
X126288809Y-85096464D01*
X125889445Y-84697100D01*
X126091255Y-84562255D01*
X126435604Y-84046901D01*
X126556523Y-83439000D01*
X126435604Y-82831099D01*
X126091255Y-82315745D01*
X125976000Y-82238734D01*
X125976000Y-81443526D01*
X126655527Y-80764000D01*
X130027474Y-80764000D01*
X129913438Y-80878036D01*
X129829273Y-80934273D01*
X129606487Y-81267698D01*
X129606486Y-81267699D01*
X129528253Y-81661000D01*
X129548000Y-81760275D01*
X129548000Y-82238734D01*
X129432745Y-82315745D01*
X129088396Y-82831099D01*
X128967477Y-83439000D01*
X129088396Y-84046901D01*
X129432745Y-84562255D01*
X129634555Y-84697100D01*
X129235191Y-85096464D01*
X128998000Y-85669095D01*
X128998000Y-86288905D01*
X129235191Y-86861536D01*
X129673464Y-87299809D01*
X130033355Y-87448880D01*
X129616819Y-87621416D01*
X129150416Y-88087819D01*
X128898000Y-88697203D01*
X128898000Y-89356797D01*
X129150416Y-89966181D01*
X129217631Y-90033396D01*
X129013399Y-90237627D01*
X128898000Y-90516224D01*
X128898000Y-91373500D01*
X129087500Y-91563000D01*
X130552000Y-91563000D01*
X130552000Y-91543000D01*
X130560000Y-91543000D01*
X130560000Y-91563000D01*
X132024500Y-91563000D01*
X132214000Y-91373500D01*
X132214000Y-90516224D01*
X132098601Y-90237627D01*
X131894370Y-90033396D01*
X131961584Y-89966181D01*
X132214000Y-89356797D01*
X132214000Y-88697203D01*
X131961584Y-88087819D01*
X131495181Y-87621416D01*
X131078645Y-87448880D01*
X131438536Y-87299809D01*
X131876809Y-86861536D01*
X132114000Y-86288905D01*
X132114000Y-85669095D01*
X131876809Y-85096464D01*
X131477445Y-84697100D01*
X131679255Y-84562255D01*
X132023604Y-84046901D01*
X132144523Y-83439000D01*
X134385478Y-83439000D01*
X134506397Y-84046901D01*
X134850746Y-84562255D01*
X135052556Y-84697100D01*
X134653192Y-85096464D01*
X134416001Y-85669095D01*
X134416001Y-86288905D01*
X134653192Y-86861536D01*
X135091465Y-87299809D01*
X135536356Y-87484088D01*
X135204819Y-87621416D01*
X134738416Y-88087819D01*
X134486000Y-88697203D01*
X134486000Y-89356797D01*
X134738416Y-89966181D01*
X134805631Y-90033396D01*
X134601399Y-90237627D01*
X134486000Y-90516224D01*
X134486000Y-91373500D01*
X134675500Y-91563000D01*
X136140000Y-91563000D01*
X136140000Y-91543000D01*
X136148000Y-91543000D01*
X136148000Y-91563000D01*
X137612500Y-91563000D01*
X137802000Y-91373500D01*
X137802000Y-90516224D01*
X137686601Y-90237627D01*
X137482370Y-90033396D01*
X137549584Y-89966181D01*
X137802000Y-89356797D01*
X137802000Y-88697203D01*
X140074000Y-88697203D01*
X140074000Y-89356797D01*
X140326416Y-89966181D01*
X140393631Y-90033396D01*
X140189399Y-90237627D01*
X140074000Y-90516224D01*
X140074000Y-91373500D01*
X140263500Y-91563000D01*
X141728000Y-91563000D01*
X141728000Y-91543000D01*
X141736000Y-91543000D01*
X141736000Y-91563000D01*
X143200500Y-91563000D01*
X143390000Y-91373500D01*
X143390000Y-90516224D01*
X143274601Y-90237627D01*
X143070370Y-90033396D01*
X143137584Y-89966181D01*
X143390000Y-89356797D01*
X143390000Y-88697203D01*
X145662000Y-88697203D01*
X145662000Y-89356797D01*
X145914416Y-89966181D01*
X145981631Y-90033396D01*
X145777399Y-90237627D01*
X145662000Y-90516224D01*
X145662000Y-91373500D01*
X145851500Y-91563000D01*
X147316000Y-91563000D01*
X147316000Y-91543000D01*
X147324000Y-91543000D01*
X147324000Y-91563000D01*
X148788500Y-91563000D01*
X148978000Y-91373500D01*
X148978000Y-90516224D01*
X148862601Y-90237627D01*
X148658370Y-90033396D01*
X148725584Y-89966181D01*
X148978000Y-89356797D01*
X148978000Y-88697203D01*
X151250000Y-88697203D01*
X151250000Y-89356797D01*
X151502416Y-89966181D01*
X151569631Y-90033396D01*
X151365399Y-90237627D01*
X151250000Y-90516224D01*
X151250000Y-91373500D01*
X151439500Y-91563000D01*
X152904000Y-91563000D01*
X152904000Y-91543000D01*
X152912000Y-91543000D01*
X152912000Y-91563000D01*
X154376500Y-91563000D01*
X154566000Y-91373500D01*
X154566000Y-90516224D01*
X154450601Y-90237627D01*
X154246370Y-90033396D01*
X154313584Y-89966181D01*
X154566000Y-89356797D01*
X154566000Y-88697203D01*
X156838000Y-88697203D01*
X156838000Y-89356797D01*
X157090416Y-89966181D01*
X157157631Y-90033396D01*
X156953399Y-90237627D01*
X156838000Y-90516224D01*
X156838000Y-91373500D01*
X157027500Y-91563000D01*
X158492000Y-91563000D01*
X158492000Y-91543000D01*
X158500000Y-91543000D01*
X158500000Y-91563000D01*
X159964500Y-91563000D01*
X160154000Y-91373500D01*
X160154000Y-90516224D01*
X160038601Y-90237627D01*
X159834370Y-90033396D01*
X159901584Y-89966181D01*
X160154000Y-89356797D01*
X160154000Y-89165501D01*
X161743632Y-89165501D01*
X161869487Y-89798218D01*
X162227893Y-90334609D01*
X162378888Y-90435501D01*
X162227893Y-90536393D01*
X161869487Y-91072784D01*
X161743632Y-91705501D01*
X161869487Y-92338218D01*
X162227893Y-92874609D01*
X162378888Y-92975501D01*
X162227893Y-93076393D01*
X161869487Y-93612784D01*
X161743632Y-94245501D01*
X161869487Y-94878218D01*
X162227893Y-95414609D01*
X162764284Y-95773015D01*
X163237287Y-95867101D01*
X163556715Y-95867101D01*
X164029718Y-95773015D01*
X164566109Y-95414609D01*
X164667001Y-95263614D01*
X164767893Y-95414609D01*
X165304284Y-95773015D01*
X165777287Y-95867101D01*
X166096715Y-95867101D01*
X166569718Y-95773015D01*
X167106109Y-95414609D01*
X167464515Y-94878218D01*
X167590370Y-94245501D01*
X167464515Y-93612784D01*
X167106109Y-93076393D01*
X166955114Y-92975501D01*
X167106109Y-92874609D01*
X167464515Y-92338218D01*
X167590370Y-91705501D01*
X167464515Y-91072784D01*
X167106109Y-90536393D01*
X166955114Y-90435501D01*
X167106109Y-90334609D01*
X167464515Y-89798218D01*
X167590370Y-89165501D01*
X167464515Y-88532784D01*
X167106109Y-87996393D01*
X166569718Y-87637987D01*
X166096715Y-87543901D01*
X165777287Y-87543901D01*
X165304284Y-87637987D01*
X164767893Y-87996393D01*
X164667001Y-88147388D01*
X164566109Y-87996393D01*
X164029718Y-87637987D01*
X163556715Y-87543901D01*
X163237287Y-87543901D01*
X162764284Y-87637987D01*
X162227893Y-87996393D01*
X161869487Y-88532784D01*
X161743632Y-89165501D01*
X160154000Y-89165501D01*
X160154000Y-88697203D01*
X159901584Y-88087819D01*
X159435181Y-87621416D01*
X159018645Y-87448880D01*
X159378536Y-87299809D01*
X159816809Y-86861536D01*
X160054000Y-86288905D01*
X160054000Y-85669095D01*
X159816809Y-85096464D01*
X159417445Y-84697100D01*
X159619255Y-84562255D01*
X159963604Y-84046901D01*
X160049222Y-83616466D01*
X163452001Y-83616466D01*
X163452001Y-84554536D01*
X163810985Y-85421201D01*
X164474301Y-86084517D01*
X165340966Y-86443501D01*
X166279036Y-86443501D01*
X167145701Y-86084517D01*
X167809017Y-85421201D01*
X168168001Y-84554536D01*
X168168001Y-83616466D01*
X167809017Y-82749801D01*
X167145701Y-82086485D01*
X166279036Y-81727501D01*
X165340966Y-81727501D01*
X164474301Y-82086485D01*
X163810985Y-82749801D01*
X163452001Y-83616466D01*
X160049222Y-83616466D01*
X160084523Y-83439000D01*
X159963604Y-82831099D01*
X159619255Y-82315745D01*
X159103901Y-81971396D01*
X158649450Y-81881000D01*
X158342550Y-81881000D01*
X157888099Y-81971396D01*
X157372745Y-82315745D01*
X157028396Y-82831099D01*
X156907477Y-83439000D01*
X157028396Y-84046901D01*
X157372745Y-84562255D01*
X157574555Y-84697100D01*
X157175191Y-85096464D01*
X156938000Y-85669095D01*
X156938000Y-86288905D01*
X157175191Y-86861536D01*
X157613464Y-87299809D01*
X157973355Y-87448880D01*
X157556819Y-87621416D01*
X157090416Y-88087819D01*
X156838000Y-88697203D01*
X154566000Y-88697203D01*
X154313584Y-88087819D01*
X153847181Y-87621416D01*
X153430645Y-87448880D01*
X153790536Y-87299809D01*
X154228809Y-86861536D01*
X154466000Y-86288905D01*
X154466000Y-85669095D01*
X154228809Y-85096464D01*
X153829445Y-84697100D01*
X154031255Y-84562255D01*
X154375604Y-84046901D01*
X154496523Y-83439000D01*
X154375604Y-82831099D01*
X154031255Y-82315745D01*
X153515901Y-81971396D01*
X153061450Y-81881000D01*
X152754550Y-81881000D01*
X152300099Y-81971396D01*
X151784745Y-82315745D01*
X151440396Y-82831099D01*
X151319477Y-83439000D01*
X151440396Y-84046901D01*
X151784745Y-84562255D01*
X151986555Y-84697100D01*
X151587191Y-85096464D01*
X151350000Y-85669095D01*
X151350000Y-86288905D01*
X151587191Y-86861536D01*
X152025464Y-87299809D01*
X152385355Y-87448880D01*
X151968819Y-87621416D01*
X151502416Y-88087819D01*
X151250000Y-88697203D01*
X148978000Y-88697203D01*
X148725584Y-88087819D01*
X148259181Y-87621416D01*
X147842645Y-87448880D01*
X148202536Y-87299809D01*
X148640809Y-86861536D01*
X148878000Y-86288905D01*
X148878000Y-85669095D01*
X148640809Y-85096464D01*
X148241445Y-84697100D01*
X148443255Y-84562255D01*
X148787604Y-84046901D01*
X148908523Y-83439000D01*
X148787604Y-82831099D01*
X148443255Y-82315745D01*
X147927901Y-81971396D01*
X147473450Y-81881000D01*
X147166550Y-81881000D01*
X146712099Y-81971396D01*
X146196745Y-82315745D01*
X145852396Y-82831099D01*
X145731477Y-83439000D01*
X145852396Y-84046901D01*
X146196745Y-84562255D01*
X146398555Y-84697100D01*
X145999191Y-85096464D01*
X145762000Y-85669095D01*
X145762000Y-86288905D01*
X145999191Y-86861536D01*
X146437464Y-87299809D01*
X146797355Y-87448880D01*
X146380819Y-87621416D01*
X145914416Y-88087819D01*
X145662000Y-88697203D01*
X143390000Y-88697203D01*
X143137584Y-88087819D01*
X142671181Y-87621416D01*
X142254645Y-87448880D01*
X142614536Y-87299809D01*
X143052809Y-86861536D01*
X143290000Y-86288905D01*
X143290000Y-85669095D01*
X143052809Y-85096464D01*
X142653445Y-84697100D01*
X142855255Y-84562255D01*
X143199604Y-84046901D01*
X143320523Y-83439000D01*
X143199604Y-82831099D01*
X142855255Y-82315745D01*
X142339901Y-81971396D01*
X141885450Y-81881000D01*
X141578550Y-81881000D01*
X141124099Y-81971396D01*
X140608745Y-82315745D01*
X140264396Y-82831099D01*
X140143477Y-83439000D01*
X140264396Y-84046901D01*
X140608745Y-84562255D01*
X140810555Y-84697100D01*
X140411191Y-85096464D01*
X140174000Y-85669095D01*
X140174000Y-86288905D01*
X140411191Y-86861536D01*
X140849464Y-87299809D01*
X141209355Y-87448880D01*
X140792819Y-87621416D01*
X140326416Y-88087819D01*
X140074000Y-88697203D01*
X137802000Y-88697203D01*
X137549584Y-88087819D01*
X137083181Y-87621416D01*
X136581646Y-87413673D01*
X136856537Y-87299809D01*
X137294810Y-86861536D01*
X137532001Y-86288905D01*
X137532001Y-85669095D01*
X137294810Y-85096464D01*
X136895446Y-84697100D01*
X137097256Y-84562255D01*
X137441605Y-84046901D01*
X137562524Y-83439000D01*
X137441605Y-82831099D01*
X137097256Y-82315745D01*
X136581902Y-81971396D01*
X136127451Y-81881000D01*
X135820551Y-81881000D01*
X135366100Y-81971396D01*
X134850746Y-82315745D01*
X134506397Y-82831099D01*
X134385478Y-83439000D01*
X132144523Y-83439000D01*
X132023604Y-82831099D01*
X131679255Y-82315745D01*
X131564000Y-82238734D01*
X131564000Y-82078526D01*
X131878517Y-81764010D01*
X139616716Y-81764010D01*
X139715990Y-81783757D01*
X139815264Y-81764010D01*
X140109292Y-81705524D01*
X140442717Y-81482737D01*
X140498954Y-81398572D01*
X146125526Y-75772001D01*
X146145629Y-75776000D01*
X146462371Y-75776000D01*
X146931410Y-75682702D01*
X147463303Y-75327303D01*
X147574000Y-75161633D01*
X147684697Y-75327303D01*
X148216590Y-75682702D01*
X148685629Y-75776000D01*
X149002371Y-75776000D01*
X149471410Y-75682702D01*
X150003303Y-75327303D01*
X150114000Y-75161633D01*
X150224697Y-75327303D01*
X150756590Y-75682702D01*
X151225629Y-75776000D01*
X151542371Y-75776000D01*
X152011410Y-75682702D01*
X152543303Y-75327303D01*
X152654000Y-75161633D01*
X152764697Y-75327303D01*
X153296590Y-75682702D01*
X153765629Y-75776000D01*
X154082371Y-75776000D01*
X154551410Y-75682702D01*
X155083303Y-75327303D01*
X155194000Y-75161633D01*
X155304697Y-75327303D01*
X155836590Y-75682702D01*
X156305629Y-75776000D01*
X156622371Y-75776000D01*
X157091410Y-75682702D01*
X157623303Y-75327303D01*
X157734000Y-75161633D01*
X157844697Y-75327303D01*
X158376590Y-75682702D01*
X158845629Y-75776000D01*
X159162371Y-75776000D01*
X159631410Y-75682702D01*
X160163303Y-75327303D01*
X160518702Y-74795410D01*
X160643502Y-74168000D01*
X160518702Y-73540590D01*
X160163303Y-73008697D01*
X159771660Y-72747010D01*
X161872484Y-72747010D01*
X163076001Y-73950528D01*
X163076000Y-76989726D01*
X163056253Y-77089000D01*
X163076000Y-77188273D01*
X163134486Y-77482301D01*
X163357273Y-77815727D01*
X163441438Y-77871964D01*
X164825037Y-79255564D01*
X164881273Y-79339727D01*
X165214698Y-79562514D01*
X165508726Y-79621000D01*
X165508730Y-79621000D01*
X165607999Y-79640746D01*
X165707268Y-79621000D01*
X165871600Y-79621000D01*
X165972697Y-79772303D01*
X166504590Y-80127702D01*
X166973629Y-80221000D01*
X167290371Y-80221000D01*
X167759410Y-80127702D01*
X168291303Y-79772303D01*
X168402000Y-79606633D01*
X168512697Y-79772303D01*
X169044590Y-80127702D01*
X169513629Y-80221000D01*
X169830371Y-80221000D01*
X170299410Y-80127702D01*
X170831303Y-79772303D01*
X171186702Y-79240410D01*
X171311502Y-78613000D01*
X171186702Y-77985590D01*
X170831303Y-77453697D01*
X170665633Y-77343000D01*
X170831303Y-77232303D01*
X171186702Y-76700410D01*
X171311502Y-76073000D01*
X171186702Y-75445590D01*
X170831303Y-74913697D01*
X170665633Y-74803000D01*
X170831303Y-74692303D01*
X171186702Y-74160410D01*
X171311502Y-73533000D01*
X171186702Y-72905590D01*
X170831303Y-72373697D01*
X170665633Y-72263000D01*
X170831303Y-72152303D01*
X171186702Y-71620410D01*
X171311502Y-70993000D01*
X171186702Y-70365590D01*
X170831303Y-69833697D01*
X170299410Y-69478298D01*
X169830371Y-69385000D01*
X169513629Y-69385000D01*
X169044590Y-69478298D01*
X168633178Y-69753194D01*
X168528487Y-69596513D01*
X168277757Y-69428980D01*
X167982000Y-69370150D01*
X166282000Y-69370150D01*
X165986243Y-69428980D01*
X165735513Y-69596513D01*
X165567980Y-69847243D01*
X165509150Y-70143000D01*
X165509150Y-71843000D01*
X165518740Y-71891213D01*
X163961359Y-70333832D01*
X164439109Y-70014609D01*
X164797515Y-69478218D01*
X164923370Y-68845501D01*
X164797515Y-68212784D01*
X164439109Y-67676393D01*
X163902718Y-67317987D01*
X163429715Y-67223901D01*
X163110287Y-67223901D01*
X162637284Y-67317987D01*
X162100893Y-67676393D01*
X162000001Y-67827388D01*
X161899109Y-67676393D01*
X161362718Y-67317987D01*
X160889715Y-67223901D01*
X160570287Y-67223901D01*
X160097284Y-67317987D01*
X159560893Y-67676393D01*
X159460001Y-67827388D01*
X159359109Y-67676393D01*
X158822718Y-67317987D01*
X158349715Y-67223901D01*
X158030287Y-67223901D01*
X157557284Y-67317987D01*
X157020893Y-67676393D01*
X156920001Y-67827388D01*
X156819109Y-67676393D01*
X156282718Y-67317987D01*
X155809715Y-67223901D01*
X155490287Y-67223901D01*
X155017284Y-67317987D01*
X154480893Y-67676393D01*
X154380001Y-67827388D01*
X154279109Y-67676393D01*
X153742718Y-67317987D01*
X153269715Y-67223901D01*
X152950287Y-67223901D01*
X152477284Y-67317987D01*
X151940893Y-67676393D01*
X151840001Y-67827388D01*
X151739109Y-67676393D01*
X151202718Y-67317987D01*
X150729715Y-67223901D01*
X150410287Y-67223901D01*
X149937284Y-67317987D01*
X149400893Y-67676393D01*
X149300001Y-67827388D01*
X149199109Y-67676393D01*
X148662718Y-67317987D01*
X148189715Y-67223901D01*
X147870287Y-67223901D01*
X147397284Y-67317987D01*
X146860893Y-67676393D01*
X146760001Y-67827388D01*
X146659109Y-67676393D01*
X146122718Y-67317987D01*
X145649715Y-67223901D01*
X145330287Y-67223901D01*
X144857284Y-67317987D01*
X144320893Y-67676393D01*
X143962487Y-68212784D01*
X143836632Y-68845501D01*
X143874433Y-69035542D01*
X143458874Y-69451102D01*
X142958909Y-69451102D01*
X143079370Y-68845501D01*
X142953515Y-68212784D01*
X142595109Y-67676393D01*
X142058718Y-67317987D01*
X141585715Y-67223901D01*
X141266287Y-67223901D01*
X140793284Y-67317987D01*
X140256893Y-67676393D01*
X140156001Y-67827388D01*
X140055109Y-67676393D01*
X139518718Y-67317987D01*
X139045715Y-67223901D01*
X138726287Y-67223901D01*
X138253284Y-67317987D01*
X137716893Y-67676393D01*
X137616001Y-67827388D01*
X137515109Y-67676393D01*
X136978718Y-67317987D01*
X136505715Y-67223901D01*
X136186287Y-67223901D01*
X135713284Y-67317987D01*
X135176893Y-67676393D01*
X135076001Y-67827388D01*
X134975109Y-67676393D01*
X134438718Y-67317987D01*
X133965715Y-67223901D01*
X133646287Y-67223901D01*
X133173284Y-67317987D01*
X132636893Y-67676393D01*
X132536001Y-67827388D01*
X132435109Y-67676393D01*
X131898718Y-67317987D01*
X131425715Y-67223901D01*
X131106287Y-67223901D01*
X130633284Y-67317987D01*
X130096893Y-67676393D01*
X129996001Y-67827388D01*
X129895109Y-67676393D01*
X129358718Y-67317987D01*
X128885715Y-67223901D01*
X128566287Y-67223901D01*
X128093284Y-67317987D01*
X127556893Y-67676393D01*
X127444831Y-67844105D01*
X127036693Y-67464954D01*
X126443625Y-67244496D01*
X126190001Y-67413406D01*
X126190001Y-68841501D01*
X126210001Y-68841501D01*
X126210001Y-68849501D01*
X126190001Y-68849501D01*
X126190001Y-70277596D01*
X126443625Y-70446506D01*
X127036693Y-70226048D01*
X127444831Y-69846897D01*
X127556893Y-70014609D01*
X128093284Y-70373015D01*
X128566287Y-70467101D01*
X128885715Y-70467101D01*
X129358718Y-70373015D01*
X129895109Y-70014609D01*
X129996001Y-69863614D01*
X130096893Y-70014609D01*
X130633284Y-70373015D01*
X131106287Y-70467101D01*
X131425715Y-70467101D01*
X131898718Y-70373015D01*
X132435109Y-70014609D01*
X132536001Y-69863614D01*
X132636893Y-70014609D01*
X133173284Y-70373015D01*
X133646287Y-70467101D01*
X133965715Y-70467101D01*
X134438718Y-70373015D01*
X134975109Y-70014609D01*
X135076001Y-69863614D01*
X135176893Y-70014609D01*
X135713284Y-70373015D01*
X135930292Y-70416180D01*
X133782475Y-72563999D01*
X133762371Y-72560000D01*
X133445629Y-72560000D01*
X132976590Y-72653298D01*
X132444697Y-73008697D01*
X132334000Y-73174367D01*
X132223303Y-73008697D01*
X131691410Y-72653298D01*
X131222371Y-72560000D01*
X130905629Y-72560000D01*
X130436590Y-72653298D01*
X129904697Y-73008697D01*
X129794000Y-73174367D01*
X129683303Y-73008697D01*
X129151410Y-72653298D01*
X128682371Y-72560000D01*
X128365629Y-72560000D01*
X127896590Y-72653298D01*
X127364697Y-73008697D01*
X127009298Y-73540590D01*
X126884498Y-74168000D01*
X127009298Y-74795410D01*
X127284194Y-75206822D01*
X127127513Y-75311513D01*
X126959980Y-75562243D01*
X126901150Y-75858000D01*
X126901150Y-77558000D01*
X126935761Y-77732000D01*
X120749273Y-77732000D01*
X120649999Y-77712253D01*
X120256698Y-77790486D01*
X119923273Y-78013273D01*
X119867039Y-78097434D01*
X118737438Y-79227036D01*
X118653273Y-79283273D01*
X118466692Y-79562513D01*
X118430486Y-79616699D01*
X118352253Y-80010000D01*
X118372000Y-80109274D01*
X118372001Y-82238734D01*
X118256745Y-82315745D01*
X117912396Y-82831099D01*
X117791477Y-83439000D01*
X117912396Y-84046901D01*
X118256745Y-84562255D01*
X118458555Y-84697100D01*
X118059191Y-85096464D01*
X117822000Y-85669095D01*
X117822000Y-86288905D01*
X118059191Y-86861536D01*
X118497464Y-87299809D01*
X118857355Y-87448880D01*
X118440819Y-87621416D01*
X117974416Y-88087819D01*
X117722000Y-88697203D01*
X115935719Y-88697203D01*
X115860388Y-88666000D01*
X115161012Y-88666000D01*
X114514873Y-88933640D01*
X114020340Y-89428173D01*
X113752700Y-90074312D01*
X112768700Y-90074312D01*
X112501060Y-89428173D01*
X112006527Y-88933640D01*
X111360388Y-88666000D01*
X110661012Y-88666000D01*
X110014873Y-88933640D01*
X109520340Y-89428173D01*
X109252700Y-90074312D01*
X109156061Y-90074312D01*
X108940609Y-89554164D01*
X108502336Y-89115891D01*
X107929705Y-88878700D01*
X107309895Y-88878700D01*
X106737264Y-89115891D01*
X106298991Y-89554164D01*
X106061800Y-90126795D01*
X103409424Y-90126795D01*
X98684601Y-85401973D01*
X98684601Y-83574312D01*
X109252700Y-83574312D01*
X109252700Y-84273688D01*
X109520340Y-84919827D01*
X110014873Y-85414360D01*
X110661012Y-85682000D01*
X111360388Y-85682000D01*
X112006527Y-85414360D01*
X112501060Y-84919827D01*
X112768700Y-84273688D01*
X112768700Y-83574312D01*
X113752700Y-83574312D01*
X113752700Y-84273688D01*
X114020340Y-84919827D01*
X114514873Y-85414360D01*
X115161012Y-85682000D01*
X115860388Y-85682000D01*
X116506527Y-85414360D01*
X117001060Y-84919827D01*
X117268700Y-84273688D01*
X117268700Y-83574312D01*
X117001060Y-82928173D01*
X116506527Y-82433640D01*
X115860388Y-82166000D01*
X115161012Y-82166000D01*
X114514873Y-82433640D01*
X114020340Y-82928173D01*
X113752700Y-83574312D01*
X112768700Y-83574312D01*
X112501060Y-82928173D01*
X112006527Y-82433640D01*
X111360388Y-82166000D01*
X110661012Y-82166000D01*
X110014873Y-82433640D01*
X109520340Y-82928173D01*
X109252700Y-83574312D01*
X98684601Y-83574312D01*
X98684601Y-79609512D01*
X109252700Y-79609512D01*
X109252700Y-80308888D01*
X109520340Y-80955027D01*
X110014873Y-81449560D01*
X110661012Y-81717200D01*
X111360388Y-81717200D01*
X112006527Y-81449560D01*
X112501060Y-80955027D01*
X112768700Y-80308888D01*
X112768700Y-79609512D01*
X113752700Y-79609512D01*
X113752700Y-80308888D01*
X114020340Y-80955027D01*
X114514873Y-81449560D01*
X115161012Y-81717200D01*
X115860388Y-81717200D01*
X116506527Y-81449560D01*
X117001060Y-80955027D01*
X117268700Y-80308888D01*
X117268700Y-79609512D01*
X117001060Y-78963373D01*
X116506527Y-78468840D01*
X115860388Y-78201200D01*
X115161012Y-78201200D01*
X114514873Y-78468840D01*
X114020340Y-78963373D01*
X113752700Y-79609512D01*
X112768700Y-79609512D01*
X112501060Y-78963373D01*
X112006527Y-78468840D01*
X111360388Y-78201200D01*
X110661012Y-78201200D01*
X110014873Y-78468840D01*
X109520340Y-78963373D01*
X109252700Y-79609512D01*
X98684601Y-79609512D01*
X98684601Y-75356641D01*
X99106139Y-75748319D01*
X99675925Y-75960188D01*
X99919600Y-75790495D01*
X99919600Y-74426000D01*
X99927600Y-74426000D01*
X99927600Y-75790495D01*
X100171275Y-75960188D01*
X100741061Y-75748319D01*
X101186396Y-75334530D01*
X101439481Y-74781817D01*
X101461788Y-74669675D01*
X101292094Y-74426000D01*
X99927600Y-74426000D01*
X99919600Y-74426000D01*
X99899600Y-74426000D01*
X99899600Y-74418000D01*
X99919600Y-74418000D01*
X99919600Y-73053505D01*
X99927600Y-73053505D01*
X99927600Y-74418000D01*
X101292094Y-74418000D01*
X101461788Y-74174325D01*
X101449410Y-74112095D01*
X105985600Y-74112095D01*
X105985600Y-74731905D01*
X106222791Y-75304536D01*
X106661064Y-75742809D01*
X107233695Y-75980000D01*
X107853505Y-75980000D01*
X108426136Y-75742809D01*
X108528162Y-75640783D01*
X119142874Y-75640783D01*
X119198829Y-75936189D01*
X119762358Y-76194261D01*
X120381750Y-76217035D01*
X120962709Y-76001044D01*
X121059771Y-75936189D01*
X121115726Y-75640783D01*
X120129300Y-74654357D01*
X119142874Y-75640783D01*
X108528162Y-75640783D01*
X108864409Y-75304536D01*
X109101600Y-74731905D01*
X109101600Y-74112095D01*
X108864409Y-73539464D01*
X108434457Y-73109512D01*
X109252700Y-73109512D01*
X109252700Y-73808888D01*
X109520340Y-74455027D01*
X110014873Y-74949560D01*
X110661012Y-75217200D01*
X111360388Y-75217200D01*
X112006527Y-74949560D01*
X112501060Y-74455027D01*
X112768700Y-73808888D01*
X112768700Y-73109512D01*
X113752700Y-73109512D01*
X113752700Y-73808888D01*
X114020340Y-74455027D01*
X114514873Y-74949560D01*
X115161012Y-75217200D01*
X115860388Y-75217200D01*
X116506527Y-74949560D01*
X116554937Y-74901150D01*
X118560965Y-74901150D01*
X118776956Y-75482109D01*
X118841811Y-75579171D01*
X119137217Y-75635126D01*
X120123643Y-74648700D01*
X120134957Y-74648700D01*
X121121383Y-75635126D01*
X121416789Y-75579171D01*
X121674861Y-75015642D01*
X121697635Y-74396250D01*
X121481644Y-73815291D01*
X121416789Y-73718229D01*
X121121383Y-73662274D01*
X120134957Y-74648700D01*
X120123643Y-74648700D01*
X119137217Y-73662274D01*
X118841811Y-73718229D01*
X118583739Y-74281758D01*
X118560965Y-74901150D01*
X116554937Y-74901150D01*
X117001060Y-74455027D01*
X117268700Y-73808888D01*
X117268700Y-73109512D01*
X117001060Y-72463373D01*
X116506527Y-71968840D01*
X116192572Y-71838795D01*
X118571300Y-71838795D01*
X118571300Y-72458605D01*
X118808491Y-73031236D01*
X119189216Y-73411961D01*
X119142874Y-73656617D01*
X120129300Y-74643043D01*
X121115726Y-73656617D01*
X121069384Y-73411961D01*
X121450109Y-73031236D01*
X121687300Y-72458605D01*
X121687300Y-71838795D01*
X121450109Y-71266164D01*
X121011836Y-70827891D01*
X120439205Y-70590700D01*
X119819395Y-70590700D01*
X119246764Y-70827891D01*
X118808491Y-71266164D01*
X118571300Y-71838795D01*
X116192572Y-71838795D01*
X115860388Y-71701200D01*
X115161012Y-71701200D01*
X114514873Y-71968840D01*
X114020340Y-72463373D01*
X113752700Y-73109512D01*
X112768700Y-73109512D01*
X112501060Y-72463373D01*
X112006527Y-71968840D01*
X111360388Y-71701200D01*
X110661012Y-71701200D01*
X110014873Y-71968840D01*
X109520340Y-72463373D01*
X109252700Y-73109512D01*
X108434457Y-73109512D01*
X108426136Y-73101191D01*
X107853505Y-72864000D01*
X107233695Y-72864000D01*
X106661064Y-73101191D01*
X106222791Y-73539464D01*
X105985600Y-74112095D01*
X101449410Y-74112095D01*
X101439481Y-74062183D01*
X101186396Y-73509470D01*
X100741061Y-73095681D01*
X100171275Y-72883812D01*
X99927600Y-73053505D01*
X99919600Y-73053505D01*
X99777714Y-72954697D01*
X100041302Y-72560210D01*
X100166102Y-71932800D01*
X100041302Y-71305390D01*
X99685903Y-70773497D01*
X99154010Y-70418098D01*
X98684971Y-70324800D01*
X98368229Y-70324800D01*
X97899190Y-70418098D01*
X97367297Y-70773497D01*
X97256600Y-70939167D01*
X97145903Y-70773497D01*
X96614010Y-70418098D01*
X96144971Y-70324800D01*
X95828229Y-70324800D01*
X95359190Y-70418098D01*
X94947778Y-70692994D01*
X94843087Y-70536313D01*
X94592357Y-70368780D01*
X94296600Y-70309950D01*
X92596600Y-70309950D01*
X92300843Y-70368780D01*
X92050113Y-70536313D01*
X91882580Y-70787043D01*
X91823750Y-71082800D01*
X91638000Y-71082800D01*
X91638000Y-64524082D01*
X92585730Y-64524082D01*
X92585730Y-65422318D01*
X92929470Y-66252180D01*
X93564620Y-66887330D01*
X94394482Y-67231070D01*
X95292718Y-67231070D01*
X96122580Y-66887330D01*
X96757730Y-66252180D01*
X97101470Y-65422318D01*
X97101470Y-64524082D01*
X96757730Y-63694220D01*
X96122580Y-63059070D01*
X95292718Y-62715330D01*
X94394482Y-62715330D01*
X93564620Y-63059070D01*
X92929470Y-63694220D01*
X92585730Y-64524082D01*
X91638000Y-64524082D01*
X91638000Y-61793000D01*
X103393737Y-61793000D01*
X103153513Y-61953513D01*
X103153513Y-61953513D01*
G37*
X103153513Y-61953513D02*
X102985980Y-62204243D01*
X102927150Y-62500000D01*
X102927150Y-64200000D01*
X102985980Y-64495757D01*
X103153513Y-64746487D01*
X103310194Y-64851178D01*
X103035298Y-65262590D01*
X102910498Y-65890000D01*
X103035298Y-66517410D01*
X103390697Y-67049303D01*
X103556367Y-67160000D01*
X103390697Y-67270697D01*
X103035298Y-67802590D01*
X102910498Y-68430000D01*
X103035298Y-69057410D01*
X103390697Y-69589303D01*
X103556367Y-69700000D01*
X103390697Y-69810697D01*
X103035298Y-70342590D01*
X102910498Y-70970000D01*
X103035298Y-71597410D01*
X103390697Y-72129303D01*
X103922590Y-72484702D01*
X104391629Y-72578000D01*
X104708371Y-72578000D01*
X105177410Y-72484702D01*
X105709303Y-72129303D01*
X105820000Y-71963633D01*
X105930697Y-72129303D01*
X106462590Y-72484702D01*
X106931629Y-72578000D01*
X107248371Y-72578000D01*
X107717410Y-72484702D01*
X108249303Y-72129303D01*
X108604702Y-71597410D01*
X108729502Y-70970000D01*
X108604702Y-70342590D01*
X108249303Y-69810697D01*
X108083633Y-69700000D01*
X108249303Y-69589303D01*
X108604702Y-69057410D01*
X108729502Y-68430000D01*
X108718854Y-68376466D01*
X112652001Y-68376466D01*
X112652001Y-69314536D01*
X113010985Y-70181201D01*
X113674301Y-70844517D01*
X114540966Y-71203501D01*
X115479036Y-71203501D01*
X116345701Y-70844517D01*
X117009017Y-70181201D01*
X117200048Y-69720011D01*
X117396893Y-70014609D01*
X117933284Y-70373015D01*
X118406287Y-70467101D01*
X118725715Y-70467101D01*
X119198718Y-70373015D01*
X119735109Y-70014609D01*
X119836001Y-69863614D01*
X119936893Y-70014609D01*
X120473284Y-70373015D01*
X120946287Y-70467101D01*
X121265715Y-70467101D01*
X121738718Y-70373015D01*
X122275109Y-70014609D01*
X122376001Y-69863614D01*
X122476893Y-70014609D01*
X123013284Y-70373015D01*
X123486287Y-70467101D01*
X123805715Y-70467101D01*
X124278718Y-70373015D01*
X124815109Y-70014609D01*
X124927171Y-69846897D01*
X125335309Y-70226048D01*
X125928377Y-70446506D01*
X126182001Y-70277596D01*
X126182001Y-68849501D01*
X126162001Y-68849501D01*
X126162001Y-68841501D01*
X126182001Y-68841501D01*
X126182001Y-67413406D01*
X125928377Y-67244496D01*
X125335309Y-67464954D01*
X124927171Y-67844105D01*
X124815109Y-67676393D01*
X124278718Y-67317987D01*
X123805715Y-67223901D01*
X123486287Y-67223901D01*
X123013284Y-67317987D01*
X122476893Y-67676393D01*
X122376001Y-67827388D01*
X122275109Y-67676393D01*
X121738718Y-67317987D01*
X121265715Y-67223901D01*
X120946287Y-67223901D01*
X120473284Y-67317987D01*
X119936893Y-67676393D01*
X119836001Y-67827388D01*
X119735109Y-67676393D01*
X119198718Y-67317987D01*
X118725715Y-67223901D01*
X118406287Y-67223901D01*
X117933284Y-67317987D01*
X117396893Y-67676393D01*
X117200048Y-67970991D01*
X117009017Y-67509801D01*
X116345701Y-66846485D01*
X115479036Y-66487501D01*
X114540966Y-66487501D01*
X113674301Y-66846485D01*
X113010985Y-67509801D01*
X112652001Y-68376466D01*
X108718854Y-68376466D01*
X108604702Y-67802590D01*
X108249303Y-67270697D01*
X108083633Y-67160000D01*
X108249303Y-67049303D01*
X108604702Y-66517410D01*
X108729502Y-65890000D01*
X108604702Y-65262590D01*
X108249303Y-64730697D01*
X108083633Y-64620000D01*
X108249303Y-64509303D01*
X108413545Y-64263497D01*
X156590928Y-64263497D01*
X156809549Y-64851586D01*
X157236581Y-65311247D01*
X157807011Y-65572500D01*
X157923003Y-65595572D01*
X158174500Y-65426494D01*
X158174500Y-64012000D01*
X156760005Y-64012000D01*
X156590928Y-64263497D01*
X108413545Y-64263497D01*
X108604702Y-63977410D01*
X108649438Y-63752503D01*
X156590928Y-63752503D01*
X156760005Y-64004000D01*
X158174500Y-64004000D01*
X158174500Y-62589506D01*
X158182500Y-62589506D01*
X158182500Y-64004000D01*
X158202500Y-64004000D01*
X158202500Y-64012000D01*
X158182500Y-64012000D01*
X158182500Y-65426494D01*
X158433997Y-65595572D01*
X158549989Y-65572500D01*
X159120419Y-65311247D01*
X159431580Y-64976310D01*
X159559197Y-65167303D01*
X160091090Y-65522702D01*
X160560129Y-65616000D01*
X160876871Y-65616000D01*
X161345910Y-65522702D01*
X161757322Y-65247806D01*
X161862013Y-65404487D01*
X162112743Y-65572020D01*
X162408500Y-65630850D01*
X164108500Y-65630850D01*
X164404257Y-65572020D01*
X164654987Y-65404487D01*
X164822520Y-65153757D01*
X164881350Y-64858000D01*
X164881350Y-64524082D01*
X168328530Y-64524082D01*
X168328530Y-65422318D01*
X168672270Y-66252180D01*
X169307420Y-66887330D01*
X170137282Y-67231070D01*
X171035518Y-67231070D01*
X171865380Y-66887330D01*
X172500530Y-66252180D01*
X172844270Y-65422318D01*
X172844270Y-64524082D01*
X172500530Y-63694220D01*
X171865380Y-63059070D01*
X171035518Y-62715330D01*
X170137282Y-62715330D01*
X169307420Y-63059070D01*
X168672270Y-63694220D01*
X168328530Y-64524082D01*
X164881350Y-64524082D01*
X164881350Y-63158000D01*
X164822520Y-62862243D01*
X164654987Y-62611513D01*
X164404257Y-62443980D01*
X164108500Y-62385150D01*
X162408500Y-62385150D01*
X162112743Y-62443980D01*
X161862013Y-62611513D01*
X161757322Y-62768194D01*
X161345910Y-62493298D01*
X160876871Y-62400000D01*
X160560129Y-62400000D01*
X160091090Y-62493298D01*
X159559197Y-62848697D01*
X159431580Y-63039690D01*
X159120419Y-62704753D01*
X158549989Y-62443500D01*
X158433997Y-62420428D01*
X158182500Y-62589506D01*
X158174500Y-62589506D01*
X157923003Y-62420428D01*
X157807011Y-62443500D01*
X157236581Y-62704753D01*
X156809549Y-63164414D01*
X156590928Y-63752503D01*
X108649438Y-63752503D01*
X108729502Y-63350000D01*
X108604702Y-62722590D01*
X108249303Y-62190697D01*
X107717410Y-61835298D01*
X107504764Y-61793000D01*
X173792000Y-61793000D01*
X173792001Y-119182000D01*
X114888640Y-119182000D01*
X115075701Y-119104517D01*
X115739017Y-118441201D01*
X116098001Y-117574536D01*
X116098001Y-116636466D01*
X115739017Y-115769801D01*
X115705216Y-115736000D01*
X117757150Y-115736000D01*
X117757150Y-117436000D01*
X117815980Y-117731757D01*
X117983513Y-117982487D01*
X118234243Y-118150020D01*
X118530000Y-118208850D01*
X120230000Y-118208850D01*
X120525757Y-118150020D01*
X120776487Y-117982487D01*
X120897061Y-117802036D01*
X120978081Y-117889247D01*
X121548511Y-118150500D01*
X121664503Y-118173572D01*
X121916000Y-118004494D01*
X121916000Y-116590000D01*
X121924000Y-116590000D01*
X121924000Y-118004494D01*
X122175497Y-118173572D01*
X122291489Y-118150500D01*
X122861919Y-117889247D01*
X123288951Y-117429586D01*
X123409429Y-117105501D01*
X126056632Y-117105501D01*
X126182487Y-117738218D01*
X126540893Y-118274609D01*
X127077284Y-118633015D01*
X127550287Y-118727101D01*
X127869715Y-118727101D01*
X128342718Y-118633015D01*
X128879109Y-118274609D01*
X128980001Y-118123614D01*
X129080893Y-118274609D01*
X129617284Y-118633015D01*
X130090287Y-118727101D01*
X130409715Y-118727101D01*
X130882718Y-118633015D01*
X131419109Y-118274609D01*
X131520001Y-118123614D01*
X131620893Y-118274609D01*
X132157284Y-118633015D01*
X132630287Y-118727101D01*
X132949715Y-118727101D01*
X133422718Y-118633015D01*
X133959109Y-118274609D01*
X134060001Y-118123614D01*
X134160893Y-118274609D01*
X134697284Y-118633015D01*
X135170287Y-118727101D01*
X135489715Y-118727101D01*
X135962718Y-118633015D01*
X136499109Y-118274609D01*
X136600001Y-118123614D01*
X136700893Y-118274609D01*
X137237284Y-118633015D01*
X137710287Y-118727101D01*
X138029715Y-118727101D01*
X138502718Y-118633015D01*
X139039109Y-118274609D01*
X139151171Y-118106897D01*
X139559309Y-118486048D01*
X140152377Y-118706506D01*
X140406001Y-118537596D01*
X140406001Y-117109501D01*
X140414001Y-117109501D01*
X140414001Y-118537596D01*
X140667625Y-118706506D01*
X141260693Y-118486048D01*
X141680001Y-118096520D01*
X142099309Y-118486048D01*
X142692377Y-118706506D01*
X142946001Y-118537596D01*
X142946001Y-117109501D01*
X140414001Y-117109501D01*
X140406001Y-117109501D01*
X140386001Y-117109501D01*
X140386001Y-117101501D01*
X140406001Y-117101501D01*
X140406001Y-115673406D01*
X140414001Y-115673406D01*
X140414001Y-117101501D01*
X142946001Y-117101501D01*
X142946001Y-115673406D01*
X142954001Y-115673406D01*
X142954001Y-117101501D01*
X142974001Y-117101501D01*
X142974001Y-117109501D01*
X142954001Y-117109501D01*
X142954001Y-118537596D01*
X143207625Y-118706506D01*
X143800693Y-118486048D01*
X144208831Y-118106897D01*
X144320893Y-118274609D01*
X144857284Y-118633015D01*
X145330287Y-118727101D01*
X145649715Y-118727101D01*
X146122718Y-118633015D01*
X146659109Y-118274609D01*
X147017515Y-117738218D01*
X147143370Y-117105501D01*
X148916632Y-117105501D01*
X149042487Y-117738218D01*
X149400893Y-118274609D01*
X149937284Y-118633015D01*
X150410287Y-118727101D01*
X150729715Y-118727101D01*
X151202718Y-118633015D01*
X151739109Y-118274609D01*
X151840001Y-118123614D01*
X151940893Y-118274609D01*
X152477284Y-118633015D01*
X152950287Y-118727101D01*
X153269715Y-118727101D01*
X153742718Y-118633015D01*
X154279109Y-118274609D01*
X154380001Y-118123614D01*
X154480893Y-118274609D01*
X155017284Y-118633015D01*
X155490287Y-118727101D01*
X155809715Y-118727101D01*
X156282718Y-118633015D01*
X156819109Y-118274609D01*
X156920001Y-118123614D01*
X157020893Y-118274609D01*
X157557284Y-118633015D01*
X158030287Y-118727101D01*
X158349715Y-118727101D01*
X158822718Y-118633015D01*
X159359109Y-118274609D01*
X159460001Y-118123614D01*
X159560893Y-118274609D01*
X160097284Y-118633015D01*
X160570287Y-118727101D01*
X160889715Y-118727101D01*
X161362718Y-118633015D01*
X161899109Y-118274609D01*
X162000001Y-118123614D01*
X162100893Y-118274609D01*
X162637284Y-118633015D01*
X163110287Y-118727101D01*
X163429715Y-118727101D01*
X163902718Y-118633015D01*
X164439109Y-118274609D01*
X164797515Y-117738218D01*
X164923370Y-117105501D01*
X164797515Y-116472784D01*
X164439109Y-115936393D01*
X163902718Y-115577987D01*
X163647807Y-115527282D01*
X168328530Y-115527282D01*
X168328530Y-116425518D01*
X168672270Y-117255380D01*
X169307420Y-117890530D01*
X170137282Y-118234270D01*
X171035518Y-118234270D01*
X171865380Y-117890530D01*
X172500530Y-117255380D01*
X172844270Y-116425518D01*
X172844270Y-115527282D01*
X172500530Y-114697420D01*
X171865380Y-114062270D01*
X171035518Y-113718530D01*
X170137282Y-113718530D01*
X169307420Y-114062270D01*
X168672270Y-114697420D01*
X168328530Y-115527282D01*
X163647807Y-115527282D01*
X163429715Y-115483901D01*
X163110287Y-115483901D01*
X162637284Y-115577987D01*
X162100893Y-115936393D01*
X162000001Y-116087388D01*
X161899109Y-115936393D01*
X161362718Y-115577987D01*
X160889715Y-115483901D01*
X160570287Y-115483901D01*
X160097284Y-115577987D01*
X159560893Y-115936393D01*
X159460001Y-116087388D01*
X159359109Y-115936393D01*
X158822718Y-115577987D01*
X158349715Y-115483901D01*
X158030287Y-115483901D01*
X157557284Y-115577987D01*
X157020893Y-115936393D01*
X156920001Y-116087388D01*
X156819109Y-115936393D01*
X156282718Y-115577987D01*
X155809715Y-115483901D01*
X155490287Y-115483901D01*
X155017284Y-115577987D01*
X154480893Y-115936393D01*
X154380001Y-116087388D01*
X154279109Y-115936393D01*
X153742718Y-115577987D01*
X153269715Y-115483901D01*
X152950287Y-115483901D01*
X152477284Y-115577987D01*
X151940893Y-115936393D01*
X151840001Y-116087388D01*
X151739109Y-115936393D01*
X151202718Y-115577987D01*
X150729715Y-115483901D01*
X150410287Y-115483901D01*
X149937284Y-115577987D01*
X149400893Y-115936393D01*
X149042487Y-116472784D01*
X148916632Y-117105501D01*
X147143370Y-117105501D01*
X147017515Y-116472784D01*
X146659109Y-115936393D01*
X146122718Y-115577987D01*
X145649715Y-115483901D01*
X145330287Y-115483901D01*
X144857284Y-115577987D01*
X144320893Y-115936393D01*
X144208831Y-116104105D01*
X143800693Y-115724954D01*
X143207625Y-115504496D01*
X142954001Y-115673406D01*
X142946001Y-115673406D01*
X142692377Y-115504496D01*
X142099309Y-115724954D01*
X141680001Y-116114482D01*
X141260693Y-115724954D01*
X140667625Y-115504496D01*
X140414001Y-115673406D01*
X140406001Y-115673406D01*
X140152377Y-115504496D01*
X139559309Y-115724954D01*
X139151171Y-116104105D01*
X139039109Y-115936393D01*
X138502718Y-115577987D01*
X138029715Y-115483901D01*
X137710287Y-115483901D01*
X137237284Y-115577987D01*
X136700893Y-115936393D01*
X136600001Y-116087388D01*
X136499109Y-115936393D01*
X135962718Y-115577987D01*
X135489715Y-115483901D01*
X135170287Y-115483901D01*
X134697284Y-115577987D01*
X134160893Y-115936393D01*
X134060001Y-116087388D01*
X133959109Y-115936393D01*
X133422718Y-115577987D01*
X132949715Y-115483901D01*
X132630287Y-115483901D01*
X132157284Y-115577987D01*
X131620893Y-115936393D01*
X131520001Y-116087388D01*
X131419109Y-115936393D01*
X130882718Y-115577987D01*
X130409715Y-115483901D01*
X130090287Y-115483901D01*
X129617284Y-115577987D01*
X129080893Y-115936393D01*
X128980001Y-116087388D01*
X128879109Y-115936393D01*
X128342718Y-115577987D01*
X127869715Y-115483901D01*
X127550287Y-115483901D01*
X127077284Y-115577987D01*
X126540893Y-115936393D01*
X126182487Y-116472784D01*
X126056632Y-117105501D01*
X123409429Y-117105501D01*
X123507572Y-116841497D01*
X123338495Y-116590000D01*
X121924000Y-116590000D01*
X121916000Y-116590000D01*
X121896000Y-116590000D01*
X121896000Y-116582000D01*
X121916000Y-116582000D01*
X121916000Y-115167506D01*
X121924000Y-115167506D01*
X121924000Y-116582000D01*
X123338495Y-116582000D01*
X123507572Y-116330503D01*
X123288951Y-115742414D01*
X122861919Y-115282753D01*
X122291489Y-115021500D01*
X122175497Y-114998428D01*
X121924000Y-115167506D01*
X121916000Y-115167506D01*
X121664503Y-114998428D01*
X121548511Y-115021500D01*
X120978081Y-115282753D01*
X120897061Y-115369964D01*
X120776487Y-115189513D01*
X120525757Y-115021980D01*
X120230000Y-114963150D01*
X118530000Y-114963150D01*
X118234243Y-115021980D01*
X117983513Y-115189513D01*
X117815980Y-115440243D01*
X117757150Y-115736000D01*
X115705216Y-115736000D01*
X115075701Y-115106485D01*
X114209036Y-114747501D01*
X113270966Y-114747501D01*
X112404301Y-115106485D01*
X111740985Y-115769801D01*
X111382001Y-116636466D01*
X111382001Y-117574536D01*
X111740985Y-118441201D01*
X112404301Y-119104517D01*
X112591362Y-119182000D01*
X91638000Y-119182000D01*
X91638000Y-115527282D01*
X92585730Y-115527282D01*
X92585730Y-116425518D01*
X92929470Y-117255380D01*
X93564620Y-117890530D01*
X94394482Y-118234270D01*
X95292718Y-118234270D01*
X96122580Y-117890530D01*
X96757730Y-117255380D01*
X97101470Y-116425518D01*
X97101470Y-115527282D01*
X96757730Y-114697420D01*
X96122580Y-114062270D01*
X95292718Y-113718530D01*
X94394482Y-113718530D01*
X93564620Y-114062270D01*
X92929470Y-114697420D01*
X92585730Y-115527282D01*
X91638000Y-115527282D01*
X91638000Y-111252000D01*
X117740498Y-111252000D01*
X117865298Y-111879410D01*
X118220697Y-112411303D01*
X118752590Y-112766702D01*
X119221629Y-112860000D01*
X119538371Y-112860000D01*
X120007410Y-112766702D01*
X120539303Y-112411303D01*
X120650000Y-112245633D01*
X120760697Y-112411303D01*
X120771833Y-112418744D01*
X120764804Y-112454081D01*
X120787000Y-112565667D01*
X120852738Y-112896154D01*
X121103153Y-113270928D01*
X121197755Y-113334139D01*
X122885863Y-115022248D01*
X122949072Y-115116847D01*
X123323845Y-115367262D01*
X123654332Y-115433000D01*
X123654333Y-115433000D01*
X123765919Y-115455196D01*
X123877505Y-115433000D01*
X138318414Y-115433000D01*
X138430000Y-115455196D01*
X138541586Y-115433000D01*
X138541587Y-115433000D01*
X138872074Y-115367262D01*
X139246847Y-115116847D01*
X139310058Y-115022245D01*
X141438248Y-112894056D01*
X141532847Y-112830847D01*
X141783262Y-112456074D01*
X141849000Y-112125587D01*
X141849000Y-112125583D01*
X141871195Y-112014001D01*
X141849000Y-111902419D01*
X141849000Y-111539878D01*
X141875303Y-111522303D01*
X141986000Y-111356633D01*
X142096697Y-111522303D01*
X142628590Y-111877702D01*
X143097629Y-111971000D01*
X143414371Y-111971000D01*
X143883410Y-111877702D01*
X144288703Y-111606894D01*
X144303399Y-111642373D01*
X144516628Y-111855602D01*
X144795225Y-111971000D01*
X145602500Y-111971000D01*
X145792000Y-111781500D01*
X145792000Y-110367000D01*
X145800000Y-110367000D01*
X145800000Y-111781500D01*
X145989500Y-111971000D01*
X146796775Y-111971000D01*
X147075372Y-111855602D01*
X147288601Y-111642373D01*
X147404000Y-111363776D01*
X147404000Y-110556500D01*
X147214500Y-110367000D01*
X145800000Y-110367000D01*
X145792000Y-110367000D01*
X145772000Y-110367000D01*
X145772000Y-110359000D01*
X145792000Y-110359000D01*
X145792000Y-108944500D01*
X145800000Y-108944500D01*
X145800000Y-110359000D01*
X147214500Y-110359000D01*
X147404000Y-110169500D01*
X147404000Y-110071000D01*
X149811150Y-110071000D01*
X149811150Y-111671000D01*
X149869980Y-111966757D01*
X150037513Y-112217487D01*
X150288243Y-112385020D01*
X150584000Y-112443850D01*
X152184000Y-112443850D01*
X152479757Y-112385020D01*
X152730487Y-112217487D01*
X152855293Y-112030703D01*
X153316099Y-112338604D01*
X153770550Y-112429000D01*
X154077450Y-112429000D01*
X154531901Y-112338604D01*
X155047255Y-111994255D01*
X155194000Y-111774636D01*
X155340745Y-111994255D01*
X155856099Y-112338604D01*
X156310550Y-112429000D01*
X156617450Y-112429000D01*
X157071901Y-112338604D01*
X157587255Y-111994255D01*
X157734000Y-111774636D01*
X157880745Y-111994255D01*
X158396099Y-112338604D01*
X158850550Y-112429000D01*
X159157450Y-112429000D01*
X159611901Y-112338604D01*
X160127255Y-111994255D01*
X160419776Y-111556466D01*
X163452001Y-111556466D01*
X163452001Y-112494536D01*
X163810985Y-113361201D01*
X164474301Y-114024517D01*
X165340966Y-114383501D01*
X166279036Y-114383501D01*
X167145701Y-114024517D01*
X167809017Y-113361201D01*
X168168001Y-112494536D01*
X168168001Y-111556466D01*
X167809017Y-110689801D01*
X167145701Y-110026485D01*
X166279036Y-109667501D01*
X165340966Y-109667501D01*
X164474301Y-110026485D01*
X163810985Y-110689801D01*
X163452001Y-111556466D01*
X160419776Y-111556466D01*
X160471604Y-111478901D01*
X160592523Y-110871000D01*
X160471604Y-110263099D01*
X160127255Y-109747745D01*
X159611901Y-109403396D01*
X159157450Y-109313000D01*
X158850550Y-109313000D01*
X158396099Y-109403396D01*
X157880745Y-109747745D01*
X157734000Y-109967364D01*
X157587255Y-109747745D01*
X157071901Y-109403396D01*
X156617450Y-109313000D01*
X156310550Y-109313000D01*
X155856099Y-109403396D01*
X155340745Y-109747745D01*
X155194000Y-109967364D01*
X155047255Y-109747745D01*
X154531901Y-109403396D01*
X154077450Y-109313000D01*
X153770550Y-109313000D01*
X153316099Y-109403396D01*
X152855293Y-109711297D01*
X152730487Y-109524513D01*
X152479757Y-109356980D01*
X152184000Y-109298150D01*
X150584000Y-109298150D01*
X150288243Y-109356980D01*
X150037513Y-109524513D01*
X149869980Y-109775243D01*
X149811150Y-110071000D01*
X147404000Y-110071000D01*
X147404000Y-109362224D01*
X147288601Y-109083627D01*
X147075372Y-108870398D01*
X146796775Y-108755000D01*
X145989500Y-108755000D01*
X145800000Y-108944500D01*
X145792000Y-108944500D01*
X145602500Y-108755000D01*
X144795225Y-108755000D01*
X144516628Y-108870398D01*
X144303399Y-109083627D01*
X144288703Y-109119106D01*
X143883410Y-108848298D01*
X143414371Y-108755000D01*
X143097629Y-108755000D01*
X142628590Y-108848298D01*
X142096697Y-109203697D01*
X141986000Y-109369367D01*
X141875303Y-109203697D01*
X141343410Y-108848298D01*
X140874371Y-108755000D01*
X140557629Y-108755000D01*
X140088590Y-108848298D01*
X139556697Y-109203697D01*
X139201298Y-109735590D01*
X139076498Y-110363000D01*
X139201298Y-110990410D01*
X139556697Y-111522303D01*
X139583000Y-111539878D01*
X139583000Y-111544696D01*
X137960697Y-113167000D01*
X124235223Y-113167000D01*
X123943073Y-112874850D01*
X125310000Y-112874850D01*
X125605757Y-112816020D01*
X125856487Y-112648487D01*
X126024020Y-112397757D01*
X126082850Y-112102000D01*
X126082850Y-110475000D01*
X130593650Y-110475000D01*
X130593650Y-111775000D01*
X130652480Y-112070757D01*
X130820013Y-112321487D01*
X131070743Y-112489020D01*
X131366500Y-112547850D01*
X132666500Y-112547850D01*
X132962257Y-112489020D01*
X133212987Y-112321487D01*
X133380520Y-112070757D01*
X133392816Y-112008939D01*
X133678218Y-112008939D01*
X133715925Y-112288758D01*
X134225261Y-112521846D01*
X134785025Y-112542277D01*
X135309998Y-112346941D01*
X135397075Y-112288758D01*
X135434782Y-112008939D01*
X134556500Y-111130657D01*
X133678218Y-112008939D01*
X133392816Y-112008939D01*
X133401215Y-111966717D01*
X133672561Y-112003282D01*
X134550843Y-111125000D01*
X134562157Y-111125000D01*
X135440439Y-112003282D01*
X135720258Y-111965575D01*
X135953346Y-111456239D01*
X135973777Y-110896475D01*
X135778441Y-110371502D01*
X135720258Y-110284425D01*
X135440439Y-110246718D01*
X134562157Y-111125000D01*
X134550843Y-111125000D01*
X134536701Y-111110858D01*
X134542358Y-111105201D01*
X134556500Y-111119343D01*
X135434782Y-110241061D01*
X135397075Y-109961242D01*
X134887739Y-109728154D01*
X134694500Y-109721101D01*
X134694500Y-109574931D01*
X134480144Y-109057432D01*
X134084068Y-108661356D01*
X133566569Y-108447000D01*
X133006431Y-108447000D01*
X132488932Y-108661356D01*
X132092856Y-109057432D01*
X131878500Y-109574931D01*
X131878500Y-109702150D01*
X131366500Y-109702150D01*
X131070743Y-109760980D01*
X130820013Y-109928513D01*
X130652480Y-110179243D01*
X130593650Y-110475000D01*
X126082850Y-110475000D01*
X126082850Y-110402000D01*
X126024020Y-110106243D01*
X125856487Y-109855513D01*
X125605757Y-109687980D01*
X125310000Y-109629150D01*
X123610000Y-109629150D01*
X123314243Y-109687980D01*
X123063513Y-109855513D01*
X122958822Y-110012194D01*
X122547410Y-109737298D01*
X122078371Y-109644000D01*
X121761629Y-109644000D01*
X121292590Y-109737298D01*
X120760697Y-110092697D01*
X120650000Y-110258367D01*
X120539303Y-110092697D01*
X120007410Y-109737298D01*
X119538371Y-109644000D01*
X119221629Y-109644000D01*
X118752590Y-109737298D01*
X118220697Y-110092697D01*
X117865298Y-110624590D01*
X117740498Y-111252000D01*
X91638000Y-111252000D01*
X91638000Y-108902083D01*
X113313574Y-108902083D01*
X113369529Y-109197489D01*
X113933058Y-109455561D01*
X114552450Y-109478335D01*
X115133409Y-109262344D01*
X115230471Y-109197489D01*
X115286426Y-108902083D01*
X114300000Y-107915657D01*
X113313574Y-108902083D01*
X91638000Y-108902083D01*
X91638000Y-108162450D01*
X112731665Y-108162450D01*
X112947656Y-108743409D01*
X113012511Y-108840471D01*
X113307917Y-108896426D01*
X114294343Y-107910000D01*
X114305657Y-107910000D01*
X115292083Y-108896426D01*
X115587489Y-108840471D01*
X115845561Y-108276942D01*
X115868335Y-107657550D01*
X115652344Y-107076591D01*
X115587489Y-106979529D01*
X115292083Y-106923574D01*
X114305657Y-107910000D01*
X114294343Y-107910000D01*
X113307917Y-106923574D01*
X113012511Y-106979529D01*
X112754439Y-107543058D01*
X112731665Y-108162450D01*
X91638000Y-108162450D01*
X91638000Y-105628497D01*
X92052000Y-105628497D01*
X92052000Y-106395503D01*
X92345520Y-107104124D01*
X92887876Y-107646480D01*
X93596497Y-107940000D01*
X94363503Y-107940000D01*
X95072124Y-107646480D01*
X95614480Y-107104124D01*
X95908000Y-106395503D01*
X95908000Y-105628497D01*
X95614480Y-104919876D01*
X95072124Y-104377520D01*
X94363503Y-104084000D01*
X93596497Y-104084000D01*
X92887876Y-104377520D01*
X92345520Y-104919876D01*
X92052000Y-105628497D01*
X91638000Y-105628497D01*
X91638000Y-100628497D01*
X92052000Y-100628497D01*
X92052000Y-101395503D01*
X92345520Y-102104124D01*
X92887876Y-102646480D01*
X93596497Y-102940000D01*
X94363503Y-102940000D01*
X95072124Y-102646480D01*
X95614480Y-102104124D01*
X95908000Y-101395503D01*
X95908000Y-100628497D01*
X95614480Y-99919876D01*
X95072124Y-99377520D01*
X94363503Y-99084000D01*
X93596497Y-99084000D01*
X92887876Y-99377520D01*
X92345520Y-99919876D01*
X92052000Y-100628497D01*
X91638000Y-100628497D01*
X91638000Y-95628497D01*
X92052000Y-95628497D01*
X92052000Y-96395503D01*
X92345520Y-97104124D01*
X92887876Y-97646480D01*
X93596497Y-97940000D01*
X94363503Y-97940000D01*
X95072124Y-97646480D01*
X95614480Y-97104124D01*
X95908000Y-96395503D01*
X95908000Y-95628497D01*
X95614480Y-94919876D01*
X95072124Y-94377520D01*
X94363503Y-94084000D01*
X93596497Y-94084000D01*
X92887876Y-94377520D01*
X92345520Y-94919876D01*
X92052000Y-95628497D01*
X91638000Y-95628497D01*
X91638000Y-91782483D01*
X95457374Y-91782483D01*
X95513329Y-92077889D01*
X96076858Y-92335961D01*
X96696250Y-92358735D01*
X97277209Y-92142744D01*
X97374271Y-92077889D01*
X97430226Y-91782483D01*
X96443800Y-90796057D01*
X95457374Y-91782483D01*
X91638000Y-91782483D01*
X91638000Y-91042850D01*
X94875465Y-91042850D01*
X95091456Y-91623809D01*
X95156311Y-91720871D01*
X95451717Y-91776826D01*
X96438143Y-90790400D01*
X96449457Y-90790400D01*
X97435883Y-91776826D01*
X97731289Y-91720871D01*
X97989361Y-91157342D01*
X98006751Y-90684375D01*
X98461612Y-90684375D01*
X98483919Y-90796517D01*
X98737004Y-91349230D01*
X99182339Y-91763019D01*
X99752125Y-91974888D01*
X99995800Y-91805195D01*
X99995800Y-90440700D01*
X98631306Y-90440700D01*
X98461612Y-90684375D01*
X98006751Y-90684375D01*
X98012135Y-90537950D01*
X97796144Y-89956991D01*
X97731289Y-89859929D01*
X97435883Y-89803974D01*
X96449457Y-90790400D01*
X96438143Y-90790400D01*
X95451717Y-89803974D01*
X95156311Y-89859929D01*
X94898239Y-90423458D01*
X94875465Y-91042850D01*
X91638000Y-91042850D01*
X91638000Y-87980495D01*
X94885800Y-87980495D01*
X94885800Y-88600305D01*
X95122991Y-89172936D01*
X95503716Y-89553661D01*
X95457374Y-89798317D01*
X96443800Y-90784743D01*
X97430226Y-89798317D01*
X97383884Y-89553661D01*
X97764609Y-89172936D01*
X98001800Y-88600305D01*
X98001800Y-87980495D01*
X97764609Y-87407864D01*
X97326336Y-86969591D01*
X96753705Y-86732400D01*
X96133895Y-86732400D01*
X95561264Y-86969591D01*
X95122991Y-87407864D01*
X94885800Y-87980495D01*
X91638000Y-87980495D01*
X91638000Y-71082800D01*
X91823750Y-71082800D01*
X91823750Y-72782800D01*
X91882580Y-73078557D01*
X92050113Y-73329287D01*
X92300843Y-73496820D01*
X92596600Y-73555650D01*
X94296600Y-73555650D01*
X94592357Y-73496820D01*
X94843087Y-73329287D01*
X94947778Y-73172606D01*
X95359190Y-73447502D01*
X95828229Y-73540800D01*
X96144971Y-73540800D01*
X96614010Y-73447502D01*
X96668601Y-73411025D01*
X96668602Y-85720220D01*
X96648854Y-85819499D01*
X96727087Y-86212800D01*
X96727088Y-86212801D01*
X96949875Y-86546226D01*
X97034037Y-86602461D01*
X99444482Y-89012906D01*
X99182339Y-89110381D01*
X98737004Y-89524170D01*
X98483919Y-90076883D01*
X98461612Y-90189025D01*
X98631306Y-90432700D01*
X99995800Y-90432700D01*
X99995800Y-90412700D01*
X100003800Y-90412700D01*
X100003800Y-90432700D01*
X100023800Y-90432700D01*
X100023800Y-90440700D01*
X100003800Y-90440700D01*
X100003800Y-91805195D01*
X100247475Y-91974888D01*
X100817261Y-91763019D01*
X101262596Y-91349230D01*
X101425355Y-90993780D01*
X102892000Y-92460425D01*
X102892000Y-92566562D01*
X102715901Y-92448896D01*
X102261450Y-92358500D01*
X101954550Y-92358500D01*
X101500099Y-92448896D01*
X100984745Y-92793245D01*
X100640396Y-93308599D01*
X100519477Y-93916500D01*
X100640396Y-94524401D01*
X100984745Y-95039755D01*
X101500099Y-95384104D01*
X101954550Y-95474500D01*
X102261450Y-95474500D01*
X102715901Y-95384104D01*
X102892001Y-95266438D01*
X102892001Y-96961721D01*
X102872253Y-97061000D01*
X102950486Y-97454301D01*
X102986969Y-97508901D01*
X103173274Y-97787727D01*
X103257436Y-97843962D01*
X104718520Y-99305046D01*
X104691477Y-99441000D01*
X104812396Y-100048901D01*
X105156745Y-100564255D01*
X105376364Y-100711000D01*
X105156745Y-100857745D01*
X104812396Y-101373099D01*
X104691477Y-101981000D01*
X104799289Y-102523010D01*
X103388667Y-102523010D01*
X103356751Y-102491094D01*
X103428809Y-102419036D01*
X103666000Y-101846405D01*
X103666000Y-101226595D01*
X103428809Y-100653964D01*
X102990536Y-100215691D01*
X102417905Y-99978500D01*
X101798095Y-99978500D01*
X101225464Y-100215691D01*
X100787191Y-100653964D01*
X100550000Y-101226595D01*
X100550000Y-101846405D01*
X100787191Y-102419036D01*
X101091235Y-102723080D01*
X101137168Y-102954000D01*
X101158486Y-103061171D01*
X101381273Y-103394597D01*
X101465438Y-103450834D01*
X101934159Y-103919556D01*
X101500099Y-104005896D01*
X100984745Y-104350245D01*
X100640396Y-104865599D01*
X100519477Y-105473500D01*
X100640396Y-106081401D01*
X100984745Y-106596755D01*
X101500099Y-106941104D01*
X101954550Y-107031500D01*
X102261450Y-107031500D01*
X102715901Y-106941104D01*
X103231255Y-106596755D01*
X103575604Y-106081401D01*
X103696523Y-105473500D01*
X103575604Y-104865599D01*
X103357384Y-104539010D01*
X108459145Y-104539010D01*
X108407191Y-104590964D01*
X108170000Y-105163595D01*
X108170000Y-105783405D01*
X108407191Y-106356036D01*
X108845464Y-106794309D01*
X109418095Y-107031500D01*
X110037905Y-107031500D01*
X110610536Y-106794309D01*
X111048809Y-106356036D01*
X111286000Y-105783405D01*
X111286000Y-105163595D01*
X111259698Y-105100095D01*
X112742000Y-105100095D01*
X112742000Y-105719905D01*
X112979191Y-106292536D01*
X113359916Y-106673261D01*
X113313574Y-106917917D01*
X114300000Y-107904343D01*
X115286426Y-106917917D01*
X115240084Y-106673261D01*
X115620809Y-106292536D01*
X115855026Y-105727083D01*
X133125574Y-105727083D01*
X133181529Y-106022489D01*
X133745058Y-106280561D01*
X134364450Y-106303335D01*
X134945409Y-106087344D01*
X135042471Y-106022489D01*
X135098426Y-105727083D01*
X134112000Y-104740657D01*
X133125574Y-105727083D01*
X115855026Y-105727083D01*
X115858000Y-105719905D01*
X115858000Y-105100095D01*
X115620809Y-104527464D01*
X115182536Y-104089191D01*
X114866542Y-103958302D01*
X126311244Y-103958302D01*
X126405343Y-104291970D01*
X126731062Y-104782252D01*
X127219610Y-105110566D01*
X127796610Y-105226930D01*
X127996000Y-105226930D01*
X127996000Y-103722360D01*
X128004000Y-103722360D01*
X128004000Y-105226930D01*
X128203390Y-105226930D01*
X128780390Y-105110566D01*
X128963592Y-104987450D01*
X132543665Y-104987450D01*
X132759656Y-105568409D01*
X132824511Y-105665471D01*
X133119917Y-105721426D01*
X134106343Y-104735000D01*
X134117657Y-104735000D01*
X135104083Y-105721426D01*
X135399489Y-105665471D01*
X135657561Y-105101942D01*
X135680335Y-104482550D01*
X135464344Y-103901591D01*
X135399489Y-103804529D01*
X135104083Y-103748574D01*
X134117657Y-104735000D01*
X134106343Y-104735000D01*
X133119917Y-103748574D01*
X132824511Y-103804529D01*
X132566439Y-104368058D01*
X132543665Y-104987450D01*
X128963592Y-104987450D01*
X129268938Y-104782252D01*
X129594657Y-104291970D01*
X129688756Y-103958302D01*
X129518454Y-103722360D01*
X128004000Y-103722360D01*
X127996000Y-103722360D01*
X126481546Y-103722360D01*
X126311244Y-103958302D01*
X114866542Y-103958302D01*
X114609905Y-103852000D01*
X113990095Y-103852000D01*
X113417464Y-104089191D01*
X112979191Y-104527464D01*
X112742000Y-105100095D01*
X111259698Y-105100095D01*
X111048809Y-104590964D01*
X110610536Y-104152691D01*
X110177291Y-103973235D01*
X112346724Y-101803803D01*
X112311477Y-101981000D01*
X112432396Y-102588901D01*
X112776745Y-103104255D01*
X113292099Y-103448604D01*
X113746550Y-103539000D01*
X114853450Y-103539000D01*
X115307901Y-103448604D01*
X115823255Y-103104255D01*
X116167604Y-102588901D01*
X116288523Y-101981000D01*
X116167604Y-101373099D01*
X115823255Y-100857745D01*
X115603636Y-100711000D01*
X115823255Y-100564255D01*
X116167604Y-100048901D01*
X116288523Y-99441000D01*
X116167604Y-98833099D01*
X116097379Y-98728000D01*
X118950150Y-98728000D01*
X118950150Y-100328000D01*
X119008980Y-100623757D01*
X119176513Y-100874487D01*
X119427243Y-101042020D01*
X119723000Y-101100850D01*
X121323000Y-101100850D01*
X121618757Y-101042020D01*
X121869487Y-100874487D01*
X122037020Y-100623757D01*
X122095850Y-100328000D01*
X122095850Y-98728000D01*
X122094188Y-98719640D01*
X126262486Y-98719640D01*
X126379569Y-99308255D01*
X126712992Y-99807258D01*
X126955535Y-99969320D01*
X126712992Y-100131382D01*
X126379569Y-100630385D01*
X126262486Y-101219000D01*
X126379569Y-101807615D01*
X126712992Y-102306618D01*
X126981604Y-102486099D01*
X126731062Y-102654468D01*
X126405343Y-103144750D01*
X126311244Y-103478418D01*
X126481546Y-103714360D01*
X127996000Y-103714360D01*
X127996000Y-103694360D01*
X128004000Y-103694360D01*
X128004000Y-103714360D01*
X129518454Y-103714360D01*
X129688756Y-103478418D01*
X129594657Y-103144750D01*
X129268938Y-102654468D01*
X129018396Y-102486099D01*
X129287008Y-102306618D01*
X129541933Y-101925095D01*
X132554000Y-101925095D01*
X132554000Y-102544905D01*
X132791191Y-103117536D01*
X133171916Y-103498261D01*
X133125574Y-103742917D01*
X134112000Y-104729343D01*
X135098426Y-103742917D01*
X135052084Y-103498261D01*
X135432809Y-103117536D01*
X135519187Y-102909000D01*
X139093150Y-102909000D01*
X139093150Y-104609000D01*
X139151980Y-104904757D01*
X139319513Y-105155487D01*
X139570243Y-105323020D01*
X139866000Y-105381850D01*
X141566000Y-105381850D01*
X141861757Y-105323020D01*
X142112487Y-105155487D01*
X142217178Y-104998806D01*
X142628590Y-105273702D01*
X143097629Y-105367000D01*
X143414371Y-105367000D01*
X143883410Y-105273702D01*
X144415303Y-104918303D01*
X144542920Y-104727310D01*
X144854081Y-105062247D01*
X145424511Y-105323500D01*
X145540503Y-105346572D01*
X145792000Y-105177494D01*
X145792000Y-103763000D01*
X145800000Y-103763000D01*
X145800000Y-105177494D01*
X146051497Y-105346572D01*
X146167489Y-105323500D01*
X146737919Y-105062247D01*
X147164951Y-104602586D01*
X147383572Y-104014497D01*
X147214495Y-103763000D01*
X145800000Y-103763000D01*
X145792000Y-103763000D01*
X145772000Y-103763000D01*
X145772000Y-103755000D01*
X145792000Y-103755000D01*
X145792000Y-102340506D01*
X145800000Y-102340506D01*
X145800000Y-103755000D01*
X147214495Y-103755000D01*
X147383572Y-103503503D01*
X147289705Y-103251000D01*
X149795477Y-103251000D01*
X149916396Y-103858901D01*
X150260745Y-104374255D01*
X150776099Y-104718604D01*
X151230550Y-104809000D01*
X151537450Y-104809000D01*
X151991901Y-104718604D01*
X152507255Y-104374255D01*
X152654000Y-104154636D01*
X152800745Y-104374255D01*
X153316099Y-104718604D01*
X153770550Y-104809000D01*
X154077450Y-104809000D01*
X154531901Y-104718604D01*
X155047255Y-104374255D01*
X155194000Y-104154636D01*
X155340745Y-104374255D01*
X155856099Y-104718604D01*
X156310550Y-104809000D01*
X156617450Y-104809000D01*
X157071901Y-104718604D01*
X157587255Y-104374255D01*
X157734000Y-104154636D01*
X157880745Y-104374255D01*
X158396099Y-104718604D01*
X158850550Y-104809000D01*
X159157450Y-104809000D01*
X159611901Y-104718604D01*
X160127255Y-104374255D01*
X160471604Y-103858901D01*
X160592523Y-103251000D01*
X160471604Y-102643099D01*
X160127255Y-102127745D01*
X159611901Y-101783396D01*
X159157450Y-101693000D01*
X158850550Y-101693000D01*
X158396099Y-101783396D01*
X157880745Y-102127745D01*
X157734000Y-102347364D01*
X157587255Y-102127745D01*
X157071901Y-101783396D01*
X156617450Y-101693000D01*
X156310550Y-101693000D01*
X155856099Y-101783396D01*
X155340745Y-102127745D01*
X155194000Y-102347364D01*
X155047255Y-102127745D01*
X154531901Y-101783396D01*
X154077450Y-101693000D01*
X153770550Y-101693000D01*
X153316099Y-101783396D01*
X152800745Y-102127745D01*
X152654000Y-102347364D01*
X152507255Y-102127745D01*
X151991901Y-101783396D01*
X151537450Y-101693000D01*
X151230550Y-101693000D01*
X150776099Y-101783396D01*
X150260745Y-102127745D01*
X149916396Y-102643099D01*
X149795477Y-103251000D01*
X147289705Y-103251000D01*
X147164951Y-102915414D01*
X146737919Y-102455753D01*
X146167489Y-102194500D01*
X146051497Y-102171428D01*
X145800000Y-102340506D01*
X145792000Y-102340506D01*
X145540503Y-102171428D01*
X145424511Y-102194500D01*
X144854081Y-102455753D01*
X144542920Y-102790690D01*
X144415303Y-102599697D01*
X143883410Y-102244298D01*
X143414371Y-102151000D01*
X143097629Y-102151000D01*
X142628590Y-102244298D01*
X142217178Y-102519194D01*
X142112487Y-102362513D01*
X141861757Y-102194980D01*
X141566000Y-102136150D01*
X139866000Y-102136150D01*
X139570243Y-102194980D01*
X139319513Y-102362513D01*
X139151980Y-102613243D01*
X139093150Y-102909000D01*
X135519187Y-102909000D01*
X135670000Y-102544905D01*
X135670000Y-101925095D01*
X135432809Y-101352464D01*
X134994536Y-100914191D01*
X134421905Y-100677000D01*
X133802095Y-100677000D01*
X133229464Y-100914191D01*
X132791191Y-101352464D01*
X132554000Y-101925095D01*
X129541933Y-101925095D01*
X129620431Y-101807615D01*
X129737514Y-101219000D01*
X129620431Y-100630385D01*
X129287008Y-100131382D01*
X129044465Y-99969320D01*
X129287008Y-99807258D01*
X129620431Y-99308255D01*
X129737514Y-98719640D01*
X129729431Y-98679000D01*
X143699477Y-98679000D01*
X143820396Y-99286901D01*
X144164745Y-99802255D01*
X144680099Y-100146604D01*
X145134550Y-100237000D01*
X145441450Y-100237000D01*
X145895901Y-100146604D01*
X146411255Y-99802255D01*
X146755604Y-99286901D01*
X146876523Y-98679000D01*
X148271477Y-98679000D01*
X148392396Y-99286901D01*
X148736745Y-99802255D01*
X149252099Y-100146604D01*
X149706550Y-100237000D01*
X150013450Y-100237000D01*
X150467901Y-100146604D01*
X150983255Y-99802255D01*
X151327604Y-99286901D01*
X151448523Y-98679000D01*
X152843477Y-98679000D01*
X152964396Y-99286901D01*
X153308745Y-99802255D01*
X153824099Y-100146604D01*
X154278550Y-100237000D01*
X154585450Y-100237000D01*
X155039901Y-100146604D01*
X155555255Y-99802255D01*
X155899604Y-99286901D01*
X156020523Y-98679000D01*
X157415477Y-98679000D01*
X157536396Y-99286901D01*
X157880745Y-99802255D01*
X158396099Y-100146604D01*
X158850550Y-100237000D01*
X159157450Y-100237000D01*
X159611901Y-100146604D01*
X160127255Y-99802255D01*
X160471604Y-99286901D01*
X160567261Y-98806000D01*
X164857498Y-98806000D01*
X164982298Y-99433410D01*
X165337697Y-99965303D01*
X165503367Y-100076000D01*
X165337697Y-100186697D01*
X164982298Y-100718590D01*
X164857498Y-101346000D01*
X164982298Y-101973410D01*
X165337697Y-102505303D01*
X165503367Y-102616000D01*
X165337697Y-102726697D01*
X164982298Y-103258590D01*
X164857498Y-103886000D01*
X164982298Y-104513410D01*
X165257194Y-104924822D01*
X165100513Y-105029513D01*
X164932980Y-105280243D01*
X164874150Y-105576000D01*
X164874150Y-107276000D01*
X164932980Y-107571757D01*
X165100513Y-107822487D01*
X165351243Y-107990020D01*
X165647000Y-108048850D01*
X167347000Y-108048850D01*
X167642757Y-107990020D01*
X167893487Y-107822487D01*
X168061020Y-107571757D01*
X168119850Y-107276000D01*
X168119850Y-105576000D01*
X168061020Y-105280243D01*
X167893487Y-105029513D01*
X167736806Y-104924822D01*
X168011702Y-104513410D01*
X168136502Y-103886000D01*
X168011702Y-103258590D01*
X167656303Y-102726697D01*
X167490633Y-102616000D01*
X167656303Y-102505303D01*
X168011702Y-101973410D01*
X168136502Y-101346000D01*
X168011702Y-100718590D01*
X167656303Y-100186697D01*
X167490633Y-100076000D01*
X167656303Y-99965303D01*
X168011702Y-99433410D01*
X168136502Y-98806000D01*
X168011702Y-98178590D01*
X167656303Y-97646697D01*
X167124410Y-97291298D01*
X166655371Y-97198000D01*
X166338629Y-97198000D01*
X165869590Y-97291298D01*
X165337697Y-97646697D01*
X164982298Y-98178590D01*
X164857498Y-98806000D01*
X160567261Y-98806000D01*
X160592523Y-98679000D01*
X160471604Y-98071099D01*
X160127255Y-97555745D01*
X159925445Y-97420900D01*
X160324809Y-97021536D01*
X160562000Y-96448905D01*
X160562000Y-95829095D01*
X160324809Y-95256464D01*
X159886536Y-94818191D01*
X159313905Y-94581000D01*
X158694095Y-94581000D01*
X158121464Y-94818191D01*
X157683191Y-95256464D01*
X157446000Y-95829095D01*
X157446000Y-96448905D01*
X157683191Y-97021536D01*
X158082555Y-97420900D01*
X157880745Y-97555745D01*
X157536396Y-98071099D01*
X157415477Y-98679000D01*
X156020523Y-98679000D01*
X155899604Y-98071099D01*
X155555255Y-97555745D01*
X155353445Y-97420900D01*
X155752809Y-97021536D01*
X155990000Y-96448905D01*
X155990000Y-95829095D01*
X155752809Y-95256464D01*
X155314536Y-94818191D01*
X154741905Y-94581000D01*
X154122095Y-94581000D01*
X153549464Y-94818191D01*
X153111191Y-95256464D01*
X152874000Y-95829095D01*
X152874000Y-96448905D01*
X153111191Y-97021536D01*
X153510555Y-97420900D01*
X153308745Y-97555745D01*
X152964396Y-98071099D01*
X152843477Y-98679000D01*
X151448523Y-98679000D01*
X151327604Y-98071099D01*
X150983255Y-97555745D01*
X150781445Y-97420900D01*
X151180809Y-97021536D01*
X151418000Y-96448905D01*
X151418000Y-95829095D01*
X151180809Y-95256464D01*
X150742536Y-94818191D01*
X150169905Y-94581000D01*
X149550095Y-94581000D01*
X148977464Y-94818191D01*
X148539191Y-95256464D01*
X148302000Y-95829095D01*
X148302000Y-96448905D01*
X148539191Y-97021536D01*
X148938555Y-97420900D01*
X148736745Y-97555745D01*
X148392396Y-98071099D01*
X148271477Y-98679000D01*
X146876523Y-98679000D01*
X146755604Y-98071099D01*
X146411255Y-97555745D01*
X146209445Y-97420900D01*
X146608809Y-97021536D01*
X146846000Y-96448905D01*
X146846000Y-95829095D01*
X146608809Y-95256464D01*
X146170536Y-94818191D01*
X145597905Y-94581000D01*
X144978095Y-94581000D01*
X144405464Y-94818191D01*
X143967191Y-95256464D01*
X143730000Y-95829095D01*
X143730000Y-96448905D01*
X143967191Y-97021536D01*
X144366555Y-97420900D01*
X144164745Y-97555745D01*
X143820396Y-98071099D01*
X143699477Y-98679000D01*
X129729431Y-98679000D01*
X129620431Y-98131025D01*
X129287008Y-97632022D01*
X128788005Y-97298599D01*
X128347968Y-97211070D01*
X127652032Y-97211070D01*
X127211995Y-97298599D01*
X126712992Y-97632022D01*
X126379569Y-98131025D01*
X126262486Y-98719640D01*
X122094188Y-98719640D01*
X122037020Y-98432243D01*
X121869487Y-98181513D01*
X121618757Y-98013980D01*
X121569336Y-98004150D01*
X121810489Y-97958471D01*
X122068561Y-97394942D01*
X122091335Y-96775550D01*
X121875344Y-96194591D01*
X121810489Y-96097529D01*
X121515083Y-96041574D01*
X120528657Y-97028000D01*
X120542799Y-97042142D01*
X120537142Y-97047799D01*
X120523000Y-97033657D01*
X120508858Y-97047799D01*
X120503201Y-97042142D01*
X120517343Y-97028000D01*
X119530917Y-96041574D01*
X119235511Y-96097529D01*
X118977439Y-96661058D01*
X118954665Y-97280450D01*
X119170656Y-97861409D01*
X119235511Y-97958471D01*
X119476664Y-98004150D01*
X119427243Y-98013980D01*
X119176513Y-98181513D01*
X119008980Y-98432243D01*
X118950150Y-98728000D01*
X116097379Y-98728000D01*
X115823255Y-98317745D01*
X115603636Y-98171000D01*
X115823255Y-98024255D01*
X116167604Y-97508901D01*
X116288523Y-96901000D01*
X116167604Y-96293099D01*
X115995761Y-96035917D01*
X119536574Y-96035917D01*
X120523000Y-97022343D01*
X121509426Y-96035917D01*
X121453471Y-95740511D01*
X120889942Y-95482439D01*
X120270550Y-95459665D01*
X119689591Y-95675656D01*
X119592529Y-95740511D01*
X119536574Y-96035917D01*
X115995761Y-96035917D01*
X115823255Y-95777745D01*
X115603636Y-95631000D01*
X115823255Y-95484255D01*
X116167604Y-94968901D01*
X116288523Y-94361000D01*
X116167604Y-93753099D01*
X115823255Y-93237745D01*
X115307901Y-92893396D01*
X114853450Y-92803000D01*
X113746550Y-92803000D01*
X113292099Y-92893396D01*
X112791329Y-93228000D01*
X112711586Y-93228000D01*
X112600000Y-93205804D01*
X112488414Y-93228000D01*
X112488413Y-93228000D01*
X112157926Y-93293738D01*
X111783153Y-93544153D01*
X111719944Y-93638752D01*
X109767755Y-95590942D01*
X109673153Y-95654153D01*
X109422738Y-96028927D01*
X109370191Y-96293099D01*
X109334804Y-96471000D01*
X109357000Y-96582586D01*
X109357001Y-99401695D01*
X108221002Y-100537694D01*
X108547604Y-100048901D01*
X108668523Y-99441000D01*
X108547604Y-98833099D01*
X108203255Y-98317745D01*
X107983636Y-98171000D01*
X108203255Y-98024255D01*
X108547604Y-97508901D01*
X108668523Y-96901000D01*
X108547604Y-96293099D01*
X108239790Y-95832423D01*
X108309373Y-95803601D01*
X108522602Y-95590372D01*
X108638000Y-95311775D01*
X108638000Y-94554500D01*
X108448500Y-94365000D01*
X106684000Y-94365000D01*
X106684000Y-94385000D01*
X106676000Y-94385000D01*
X106676000Y-94365000D01*
X106656000Y-94365000D01*
X106656000Y-94357000D01*
X106676000Y-94357000D01*
X106676000Y-92992500D01*
X106684000Y-92992500D01*
X106684000Y-94357000D01*
X108448500Y-94357000D01*
X108638000Y-94167500D01*
X108638000Y-93410225D01*
X108522602Y-93131628D01*
X108309373Y-92918399D01*
X108030776Y-92803000D01*
X106873500Y-92803000D01*
X106684000Y-92992500D01*
X106676000Y-92992500D01*
X106486500Y-92803000D01*
X105329224Y-92803000D01*
X105050627Y-92918399D01*
X104908000Y-93061026D01*
X104908000Y-92142168D01*
X104927746Y-92042897D01*
X104908000Y-91943625D01*
X104908000Y-91943624D01*
X104849514Y-91649596D01*
X104626727Y-91316171D01*
X104542565Y-91259936D01*
X103409424Y-90126795D01*
X106061800Y-90126795D01*
X106061800Y-90746605D01*
X106298991Y-91319236D01*
X106737264Y-91757509D01*
X107309895Y-91994700D01*
X107929705Y-91994700D01*
X108502336Y-91757509D01*
X108940609Y-91319236D01*
X109177800Y-90746605D01*
X109177800Y-90126795D01*
X109156061Y-90074312D01*
X109252700Y-90074312D01*
X109252700Y-90773688D01*
X109520340Y-91419827D01*
X110014873Y-91914360D01*
X110661012Y-92182000D01*
X111360388Y-92182000D01*
X112006527Y-91914360D01*
X112501060Y-91419827D01*
X112768700Y-90773688D01*
X112768700Y-90074312D01*
X113752700Y-90074312D01*
X113752700Y-90773688D01*
X114020340Y-91419827D01*
X114514873Y-91914360D01*
X115161012Y-92182000D01*
X115860388Y-92182000D01*
X116506527Y-91914360D01*
X116660387Y-91760500D01*
X117722000Y-91760500D01*
X117722000Y-92617776D01*
X117837399Y-92896373D01*
X118050628Y-93109602D01*
X118329225Y-93225000D01*
X119186500Y-93225000D01*
X119376000Y-93035500D01*
X119376000Y-91571000D01*
X119384000Y-91571000D01*
X119384000Y-93035500D01*
X119573500Y-93225000D01*
X120430775Y-93225000D01*
X120709372Y-93109602D01*
X120922601Y-92896373D01*
X121038000Y-92617776D01*
X121038000Y-91760500D01*
X123246500Y-91760500D01*
X123246500Y-92617776D01*
X123361899Y-92896373D01*
X123575128Y-93109602D01*
X123853725Y-93225000D01*
X124711000Y-93225000D01*
X124900500Y-93035500D01*
X124900500Y-91571000D01*
X124908500Y-91571000D01*
X124908500Y-93035500D01*
X125098000Y-93225000D01*
X125955275Y-93225000D01*
X126233872Y-93109602D01*
X126447101Y-92896373D01*
X126562500Y-92617776D01*
X126562500Y-91760500D01*
X128898000Y-91760500D01*
X128898000Y-92617776D01*
X129013399Y-92896373D01*
X129226628Y-93109602D01*
X129505225Y-93225000D01*
X130362500Y-93225000D01*
X130552000Y-93035500D01*
X130552000Y-91571000D01*
X130560000Y-91571000D01*
X130560000Y-93035500D01*
X130749500Y-93225000D01*
X131606775Y-93225000D01*
X131885372Y-93109602D01*
X132098601Y-92896373D01*
X132214000Y-92617776D01*
X132214000Y-91760500D01*
X134486000Y-91760500D01*
X134486000Y-92617776D01*
X134601399Y-92896373D01*
X134814628Y-93109602D01*
X135093225Y-93225000D01*
X135950500Y-93225000D01*
X136140000Y-93035500D01*
X136140000Y-91571000D01*
X136148000Y-91571000D01*
X136148000Y-93035500D01*
X136337500Y-93225000D01*
X137194775Y-93225000D01*
X137473372Y-93109602D01*
X137686601Y-92896373D01*
X137802000Y-92617776D01*
X137802000Y-91760500D01*
X140074000Y-91760500D01*
X140074000Y-92617776D01*
X140189399Y-92896373D01*
X140402628Y-93109602D01*
X140681225Y-93225000D01*
X141538500Y-93225000D01*
X141728000Y-93035500D01*
X141728000Y-91571000D01*
X141736000Y-91571000D01*
X141736000Y-93035500D01*
X141925500Y-93225000D01*
X142782775Y-93225000D01*
X143061372Y-93109602D01*
X143274601Y-92896373D01*
X143390000Y-92617776D01*
X143390000Y-91760500D01*
X145662000Y-91760500D01*
X145662000Y-92617776D01*
X145777399Y-92896373D01*
X145990628Y-93109602D01*
X146269225Y-93225000D01*
X147126500Y-93225000D01*
X147316000Y-93035500D01*
X147316000Y-91571000D01*
X147324000Y-91571000D01*
X147324000Y-93035500D01*
X147513500Y-93225000D01*
X148370775Y-93225000D01*
X148649372Y-93109602D01*
X148862601Y-92896373D01*
X148978000Y-92617776D01*
X148978000Y-91760500D01*
X151250000Y-91760500D01*
X151250000Y-92617776D01*
X151365399Y-92896373D01*
X151578628Y-93109602D01*
X151857225Y-93225000D01*
X152714500Y-93225000D01*
X152904000Y-93035500D01*
X152904000Y-91571000D01*
X152912000Y-91571000D01*
X152912000Y-93035500D01*
X153101500Y-93225000D01*
X153958775Y-93225000D01*
X154237372Y-93109602D01*
X154450601Y-92896373D01*
X154566000Y-92617776D01*
X154566000Y-91760500D01*
X156838000Y-91760500D01*
X156838000Y-92617776D01*
X156953399Y-92896373D01*
X157166628Y-93109602D01*
X157445225Y-93225000D01*
X158302500Y-93225000D01*
X158492000Y-93035500D01*
X158492000Y-91571000D01*
X158500000Y-91571000D01*
X158500000Y-93035500D01*
X158689500Y-93225000D01*
X159546775Y-93225000D01*
X159825372Y-93109602D01*
X160038601Y-92896373D01*
X160154000Y-92617776D01*
X160154000Y-91760500D01*
X159964500Y-91571000D01*
X158500000Y-91571000D01*
X158492000Y-91571000D01*
X157027500Y-91571000D01*
X156838000Y-91760500D01*
X154566000Y-91760500D01*
X154376500Y-91571000D01*
X152912000Y-91571000D01*
X152904000Y-91571000D01*
X151439500Y-91571000D01*
X151250000Y-91760500D01*
X148978000Y-91760500D01*
X148788500Y-91571000D01*
X147324000Y-91571000D01*
X147316000Y-91571000D01*
X145851500Y-91571000D01*
X145662000Y-91760500D01*
X143390000Y-91760500D01*
X143200500Y-91571000D01*
X141736000Y-91571000D01*
X141728000Y-91571000D01*
X140263500Y-91571000D01*
X140074000Y-91760500D01*
X137802000Y-91760500D01*
X137612500Y-91571000D01*
X136148000Y-91571000D01*
X136140000Y-91571000D01*
X134675500Y-91571000D01*
X134486000Y-91760500D01*
X132214000Y-91760500D01*
X132024500Y-91571000D01*
X130560000Y-91571000D01*
X130552000Y-91571000D01*
X129087500Y-91571000D01*
X128898000Y-91760500D01*
X126562500Y-91760500D01*
X126373000Y-91571000D01*
X124908500Y-91571000D01*
X124900500Y-91571000D01*
X123436000Y-91571000D01*
X123246500Y-91760500D01*
X121038000Y-91760500D01*
X120848500Y-91571000D01*
X119384000Y-91571000D01*
X119376000Y-91571000D01*
X117911500Y-91571000D01*
X117722000Y-91760500D01*
X116660387Y-91760500D01*
X117001060Y-91419827D01*
X117268700Y-90773688D01*
X117268700Y-90074312D01*
X117001060Y-89428173D01*
X116506527Y-88933640D01*
X115935719Y-88697203D01*
X117722000Y-88697203D01*
X117722000Y-89356797D01*
X117974416Y-89966181D01*
X118041631Y-90033396D01*
X117837399Y-90237627D01*
X117722000Y-90516224D01*
X117722000Y-91373500D01*
X117911500Y-91563000D01*
X119376000Y-91563000D01*
X119376000Y-91543000D01*
X119384000Y-91543000D01*
X119384000Y-91563000D01*
X120848500Y-91563000D01*
X121038000Y-91373500D01*
X121038000Y-90516224D01*
X120922601Y-90237627D01*
X120718370Y-90033396D01*
X120785584Y-89966181D01*
X121038000Y-89356797D01*
X121038000Y-88697203D01*
X120785584Y-88087819D01*
X120319181Y-87621416D01*
X119902645Y-87448880D01*
X120262536Y-87299809D01*
X120700809Y-86861536D01*
X120938000Y-86288905D01*
X120938000Y-85669095D01*
X120700809Y-85096464D01*
X120301445Y-84697100D01*
X120503255Y-84562255D01*
X120847604Y-84046901D01*
X120968523Y-83439000D01*
X120847604Y-82831099D01*
X120503255Y-82315745D01*
X120388000Y-82238734D01*
X120388000Y-80427526D01*
X121067527Y-79748000D01*
X124820474Y-79748000D01*
X124325438Y-80243036D01*
X124241273Y-80299273D01*
X124018487Y-80632698D01*
X124018486Y-80632699D01*
X123940253Y-81026000D01*
X123960000Y-81125275D01*
X123960001Y-82238734D01*
X123844745Y-82315745D01*
X123500396Y-82831099D01*
X123379477Y-83439000D01*
X123500396Y-84046901D01*
X123844745Y-84562255D01*
X124046555Y-84697100D01*
X123647191Y-85096464D01*
X123410000Y-85669095D01*
X123410000Y-86288905D01*
X123647191Y-86861536D01*
X124085464Y-87299809D01*
X124413605Y-87435729D01*
X123965319Y-87621416D01*
X123498916Y-88087819D01*
X123246500Y-88697203D01*
X123246500Y-89356797D01*
X123498916Y-89966181D01*
X123566131Y-90033396D01*
X123361899Y-90237627D01*
X123246500Y-90516224D01*
X123246500Y-91373500D01*
X123436000Y-91563000D01*
X124900500Y-91563000D01*
X124900500Y-91543000D01*
X124908500Y-91543000D01*
X124908500Y-91563000D01*
X126373000Y-91563000D01*
X126562500Y-91373500D01*
X126562500Y-90516224D01*
X126447101Y-90237627D01*
X126242870Y-90033396D01*
X126310084Y-89966181D01*
X126562500Y-89356797D01*
X126562500Y-88697203D01*
X126310084Y-88087819D01*
X125843681Y-87621416D01*
X125458895Y-87462032D01*
X125850536Y-87299809D01*
X126288809Y-86861536D01*
X126526000Y-86288905D01*
X126526000Y-85669095D01*
X126288809Y-85096464D01*
X125889445Y-84697100D01*
X126091255Y-84562255D01*
X126435604Y-84046901D01*
X126556523Y-83439000D01*
X126435604Y-82831099D01*
X126091255Y-82315745D01*
X125976000Y-82238734D01*
X125976000Y-81443526D01*
X126655527Y-80764000D01*
X130027474Y-80764000D01*
X129913438Y-80878036D01*
X129829273Y-80934273D01*
X129606487Y-81267698D01*
X129606486Y-81267699D01*
X129528253Y-81661000D01*
X129548000Y-81760275D01*
X129548000Y-82238734D01*
X129432745Y-82315745D01*
X129088396Y-82831099D01*
X128967477Y-83439000D01*
X129088396Y-84046901D01*
X129432745Y-84562255D01*
X129634555Y-84697100D01*
X129235191Y-85096464D01*
X128998000Y-85669095D01*
X128998000Y-86288905D01*
X129235191Y-86861536D01*
X129673464Y-87299809D01*
X130033355Y-87448880D01*
X129616819Y-87621416D01*
X129150416Y-88087819D01*
X128898000Y-88697203D01*
X128898000Y-89356797D01*
X129150416Y-89966181D01*
X129217631Y-90033396D01*
X129013399Y-90237627D01*
X128898000Y-90516224D01*
X128898000Y-91373500D01*
X129087500Y-91563000D01*
X130552000Y-91563000D01*
X130552000Y-91543000D01*
X130560000Y-91543000D01*
X130560000Y-91563000D01*
X132024500Y-91563000D01*
X132214000Y-91373500D01*
X132214000Y-90516224D01*
X132098601Y-90237627D01*
X131894370Y-90033396D01*
X131961584Y-89966181D01*
X132214000Y-89356797D01*
X132214000Y-88697203D01*
X131961584Y-88087819D01*
X131495181Y-87621416D01*
X131078645Y-87448880D01*
X131438536Y-87299809D01*
X131876809Y-86861536D01*
X132114000Y-86288905D01*
X132114000Y-85669095D01*
X131876809Y-85096464D01*
X131477445Y-84697100D01*
X131679255Y-84562255D01*
X132023604Y-84046901D01*
X132144523Y-83439000D01*
X134385478Y-83439000D01*
X134506397Y-84046901D01*
X134850746Y-84562255D01*
X135052556Y-84697100D01*
X134653192Y-85096464D01*
X134416001Y-85669095D01*
X134416001Y-86288905D01*
X134653192Y-86861536D01*
X135091465Y-87299809D01*
X135536356Y-87484088D01*
X135204819Y-87621416D01*
X134738416Y-88087819D01*
X134486000Y-88697203D01*
X134486000Y-89356797D01*
X134738416Y-89966181D01*
X134805631Y-90033396D01*
X134601399Y-90237627D01*
X134486000Y-90516224D01*
X134486000Y-91373500D01*
X134675500Y-91563000D01*
X136140000Y-91563000D01*
X136140000Y-91543000D01*
X136148000Y-91543000D01*
X136148000Y-91563000D01*
X137612500Y-91563000D01*
X137802000Y-91373500D01*
X137802000Y-90516224D01*
X137686601Y-90237627D01*
X137482370Y-90033396D01*
X137549584Y-89966181D01*
X137802000Y-89356797D01*
X137802000Y-88697203D01*
X140074000Y-88697203D01*
X140074000Y-89356797D01*
X140326416Y-89966181D01*
X140393631Y-90033396D01*
X140189399Y-90237627D01*
X140074000Y-90516224D01*
X140074000Y-91373500D01*
X140263500Y-91563000D01*
X141728000Y-91563000D01*
X141728000Y-91543000D01*
X141736000Y-91543000D01*
X141736000Y-91563000D01*
X143200500Y-91563000D01*
X143390000Y-91373500D01*
X143390000Y-90516224D01*
X143274601Y-90237627D01*
X143070370Y-90033396D01*
X143137584Y-89966181D01*
X143390000Y-89356797D01*
X143390000Y-88697203D01*
X145662000Y-88697203D01*
X145662000Y-89356797D01*
X145914416Y-89966181D01*
X145981631Y-90033396D01*
X145777399Y-90237627D01*
X145662000Y-90516224D01*
X145662000Y-91373500D01*
X145851500Y-91563000D01*
X147316000Y-91563000D01*
X147316000Y-91543000D01*
X147324000Y-91543000D01*
X147324000Y-91563000D01*
X148788500Y-91563000D01*
X148978000Y-91373500D01*
X148978000Y-90516224D01*
X148862601Y-90237627D01*
X148658370Y-90033396D01*
X148725584Y-89966181D01*
X148978000Y-89356797D01*
X148978000Y-88697203D01*
X151250000Y-88697203D01*
X151250000Y-89356797D01*
X151502416Y-89966181D01*
X151569631Y-90033396D01*
X151365399Y-90237627D01*
X151250000Y-90516224D01*
X151250000Y-91373500D01*
X151439500Y-91563000D01*
X152904000Y-91563000D01*
X152904000Y-91543000D01*
X152912000Y-91543000D01*
X152912000Y-91563000D01*
X154376500Y-91563000D01*
X154566000Y-91373500D01*
X154566000Y-90516224D01*
X154450601Y-90237627D01*
X154246370Y-90033396D01*
X154313584Y-89966181D01*
X154566000Y-89356797D01*
X154566000Y-88697203D01*
X156838000Y-88697203D01*
X156838000Y-89356797D01*
X157090416Y-89966181D01*
X157157631Y-90033396D01*
X156953399Y-90237627D01*
X156838000Y-90516224D01*
X156838000Y-91373500D01*
X157027500Y-91563000D01*
X158492000Y-91563000D01*
X158492000Y-91543000D01*
X158500000Y-91543000D01*
X158500000Y-91563000D01*
X159964500Y-91563000D01*
X160154000Y-91373500D01*
X160154000Y-90516224D01*
X160038601Y-90237627D01*
X159834370Y-90033396D01*
X159901584Y-89966181D01*
X160154000Y-89356797D01*
X160154000Y-89165501D01*
X161743632Y-89165501D01*
X161869487Y-89798218D01*
X162227893Y-90334609D01*
X162378888Y-90435501D01*
X162227893Y-90536393D01*
X161869487Y-91072784D01*
X161743632Y-91705501D01*
X161869487Y-92338218D01*
X162227893Y-92874609D01*
X162378888Y-92975501D01*
X162227893Y-93076393D01*
X161869487Y-93612784D01*
X161743632Y-94245501D01*
X161869487Y-94878218D01*
X162227893Y-95414609D01*
X162764284Y-95773015D01*
X163237287Y-95867101D01*
X163556715Y-95867101D01*
X164029718Y-95773015D01*
X164566109Y-95414609D01*
X164667001Y-95263614D01*
X164767893Y-95414609D01*
X165304284Y-95773015D01*
X165777287Y-95867101D01*
X166096715Y-95867101D01*
X166569718Y-95773015D01*
X167106109Y-95414609D01*
X167464515Y-94878218D01*
X167590370Y-94245501D01*
X167464515Y-93612784D01*
X167106109Y-93076393D01*
X166955114Y-92975501D01*
X167106109Y-92874609D01*
X167464515Y-92338218D01*
X167590370Y-91705501D01*
X167464515Y-91072784D01*
X167106109Y-90536393D01*
X166955114Y-90435501D01*
X167106109Y-90334609D01*
X167464515Y-89798218D01*
X167590370Y-89165501D01*
X167464515Y-88532784D01*
X167106109Y-87996393D01*
X166569718Y-87637987D01*
X166096715Y-87543901D01*
X165777287Y-87543901D01*
X165304284Y-87637987D01*
X164767893Y-87996393D01*
X164667001Y-88147388D01*
X164566109Y-87996393D01*
X164029718Y-87637987D01*
X163556715Y-87543901D01*
X163237287Y-87543901D01*
X162764284Y-87637987D01*
X162227893Y-87996393D01*
X161869487Y-88532784D01*
X161743632Y-89165501D01*
X160154000Y-89165501D01*
X160154000Y-88697203D01*
X159901584Y-88087819D01*
X159435181Y-87621416D01*
X159018645Y-87448880D01*
X159378536Y-87299809D01*
X159816809Y-86861536D01*
X160054000Y-86288905D01*
X160054000Y-85669095D01*
X159816809Y-85096464D01*
X159417445Y-84697100D01*
X159619255Y-84562255D01*
X159963604Y-84046901D01*
X160049222Y-83616466D01*
X163452001Y-83616466D01*
X163452001Y-84554536D01*
X163810985Y-85421201D01*
X164474301Y-86084517D01*
X165340966Y-86443501D01*
X166279036Y-86443501D01*
X167145701Y-86084517D01*
X167809017Y-85421201D01*
X168168001Y-84554536D01*
X168168001Y-83616466D01*
X167809017Y-82749801D01*
X167145701Y-82086485D01*
X166279036Y-81727501D01*
X165340966Y-81727501D01*
X164474301Y-82086485D01*
X163810985Y-82749801D01*
X163452001Y-83616466D01*
X160049222Y-83616466D01*
X160084523Y-83439000D01*
X159963604Y-82831099D01*
X159619255Y-82315745D01*
X159103901Y-81971396D01*
X158649450Y-81881000D01*
X158342550Y-81881000D01*
X157888099Y-81971396D01*
X157372745Y-82315745D01*
X157028396Y-82831099D01*
X156907477Y-83439000D01*
X157028396Y-84046901D01*
X157372745Y-84562255D01*
X157574555Y-84697100D01*
X157175191Y-85096464D01*
X156938000Y-85669095D01*
X156938000Y-86288905D01*
X157175191Y-86861536D01*
X157613464Y-87299809D01*
X157973355Y-87448880D01*
X157556819Y-87621416D01*
X157090416Y-88087819D01*
X156838000Y-88697203D01*
X154566000Y-88697203D01*
X154313584Y-88087819D01*
X153847181Y-87621416D01*
X153430645Y-87448880D01*
X153790536Y-87299809D01*
X154228809Y-86861536D01*
X154466000Y-86288905D01*
X154466000Y-85669095D01*
X154228809Y-85096464D01*
X153829445Y-84697100D01*
X154031255Y-84562255D01*
X154375604Y-84046901D01*
X154496523Y-83439000D01*
X154375604Y-82831099D01*
X154031255Y-82315745D01*
X153515901Y-81971396D01*
X153061450Y-81881000D01*
X152754550Y-81881000D01*
X152300099Y-81971396D01*
X151784745Y-82315745D01*
X151440396Y-82831099D01*
X151319477Y-83439000D01*
X151440396Y-84046901D01*
X151784745Y-84562255D01*
X151986555Y-84697100D01*
X151587191Y-85096464D01*
X151350000Y-85669095D01*
X151350000Y-86288905D01*
X151587191Y-86861536D01*
X152025464Y-87299809D01*
X152385355Y-87448880D01*
X151968819Y-87621416D01*
X151502416Y-88087819D01*
X151250000Y-88697203D01*
X148978000Y-88697203D01*
X148725584Y-88087819D01*
X148259181Y-87621416D01*
X147842645Y-87448880D01*
X148202536Y-87299809D01*
X148640809Y-86861536D01*
X148878000Y-86288905D01*
X148878000Y-85669095D01*
X148640809Y-85096464D01*
X148241445Y-84697100D01*
X148443255Y-84562255D01*
X148787604Y-84046901D01*
X148908523Y-83439000D01*
X148787604Y-82831099D01*
X148443255Y-82315745D01*
X147927901Y-81971396D01*
X147473450Y-81881000D01*
X147166550Y-81881000D01*
X146712099Y-81971396D01*
X146196745Y-82315745D01*
X145852396Y-82831099D01*
X145731477Y-83439000D01*
X145852396Y-84046901D01*
X146196745Y-84562255D01*
X146398555Y-84697100D01*
X145999191Y-85096464D01*
X145762000Y-85669095D01*
X145762000Y-86288905D01*
X145999191Y-86861536D01*
X146437464Y-87299809D01*
X146797355Y-87448880D01*
X146380819Y-87621416D01*
X145914416Y-88087819D01*
X145662000Y-88697203D01*
X143390000Y-88697203D01*
X143137584Y-88087819D01*
X142671181Y-87621416D01*
X142254645Y-87448880D01*
X142614536Y-87299809D01*
X143052809Y-86861536D01*
X143290000Y-86288905D01*
X143290000Y-85669095D01*
X143052809Y-85096464D01*
X142653445Y-84697100D01*
X142855255Y-84562255D01*
X143199604Y-84046901D01*
X143320523Y-83439000D01*
X143199604Y-82831099D01*
X142855255Y-82315745D01*
X142339901Y-81971396D01*
X141885450Y-81881000D01*
X141578550Y-81881000D01*
X141124099Y-81971396D01*
X140608745Y-82315745D01*
X140264396Y-82831099D01*
X140143477Y-83439000D01*
X140264396Y-84046901D01*
X140608745Y-84562255D01*
X140810555Y-84697100D01*
X140411191Y-85096464D01*
X140174000Y-85669095D01*
X140174000Y-86288905D01*
X140411191Y-86861536D01*
X140849464Y-87299809D01*
X141209355Y-87448880D01*
X140792819Y-87621416D01*
X140326416Y-88087819D01*
X140074000Y-88697203D01*
X137802000Y-88697203D01*
X137549584Y-88087819D01*
X137083181Y-87621416D01*
X136581646Y-87413673D01*
X136856537Y-87299809D01*
X137294810Y-86861536D01*
X137532001Y-86288905D01*
X137532001Y-85669095D01*
X137294810Y-85096464D01*
X136895446Y-84697100D01*
X137097256Y-84562255D01*
X137441605Y-84046901D01*
X137562524Y-83439000D01*
X137441605Y-82831099D01*
X137097256Y-82315745D01*
X136581902Y-81971396D01*
X136127451Y-81881000D01*
X135820551Y-81881000D01*
X135366100Y-81971396D01*
X134850746Y-82315745D01*
X134506397Y-82831099D01*
X134385478Y-83439000D01*
X132144523Y-83439000D01*
X132023604Y-82831099D01*
X131679255Y-82315745D01*
X131564000Y-82238734D01*
X131564000Y-82078526D01*
X131878517Y-81764010D01*
X139616716Y-81764010D01*
X139715990Y-81783757D01*
X139815264Y-81764010D01*
X140109292Y-81705524D01*
X140442717Y-81482737D01*
X140498954Y-81398572D01*
X146125526Y-75772001D01*
X146145629Y-75776000D01*
X146462371Y-75776000D01*
X146931410Y-75682702D01*
X147463303Y-75327303D01*
X147574000Y-75161633D01*
X147684697Y-75327303D01*
X148216590Y-75682702D01*
X148685629Y-75776000D01*
X149002371Y-75776000D01*
X149471410Y-75682702D01*
X150003303Y-75327303D01*
X150114000Y-75161633D01*
X150224697Y-75327303D01*
X150756590Y-75682702D01*
X151225629Y-75776000D01*
X151542371Y-75776000D01*
X152011410Y-75682702D01*
X152543303Y-75327303D01*
X152654000Y-75161633D01*
X152764697Y-75327303D01*
X153296590Y-75682702D01*
X153765629Y-75776000D01*
X154082371Y-75776000D01*
X154551410Y-75682702D01*
X155083303Y-75327303D01*
X155194000Y-75161633D01*
X155304697Y-75327303D01*
X155836590Y-75682702D01*
X156305629Y-75776000D01*
X156622371Y-75776000D01*
X157091410Y-75682702D01*
X157623303Y-75327303D01*
X157734000Y-75161633D01*
X157844697Y-75327303D01*
X158376590Y-75682702D01*
X158845629Y-75776000D01*
X159162371Y-75776000D01*
X159631410Y-75682702D01*
X160163303Y-75327303D01*
X160518702Y-74795410D01*
X160643502Y-74168000D01*
X160518702Y-73540590D01*
X160163303Y-73008697D01*
X159771660Y-72747010D01*
X161872484Y-72747010D01*
X163076001Y-73950528D01*
X163076000Y-76989726D01*
X163056253Y-77089000D01*
X163076000Y-77188273D01*
X163134486Y-77482301D01*
X163357273Y-77815727D01*
X163441438Y-77871964D01*
X164825037Y-79255564D01*
X164881273Y-79339727D01*
X165214698Y-79562514D01*
X165508726Y-79621000D01*
X165508730Y-79621000D01*
X165607999Y-79640746D01*
X165707268Y-79621000D01*
X165871600Y-79621000D01*
X165972697Y-79772303D01*
X166504590Y-80127702D01*
X166973629Y-80221000D01*
X167290371Y-80221000D01*
X167759410Y-80127702D01*
X168291303Y-79772303D01*
X168402000Y-79606633D01*
X168512697Y-79772303D01*
X169044590Y-80127702D01*
X169513629Y-80221000D01*
X169830371Y-80221000D01*
X170299410Y-80127702D01*
X170831303Y-79772303D01*
X171186702Y-79240410D01*
X171311502Y-78613000D01*
X171186702Y-77985590D01*
X170831303Y-77453697D01*
X170665633Y-77343000D01*
X170831303Y-77232303D01*
X171186702Y-76700410D01*
X171311502Y-76073000D01*
X171186702Y-75445590D01*
X170831303Y-74913697D01*
X170665633Y-74803000D01*
X170831303Y-74692303D01*
X171186702Y-74160410D01*
X171311502Y-73533000D01*
X171186702Y-72905590D01*
X170831303Y-72373697D01*
X170665633Y-72263000D01*
X170831303Y-72152303D01*
X171186702Y-71620410D01*
X171311502Y-70993000D01*
X171186702Y-70365590D01*
X170831303Y-69833697D01*
X170299410Y-69478298D01*
X169830371Y-69385000D01*
X169513629Y-69385000D01*
X169044590Y-69478298D01*
X168633178Y-69753194D01*
X168528487Y-69596513D01*
X168277757Y-69428980D01*
X167982000Y-69370150D01*
X166282000Y-69370150D01*
X165986243Y-69428980D01*
X165735513Y-69596513D01*
X165567980Y-69847243D01*
X165509150Y-70143000D01*
X165509150Y-71843000D01*
X165518740Y-71891213D01*
X163961359Y-70333832D01*
X164439109Y-70014609D01*
X164797515Y-69478218D01*
X164923370Y-68845501D01*
X164797515Y-68212784D01*
X164439109Y-67676393D01*
X163902718Y-67317987D01*
X163429715Y-67223901D01*
X163110287Y-67223901D01*
X162637284Y-67317987D01*
X162100893Y-67676393D01*
X162000001Y-67827388D01*
X161899109Y-67676393D01*
X161362718Y-67317987D01*
X160889715Y-67223901D01*
X160570287Y-67223901D01*
X160097284Y-67317987D01*
X159560893Y-67676393D01*
X159460001Y-67827388D01*
X159359109Y-67676393D01*
X158822718Y-67317987D01*
X158349715Y-67223901D01*
X158030287Y-67223901D01*
X157557284Y-67317987D01*
X157020893Y-67676393D01*
X156920001Y-67827388D01*
X156819109Y-67676393D01*
X156282718Y-67317987D01*
X155809715Y-67223901D01*
X155490287Y-67223901D01*
X155017284Y-67317987D01*
X154480893Y-67676393D01*
X154380001Y-67827388D01*
X154279109Y-67676393D01*
X153742718Y-67317987D01*
X153269715Y-67223901D01*
X152950287Y-67223901D01*
X152477284Y-67317987D01*
X151940893Y-67676393D01*
X151840001Y-67827388D01*
X151739109Y-67676393D01*
X151202718Y-67317987D01*
X150729715Y-67223901D01*
X150410287Y-67223901D01*
X149937284Y-67317987D01*
X149400893Y-67676393D01*
X149300001Y-67827388D01*
X149199109Y-67676393D01*
X148662718Y-67317987D01*
X148189715Y-67223901D01*
X147870287Y-67223901D01*
X147397284Y-67317987D01*
X146860893Y-67676393D01*
X146760001Y-67827388D01*
X146659109Y-67676393D01*
X146122718Y-67317987D01*
X145649715Y-67223901D01*
X145330287Y-67223901D01*
X144857284Y-67317987D01*
X144320893Y-67676393D01*
X143962487Y-68212784D01*
X143836632Y-68845501D01*
X143874433Y-69035542D01*
X143458874Y-69451102D01*
X142958909Y-69451102D01*
X143079370Y-68845501D01*
X142953515Y-68212784D01*
X142595109Y-67676393D01*
X142058718Y-67317987D01*
X141585715Y-67223901D01*
X141266287Y-67223901D01*
X140793284Y-67317987D01*
X140256893Y-67676393D01*
X140156001Y-67827388D01*
X140055109Y-67676393D01*
X139518718Y-67317987D01*
X139045715Y-67223901D01*
X138726287Y-67223901D01*
X138253284Y-67317987D01*
X137716893Y-67676393D01*
X137616001Y-67827388D01*
X137515109Y-67676393D01*
X136978718Y-67317987D01*
X136505715Y-67223901D01*
X136186287Y-67223901D01*
X135713284Y-67317987D01*
X135176893Y-67676393D01*
X135076001Y-67827388D01*
X134975109Y-67676393D01*
X134438718Y-67317987D01*
X133965715Y-67223901D01*
X133646287Y-67223901D01*
X133173284Y-67317987D01*
X132636893Y-67676393D01*
X132536001Y-67827388D01*
X132435109Y-67676393D01*
X131898718Y-67317987D01*
X131425715Y-67223901D01*
X131106287Y-67223901D01*
X130633284Y-67317987D01*
X130096893Y-67676393D01*
X129996001Y-67827388D01*
X129895109Y-67676393D01*
X129358718Y-67317987D01*
X128885715Y-67223901D01*
X128566287Y-67223901D01*
X128093284Y-67317987D01*
X127556893Y-67676393D01*
X127444831Y-67844105D01*
X127036693Y-67464954D01*
X126443625Y-67244496D01*
X126190001Y-67413406D01*
X126190001Y-68841501D01*
X126210001Y-68841501D01*
X126210001Y-68849501D01*
X126190001Y-68849501D01*
X126190001Y-70277596D01*
X126443625Y-70446506D01*
X127036693Y-70226048D01*
X127444831Y-69846897D01*
X127556893Y-70014609D01*
X128093284Y-70373015D01*
X128566287Y-70467101D01*
X128885715Y-70467101D01*
X129358718Y-70373015D01*
X129895109Y-70014609D01*
X129996001Y-69863614D01*
X130096893Y-70014609D01*
X130633284Y-70373015D01*
X131106287Y-70467101D01*
X131425715Y-70467101D01*
X131898718Y-70373015D01*
X132435109Y-70014609D01*
X132536001Y-69863614D01*
X132636893Y-70014609D01*
X133173284Y-70373015D01*
X133646287Y-70467101D01*
X133965715Y-70467101D01*
X134438718Y-70373015D01*
X134975109Y-70014609D01*
X135076001Y-69863614D01*
X135176893Y-70014609D01*
X135713284Y-70373015D01*
X135930292Y-70416180D01*
X133782475Y-72563999D01*
X133762371Y-72560000D01*
X133445629Y-72560000D01*
X132976590Y-72653298D01*
X132444697Y-73008697D01*
X132334000Y-73174367D01*
X132223303Y-73008697D01*
X131691410Y-72653298D01*
X131222371Y-72560000D01*
X130905629Y-72560000D01*
X130436590Y-72653298D01*
X129904697Y-73008697D01*
X129794000Y-73174367D01*
X129683303Y-73008697D01*
X129151410Y-72653298D01*
X128682371Y-72560000D01*
X128365629Y-72560000D01*
X127896590Y-72653298D01*
X127364697Y-73008697D01*
X127009298Y-73540590D01*
X126884498Y-74168000D01*
X127009298Y-74795410D01*
X127284194Y-75206822D01*
X127127513Y-75311513D01*
X126959980Y-75562243D01*
X126901150Y-75858000D01*
X126901150Y-77558000D01*
X126935761Y-77732000D01*
X120749273Y-77732000D01*
X120649999Y-77712253D01*
X120256698Y-77790486D01*
X119923273Y-78013273D01*
X119867039Y-78097434D01*
X118737438Y-79227036D01*
X118653273Y-79283273D01*
X118466692Y-79562513D01*
X118430486Y-79616699D01*
X118352253Y-80010000D01*
X118372000Y-80109274D01*
X118372001Y-82238734D01*
X118256745Y-82315745D01*
X117912396Y-82831099D01*
X117791477Y-83439000D01*
X117912396Y-84046901D01*
X118256745Y-84562255D01*
X118458555Y-84697100D01*
X118059191Y-85096464D01*
X117822000Y-85669095D01*
X117822000Y-86288905D01*
X118059191Y-86861536D01*
X118497464Y-87299809D01*
X118857355Y-87448880D01*
X118440819Y-87621416D01*
X117974416Y-88087819D01*
X117722000Y-88697203D01*
X115935719Y-88697203D01*
X115860388Y-88666000D01*
X115161012Y-88666000D01*
X114514873Y-88933640D01*
X114020340Y-89428173D01*
X113752700Y-90074312D01*
X112768700Y-90074312D01*
X112501060Y-89428173D01*
X112006527Y-88933640D01*
X111360388Y-88666000D01*
X110661012Y-88666000D01*
X110014873Y-88933640D01*
X109520340Y-89428173D01*
X109252700Y-90074312D01*
X109156061Y-90074312D01*
X108940609Y-89554164D01*
X108502336Y-89115891D01*
X107929705Y-88878700D01*
X107309895Y-88878700D01*
X106737264Y-89115891D01*
X106298991Y-89554164D01*
X106061800Y-90126795D01*
X103409424Y-90126795D01*
X98684601Y-85401973D01*
X98684601Y-83574312D01*
X109252700Y-83574312D01*
X109252700Y-84273688D01*
X109520340Y-84919827D01*
X110014873Y-85414360D01*
X110661012Y-85682000D01*
X111360388Y-85682000D01*
X112006527Y-85414360D01*
X112501060Y-84919827D01*
X112768700Y-84273688D01*
X112768700Y-83574312D01*
X113752700Y-83574312D01*
X113752700Y-84273688D01*
X114020340Y-84919827D01*
X114514873Y-85414360D01*
X115161012Y-85682000D01*
X115860388Y-85682000D01*
X116506527Y-85414360D01*
X117001060Y-84919827D01*
X117268700Y-84273688D01*
X117268700Y-83574312D01*
X117001060Y-82928173D01*
X116506527Y-82433640D01*
X115860388Y-82166000D01*
X115161012Y-82166000D01*
X114514873Y-82433640D01*
X114020340Y-82928173D01*
X113752700Y-83574312D01*
X112768700Y-83574312D01*
X112501060Y-82928173D01*
X112006527Y-82433640D01*
X111360388Y-82166000D01*
X110661012Y-82166000D01*
X110014873Y-82433640D01*
X109520340Y-82928173D01*
X109252700Y-83574312D01*
X98684601Y-83574312D01*
X98684601Y-79609512D01*
X109252700Y-79609512D01*
X109252700Y-80308888D01*
X109520340Y-80955027D01*
X110014873Y-81449560D01*
X110661012Y-81717200D01*
X111360388Y-81717200D01*
X112006527Y-81449560D01*
X112501060Y-80955027D01*
X112768700Y-80308888D01*
X112768700Y-79609512D01*
X113752700Y-79609512D01*
X113752700Y-80308888D01*
X114020340Y-80955027D01*
X114514873Y-81449560D01*
X115161012Y-81717200D01*
X115860388Y-81717200D01*
X116506527Y-81449560D01*
X117001060Y-80955027D01*
X117268700Y-80308888D01*
X117268700Y-79609512D01*
X117001060Y-78963373D01*
X116506527Y-78468840D01*
X115860388Y-78201200D01*
X115161012Y-78201200D01*
X114514873Y-78468840D01*
X114020340Y-78963373D01*
X113752700Y-79609512D01*
X112768700Y-79609512D01*
X112501060Y-78963373D01*
X112006527Y-78468840D01*
X111360388Y-78201200D01*
X110661012Y-78201200D01*
X110014873Y-78468840D01*
X109520340Y-78963373D01*
X109252700Y-79609512D01*
X98684601Y-79609512D01*
X98684601Y-75356641D01*
X99106139Y-75748319D01*
X99675925Y-75960188D01*
X99919600Y-75790495D01*
X99919600Y-74426000D01*
X99927600Y-74426000D01*
X99927600Y-75790495D01*
X100171275Y-75960188D01*
X100741061Y-75748319D01*
X101186396Y-75334530D01*
X101439481Y-74781817D01*
X101461788Y-74669675D01*
X101292094Y-74426000D01*
X99927600Y-74426000D01*
X99919600Y-74426000D01*
X99899600Y-74426000D01*
X99899600Y-74418000D01*
X99919600Y-74418000D01*
X99919600Y-73053505D01*
X99927600Y-73053505D01*
X99927600Y-74418000D01*
X101292094Y-74418000D01*
X101461788Y-74174325D01*
X101449410Y-74112095D01*
X105985600Y-74112095D01*
X105985600Y-74731905D01*
X106222791Y-75304536D01*
X106661064Y-75742809D01*
X107233695Y-75980000D01*
X107853505Y-75980000D01*
X108426136Y-75742809D01*
X108528162Y-75640783D01*
X119142874Y-75640783D01*
X119198829Y-75936189D01*
X119762358Y-76194261D01*
X120381750Y-76217035D01*
X120962709Y-76001044D01*
X121059771Y-75936189D01*
X121115726Y-75640783D01*
X120129300Y-74654357D01*
X119142874Y-75640783D01*
X108528162Y-75640783D01*
X108864409Y-75304536D01*
X109101600Y-74731905D01*
X109101600Y-74112095D01*
X108864409Y-73539464D01*
X108434457Y-73109512D01*
X109252700Y-73109512D01*
X109252700Y-73808888D01*
X109520340Y-74455027D01*
X110014873Y-74949560D01*
X110661012Y-75217200D01*
X111360388Y-75217200D01*
X112006527Y-74949560D01*
X112501060Y-74455027D01*
X112768700Y-73808888D01*
X112768700Y-73109512D01*
X113752700Y-73109512D01*
X113752700Y-73808888D01*
X114020340Y-74455027D01*
X114514873Y-74949560D01*
X115161012Y-75217200D01*
X115860388Y-75217200D01*
X116506527Y-74949560D01*
X116554937Y-74901150D01*
X118560965Y-74901150D01*
X118776956Y-75482109D01*
X118841811Y-75579171D01*
X119137217Y-75635126D01*
X120123643Y-74648700D01*
X120134957Y-74648700D01*
X121121383Y-75635126D01*
X121416789Y-75579171D01*
X121674861Y-75015642D01*
X121697635Y-74396250D01*
X121481644Y-73815291D01*
X121416789Y-73718229D01*
X121121383Y-73662274D01*
X120134957Y-74648700D01*
X120123643Y-74648700D01*
X119137217Y-73662274D01*
X118841811Y-73718229D01*
X118583739Y-74281758D01*
X118560965Y-74901150D01*
X116554937Y-74901150D01*
X117001060Y-74455027D01*
X117268700Y-73808888D01*
X117268700Y-73109512D01*
X117001060Y-72463373D01*
X116506527Y-71968840D01*
X116192572Y-71838795D01*
X118571300Y-71838795D01*
X118571300Y-72458605D01*
X118808491Y-73031236D01*
X119189216Y-73411961D01*
X119142874Y-73656617D01*
X120129300Y-74643043D01*
X121115726Y-73656617D01*
X121069384Y-73411961D01*
X121450109Y-73031236D01*
X121687300Y-72458605D01*
X121687300Y-71838795D01*
X121450109Y-71266164D01*
X121011836Y-70827891D01*
X120439205Y-70590700D01*
X119819395Y-70590700D01*
X119246764Y-70827891D01*
X118808491Y-71266164D01*
X118571300Y-71838795D01*
X116192572Y-71838795D01*
X115860388Y-71701200D01*
X115161012Y-71701200D01*
X114514873Y-71968840D01*
X114020340Y-72463373D01*
X113752700Y-73109512D01*
X112768700Y-73109512D01*
X112501060Y-72463373D01*
X112006527Y-71968840D01*
X111360388Y-71701200D01*
X110661012Y-71701200D01*
X110014873Y-71968840D01*
X109520340Y-72463373D01*
X109252700Y-73109512D01*
X108434457Y-73109512D01*
X108426136Y-73101191D01*
X107853505Y-72864000D01*
X107233695Y-72864000D01*
X106661064Y-73101191D01*
X106222791Y-73539464D01*
X105985600Y-74112095D01*
X101449410Y-74112095D01*
X101439481Y-74062183D01*
X101186396Y-73509470D01*
X100741061Y-73095681D01*
X100171275Y-72883812D01*
X99927600Y-73053505D01*
X99919600Y-73053505D01*
X99777714Y-72954697D01*
X100041302Y-72560210D01*
X100166102Y-71932800D01*
X100041302Y-71305390D01*
X99685903Y-70773497D01*
X99154010Y-70418098D01*
X98684971Y-70324800D01*
X98368229Y-70324800D01*
X97899190Y-70418098D01*
X97367297Y-70773497D01*
X97256600Y-70939167D01*
X97145903Y-70773497D01*
X96614010Y-70418098D01*
X96144971Y-70324800D01*
X95828229Y-70324800D01*
X95359190Y-70418098D01*
X94947778Y-70692994D01*
X94843087Y-70536313D01*
X94592357Y-70368780D01*
X94296600Y-70309950D01*
X92596600Y-70309950D01*
X92300843Y-70368780D01*
X92050113Y-70536313D01*
X91882580Y-70787043D01*
X91823750Y-71082800D01*
X91638000Y-71082800D01*
X91638000Y-64524082D01*
X92585730Y-64524082D01*
X92585730Y-65422318D01*
X92929470Y-66252180D01*
X93564620Y-66887330D01*
X94394482Y-67231070D01*
X95292718Y-67231070D01*
X96122580Y-66887330D01*
X96757730Y-66252180D01*
X97101470Y-65422318D01*
X97101470Y-64524082D01*
X96757730Y-63694220D01*
X96122580Y-63059070D01*
X95292718Y-62715330D01*
X94394482Y-62715330D01*
X93564620Y-63059070D01*
X92929470Y-63694220D01*
X92585730Y-64524082D01*
X91638000Y-64524082D01*
X91638000Y-61793000D01*
X103393737Y-61793000D01*
X103153513Y-61953513D01*
G04 #@! TD*
M02*
