M48
;DRILL file {KiCad 5.0.2+dfsg1-1~bpo9+1} date jue 17 jun 2021 18:16:42 -03
;FORMAT={-:-/ absolute / metric / decimal}
FMAT,2
METRIC,TZ
T1C0.701
T2C0.750
T3C0.800
T4C0.900
T5C1.000
T6C1.016
T7C1.100
T8C1.300
%
G90
G05
T1
X128.Y-98.72
X128.Y-101.219
X128.Y-103.718
T2
X132.017Y-111.125
X133.286Y-109.855
X134.556Y-111.125
T3
X141.732Y-83.439
X141.732Y-85.979
X99.924Y-74.422
X107.544Y-74.422
X100.Y-90.437
X107.62Y-90.437
X152.908Y-83.439
X152.908Y-85.979
X120.129Y-72.149
X120.129Y-74.649
X120.523Y-97.028
X120.523Y-99.528
X154.432Y-96.139
X154.432Y-98.679
X130.556Y-83.439
X130.556Y-85.979
X158.496Y-83.439
X158.496Y-85.979
X134.112Y-102.235
X134.112Y-104.735
X147.32Y-83.439
X147.32Y-85.979
X102.108Y-93.916
X102.108Y-101.536
X102.108Y-105.474
X109.728Y-105.474
X159.004Y-96.139
X159.004Y-98.679
X124.968Y-83.439
X124.968Y-85.979
X114.3Y-105.41
X114.3Y-107.91
X96.444Y-88.29
X96.444Y-90.79
X149.86Y-96.139
X149.86Y-98.679
X106.68Y-94.361
X106.68Y-96.901
X106.68Y-99.441
X106.68Y-101.981
X114.3Y-94.361
X114.3Y-96.901
X114.3Y-99.441
X114.3Y-101.981
X135.974Y-83.439
X135.974Y-85.979
X145.288Y-96.139
X145.288Y-98.679
X119.38Y-83.439
X119.38Y-85.979
X151.384Y-103.251
X151.384Y-110.871
X153.924Y-103.251
X153.924Y-110.871
X156.464Y-103.251
X156.464Y-110.871
X159.004Y-103.251
X159.004Y-110.871
T4
X124.904Y-89.027
X124.904Y-91.567
X119.38Y-89.027
X119.38Y-91.567
X130.556Y-89.027
X130.556Y-91.567
X147.32Y-89.027
X147.32Y-91.567
X136.144Y-89.027
X136.144Y-91.567
X158.496Y-89.027
X158.496Y-91.567
X141.732Y-89.027
X141.732Y-91.567
X152.908Y-89.027
X152.908Y-91.567
T5
X104.55Y-63.35
X104.55Y-65.89
X104.55Y-68.43
X104.55Y-70.97
X107.09Y-63.35
X107.09Y-65.89
X107.09Y-68.43
X107.09Y-70.97
X140.716Y-110.363
X143.256Y-110.363
X145.796Y-110.363
X158.178Y-64.008
X160.719Y-64.008
X163.258Y-64.008
X93.447Y-71.933
X95.987Y-71.933
X98.527Y-71.933
X167.132Y-70.993
X167.132Y-73.533
X167.132Y-76.073
X167.132Y-78.613
X169.672Y-70.993
X169.672Y-73.533
X169.672Y-76.073
X169.672Y-78.613
X141.224Y-74.168
X143.764Y-74.168
X146.304Y-74.168
X148.844Y-74.168
X151.384Y-74.168
X153.924Y-74.168
X156.464Y-74.168
X159.004Y-74.168
X128.524Y-74.168
X128.524Y-76.708
X131.064Y-74.168
X131.064Y-76.708
X133.604Y-74.168
X133.604Y-76.708
X136.144Y-74.168
X136.144Y-76.708
X119.38Y-116.586
X121.92Y-116.586
X166.497Y-98.806
X166.497Y-101.346
X166.497Y-103.886
X166.497Y-106.426
X140.716Y-103.759
X143.256Y-103.759
X145.796Y-103.759
X119.38Y-111.252
X121.92Y-111.252
X124.46Y-111.252
T6
X118.566Y-68.846
X121.106Y-68.846
X123.646Y-68.846
X126.186Y-68.846
X127.71Y-117.106
X128.726Y-68.846
X130.25Y-117.106
X131.266Y-68.846
X132.79Y-117.106
X133.806Y-68.846
X135.33Y-117.106
X136.346Y-68.846
X137.87Y-117.106
X138.886Y-68.846
X140.41Y-117.106
X141.426Y-68.846
X142.95Y-117.106
X145.49Y-68.846
X145.49Y-117.106
X148.03Y-68.846
X150.57Y-68.846
X150.57Y-117.106
X153.11Y-68.846
X153.11Y-117.106
X155.65Y-68.846
X155.65Y-117.106
X158.19Y-68.846
X158.19Y-117.106
X160.73Y-68.846
X160.73Y-117.106
X163.27Y-68.846
X163.27Y-117.106
X163.397Y-89.166
X163.397Y-91.706
X163.397Y-94.246
X165.937Y-89.166
X165.937Y-91.706
X165.937Y-94.246
T7
X111.011Y-83.924
X111.011Y-90.424
X115.511Y-83.924
X115.511Y-90.424
X111.011Y-73.459
X111.011Y-79.959
X115.511Y-73.459
X115.511Y-79.959
T8
X93.98Y-96.012
X93.98Y-101.012
X93.98Y-106.012
T0
M30
